<?xml version="1.0" encoding="utf-8"?>
<!-- Generator: Adobe Illustrator 27.3.0, SVG Export Plug-In . SVG Version: 6.00 Build 0)  -->
<svg version="1.1" id="Layer_1" xmlns="http://www.w3.org/2000/svg" xmlns:xlink="http://www.w3.org/1999/xlink" x="0px" y="0px"
	 viewBox="0 0 512 512" style="enable-background:new 0 0 512 512;" xml:space="preserve">
<style type="text/css">
	.st0{fill:#D7D7D7;}
	.st1{fill:#25B04B;}
	.st2{fill:#112A4C;}
	.st3{fill:#BE202E;}
</style>
<g>
	<path class="st0" d="M461.3,114H50.7c-4.2,0-7.6-3.4-7.6-7.6c0-4.2,3.4-7.6,7.6-7.6h410.5c4.2,0,7.6,3.4,7.6,7.6
		C468.8,110.6,465.4,114,461.3,114z"/>
	<path class="st0" d="M461.3,263.6H50.7c-4.2,0-7.6-3.4-7.6-7.6s3.4-7.6,7.6-7.6h410.5c4.2,0,7.6,3.4,7.6,7.6
		S465.4,263.6,461.3,263.6z"/>
	<path class="st0" d="M461.3,412.8H50.7c-4.2,0-7.6-3.4-7.6-7.6c0-4.2,3.4-7.6,7.6-7.6h410.5c4.2,0,7.6,3.4,7.6,7.6
		C468.8,409.4,465.4,412.8,461.3,412.8z"/>
</g>
<path class="st1" d="M28.7,507h-1.2c-12.4,0-22.4-10-22.4-22.4V27.4C5.1,15,15.1,5,27.5,5h1.2c12.4,0,22.4,10,22.4,22.4v457.3
	C51.1,497,41.1,507,28.7,507z"/>
<path class="st1" d="M484.5,507h-1.2c-12.4,0-22.4-10-22.4-22.4V27.4c0-12.4,10-22.4,22.4-22.4h1.2c12.4,0,22.4,10,22.4,22.4v457.3
	C506.9,497,496.9,507,484.5,507z"/>
<circle class="st2" cx="144.2" cy="104.5" r="47.5"/>
<circle class="st3" cx="257.4" cy="104.5" r="47.5"/>
<circle class="st2" cx="366.4" cy="104.5" r="47.5"/>
<circle class="st3" cx="144.2" cy="251.8" r="47.5"/>
<circle class="st2" cx="257.4" cy="251.8" r="47.5"/>
<circle class="st3" cx="366.4" cy="251.8" r="47.5"/>
<circle class="st2" cx="144.2" cy="397.6" r="47.5"/>
<circle class="st3" cx="257.4" cy="397.6" r="47.5"/>
<circle class="st2" cx="366.4" cy="397.6" r="47.5"/>
</svg>
