<?xml version="1.0" encoding="utf-8"?>
<!-- Generator: Adobe Illustrator 27.3.0, SVG Export Plug-In . SVG Version: 6.00 Build 0)  -->
<svg version="1.1" id="Airplane" xmlns="http://www.w3.org/2000/svg" xmlns:xlink="http://www.w3.org/1999/xlink" x="0px" y="0px"
	 viewBox="0 0 512 512" style="enable-background:new 0 0 512 512;" xml:space="preserve">
<style type="text/css">
	.st0{fill:#BE1E2D;}
	.st1{fill:#00ADEE;}
	.st2{fill:#12284C;}
</style>
<path class="st0" d="M32.9,290.3l88.1,56.6c4.6-7.7,10.3-16.1,16.7-25.1c3.8-5.2,7.9-10.9,12.4-16.7c-23.2-3.8-64.8-10.1-114.5-17.3
	L32.9,290.3z"/>
<path class="st1" d="M196.4,332.4L179,349.9c27.1-19.7,62.1-48.4,104.3-85.4c77.9-68.2,155.7-143.4,163.4-151
	c7.4-7.4,19-25.3,26.8-44.9c8.4-21.2,7.4-33,4.7-35.7c-0.4-0.4-2.3-1.9-8-1.9c-7.1,0-16.7,2.3-27.7,6.6
	c-19.6,7.7-37.4,19.3-44.9,26.8c-7.6,7.6-82.1,84.7-151,163.4c-25.2,28.8-46.9,54.6-64.3,76.7l-1.8,2.3
	c-7.3,9.3-13.8,17.8-19.3,25.3l17.4-17.4L196.4,332.4z"/>
<path class="st0" d="M222.4,475.1c-6.7-47.1-13-89.2-17-113.6c-5.7,4.3-11.1,8.3-16.1,11.9h0c-9.1,6.5-17.6,12.2-25.3,16.8l56,87.3
	L222.4,475.1z"/>
<path class="st0" d="M327.7,101.4L72.3,43.9c-2.6-0.6-4.4,0-4.8,0.3L44,67.7c0.5,0.5,1.3,1.3,2.6,1.9l212.9,106
	C281.1,151.5,304,126.6,327.7,101.4z"/>
<path class="st0" d="M334.6,252.6l105.1,211.2c0.6,1.2,1.3,2.1,1.9,2.6l23.5-23.5c0.3-0.4,0.8-2.3,0.2-4.7l-57-253.3
	C383.2,208.4,358.4,231.2,334.6,252.6z"/>
<path class="st2" d="M219.4,505c5.6,0,10.9-2.2,14.8-6.2l7.6-7.6c4.7-4.7,6.9-11.3,5.9-17.9c-1-6.7-6.1-42-11.3-76
	c-4-26.7-6.8-43.8-8.5-53.4c21-16.8,45.2-37.2,71.9-60.5c4.7-4.1,9.6-8.5,15.3-13.5l102.1,205c4.5,9,12.4,15.2,21.1,16.7
	c1.3,0.2,2.6,0.3,3.9,0.3c6.1,0,11.7-2.3,16.1-6.7l24.7-24.7c6.7-6.7,9.4-17.4,7-28l-60.2-267.8c19.4-18.4,32-30.7,34.8-33.5
	c11-11,24.3-32.9,32.4-53.4c8-20.2,14.3-47.4-0.9-62.6c-8.4-8.4-26-15.3-62.6-0.9c-20.4,8.1-42.4,21.4-53.4,32.4
	c-2.7,2.7-14.5,14.8-32.2,33.4L77.8,19.4c-10.6-2.4-21.3,0.3-28,7L25.1,51c-5.4,5.4-7.7,12.4-6.4,19.9c1.4,8.7,7.7,16.6,16.7,21.1
	L242.1,195c-5.4,6.1-10,11.3-14.4,16.3c-23.1,26.4-43.3,50.4-60,71.3c-9.3-1.7-26.8-4.5-54.6-8.7c-21.3-3.2-47.6-7.1-76.1-11.3
	c-6.6-0.9-13.2,1.3-17.8,5.9l-7.6,7.6c-4.5,4.5-6.7,10.8-6,17.1c0.7,6.3,4.1,12,9.5,15.4l94.4,60.6c-2.1,5.3-4,11.8-3.4,18.1
	l-17.1,17.1l17.8,17.8l17.2-17.2c0.7,0.1,1.5,0.2,2.3,0.2c5.5,0,11-1.7,15.4-3.4l60.1,93.5c3.5,5.4,9.1,8.8,15.3,9.5
	C217.8,505,218.5,505,219.4,505z M465.3,438.1c0.5,2.4,0.1,4.3-0.2,4.7l-23.5,23.5c-0.5-0.5-1.3-1.3-1.9-2.6L334.6,252.6
	c23.8-21.4,48.6-44.2,73.8-67.8L465.3,438.1z M46.5,69.6c-1.2-0.6-2.1-1.3-2.6-1.9l23.5-23.5c0.3-0.3,2.1-0.9,4.8-0.3l255.4,57.5
	c-23.7,25.2-46.6,50.1-68.2,74.2L46.5,69.6z M137.7,321.8c-6.5,9-12.1,17.4-16.7,25.1l-88.1-56.6l2.7-2.6
	c49.6,7.2,91.2,13.5,114.5,17.3C145.6,310.9,141.5,316.6,137.7,321.8z M180.6,306.8l1.8-2.3c17.4-22.1,39.1-47.9,64.3-76.7
	c68.9-78.7,143.4-155.8,151-163.4c7.4-7.4,25.2-19,44.9-26.8c11-4.3,20.5-6.6,27.7-6.6c5.6,0,7.5,1.5,8,1.9
	c2.7,2.7,3.7,14.4-4.7,35.7c-7.7,19.6-19.3,37.4-26.8,44.9c-7.7,7.7-85.4,82.8-163.4,151c-42.2,36.9-77.2,65.6-104.3,85.4l17.4-17.4
	l-17.8-17.8l-17.4,17.4C166.8,324.6,173.2,316.1,180.6,306.8z M164,390.2c7.7-4.7,16.2-10.3,25.3-16.8h0c5-3.6,10.4-7.6,16.1-11.9
	c3.9,24.4,10.2,66.5,17,113.6l-2.4,2.4L164,390.2z"/>
</svg>
