<?xml version="1.0" encoding="utf-8"?>
<!-- Generator: Adobe Illustrator 27.3.0, SVG Export Plug-In . SVG Version: 6.00 Build 0)  -->
<svg version="1.1" id="Layer_1" xmlns="http://www.w3.org/2000/svg" xmlns:xlink="http://www.w3.org/1999/xlink" x="0px" y="0px"
	 viewBox="0 0 512 512" style="enable-background:new 0 0 512 512;" xml:space="preserve">
<style type="text/css">
	.st0{fill:#DBE5EA;}
	.st1{fill:none;}
	.st2{fill:#1B53A4;}
	.st3{fill:#102A4C;}
	.st4{fill:#BE202E;}
	.st5{fill:#FDCD07;}
	.st6{fill:#FBB816;}
</style>
<rect x="16.2" y="107" class="st0" width="477.4" height="363.2"/>
<g>
	<path class="st1" d="M102.6,69.9c0.8,7.3,7.7,12.7,15.3,11.9h1.4h0.1c7.7-0.4,13.6-6.7,13.1-14.1c-0.4-7.4-7-13-14.7-12.6h-2.8
		c-0.1,0-0.1,0-0.1,0c-7.6,0.8-13.2,7.3-12.4,14.7C102.6,69.8,102.6,69.9,102.6,69.9z"/>
	<path class="st1" d="M158.2,69.9c0.8,7.3,7.7,12.7,15.3,11.9h1.4h0.1c7.7-0.4,13.6-6.7,13.1-14.1c-0.4-7.4-7-13-14.7-12.6h-2.8
		c-0.1,0-0.1,0-0.1,0c-7.6,0.8-13.2,7.3-12.4,14.7C158.2,69.8,158.2,69.9,158.2,69.9z"/>
	<path class="st1" d="M34.4,443.6c-0.1,13.8,10.8,25.3,25,26.7h200.3V121.9H34.4V443.6z"/>
	<path class="st1" d="M250.1,68.4c0,5.9,4.1,10.9,9.6,12.6V55.8C254.1,57.5,250.1,62.5,250.1,68.4z"/>
	<path class="st1" d="M62.2,81.8h1.4h0.1c7.7-0.4,13.6-6.7,13.1-14.1s-7-13-14.7-12.6h-2.6c-6.6,1.2-11.4,6.9-11.3,13.4
		C48.3,75.8,54.5,81.8,62.2,81.8z"/>
	<path class="st2" d="M59.4,470.3c-14.3-1.4-25.1-12.9-25-26.7V121.9h225.3V81.1c-5.6-1.7-9.6-6.7-9.6-12.6s4.1-10.9,9.6-12.6V15
		H48.3C25.2,15,6.5,32.9,6.5,55.1v388.5c-0.2,27.5,21.5,50.6,50,53.4h203.2v-26.7H59.4z M170.6,55.1c0,0,0.1,0,0.1,0h2.8
		c7.7-0.4,14.3,5.2,14.7,12.6c0.4,7.4-5.5,13.7-13.1,14.1h-0.1h-1.4c-7.6,0.8-14.5-4.5-15.3-11.9c0,0,0-0.1,0-0.1
		C157.4,62.4,162.9,55.9,170.6,55.1z M114.9,55.1c0,0,0.1,0,0.1,0h2.8c7.7-0.4,14.3,5.2,14.7,12.6c0.4,7.4-5.5,13.7-13.1,14.1h-0.1
		h-1.4c-7.6,0.8-14.5-4.5-15.3-11.9c0,0,0-0.1,0-0.1C101.8,62.4,107.3,55.9,114.9,55.1z M59.6,55.1h2.6c7.7-0.4,14.3,5.2,14.7,12.6
		s-5.5,13.7-13.1,14.1h-0.1h-1.4c-7.7,0-13.9-6-13.9-13.4C48.2,61.9,52.9,56.3,59.6,55.1z"/>
	<path class="st3" d="M507.5,443.6v-53.4c0-7.4-6.2-13.4-13.9-13.4s-13.9,6-13.9,13.4v53.4c0,14.3-11.6,26-26.4,26.7H259.7V497
		h196.5C485.2,494.8,507.6,471.5,507.5,443.6z"/>
	<path class="st3" d="M264,55.1h173.9c7.7,0,13.9,6,13.9,13.4s-6.2,13.4-13.9,13.4H264c-1.5,0-2.9-0.3-4.3-0.7v40.8h220V202
		c0,7.4,6.2,13.4,13.9,13.4c5.4,0,10.2-3,12.5-7.6c0.9-1.8,1.3-3.8,1.4-5.7V55.1c0-22.1-18.7-40.1-41.7-40.1h-206v40.8
		C261,55.4,262.5,55.1,264,55.1z"/>
	<path class="st3" d="M493.6,242.1c-7.7,0-13.9,6-13.9,13.4c0,7.4,6.2,13.4,13.9,13.4c7.7,0,13.9-6,13.9-13.4
		C507.5,248.1,501.2,242.1,493.6,242.1z"/>
</g>
<g>
	<path class="st4" d="M180,308.9h-65.7L103.8,340H58.9l63.7-175.9h49.6L235.8,340h-45.4L180,308.9z M147.1,211.4l-21.6,64.4h43.4
		L147.1,211.4z"/>
	<path class="st4" d="M317.3,276.9h-26.6V340h-42.9V164.1h69.4c43.1,0,64.7,24.3,64.7,56.6C382,249.8,362.2,276.9,317.3,276.9z
		 M314,242.8c17,0,24.3-8.5,24.3-22.1s-7.3-22.1-24.3-22.1h-23.3v44.1H314z"/>
	<path class="st4" d="M397,164.1h42.9V340H397V164.1z"/>
</g>
<g>
	<g>
		<path class="st1" d="M238.7,388.7l-22.3,0c-8.6,0-15.7,7-15.7,15.7c0,8.6,7,15.7,15.7,15.7l22.3,0c-2.3-4.7-3.6-10.1-3.6-15.7
			C235.1,398.7,236.4,393.4,238.7,388.7L238.7,388.7z"/>
	</g>
	<g>
		<path class="st1" d="M288.3,420.1l22.3,0c8.6,0,15.7-7,15.7-15.7c0-8.6-7-15.7-15.7-15.7l-22.3,0c2.3,4.7,3.6,10.1,3.6,15.7
			C291.9,410,290.6,415.3,288.3,420.1L288.3,420.1z"/>
	</g>
	<g>
		<ellipse class="st1" cx="263.5" cy="404.4" rx="8" ry="13.7"/>
	</g>
	<g>
		<path class="st5" d="M288.3,388.7l-17.2,0c-2.8,0-5.4,0.7-7.6,2c4.8,2.7,8,7.8,8,13.7c0,5.9-3.3,11-8,13.7c-2.3,1.3-4.9,2-7.6,2
			l-17.2,0l-22.3,0c-8.6,0-15.7-7-15.7-15.7c0-8.6,7-15.7,15.7-15.7l22.3,0c4.8-9.8,13.9-17.2,24.8-19.5c-2.5-0.5-5-0.8-7.6-0.8
			l-39.5,0c-19.9,0-36.1,16.2-36.1,36s16.2,36.1,36,36.1l39.5,0c2.6,0,5.2-0.3,7.6-0.8c10.9-2.4,20.1-9.7,24.8-19.5
			c2.3-4.7,3.6-10.1,3.6-15.7C291.9,398.8,290.6,393.5,288.3,388.7L288.3,388.7z"/>
	</g>
	<g>
		<path class="st6" d="M271.5,404.4c0,5.9-3.3,11-8,13.7c-2.3,1.3-4.9,2-7.6,2l-17.2,0l-22.3,0c-8.6,0-15.7-7-15.7-15.7
			c0-0.1,0-0.3,0-0.4l-20.4,0c0,0.1,0,0.3,0,0.4c0,19.9,16.2,36.1,36,36.1l39.5,0c2.6,0,5.2-0.3,7.6-0.8
			c10.9-2.4,20.1-9.7,24.8-19.5c2.3-4.7,3.6-10.1,3.6-15.7L271.5,404.4z"/>
	</g>
	<g>
		<path class="st3" d="M310.6,368.3l-39.5,0c-2.6,0-5.2,0.3-7.6,0.8c-10.9,2.4-20.1,9.7-24.8,19.5c-2.3,4.7-3.6,10.1-3.6,15.7
			c0,5.6,1.3,10.9,3.6,15.7l17.2,0c2.8,0,5.4-0.7,7.6-2c-4.8-2.7-8-7.8-8-13.7c0-5.9,3.3-11,8-13.7c2.3-1.3,4.9-2,7.6-2l17.2,0
			l22.3,0c8.6,0,15.7,7,15.7,15.7c0,8.6-7,15.7-15.7,15.7l-22.3,0c-4.8,9.8-13.9,17.2-24.8,19.5c2.5,0.5,5,0.8,7.6,0.8l39.5,0
			c19.9,0,36.1-16.2,36.1-36C346.7,384.5,330.5,368.4,310.6,368.3L310.6,368.3z"/>
	</g>
	<g>
		<path class="st2" d="M235.1,404.4c0,5.6,1.3,10.9,3.6,15.7l17.2,0c2.8,0,5.4-0.7,7.6-2c-4.8-2.7-8-7.8-8-13.7L235.1,404.4z"/>
		<path class="st2" d="M326.3,404.4c0,8.6-7,15.7-15.7,15.7l-22.3,0c-4.8,9.8-13.9,17.2-24.8,19.5c2.5,0.5,5,0.8,7.6,0.8l39.5,0
			c19.9,0,36.1-16.2,36.1-36L326.3,404.4z"/>
	</g>
</g>
</svg>
