<?xml version="1.0" encoding="utf-8"?>
<!-- Generator: Adobe Illustrator 27.3.0, SVG Export Plug-In . SVG Version: 6.00 Build 0)  -->
<svg version="1.1" id="Layer_1" xmlns="http://www.w3.org/2000/svg" xmlns:xlink="http://www.w3.org/1999/xlink" x="0px" y="0px"
	 viewBox="0 0 488 488" style="enable-background:new 0 0 488 488;" xml:space="preserve">
<style type="text/css">
	.st0{fill:#DBE5EA;}
	.st1{fill:none;}
	.st2{fill:#4FC3CB;}
	.st3{fill:#07B4C0;}
	.st4{fill-rule:evenodd;clip-rule:evenodd;fill:#FFFFFF;}
	.st5{fill-rule:evenodd;clip-rule:evenodd;fill:#F1CC31;}
	.st6{fill-rule:evenodd;clip-rule:evenodd;fill:#F6921E;}
	.st7{fill-rule:evenodd;clip-rule:evenodd;fill:#12284C;}
	.st8{fill:#FFFFFF;}
	.st9{fill:#12284C;}
</style>
<rect x="13.7" y="104.4" class="st0" width="456.6" height="347.4"/>
<g>
	<path class="st1" d="M96.3,68.8c0.8,7,7.3,12.1,14.6,11.4h1.3h0.1c7.4-0.4,13-6.4,12.6-13.5c-0.4-7.1-6.7-12.5-14-12.1h-2.7
		c-0.1,0-0.1,0-0.1,0c-7.3,0.7-12.6,7-11.8,14C96.3,68.8,96.3,68.8,96.3,68.8z"/>
	<path class="st1" d="M149.5,68.8c0.8,7,7.3,12.1,14.6,11.4h1.3h0.1c7.4-0.4,13-6.4,12.6-13.5c-0.4-7.1-6.7-12.5-14-12.1h-2.7
		c-0.1,0-0.1,0-0.1,0c-7.3,0.7-12.6,7-11.8,14C149.5,68.8,149.5,68.8,149.5,68.8z"/>
	<path class="st1" d="M31.1,426.2c-0.1,13.2,10.3,24.2,24,25.6h191.5V118.5H31.1V426.2z"/>
	<path class="st1" d="M237.4,67.4c0,5.7,3.9,10.4,9.2,12.1V55.3C241.2,57,237.4,61.8,237.4,67.4z"/>
	<path class="st1" d="M57.7,80.2H59h0.1c7.4-0.4,13-6.4,12.6-13.5c-0.4-7.1-6.7-12.5-14-12.1h-2.5c-6.4,1.2-10.9,6.6-10.8,12.8
		C44.4,74.5,50.3,80.2,57.7,80.2z"/>
	<path class="st2" d="M55,451.8c-13.7-1.3-24-12.4-24-25.6V118.5h215.5v-39c-5.3-1.7-9.2-6.4-9.2-12.1s3.9-10.4,9.2-12.1v-39H44.4
		c-22.1,0-39.9,17.2-39.9,38.3v371.6c-0.1,26.3,20.5,48.4,47.8,51.1h194.3v-25.6H55z M161.4,54.7c0,0,0.1,0,0.1,0h2.7
		c7.4-0.4,13.6,5,14,12.1c0.4,7.1-5.2,13.1-12.6,13.5h-0.1h-1.3c-7.3,0.7-13.9-4.3-14.6-11.4c0,0,0-0.1,0-0.1
		C148.7,61.7,154,55.4,161.4,54.7z M108.1,54.7c0,0,0.1,0,0.1,0h2.7c7.4-0.4,13.6,5,14,12.1c0.4,7.1-5.2,13.1-12.6,13.5h-0.1h-1.3
		c-7.3,0.7-13.9-4.3-14.6-11.4c0,0,0-0.1,0-0.1C95.5,61.7,100.8,55.4,108.1,54.7z M55.2,54.7h2.5c7.4-0.4,13.6,5,14,12.1
		c0.4,7.1-5.2,13.1-12.6,13.5H59h-1.3c-7.4,0-13.3-5.7-13.3-12.8C44.3,61.2,48.8,55.8,55.2,54.7z"/>
	<path class="st3" d="M483.6,426.2v-51.1c0-7.1-6-12.8-13.3-12.8c-7.4,0-13.3,5.7-13.3,12.8v51.1c0,13.6-11.1,24.9-25.3,25.6H246.6
		v25.6h187.9C462.2,475.3,483.6,453,483.6,426.2z"/>
	<path class="st3" d="M250.7,54.7H417c7.4,0,13.3,5.7,13.3,12.8s-6,12.8-13.3,12.8H250.7c-1.4,0-2.8-0.3-4.1-0.7v39h210.4v76.7
		c0,7.1,6,12.8,13.3,12.8c5.1,0,9.8-2.8,12-7.3c0.8-1.7,1.3-3.6,1.3-5.5V54.7c0-21.2-17.9-38.3-39.9-38.3H246.6v39
		C247.9,54.9,249.2,54.7,250.7,54.7z"/>
	<path class="st2" d="M470.2,233.5c-7.4,0-13.3,5.7-13.3,12.8c0,7.1,6,12.8,13.3,12.8c7.3,0,13.3-5.7,13.3-12.8
		C483.6,239.2,477.6,233.5,470.2,233.5z"/>
</g>
<path class="st4" d="M112.2,301.1l62.3,161.1c1,2.6,3.9,3.8,6.5,2.9l74.8-28.9l110.7-42.8l15.9-6.1l65.2-25.2c2.6-1,3.8-3.9,2.8-6.5
	L421.1,280L340.3,70.8l-0.8-2.2L291.9,87c-4.6,1.7-13.8,6.1-17.9-4.3L256,36.3L46.6,117.3c-2.6,1-3.8,3.9-2.8,6.5l15.6,40.2l6.5,17
	L112.2,301.1z"/>
<path class="st5" d="M421.2,279.8l-80.9-209l-0.8-2.2l-0.3-0.7c-0.5-1.4-1.2-1.3-4-2.6l-70.3-29.1c-3.3-1.4-3.9-1.8-5.4-1.2
	l-3.5,1.4L46.6,117.3c-2.6,1-3.8,3.9-2.8,6.5l130.7,338.4c1,2.6,3.9,3.8,6.5,2.9l266.5-103c2.6-1,3.8-3.9,2.8-6.5L421.2,279.8z"/>
<path class="st6" d="M421.2,279.8l-80.9-209l-0.8-2.2c-1-2.5-1.8-2.3-4.3-3.3l-70.3-29.1c-3.3-1.4-3.9-1.8-5.4-1.2l-3.5,1.4
	l-52.1,20.2c96.7,60.6,159.7,212.9,149.5,327.1c-0.5,5.3-1.1,10.5-1.9,15.6l15-5.8l15.9-6.1l65.2-25.2c2.6-1,3.8-3.9,2.8-6.5
	L421.2,279.8z"/>
<path class="st4" d="M274,82.7c4,10.4,13.3,6,17.9,4.3l47.6-18.4l-0.3-0.7c-0.5-1.4-1.2-1.3-4-2.6l-70.3-29.1
	c-3.3-1.4-3.9-1.8-5.4-1.2l-3.5,1.4L274,82.7z"/>
<path class="st7" d="M335.2,65.3l-70.3-29.1c-3.3-1.4-3.9-1.8-5.4-1.2l-3.5,1.4L274,82.7c4,10.4-0.6-1.5,3.8,9.7l61.7-23.9l-0.3-0.7
	C338.7,66.5,338,66.6,335.2,65.3"/>
<g>
	<path class="st8" d="M132,173.8c-1.7,0.6-3.5,0.7-5.3,0.1l-12.5-4.4c-4-1.4-6.2-5.8-4.8-9.9c1.4-4,5.8-6.2,9.9-4.8l5.3,1.9
		l5.7-15.4c1.5-4,5.9-6.1,9.9-4.6c4,1.5,6.1,5.9,4.6,9.9l-8.3,22.6C135.6,171.4,134,173,132,173.8z"/>
</g>
<g>
	<path class="st9" d="M173.8,183.3l-60.7,23.5c-4,1.5-8.5-0.4-10-4.4l-23.5-60.7c-1.5-4,0.4-8.5,4.4-10l60.7-23.5
		c4-1.5,8.5,0.4,10,4.4l23.5,60.7C179.8,177.2,177.8,181.7,173.8,183.3z M114.7,189.5l46.3-17.9l-17.9-46.3l-46.3,17.9L114.7,189.5z
		"/>
</g>
<g>
	<g>
		<path class="st9" d="M319.9,170.6l-102.2,39.5c-4.2,1.6-8.9-0.3-10.4-4.3c-1.5-4,0.6-8.5,4.8-10.2l102.2-39.5
			c4.2-1.6,8.9,0.3,10.4,4.3C326.3,164.4,324.1,169,319.9,170.6z"/>
	</g>
</g>
<g>
	<g>
		<path class="st9" d="M331.3,202.7l-87.5,33.8c-4.2,1.6-8.9-0.3-10.4-4.3c-1.5-4,0.6-8.5,4.8-10.2l87.5-33.8
			c4.2-1.6,8.9,0.3,10.4,4.3C337.6,196.5,335.5,201,331.3,202.7z"/>
	</g>
</g>
<g>
	<g>
		<path class="st9" d="M344.3,233.6L309,247.2c-4.2,1.6-8.9-0.3-10.4-4.3c-1.5-4,0.6-8.5,4.8-10.2l35.3-13.6
			c4.2-1.6,8.9,0.3,10.4,4.3C350.6,227.4,348.5,232,344.3,233.6z"/>
	</g>
</g>
<g>
	<g>
		<path class="st9" d="M364.4,285.7l-35.3,13.6c-4.2,1.6-8.9-0.3-10.4-4.3c-1.5-4,0.6-8.5,4.8-10.2l35.3-13.6
			c4.2-1.6,8.9,0.3,10.4,4.3C370.8,279.6,368.6,284.1,364.4,285.7z"/>
	</g>
</g>
<g>
	<path class="st9" d="M195.5,218.7l-24.1,9.3c-4.2,1.6-8.9-0.3-10.4-4.3c-1.5-4,0.6-8.5,4.8-10.2l24.1-9.3c4.2-1.6,8.9,0.3,10.4,4.3
		C201.8,212.6,199.7,217.1,195.5,218.7z"/>
</g>
<g>
	<path class="st9" d="M149.5,236.5l-13.1,5.1c-4.2,1.6-8.9-0.3-10.4-4.3c-1.5-4,0.6-8.5,4.8-10.2l13.1-5.1c4.2-1.6,8.9,0.3,10.4,4.3
		C155.8,230.3,153.7,234.9,149.5,236.5z"/>
</g>
<g>
	<path class="st9" d="M220.9,245.4l-13.1,5.1c-4.2,1.6-8.9-0.3-10.4-4.3c-1.5-4,0.6-8.5,4.8-10.2l13.1-5.1c4.2-1.6,8.9,0.3,10.4,4.3
		C227.2,239.2,225.1,243.7,220.9,245.4z"/>
</g>
<g>
	<path class="st9" d="M353.9,259.4l-13.1,5.1c-4.2,1.6-8.9-0.3-10.4-4.3c-1.5-4,0.6-8.5,4.8-10.2l13.1-5.1c4.2-1.6,8.9,0.3,10.4,4.3
		C360.3,253.2,358.1,257.8,353.9,259.4z"/>
</g>
<g>
	<path class="st9" d="M317.9,273.3l-13.1,5.1c-4.2,1.6-8.9-0.3-10.4-4.3c-1.5-4,0.6-8.5,4.8-10.2l13.1-5.1c4.2-1.6,8.9,0.3,10.4,4.3
		C324.2,267.2,322.1,271.7,317.9,273.3z"/>
</g>
<g>
	<path class="st9" d="M279.5,288.2L212,314.3c-4.2,1.6-8.9-0.3-10.4-4.3c-1.5-4,0.6-8.5,4.8-10.2l67.5-26.1
		c4.2-1.6,8.9,0.3,10.4,4.3C285.8,282,283.7,286.5,279.5,288.2z"/>
</g>
<g>
	<path class="st9" d="M285.2,256.4l-98.4,38c-4.2,1.6-8.9-0.3-10.4-4.3c-1.5-4,0.6-8.5,4.8-10.2l98.4-38c4.2-1.6,8.9,0.3,10.4,4.3
		C291.5,250.3,289.4,254.8,285.2,256.4z"/>
</g>
</svg>
