<?xml version="1.0" encoding="utf-8"?>
<!-- Generator: Adobe Illustrator 27.3.0, SVG Export Plug-In . SVG Version: 6.00 Build 0)  -->
<svg version="1.1" id="Layer_1" xmlns="http://www.w3.org/2000/svg" xmlns:xlink="http://www.w3.org/1999/xlink" x="0px" y="0px"
	 viewBox="0 0 511 511" style="enable-background:new 0 0 511 511;" xml:space="preserve">
<style type="text/css">
	.st0{fill:#EFEEEE;}
	.st1{fill:#25B04B;}
	.st2{fill:#DBE5EA;}
	.st3{fill:#17562C;}
	.st4{fill:#BE202E;}
</style>
<g>
	<path class="st0" d="M319.6,181c0-34.4-29-62.4-64.6-62.4v124.9C290.6,243.4,319.6,215.4,319.6,181z"/>
	<path class="st0" d="M361.2,181c0,56.5-47.6,102.5-106.2,102.5v160.5l116.4-193.2c24.9-41.3,26-91.5,3.1-134.4
		c-21.6-40.3-60-65.8-105.5-69.7c-4.6-0.4-9.3-0.6-14-0.6v32.3C313.5,78.4,361.2,124.4,361.2,181z"/>
	<path class="st1" d="M411.4,98c-28.2-52.8-78.8-86-138.7-91.3C266.9,6.3,260.9,6,255,6v40.1c4.7,0,9.4,0.2,14,0.6
		c45.5,4,83.9,29.4,105.5,69.7c22.9,42.9,21.8,93.1-3.1,134.4L255,444.1V504c7.4,0,14.2-3.8,17.9-10l134.3-223
		C439.3,217.8,440.9,153.1,411.4,98z"/>
	<path class="st0" d="M361.2,181c0-56.5-47.6-102.5-106.2-102.5v40.1c35.6,0,64.6,28,64.6,62.4c0,34.4-29,62.4-64.6,62.4v40.1
		C313.5,283.5,361.2,237.5,361.2,181z"/>
	<path class="st2" d="M190.4,181c0,34.4,29,62.4,64.6,62.4c0,0,0,0,0,0V118.5c0,0,0,0,0,0C219.4,118.5,190.4,146.6,190.4,181z"/>
	<path class="st2" d="M241,46.7c-45.5,4-83.9,29.4-105.5,69.7c-22.9,42.9-21.8,93.1,3.1,134.4L255,444.1l0,0V283.5c0,0,0,0,0,0
		c-58.5,0-106.1-46-106.1-102.5c0-56.5,47.6-102.5,106.1-102.5c0,0,0,0,0,0V46.1c0,0,0,0,0,0C250.3,46.1,245.6,46.3,241,46.7z"/>
	<path class="st3" d="M255,444.1L138.6,250.8c-24.9-41.3-26-91.5-3.1-134.4c21.6-40.3,60-65.8,105.5-69.7c4.6-0.4,9.3-0.6,14-0.6
		c0,0,0,0,0,0V6c-5.9,0-11.9,0.3-17.7,0.8C177.4,12,126.8,45.2,98.6,98c-29.5,55.1-27.9,119.8,4.1,173l134.3,223
		c3.7,6.1,10.6,10,17.9,10c0,0,0,0,0,0L255,444.1L255,444.1z"/>
	<path class="st2" d="M255,243.4c-35.6,0-64.6-28-64.6-62.4c0-34.4,29-62.4,64.6-62.4c0,0,0,0,0,0V78.4c0,0,0,0,0,0
		c-58.5,0-106.1,46-106.1,102.5c0,56.5,47.6,102.5,106.1,102.5c0,0,0,0,0,0L255,243.4C255,243.4,255,243.4,255,243.4z"/>
</g>
<path class="st4" d="M361.5,147.6L255,254.7l-28.8,28.8l-77.7-78.3l40.3-40.3l37.5,36.8L255,173l66.2-65.7L361.5,147.6z"/>
</svg>
