<?xml version="1.0" encoding="utf-8"?>
<!-- Generator: Adobe Illustrator 27.3.0, SVG Export Plug-In . SVG Version: 6.00 Build 0)  -->
<svg version="1.1" id="Capa_1" xmlns="http://www.w3.org/2000/svg" xmlns:xlink="http://www.w3.org/1999/xlink" x="0px" y="0px"
	 viewBox="0 0 512 512" style="enable-background:new 0 0 512 512;" xml:space="preserve">
<style type="text/css">
	.st0{fill:#112A4C;}
	.st1{fill:#17578F;}
	.st2{fill:#BE202E;}
	.st3{fill:#25B04B;}
	.st4{fill:#17562C;}
	.st5{fill:#FFFFFF;}
</style>
<polygon class="st0" points="287.8,272.2 319.8,284 287.8,497.8 236.5,497.8 236.5,288.4 236.5,272.2 "/>
<polygon class="st1" points="339.1,288.4 339.1,497.7 287.8,497.7 287.8,272.2 339.1,272.2 "/>
<path class="st0" d="M151.2,497.8l33.7-110.7c0-9-24.4-44.5-33.8-44.5H100v16.2v139.1L151.2,497.8z"/>
<path class="st1" d="M202.5,497.8V358.7v-16.2h-51.3c0,71.7-0.5,155.4-0.5,155.4H202.5z"/>
<path class="st0" d="M425.2,501.7l33.4-111.3c0-9-23.9-222.9-33.4-222.9h-51.5v16.3v317.9L425.2,501.7z"/>
<path class="st1" d="M476.7,501.7V183.7v-16.3h-51.5c0,72-0.5,334.3-0.5,334.3H476.7z"/>
<g>
	<polygon class="st2" points="501.8,505 10.2,505 10.2,154.6 51.6,154.6 51.6,465.7 501.8,465.7 	"/>
</g>
<path class="st3" d="M337.9,214.5c-48,48-125.5,48-173.5,0S116.3,89,164.3,41s125.5-48,173.5,0S385.9,166.6,337.9,214.5z"/>
<path class="st4" d="M337.9,214.5c-48,48-125.5,48-173.5,0L337.9,41C385.9,89,385.9,166.6,337.9,214.5z"/>
<path class="st5" d="M327.7,132.6c0.1-0.2,0.1-0.4,0.2-0.6c0.1-0.3,0.2-0.6,0.3-0.9c0-0.1,0.1-0.2,0.1-0.3c0.4-1.4,0.6-2.8,0.6-4.3
	c0-1.5-0.2-2.9-0.6-4.3c0-0.1,0-0.2-0.1-0.3c-0.1-0.3-0.2-0.6-0.3-1c-0.1-0.2-0.1-0.4-0.2-0.5c-0.1-0.2-0.2-0.5-0.3-0.7
	c-0.1-0.3-0.2-0.5-0.4-0.8c-0.1-0.1-0.2-0.3-0.3-0.4c-0.2-0.3-0.4-0.6-0.6-0.9c0-0.1-0.1-0.1-0.1-0.2c-0.5-0.8-1.1-1.5-1.8-2.2
	l-34.6-34.6c-3-3-7-4.7-11.2-4.7c-4.2,0-8.2,1.7-11.2,4.7c-6.2,6.2-6.2,16.3,0,22.5l7.5,7.5H174.4c-8.8,0-15.9,7.1-15.9,15.9
	s7.1,15.9,15.9,15.9h100.2l-8.1,8.1c-3,3-4.7,7-4.7,11.2s1.7,8.2,4.7,11.2c6.2,6.2,16.3,6.2,22.5,0l35.3-35.3
	c0.7-0.7,1.3-1.5,1.9-2.2c0,0,0.1-0.1,0.1-0.1c0.2-0.3,0.4-0.6,0.6-1c0.1-0.1,0.2-0.3,0.2-0.4c0.1-0.3,0.3-0.5,0.4-0.8
	C327.5,133,327.6,132.8,327.7,132.6z"/>
</svg>
