<?xml version="1.0" encoding="utf-8"?>
<!-- Generator: Adobe Illustrator 27.3.0, SVG Export Plug-In . SVG Version: 6.00 Build 0)  -->
<svg version="1.1" id="Capa_1" xmlns="http://www.w3.org/2000/svg" xmlns:xlink="http://www.w3.org/1999/xlink" x="0px" y="0px"
	 viewBox="0 0 512 512" style="enable-background:new 0 0 512 512;" xml:space="preserve">
<style type="text/css">
	.st0{fill:#12284C;}
	.st1{fill:#1D4E89;}
	.st2{fill:#1AA80F;}
	.st3{fill:#BE1522;stroke:#FFFFFF;stroke-width:5;stroke-miterlimit:10;}
	.st4{fill:#A50C1E;stroke:#FFFFFF;stroke-width:5;stroke-miterlimit:10;}
	.st5{fill:#135609;}
	.st6{fill:#A50C1E;}
</style>
<g>
	<path class="st0" d="M256.1,286.7l27.7,10.8l-27.7,195h-44.4V301.5c0-8.2,0,2.1,0-14.8H256.1z"/>
	<path class="st1" d="M300.5,301.5v190.9h-44.4V286.7h44.4C300.5,307.9,300.5,293.4,300.5,301.5z"/>
	<path class="st2" d="M376.1,67.8L387.3,98l-11.2,9.6l-81.6,111.8c-2.8,3.8-7.2,6.1-12,6.1H55.7v-29.6h219.3l89.1-122.2
		C366.9,69.8,371.5,67.8,376.1,67.8z"/>
	<g>
		<path class="st0" d="M137.8,492.5l29.2-101c0-8.2-21.1-40.6-29.3-40.6H93.4c0,17.5,0,6.6,0,14.8v126.9L137.8,492.5L137.8,492.5z"
			/>
	</g>
	<g>
		<path class="st1" d="M182.2,492.5V365.6c0-8.2,0,3.3,0-14.8h-44.4c0,65.4-0.4,141.7-0.4,141.7L182.2,492.5z"/>
	</g>
	<g>
		<path class="st0" d="M375.1,496L404,394.5c0-8.2-20.7-203.3-28.9-203.3h-44.6c0,20.5,0,6.7,0,14.9v290L375.1,496L375.1,496z"/>
	</g>
	<g>
		<path class="st1" d="M419.7,496V206c0-8.2,0,1.7,0-14.9h-44.6c0,65.7-0.4,304.9-0.4,304.9L419.7,496z"/>
	</g>
	<g>
		<path class="st3" d="M256.1,478.8l14.5,14.8l-14.5,14.8H52c-8.2,0-14.8-6.6-14.8-30V3.3c9.4,0,6.6,0,14.8,0s-1.4,0,14.8,0v475.4
			H256.1z"/>
	</g>
	<path class="st4" d="M496.8,492.6c0,8.2,0,0,0,15.8H256.1v-29.6l240.7-1C496.8,496.5,496.8,484.4,496.8,492.6z"/>
</g>
<g>
	<path class="st5" d="M477.1,195.9L388.1,73.8c-2.8-4-7.4-6-12-6v39.8l72.1,98.9l24.4-7.8L477.1,195.9z"/>
</g>
<circle class="st5" cx="455.5" cy="189.2" r="29.2"/>
<rect x="227.5" y="481.1" class="st6" width="73" height="24.6"/>
</svg>
