<?xml version="1.0" encoding="utf-8"?>
<!-- Generator: Adobe Illustrator 27.3.0, SVG Export Plug-In . SVG Version: 6.00 Build 0)  -->
<svg version="1.1" id="Layer_1" xmlns="http://www.w3.org/2000/svg" xmlns:xlink="http://www.w3.org/1999/xlink" x="0px" y="0px"
	 viewBox="0 0 512 512" style="enable-background:new 0 0 512 512;" xml:space="preserve">
<style type="text/css">
	.st0{fill:#25B04B;}
	.st1{fill:#17562C;}
	.st2{fill:#DBE5EA;}
	.st3{fill:#EFEEEE;}
	.st4{fill:#102A4C;}
	.st5{fill:#17578E;}
	.st6{fill:#004A68;}
</style>
<g id="g2015_00000183215449836356609250000009062160566082730899_" transform="translate(0,470.1105)">
	<path id="path2017_00000111913631755542989780000009768991100105162651_" class="st0" d="M12.7-415.5v119.8L256-283.9l11.8-46.9
		L256-415.5H12.7z"/>
</g>
<g id="g2019_00000067942040469364533220000002257947608244378764_" transform="translate(205.5381,470.1108)">
	<path id="path2021_00000075861405844817613650000011462458585042615973_" class="st1" d="M50.5-415.5v131.6l243.3-11.8v-119.8H50.5
		z"/>
</g>
<g id="g2023_00000097499414266248922920000005945658859392200839_">
	<g>
		<g>
			<g id="g2025_00000156545428318458460780000001939735180804649346_">
				<g id="g2031_00000092441429579008739630000004464071824506661551_" transform="translate(0,368.9092)">
					<path id="path2033_00000118396407739492121210000005806393942301931668_" class="st2" d="M12.7-194.5v302.2
						c0,16.7,13.6,30.3,30.3,30.3h213l23.7-187.5l-23.7-145H12.7z"/>
				</g>
				<g id="g2035_00000088101975315179145820000004680860518441432468_" transform="translate(205.5381,87.9688)">
					<path id="path2037_00000176753640235029944310000000969608461844017572_" class="st3" d="M50.5,419h213
						c16.7,0,30.3-13.6,30.3-30.3V86.5H50.5V419z"/>
				</g>
				<path id="path2039_00000104683489075883860660000014827529553959749008_" class="st4" d="M112.3,104.2H76.7V5h35.5V104.2z"/>
				<path id="path2041_00000005249242289481657370000003251600874398380420_" class="st4" d="M193,104.2h-35.5V5H193V104.2z"/>
				<path id="path2043_00000047761995546159876860000002025633665504492161_" class="st5" d="M354.5,104.2H319V5h35.5V104.2z"/>
				<path id="path2045_00000155137814035416744050000007934612317900669072_" class="st5" d="M435.2,104.2h-35.5V5h35.5V104.2z"/>
				<g id="g2051_00000155139759879843548280000012967777370959825075_" transform="translate(190.5381,512)">
					<path id="path2053_00000120522772571231699820000008853627538205116082_" class="st4" d="M47.7-507v99.2h17.8l11.8-49.6
						L65.5-507H47.7z"/>
				</g>
				<path id="path2055_00000093894759447233375300000016789608438385402765_" class="st5" d="M273.7,5H256v99.2h17.8V5z"/>
			</g>
		</g>
	</g>
</g>
<path class="st0" d="M403.4,265.5l-158,158.9l-42.7,42.7L87.5,351l59.7-59.7l55.6,54.6l42.7-42.7l98.2-97.4L403.4,265.5z"/>
</svg>
