<?xml version="1.0" encoding="utf-8"?>
<!-- Generator: Adobe Illustrator 27.3.0, SVG Export Plug-In . SVG Version: 6.00 Build 0)  -->
<svg version="1.1" id="Layer_1" xmlns="http://www.w3.org/2000/svg" xmlns:xlink="http://www.w3.org/1999/xlink" x="0px" y="0px"
	 viewBox="0 0 512 512" style="enable-background:new 0 0 512 512;" xml:space="preserve">
<style type="text/css">
	.st0{fill:#00ADEE;}
	.st1{fill:#F6921E;}
	.st2{fill:#12284C;}
</style>
<path class="st0" d="M134,294.7l27.1,13.2v-42.3H94.2v42.3l27.1-13.2C125.3,292.8,129.9,292.8,134,294.7z"/>
<path class="st1" d="M248.8,265.6h-56.6v68.6c0,5.8-2.7,11.1-7.1,14.3c-4.4,3.1-10.1,3.6-14.8,1.3l-42.7-20.8l-42.7,20.8
	c-4.9,2.4-10.4,1.9-14.9-1.3c-4.4-3.1-7.1-8.5-7.1-14.3v-68.6H6.4V505h242.4V265.6z M88.6,477.9H56.8v-34h31.8V477.9z M143.5,477.9
	h-31.8v-34h31.8V477.9z M198.4,477.9h-31.8v-34h31.8V477.9z"/>
<rect x="56.8" y="443.9" class="st2" width="31.8" height="34"/>
<rect x="111.7" y="443.9" class="st2" width="31.8" height="34"/>
<rect x="166.6" y="443.9" class="st2" width="31.8" height="34"/>
<path class="st0" d="M390.8,294.7l27.1,13.2v-42.3H351v42.3l27.1-13.2C382.1,292.8,386.7,292.8,390.8,294.7z"/>
<path class="st1" d="M505.6,265.6H449v68.6c0,5.8-2.7,11.1-7.1,14.3c-4.4,3.1-10.1,3.6-14.8,1.3l-42.7-20.8l-42.7,20.8
	c-4.9,2.4-10.4,1.9-14.9-1.3c-4.4-3.1-7.1-8.5-7.1-14.3v-68.6h-56.6V505h242.4V265.6z M345.4,477.9h-31.8v-34h31.8V477.9z
	 M400.3,477.9h-31.8v-34h31.8V477.9z M455.2,477.9h-31.8v-34h31.8V477.9z"/>
<rect x="313.6" y="443.9" class="st2" width="31.8" height="34"/>
<rect x="368.5" y="443.9" class="st2" width="31.8" height="34"/>
<rect x="423.4" y="443.9" class="st2" width="31.8" height="34"/>
<path class="st0" d="M262.8,42.1l27.1,13.2V13h-66.9v42.3l27.1-13.2C254.2,40.1,258.8,40.2,262.8,42.1z"/>
<path class="st1" d="M377.7,13h-56.6v68.6c0,5.8-2.7,11.1-7.1,14.3c-4.4,3.1-10.1,3.6-14.8,1.3l-42.7-20.8l-42.7,20.8
	c-4.9,2.4-10.4,1.9-14.9-1.3c-4.4-3.1-7.1-8.5-7.1-14.3V13h-56.6v239.4h242.4V13z M217.5,225.3h-31.8v-34h31.8V225.3z M272.4,225.3
	h-31.8v-34h31.8V225.3z M327.3,225.3h-31.8v-34h31.8V225.3z"/>
<rect x="185.7" y="191.3" class="st2" width="31.8" height="34"/>
<rect x="240.6" y="191.3" class="st2" width="31.8" height="34"/>
<rect x="295.5" y="191.3" class="st2" width="31.8" height="34"/>
</svg>
