<?xml version="1.0" encoding="utf-8"?>
<!-- Generator: Adobe Illustrator 27.3.0, SVG Export Plug-In . SVG Version: 6.00 Build 0)  -->
<svg version="1.1" id="Layer_1" xmlns="http://www.w3.org/2000/svg" xmlns:xlink="http://www.w3.org/1999/xlink" x="0px" y="0px"
	 viewBox="0 0 682.7 682.7" style="enable-background:new 0 0 682.7 682.7;" xml:space="preserve">
<style type="text/css">
	.st0{fill:#F1F4F9;}
	.st1{fill:#E0E5EE;}
	.st2{fill:#FDBC40;}
</style>
<g>
	<path class="st0" d="M341,677C156.5,677,5,525.6,5,341S156.5,5,341,5s336,151.4,336,336S525.5,677,341,677z"/>
</g>
<path class="st1" d="M677,341C677,156.4,525.5,5,341,5v672C525.5,677,677,525.6,677,341z"/>
<g id="_x31_9-dark_mode_00000101076613178896594560000004489561361498751637_">
	<g>
		<path class="st2" d="M109.5,451.9l68.2-39.4l19.7,34.1L109.5,451.9z"/>
	</g>
	<g>
		<path class="st2" d="M230.1,109.5l39.4,68.2l-34.1,19.7L230.1,109.5z"/>
	</g>
	<g>
		<path class="st2" d="M196,552.6l39.4-68.2l34.1,19.7L196,552.6z"/>
	</g>
	<g>
		<path class="st2" d="M129.2,195.9l68.2,39.4l-19.7,34.1L129.2,195.9z"/>
	</g>
	<g>
		<path class="st2" d="M85.1,321.3h78.8v39.4L85.1,321.3z"/>
	</g>
	<g>
		<path class="st2" d="M325.8,518.2h39.4l-39.4,78.8V518.2z"/>
	</g>
	<g>
		<path class="st2" d="M360.7,85.1v78.8h-39.4L360.7,85.1z"/>
	</g>
	<g>
		<path class="st2" d="M341,478.8c-76,0-137.8-61.8-137.8-137.8S265,203.2,341,203.2c24,0,47.7,6.3,68.8,18.3l29.9,17l-29.8,17.2
			c-30.4,17.5-49.2,50.2-49.2,85.3s18.8,67.8,49.2,85.3l29.8,17.2l-29.9,17C388.7,472.5,365,478.8,341,478.8L341,478.8z"/>
	</g>
</g>
<g id="_x31_9-dark_mode_00000175313435170769293320000012955686930649425316_">
	<g>
		<path class="st2" d="M579.9,230.1l-68.2,39.4L492,235.4L579.9,230.1z"/>
	</g>
	<g>
		<path class="st2" d="M459.4,572.5L420,504.3l34.1-19.7L459.4,572.5z"/>
	</g>
	<g>
		<path class="st2" d="M493.4,129.4L454,197.6L420,177.9L493.4,129.4z"/>
	</g>
	<g>
		<path class="st2" d="M560.2,486.1L492,446.7l19.7-34.1L560.2,486.1z"/>
	</g>
	<g>
		<path class="st2" d="M604.4,360.7h-78.8v-39.4L604.4,360.7z"/>
	</g>
	<g>
		<path class="st2" d="M348.4,203.2c76,0,137.8,61.8,137.8,137.8s-61.8,137.8-137.8,137.8c-24,0-47.7-6.3-68.8-18.3l-29.9-17
			l29.8-17.2c30.4-17.5,49.2-50.2,49.2-85.3s-18.8-67.8-49.2-85.3l-29.8-17.2l29.9-17C300.7,209.5,324.5,203.2,348.4,203.2
			L348.4,203.2z"/>
	</g>
</g>
</svg>
