<?xml version="1.0" encoding="utf-8"?>
<!-- Generator: Adobe Illustrator 27.3.0, SVG Export Plug-In . SVG Version: 6.00 Build 0)  -->
<svg version="1.1" id="Capa_1" xmlns="http://www.w3.org/2000/svg" xmlns:xlink="http://www.w3.org/1999/xlink" x="0px" y="0px"
	 viewBox="0 0 512 512" style="enable-background:new 0 0 512 512;" xml:space="preserve">
<style type="text/css">
	.st0{fill:#00ADEE;}
	.st1{fill:#C6C5C5;}
	.st2{fill:#FFFFFF;}
	.st3{fill:#575B6D;}
	.st4{fill:#BE202E;}
	.st5{fill:#25B04B;}
	.st6{fill:#A31D29;}
	.st7{fill:#17562C;}
</style>
<g id="icon_00000091694941076036242090000014230043968625077936_">
	<path class="st0" d="M30.7,268.7h450.7v210.5H30.7L30.7,268.7z"/>
	<path class="st1" d="M129.1,171h253.8v308.2H129.1L129.1,171z"/>
	<path class="st2" d="M51,289.4h57.9v68.3H51L51,289.4z"/>
	<path class="st2" d="M51,387.8h57.9v68.3H51L51,387.8z"/>
	<path class="st2" d="M400.9,289.4h57.9v68.3h-57.9V289.4z"/>
	<path class="st2" d="M400.9,387.8h57.9v68.3h-57.9V387.8z"/>
	<path class="st2" d="M155.1,194.1h201.8v37.7H155.1L155.1,194.1z"/>
	<path class="st2" d="M155.1,261.9h201.8v37.7H155.1L155.1,261.9z"/>
	<path class="st3" d="M165.9,329.5h180.1v149.7H165.9L165.9,329.5z"/>
	<path class="st3" d="M3.9,473.5h504.2V505H3.9L3.9,473.5z"/>
	<path class="st1" d="M246.6,323.5h18.8v149.8h-18.8V323.5z"/>
</g>
<g>
	<path class="st2" d="M296,132.4c0-21.3-18-38.7-40-38.7V171C278.1,171,296,153.7,296,132.4z"/>
	<path class="st4" d="M321.7,132.4c0,35-29.5,63.5-65.7,63.5v99.4l72.1-119.7c15.4-25.6,16.1-56.7,1.9-83.2
		c-13.4-25-37.2-40.7-65.3-43.2c-2.8-0.3-5.8-0.4-8.7-0.4v20C292.2,68.9,321.7,97.3,321.7,132.4z"/>
	<path class="st5" d="M352.8,81c-17.5-32.7-48.8-53.3-85.9-56.5c-3.6-0.3-7.3-0.5-11-0.5v24.8c2.9,0,5.8,0.1,8.7,0.4
		c28.2,2.5,52,18.2,65.3,43.2c14.2,26.5,13.5,57.6-1.9,83.2L256,295.3v37.1c4.6,0,8.8-2.4,11.1-6.2l83.2-138.1
		C370.1,155.1,371.1,115.1,352.8,81z"/>
	<path class="st4" d="M321.7,132.4c0-35-29.5-63.5-65.7-63.5v24.8c22.1,0,40,17.3,40,38.7c0,21.3-18,38.7-40,38.7v24.8
		C292.2,195.9,321.7,167.4,321.7,132.4z"/>
	<path class="st2" d="M216,132.4c0,21.3,18,38.7,40,38.7c0,0,0,0,0,0V93.7c0,0,0,0,0,0C233.9,93.7,216,111,216,132.4z"/>
	<path class="st6" d="M247.3,49.2c-28.2,2.5-52,18.2-65.3,43.2c-14.2,26.5-13.5,57.6,1.9,83.2L256,295.3l0,0v-99.4c0,0,0,0,0,0
		c-36.2,0-65.7-28.5-65.7-63.5c0-35,29.5-63.5,65.7-63.5c0,0,0,0,0,0v-20c0,0,0,0,0,0C253.1,48.8,250.2,49,247.3,49.2z"/>
	<path class="st7" d="M256,295.3l-72.1-119.7c-15.4-25.6-16.1-56.7-1.9-83.2c13.4-25,37.2-40.7,65.3-43.2c2.9-0.3,5.8-0.4,8.7-0.4
		c0,0,0,0,0,0V24c-3.7,0-7.3,0.2-11,0.5c-37.1,3.2-68.4,23.8-85.9,56.5c-18.3,34.1-17.3,74.2,2.5,107.1l83.2,138.1
		c2.3,3.8,6.6,6.2,11.1,6.2c0,0,0,0,0,0L256,295.3L256,295.3z"/>
	<path class="st6" d="M256,171c-22.1,0-40-17.3-40-38.7c0-21.3,18-38.7,40-38.7c0,0,0,0,0,0V68.9c0,0,0,0,0,0
		c-36.2,0-65.7,28.5-65.7,63.5c0,35,29.5,63.5,65.7,63.5c0,0,0,0,0,0L256,171C256,171,256,171,256,171z"/>
</g>
</svg>
