<?xml version="1.0" encoding="utf-8"?>
<!-- Generator: Adobe Illustrator 27.3.0, SVG Export Plug-In . SVG Version: 6.00 Build 0)  -->
<svg version="1.1" id="Capa_1" xmlns="http://www.w3.org/2000/svg" xmlns:xlink="http://www.w3.org/1999/xlink" x="0px" y="0px"
	 viewBox="0 0 512 512" style="enable-background:new 0 0 512 512;" xml:space="preserve">
<style type="text/css">
	.st0{fill:#25B04B;}
	.st1{fill:#17562C;}
	.st2{fill:#DBE5EA;}
	.st3{fill:#EFEEEE;}
	.st4{fill:#102A4C;}
	.st5{fill:#17578E;}
	.st6{fill:#004A68;}
	.st7{opacity:0.1;fill:#17578E;}
	.st8{opacity:0.1;fill:#102A4C;}
	.st9{fill:#229D49;}
	.st10{opacity:0.4;fill:url(#SVGID_1_);}
	.st11{fill:#12284B;}
</style>
<g id="g2015_00000169552669228727627470000016060157242004765101_" transform="translate(0,470.1105)">
	<path id="path2017_00000085957641154094019250000010555725322110286992_" class="st0" d="M12.2-416.4v120L256-284.5l11.9-47
		L256-416.4H12.2z"/>
</g>
<g id="g2019_00000108991381513247004060000012975998050919904135_" transform="translate(205.5381,470.1108)">
	<path id="path2021_00000171687099676175522060000008539338320212914333_" class="st1" d="M50.5-416.4v131.9l243.8-11.9v-120H50.5z"
		/>
</g>
<g id="g2023_00000073694694315354458870000005213077668396979099_">
	<g>
		<g>
			<g id="g2025_00000109708621898676162820000013434423344709357721_">
				<g id="g2031_00000007386267070818338190000013163112887976285314_" transform="translate(0,368.9092)">
					<path id="path2033_00000027568473636090220020000000318246724477313172_" class="st2" d="M12.2-195.2v302.8
						c0,16.7,13.6,30.4,30.4,30.4H256l23.7-187.9L256-195.2H12.2z"/>
				</g>
				<g id="g2035_00000082364628028234934530000012438055549572368034_" transform="translate(205.5381,87.9688)">
					<path id="path2037_00000001665055372036698600000015046410948948694686_" class="st3" d="M50.5,419h213.4
						c16.7,0,30.4-13.6,30.4-30.4V85.8H50.5V419z"/>
				</g>
				<path id="path2039_00000045610033718199023700000013999327083688386993_" class="st4" d="M112,103.4H76.4V4H112V103.4z"/>
				<path id="path2041_00000132801893129331184000000002494900753554644116_" class="st4" d="M192.9,103.4h-35.6V4h35.6V103.4z"/>
				<path id="path2043_00000072256797183169158420000008716536870113607313_" class="st5" d="M354.7,103.4h-35.6V4h35.6V103.4z"/>
				<path id="path2045_00000113343734535880631860000002127907408514144139_" class="st5" d="M435.6,103.4H400V4h35.6V103.4z"/>
				<g id="g2051_00000056407764901910520300000003046630796333302698_" transform="translate(190.5381,512)">
					<path id="path2053_00000103949147021490665070000004506648811944884153_" class="st4" d="M47.7-508v99.4h17.8l11.9-49.7
						L65.5-508H47.7z"/>
				</g>
				<path id="path2055_00000137120098401252208690000002617683305842702254_" class="st5" d="M273.8,4H256v99.4h17.8V4z"/>
			</g>
		</g>
	</g>
</g>
<g>
	<path class="st7" d="M85.9,265.3H62c-5.8,0-10.6-4.7-10.6-10.6v-23.9c0-5.8,4.7-10.6,10.6-10.6h23.9c5.8,0,10.6,4.7,10.6,10.6v23.9
		C96.5,260.6,91.8,265.3,85.9,265.3z"/>
	<path class="st7" d="M176,265.3h-23.9c-5.8,0-10.6-4.7-10.6-10.6v-23.9c0-5.8,4.7-10.6,10.6-10.6H176c5.8,0,10.6,4.7,10.6,10.6
		v23.9C186.6,260.6,181.9,265.3,176,265.3z"/>
	<path class="st7" d="M266.1,265.3h-23.9c-5.8,0-10.6-4.7-10.6-10.6v-23.9c0-5.8,4.7-10.6,10.6-10.6h23.9c5.8,0,10.6,4.7,10.6,10.6
		v23.9C276.7,260.6,272,265.3,266.1,265.3z"/>
	<path class="st7" d="M85.9,355.4H62c-5.8,0-10.6-4.7-10.6-10.6v-23.9c0-5.8,4.7-10.6,10.6-10.6h23.9c5.8,0,10.6,4.7,10.6,10.6v23.9
		C96.5,350.7,91.8,355.4,85.9,355.4z"/>
	<path class="st7" d="M176,355.4h-23.9c-5.8,0-10.6-4.7-10.6-10.6v-23.9c0-5.8,4.7-10.6,10.6-10.6H176c5.8,0,10.6,4.7,10.6,10.6
		v23.9C186.6,350.7,181.9,355.4,176,355.4z"/>
	<path class="st5" d="M266.1,355.4h-23.9c-5.8,0-10.6-4.7-10.6-10.6v-23.9c0-5.8,4.7-10.6,10.6-10.6h23.9c5.8,0,10.6,4.7,10.6,10.6
		v23.9C276.7,350.7,272,355.4,266.1,355.4z"/>
	<path class="st7" d="M85.9,445.5H62c-5.8,0-10.6-4.7-10.6-10.6V411c0-5.8,4.7-10.6,10.6-10.6h23.9c5.8,0,10.6,4.7,10.6,10.6V435
		C96.5,440.8,91.8,445.5,85.9,445.5z"/>
	<path class="st7" d="M176,445.5h-23.9c-5.8,0-10.6-4.7-10.6-10.6V411c0-5.8,4.7-10.6,10.6-10.6H176c5.8,0,10.6,4.7,10.6,10.6V435
		C186.6,440.8,181.9,445.5,176,445.5z"/>
	<path class="st7" d="M266.1,445.5h-23.9c-5.8,0-10.6-4.7-10.6-10.6V411c0-5.8,4.7-10.6,10.6-10.6h23.9c5.8,0,10.6,4.7,10.6,10.6
		V435C276.7,440.8,272,445.5,266.1,445.5z"/>
</g>
<path class="st8" d="M265.8,220.3h-23.3c-1.4,0-2.8,0.3-4,0.8c4,1.6,6.9,5.5,6.9,10.1v23.3c0,4.6-2.9,8.5-6.9,10.1
	c1.2,0.5,2.6,0.8,4,0.8h23.3c6,0,10.9-4.9,10.9-10.9v-23.3C276.7,225.2,271.8,220.3,265.8,220.3z"/>
<path class="st8" d="M175.7,220.3h-23.3c-1.4,0-2.8,0.3-4,0.8c4,1.6,6.9,5.5,6.9,10.1v23.3c0,4.6-2.9,8.5-6.9,10.1
	c1.2,0.5,2.6,0.8,4,0.8h23.3c6,0,10.9-4.9,10.9-10.9v-23.3C186.6,225.2,181.7,220.3,175.7,220.3z"/>
<path class="st8" d="M85.6,220.3H62.3c-1.4,0-2.8,0.3-4,0.8c4,1.6,6.9,5.5,6.9,10.1v23.3c0,4.6-2.9,8.5-6.9,10.1
	c1.2,0.5,2.6,0.8,4,0.8h23.3c6,0,10.9-4.9,10.9-10.9v-23.3C96.5,225.2,91.6,220.3,85.6,220.3z"/>
<path class="st8" d="M85.6,310.4H62.3c-1.4,0-2.8,0.3-4,0.8c4,1.6,6.9,5.5,6.9,10.1v23.3c0,4.6-2.9,8.5-6.9,10.1
	c1.2,0.5,2.6,0.8,4,0.8h23.3c6,0,10.9-4.9,10.9-10.9v-23.3C96.5,315.3,91.6,310.4,85.6,310.4L85.6,310.4z"/>
<path class="st8" d="M85.6,400.5H62.3c-1.4,0-2.8,0.3-4,0.8c4,1.6,6.9,5.5,6.9,10.1v23.3c0,4.6-2.9,8.5-6.9,10.1
	c1.2,0.5,2.6,0.8,4,0.8h23.3c6,0,10.9-4.9,10.9-10.9v-23.3C96.5,405.3,91.6,400.5,85.6,400.5L85.6,400.5z"/>
<path class="st8" d="M175.7,310.4h-23.3c-1.4,0-2.8,0.3-4,0.8c4,1.6,6.9,5.5,6.9,10.1v23.3c0,4.6-2.9,8.5-6.9,10.1
	c1.2,0.5,2.6,0.8,4,0.8h23.3c6,0,10.9-4.9,10.9-10.9v-23.3C186.6,315.3,181.7,310.4,175.7,310.4L175.7,310.4z"/>
<path class="st8" d="M175.7,400.5h-23.3c-1.4,0-2.8,0.3-4,0.8c4,1.6,6.9,5.5,6.9,10.1v23.3c0,4.6-2.9,8.5-6.9,10.1
	c1.2,0.5,2.6,0.8,4,0.8h23.3c6,0,10.9-4.9,10.9-10.9v-23.3C186.6,405.3,181.7,400.5,175.7,400.5L175.7,400.5z"/>
<path class="st8" d="M265.8,310.4h-23.3c-1.4,0-2.8,0.3-4,0.8c4,1.6,6.9,5.5,6.9,10.1v23.3c0,4.6-2.9,8.5-6.9,10.1
	c1.2,0.5,2.6,0.8,4,0.8h23.3c6,0,10.9-4.9,10.9-10.9v-23.3C276.7,315.3,271.8,310.4,265.8,310.4L265.8,310.4z"/>
<path class="st8" d="M265.8,400.5h-23.3c-1.4,0-2.8,0.3-4,0.8c4,1.6,6.9,5.5,6.9,10.1v23.3c0,4.6-2.9,8.5-6.9,10.1
	c1.2,0.5,2.6,0.8,4,0.8h23.3c6,0,10.9-4.9,10.9-10.9v-23.3C276.7,405.3,271.8,400.5,265.8,400.5L265.8,400.5z"/>
<path class="st7" d="M359.9,265.3H336c-5.8,0-10.6-4.7-10.6-10.6v-23.9c0-5.8,4.7-10.6,10.6-10.6h23.9c5.8,0,10.6,4.7,10.6,10.6
	v23.9C370.5,260.6,365.8,265.3,359.9,265.3z"/>
<path class="st7" d="M450,265.3h-23.9c-5.8,0-10.6-4.7-10.6-10.6v-23.9c0-5.8,4.7-10.6,10.6-10.6H450c5.8,0,10.6,4.7,10.6,10.6v23.9
	C460.6,260.6,455.9,265.3,450,265.3z"/>
<path class="st7" d="M359.9,355.4H336c-5.8,0-10.6-4.7-10.6-10.6v-23.9c0-5.8,4.7-10.6,10.6-10.6h23.9c5.8,0,10.6,4.7,10.6,10.6
	v23.9C370.5,350.7,365.8,355.4,359.9,355.4z"/>
<path class="st7" d="M450,355.4h-23.9c-5.8,0-10.6-4.7-10.6-10.6v-23.9c0-5.8,4.7-10.6,10.6-10.6H450c5.8,0,10.6,4.7,10.6,10.6v23.9
	C460.6,350.7,455.9,355.4,450,355.4z"/>
<path class="st7" d="M359.9,445.5H336c-5.8,0-10.6-4.7-10.6-10.6V411c0-5.8,4.7-10.6,10.6-10.6h23.9c5.8,0,10.6,4.7,10.6,10.6V435
	C370.5,440.8,365.8,445.5,359.9,445.5z"/>
<path class="st8" d="M449.7,220.3h-23.3c-1.4,0-2.8,0.3-4,0.8c4,1.6,6.9,5.5,6.9,10.1v23.3c0,4.6-2.9,8.5-6.9,10.1
	c1.2,0.5,2.6,0.8,4,0.8h23.3c6,0,10.9-4.9,10.9-10.9v-23.3C460.6,225.2,455.7,220.3,449.7,220.3z"/>
<path class="st8" d="M359.6,220.3h-23.3c-1.4,0-2.8,0.3-4,0.8c4,1.6,6.9,5.5,6.9,10.1v23.3c0,4.6-2.9,8.5-6.9,10.1
	c1.2,0.5,2.6,0.8,4,0.8h23.3c6,0,10.9-4.9,10.9-10.9v-23.3C370.5,225.2,365.6,220.3,359.6,220.3z"/>
<path class="st8" d="M359.6,310.4h-23.3c-1.4,0-2.8,0.3-4,0.8c4,1.6,6.9,5.5,6.9,10.1v23.3c0,4.6-2.9,8.5-6.9,10.1
	c1.2,0.5,2.6,0.8,4,0.8h23.3c6,0,10.9-4.9,10.9-10.9v-23.3C370.5,315.3,365.6,310.4,359.6,310.4L359.6,310.4z"/>
<path class="st8" d="M359.6,400.5h-23.3c-1.4,0-2.8,0.3-4,0.8c4,1.6,6.9,5.5,6.9,10.1v23.3c0,4.6-2.9,8.5-6.9,10.1
	c1.2,0.5,2.6,0.8,4,0.8h23.3c6,0,10.9-4.9,10.9-10.9v-23.3C370.5,405.3,365.6,400.5,359.6,400.5L359.6,400.5z"/>
<path class="st8" d="M449.7,310.4h-23.3c-1.4,0-2.8,0.3-4,0.8c4,1.6,6.9,5.5,6.9,10.1v23.3c0,4.6-2.9,8.5-6.9,10.1
	c1.2,0.5,2.6,0.8,4,0.8h23.3c6,0,10.9-4.9,10.9-10.9v-23.3C460.6,315.3,455.7,310.4,449.7,310.4L449.7,310.4z"/>
<g>
	<path class="st0" d="M309.7,221.3c-19.6,45.2-65,104.8-169.4,147.5c15.5,50,62.1,86.4,117.3,86.4c67.8,0,122.8-55,122.8-122.8
		C380.4,283.3,351.5,240.9,309.7,221.3z"/>
	<path class="st9" d="M309.7,221.3c-15.8-7.4-33.5-11.6-52.1-11.6c-67.8,0-122.8,55-122.8,122.8c0,12.7,1.9,24.9,5.5,36.4
		C244.8,326.1,290.1,266.5,309.7,221.3z"/>
	<linearGradient id="SVGID_1_" gradientUnits="userSpaceOnUse" x1="60.8592" y1="289.2077" x2="318.9913" y2="289.2077">
		<stop  offset="0" style="stop-color:#352713"/>
		<stop  offset="0.1392" style="stop-color:#392B16"/>
		<stop  offset="0.2788" style="stop-color:#45371F"/>
		<stop  offset="0.4187" style="stop-color:#584B2E"/>
		<stop  offset="0.5588" style="stop-color:#736743"/>
		<stop  offset="0.6992" style="stop-color:#968C5F"/>
		<stop  offset="0.8398" style="stop-color:#C1B880"/>
		<stop  offset="0.9782" style="stop-color:#F3ECA7"/>
		<stop  offset="1" style="stop-color:#FCF5AE"/>
	</linearGradient>
	<path class="st10" d="M309.7,221.3c-15.8-7.4-33.5-11.6-52.1-11.6c-67.8,0-122.8,55-122.8,122.8c0,12.7,1.9,24.9,5.5,36.4
		C244.8,326.1,290.1,266.5,309.7,221.3z"/>
</g>
<g>
	<path class="st11" d="M401.6,332.5c0-0.1,0-0.2,0-0.2c0-1.3,0-2.7-0.1-4c0-0.4,0-1-0.1-1.4c0-1-0.1-2-0.1-3c0-0.4-0.1-1-0.1-1.4
		c-0.1-1.3-0.2-2.7-0.3-4c0-0.1,0-0.2,0-0.2c-0.1-1.6-0.3-3-0.6-4.6c0-0.1,0-0.3-0.1-0.4c-0.2-1.4-0.4-2.8-0.7-4.1
		c0-0.1,0-0.2-0.1-0.3c-2.9-17-8.8-33.4-17.4-48.1l-0.1-0.1c-0.7-1.1-1.3-2.2-2-3.3c-0.2-0.3-0.4-0.7-0.7-1
		c-0.6-0.9-1.1-1.7-1.7-2.6c-0.2-0.3-0.4-0.8-0.8-1.1c-0.7-1-1.3-2-2.1-3c-0.4-0.7-1-1.3-1.4-2c-0.2-0.3-0.6-0.7-0.8-1
		c-0.6-0.8-1.2-1.6-1.8-2.3c-0.1-0.1-0.1-0.1-0.2-0.2c-18.7-23.7-44.6-41.4-74.6-49.6l0,0c-1.2-0.3-2.6-0.7-3.8-1
		c-0.7-0.2-1.4-0.3-2.1-0.6c-0.1,0-0.1,0-0.2,0c-10.4-2.3-21.3-3.7-32.4-3.7c-79.5,0-143.8,64.5-143.8,143.8
		c0,12.4,1.6,24.3,4.5,35.7c0.2,0.8,0.4,1.7,0.7,2.4c0.2,0.7,0.3,1.2,0.6,1.9c0.4,1.7,1,3.3,1.6,5l0,0c3.9,11.8,9.2,22.8,15.8,33.1
		h0.1c9.2,14.1,20.5,26.4,33.4,36.3l0.1,0.1c1,0.8,2,1.4,3,2.2c0.2,0.2,0.4,0.3,0.8,0.6c0.8,0.6,1.6,1.1,2.3,1.7
		c1.1,0.8,2.2,1.6,3.5,2.2c0.1,0,0.1,0.1,0.2,0.1c14.6,9.4,30.9,16.1,48.4,19.7c0,0,0,0,0.1,0c1.1,0.2,2.2,0.4,3.3,0.7
		c0.1,0,0.2,0,0.3,0.1c3.1,0.6,6.3,1,9.6,1.3c0.4,0,0.8,0.1,1.2,0.1c0.8,0.1,1.6,0.1,2.3,0.2c0.7,0,1.2,0.1,1.9,0.1
		c0.7,0,1.3,0.1,2.1,0.1s1.6,0.1,2.3,0.1c0.6,0,1.2,0,1.8,0.1c1.2,0,2.4,0.1,3.8,0.1c0.1,0,0.2,0,0.3,0
		C337.1,476.3,401.5,411.8,401.6,332.5z M274.2,442v-4.3c0-9.1-7.5-16.5-16.5-16.5c-9.1,0-16.5,7.5-16.5,16.5v4.3
		c-48.1-7.2-85.9-45.1-93.1-93.1h4.3c9.1,0,16.5-7.5,16.5-16.5c0-9.1-7.5-16.5-16.5-16.5h-4.3c7.2-48.1,45.1-85.9,93.1-93.1v4.3
		c0,9.1,7.5,16.5,16.5,16.5c9.1,0,16.5-7.5,16.5-16.5v-4.3c48.1,7.2,85.9,45.1,93.1,93.1h-4.3c-9.1,0-16.5,7.5-16.5,16.5
		c0,9.1,7.5,16.5,16.5,16.5h4.3C360.1,397,322.3,434.9,274.2,442z"/>
</g>
<path class="st11" d="M240.8,330v60.9c0,9.1,7.5,16.5,16.5,16.5c9.1,0,16.5-7.5,16.5-16.5v-54.1l50.4-51.2c3.1-3.1,4.8-7.3,4.8-11.7
	c0-4.5-1.8-8.6-4.9-11.7c-3.1-3.1-7.2-4.8-11.6-4.8c-0.1,0-0.1,0-0.2,0c-4.5,0-8.6,1.8-11.6,4.9l-55.1,56
	C242.5,321.6,240.8,325.6,240.8,330z"/>
</svg>
