<?xml version="1.0" encoding="utf-8"?>
<!-- Generator: Adobe Illustrator 27.3.0, SVG Export Plug-In . SVG Version: 6.00 Build 0)  -->
<svg version="1.1" id="Layer_1" xmlns="http://www.w3.org/2000/svg" xmlns:xlink="http://www.w3.org/1999/xlink" x="0px" y="0px"
	 viewBox="0 0 512 512" style="enable-background:new 0 0 512 512;" xml:space="preserve">
<style type="text/css">
	.st0{fill:#75CDDE;}
	.st1{fill:#FFFFFF;}
</style>
<path class="st0" d="M507.2,384.3c-1.9-47.7-15.9-79.2-57.3-78.5c4.8-23.2,3-46.8-14-66.7c-9.5-11.1-22.3-17.7-35.5-19.6
	C407.6,159,347.2,97,294.3,64.3C231.3,25.3,144.1,25,86,73.2c-53.9,44.7-74.4,126-49.4,191.1c3.1,8,6.6,15.8,11,23.2
	c2,3.3,4.1,6.4,6.3,9.5c0.5,0.7,0.9,1.4,1.4,2.1c-3.9,2.1-7.5,5.1-10.9,7.6c-8.5,6.4-15.9,13.6-22.2,22.1
	C-2,361.6,2.1,404.2,30.1,433.5c36.5,38.2,95,38.6,144,39.4c59.8,1,119.5-4.4,178.4-14.6c1.2-0.2,2.3-0.5,3.4-0.8
	c1.7,2,3.8,3.8,6.4,5.3C423.9,497.5,510.3,461.4,507.2,384.3z"/>
<g>
	<path class="st1" d="M140,216.9c33.7,0,59.1,19,67.2,49.6h-37.9c-5.9-12.1-16.5-18.2-29.7-18.2c-21.2,0-35.7,15.7-35.7,40.8
		c0,25,14.5,40.8,35.7,40.8c13.1,0,23.8-6.1,29.7-18.2h37.9c-8.1,30.7-33.5,49.4-67.2,49.4c-41.8,0-71.2-29.7-71.2-72
		C68.8,246.8,98.2,216.9,140,216.9z"/>
	<path class="st1" d="M289.6,361.6c-40.2,0-72.9-30.1-72.9-72.7c0-42.6,32.7-72.4,72.9-72.4c40.4,0,72.4,29.9,72.4,72.4
		C362,331.6,329.7,361.6,289.6,361.6z M289.6,330.2c22.6,0,37.3-16.3,37.3-41.2c0-25.2-14.7-41.2-37.3-41.2
		c-23,0-37.5,15.9-37.5,41.2C252,313.8,266.5,330.2,289.6,330.2z"/>
	<path class="st1" d="M367.4,344.2c18.1-14.9,37.3-29.7,37.3-44.1c0-6.2-2.8-10.1-8.9-10.1c-5.9,0-9.4,4.7-9.4,12.7h-19.2
		c0.6-20.6,14-29.5,29.5-29.5c19.4,0,28,11.3,28,25.7c0,18.7-16.7,33.6-30.2,44h31.5v16.2h-58.5V344.2z"/>
</g>
<path class="st0" d="M479.2,140.2c-12.2-24.1-45.6-27.2-64.5-9.4C407,138,402.7,148.7,403,159c-0.9,23.5,19.5,43.8,44.2,41.2
	C476.7,197.2,492.5,166.4,479.2,140.2z"/>
<path class="st0" d="M476.8,69.4c-26.5,0-26.6,41.3,0,41.3C503.4,110.7,503.4,69.4,476.8,69.4z"/>
</svg>
