<?xml version="1.0" encoding="utf-8"?>
<!-- Generator: Adobe Illustrator 27.3.0, SVG Export Plug-In . SVG Version: 6.00 Build 0)  -->
<svg version="1.1" id="Capa_1" xmlns="http://www.w3.org/2000/svg" xmlns:xlink="http://www.w3.org/1999/xlink" x="0px" y="0px"
	 viewBox="0 0 512 512" style="enable-background:new 0 0 512 512;" xml:space="preserve">
<style type="text/css">
	.st0{filter:url(#Adobe_OpacityMaskFilter);}
	
		.st1{clip-path:url(#SVGID_00000092450673279967817280000013434159694723794856_);fill:url(#SVGID_00000049920830982170975290000003126554036780886164_);}
	
		.st2{clip-path:url(#SVGID_00000092450673279967817280000013434159694723794856_);mask:url(#SVGID_00000163040313497316457240000001099203071697152144_);fill:url(#SVGID_00000163788960175341874270000007257801022820102291_);}
	.st3{filter:url(#Adobe_OpacityMaskFilter_00000114059238633417527760000014347286521218953626_);}
	
		.st4{clip-path:url(#SVGID_00000049919724202390474170000015275168328134408113_);fill:url(#SVGID_00000181802506688540900510000018110079404596640922_);}
	
		.st5{clip-path:url(#SVGID_00000049919724202390474170000015275168328134408113_);mask:url(#SVGID_00000155131735699967669250000002542030511291741060_);fill:url(#SVGID_00000013183836478744731350000011499942928778490019_);}
	.st6{filter:url(#Adobe_OpacityMaskFilter_00000004530381104653469860000002704755081609504153_);}
	
		.st7{clip-path:url(#SVGID_00000018923481305081208770000014377879382028469422_);fill:url(#SVGID_00000085938665900243325640000015283967203900597888_);}
	
		.st8{clip-path:url(#SVGID_00000018923481305081208770000014377879382028469422_);mask:url(#SVGID_00000142868316141254680630000011960276141492956606_);fill:url(#SVGID_00000019647102022831144090000000246256745618926260_);}
	.st9{filter:url(#Adobe_OpacityMaskFilter_00000065760926677984352960000018292519606012900766_);}
	
		.st10{clip-path:url(#SVGID_00000125578519102021778980000012466177354719176874_);fill:url(#SVGID_00000037662511586587991060000017016242447457967505_);}
	
		.st11{clip-path:url(#SVGID_00000125578519102021778980000012466177354719176874_);mask:url(#SVGID_00000114786685088513633010000005523930387406986916_);fill:url(#SVGID_00000143575380943047741410000006403623221948665012_);}
	.st12{filter:url(#Adobe_OpacityMaskFilter_00000041985861693525514470000008542335760435804602_);}
	
		.st13{clip-path:url(#SVGID_00000118391464634348831050000011889408814481018243_);fill:url(#SVGID_00000009554220142783533910000014449646911498228098_);}
	
		.st14{clip-path:url(#SVGID_00000118391464634348831050000011889408814481018243_);mask:url(#SVGID_00000106866993872732009450000014809238666289859481_);fill:url(#SVGID_00000161617838612993419390000013380345077478549177_);}
	.st15{filter:url(#Adobe_OpacityMaskFilter_00000110458564980910569230000002874298401398316186_);}
	
		.st16{clip-path:url(#SVGID_00000146469391506665468170000008342807534336069011_);fill:url(#SVGID_00000145041045411998795140000001645612421756604813_);}
	
		.st17{clip-path:url(#SVGID_00000146469391506665468170000008342807534336069011_);mask:url(#SVGID_00000040558704613012759680000006850944958675785627_);fill:url(#SVGID_00000109711182047199067190000014389284880271516587_);}
	.st18{filter:url(#Adobe_OpacityMaskFilter_00000165205002449960257170000014920288566654091435_);}
	
		.st19{clip-path:url(#SVGID_00000057841006938081880390000001865545297852405947_);fill:url(#SVGID_00000032608060456548716710000007686738832017619343_);}
	
		.st20{clip-path:url(#SVGID_00000057841006938081880390000001865545297852405947_);mask:url(#SVGID_00000060735234325684467630000000264276911559535499_);fill:url(#SVGID_00000046337915356296745990000000331006640658113933_);}
	.st21{filter:url(#Adobe_OpacityMaskFilter_00000119119854219070140560000009434095613833731716_);}
	
		.st22{clip-path:url(#SVGID_00000174561151805977717710000002758045286280943285_);fill:url(#SVGID_00000068662624210432467630000010181597651541296319_);}
	
		.st23{clip-path:url(#SVGID_00000174561151805977717710000002758045286280943285_);mask:url(#SVGID_00000176030917684572831020000003323422594052974990_);fill:url(#SVGID_00000063623328401053781330000013974314629843860354_);}
	.st24{clip-path:url(#SVGID_00000026125993769626510210000008452616776627873203_);}
	.st25{filter:url(#Adobe_OpacityMaskFilter_00000078738660579846069990000010944339242117158559_);}
	
		.st26{clip-path:url(#SVGID_00000088851625437269476620000001647255203518528674_);fill:url(#SVGID_00000156550439624599324080000006893979872995332743_);}
	
		.st27{clip-path:url(#SVGID_00000088851625437269476620000001647255203518528674_);mask:url(#SVGID_00000007429935571666965850000008088193089609359527_);fill:url(#SVGID_00000011005014052749120850000003025374214412618427_);}
	.st28{fill:#FFFFFF;}
</style>
<g>
	<defs>
		<path id="SVGID_1_" d="M418.9,90.3c86.8,100.3,74.2,200.3,74.2,200.3c-13.6,95.8-82.3,173.9-173,201.1c0,0-46.4,8.4-71,8.4
			c-78.6,0-193.7-92.1-193.7-92.1c-33.2-42-52.9-94.9-52.9-152.4C2.6,119.5,112.9,9.1,249.1,9.1C249.1,9.1,360.2,22.7,418.9,90.3"/>
	</defs>
	<clipPath id="SVGID_00000073722651069909519730000012159074679575411590_">
		<use xlink:href="#SVGID_1_"  style="overflow:visible;"/>
	</clipPath>
	<defs>
		<filter id="Adobe_OpacityMaskFilter" filterUnits="userSpaceOnUse" x="-243" y="-242.5" width="1001.4" height="994.3">
			<feColorMatrix  type="matrix" values="1 0 0 0 0  0 1 0 0 0  0 0 1 0 0  0 0 0 1 0"/>
		</filter>
	</defs>
	
		<mask maskUnits="userSpaceOnUse" x="-243" y="-242.5" width="1001.4" height="994.3" id="SVGID_00000034795323362845871860000011823275066152692107_">
		<g class="st0">
			
				<linearGradient id="SVGID_00000005239087308599146580000007174867353209181848_" gradientUnits="userSpaceOnUse" x1="-451.787" y1="554.8749" x2="-448.2409" y2="554.8749" gradientTransform="matrix(131.6608 131.6608 -131.6608 131.6608 132710.5625 -13484.6211)">
				<stop  offset="0" style="stop-color:#FFFFFF"/>
				<stop  offset="1" style="stop-color:#FFFFFF"/>
			</linearGradient>
			
				<polygon style="clip-path:url(#SVGID_00000073722651069909519730000012159074679575411590_);fill:url(#SVGID_00000005239087308599146580000007174867353209181848_);" points="
				-157.9,254.6 339.3,751.8 836.4,254.6 339.3,-242.5 			"/>
		</g>
	</mask>
	
		<linearGradient id="SVGID_00000169518833899341026960000009308723186461095861_" gradientUnits="userSpaceOnUse" x1="-452.1057" y1="555.1846" x2="-448.5344" y2="555.1846" gradientTransform="matrix(131.6608 131.6608 -131.6608 131.6608 132710.5625 -13484.6211)">
		<stop  offset="0" style="stop-color:#4180AA"/>
		<stop  offset="0.2172" style="stop-color:#35688A"/>
		<stop  offset="0.6912" style="stop-color:#162A38"/>
		<stop  offset="1" style="stop-color:#000000"/>
	</linearGradient>
	
		<polygon style="clip-path:url(#SVGID_00000073722651069909519730000012159074679575411590_);mask:url(#SVGID_00000034795323362845871860000011823275066152692107_);fill:url(#SVGID_00000169518833899341026960000009308723186461095861_);" points="
		-243,254.6 254.2,751.8 758.4,254.6 254.2,-242.5 	"/>
</g>
<g>
	<defs>
		<path id="SVGID_00000101804672475961170210000006065743232186296233_" d="M96.1,437.4c40.7,26.9,103.9,62.8,152.9,62.8
			c24.7,0,71-8.4,71-8.4c90.6-27.2,159.4-105.3,173-201.1c0,0,11.5-91.3-63.3-187L96.1,437.4z"/>
	</defs>
	<clipPath id="SVGID_00000088109594406835473430000004435201689801499065_">
		<use xlink:href="#SVGID_00000101804672475961170210000006065743232186296233_"  style="overflow:visible;"/>
	</clipPath>
	<defs>
		
			<filter id="Adobe_OpacityMaskFilter_00000032634053578363046240000015580582388894740412_" filterUnits="userSpaceOnUse" x="-102.2" y="-100.6" width="890.1" height="805">
			<feColorMatrix  type="matrix" values="1 0 0 0 0  0 1 0 0 0  0 0 1 0 0  0 0 0 1 0"/>
		</filter>
	</defs>
	
		<mask maskUnits="userSpaceOnUse" x="-102.2" y="-100.6" width="890.1" height="805" id="SVGID_00000089541064495659643730000007466992573323297181_">
		<g style="filter:url(#Adobe_OpacityMaskFilter_00000032634053578363046240000015580582388894740412_);">
			
				<linearGradient id="SVGID_00000052087212246681309720000013903746705769641604_" gradientUnits="userSpaceOnUse" x1="-454.9507" y1="548.821" x2="-451.4046" y2="548.821" gradientTransform="matrix(-22.4634 -22.4634 22.4634 -22.4634 -22108.1309 2465.1265)">
				<stop  offset="0" style="stop-color:#000000"/>
				<stop  offset="1" style="stop-color:#FFFFFF"/>
			</linearGradient>
			
				<polygon style="clip-path:url(#SVGID_00000088109594406835473430000004435201689801499065_);fill:url(#SVGID_00000052087212246681309720000013903746705769641604_);" points="
				787.9,301.9 385.4,-100.6 -17,301.9 385.4,704.4 			"/>
		</g>
	</mask>
	
		<linearGradient id="SVGID_00000060726939836428872610000008868602472746447497_" gradientUnits="userSpaceOnUse" x1="-454.2602" y1="547.8738" x2="-450.3392" y2="547.8738" gradientTransform="matrix(-22.4634 -22.4634 22.4634 -22.4634 -22108.1309 2465.1248)">
		<stop  offset="0" style="stop-color:#263C7C"/>
		<stop  offset="1" style="stop-color:#263C7C"/>
	</linearGradient>
	
		<polygon style="clip-path:url(#SVGID_00000088109594406835473430000004435201689801499065_);mask:url(#SVGID_00000089541064495659643730000007466992573323297181_);fill:url(#SVGID_00000060726939836428872610000008868602472746447497_);" points="
		787.9,301.9 300.3,-100.6 -102.2,301.9 300.3,704.4 	"/>
</g>
<g>
	<defs>
		<path id="SVGID_00000065774934543864653810000017424211114402423460_" d="M15.3,333.9c9.1,27.1,22.7,52.2,40.1,74.1
			c0,0,115.1,92.1,193.7,92.1c24.7,0,71-8.4,71-8.4c76.6-23,137.4-82.2,162.8-157.9H15.3z"/>
	</defs>
	<clipPath id="SVGID_00000082353942957990414370000017722247059118679184_">
		<use xlink:href="#SVGID_00000065774934543864653810000017424211114402423460_"  style="overflow:visible;"/>
	</clipPath>
	<defs>
		
			<filter id="Adobe_OpacityMaskFilter_00000045597131405238382980000003337004682772444821_" filterUnits="userSpaceOnUse" x="15.3" y="333.9" width="467.5" height="166.3">
			<feColorMatrix  type="matrix" values="1 0 0 0 0  0 1 0 0 0  0 0 1 0 0  0 0 0 1 0"/>
		</filter>
	</defs>
	
		<mask maskUnits="userSpaceOnUse" x="15.3" y="333.9" width="467.5" height="166.3" id="SVGID_00000053516211902973596150000015537430970196523183_">
		<g style="filter:url(#Adobe_OpacityMaskFilter_00000045597131405238382980000003337004682772444821_);">
			
				<linearGradient id="SVGID_00000055704955157868759430000001188184270351585979_" gradientUnits="userSpaceOnUse" x1="-444.7099" y1="559.699" x2="-441.1638" y2="559.699" gradientTransform="matrix(0 33.2555 -33.2555 0 18862.1035 15150.0322)">
				<stop  offset="0" style="stop-color:#000000"/>
				<stop  offset="1" style="stop-color:#FFFFFF"/>
			</linearGradient>
			
				<rect x="15.3" y="333.9" style="clip-path:url(#SVGID_00000082353942957990414370000017722247059118679184_);fill:url(#SVGID_00000055704955157868759430000001188184270351585979_);" width="467.5" height="166.3"/>
		</g>
	</mask>
	
		<linearGradient id="SVGID_00000111910315665118664400000012173861782605310605_" gradientUnits="userSpaceOnUse" x1="-444.7099" y1="559.699" x2="-441.1638" y2="559.699" gradientTransform="matrix(0 33.2555 -33.2555 0 18862.1035 15150.0322)">
		<stop  offset="0" style="stop-color:#263C7C"/>
		<stop  offset="1" style="stop-color:#263C7C"/>
	</linearGradient>
	
		<rect x="15.3" y="333.9" style="clip-path:url(#SVGID_00000082353942957990414370000017722247059118679184_);mask:url(#SVGID_00000053516211902973596150000015537430970196523183_);fill:url(#SVGID_00000111910315665118664400000012173861782605310605_);" width="467.5" height="166.3"/>
</g>
<g>
	<defs>
		<path id="SVGID_00000180348759097086272470000002433416628533676474_" d="M248.2,6L248.2,6c-13.4,1.5-54.9,19.7-54.9,34.1
			c0,19.8,24.7,56.4,44.6,56.4c20.8,0,58.6-8.5,58.6,12.3c0,21.7,8.6,42.6,23.9,57.9l59.8,59.6c6.1,6.1,16,6.1,22,0
			c9.8-9.8,26.6-2.9,26.6,11v49c0,17.8,14.4,32.3,32.3,32.3c16.1,0,29.6-11.9,32-27.8c1.6-11.4,2.5-23.1,2.5-35
			C495.6,119.5,384.4,6,248.2,6"/>
	</defs>
	<clipPath id="SVGID_00000036968367064005796520000000218059541993899661_">
		<use xlink:href="#SVGID_00000180348759097086272470000002433416628533676474_"  style="overflow:visible;"/>
	</clipPath>
	<defs>
		
			<filter id="Adobe_OpacityMaskFilter_00000049206994117297980410000014984340554043205527_" filterUnits="userSpaceOnUse" x="-28.2" y="-196.8" width="705.1" height="697">
			<feColorMatrix  type="matrix" values="1 0 0 0 0  0 1 0 0 0  0 0 1 0 0  0 0 0 1 0"/>
		</filter>
	</defs>
	
		<mask maskUnits="userSpaceOnUse" x="-28.2" y="-196.8" width="705.1" height="697" id="SVGID_00000164512621875584249130000004721908350421325228_">
		<g style="filter:url(#Adobe_OpacityMaskFilter_00000049206994117297980410000014984340554043205527_);">
			
				<linearGradient id="SVGID_00000080196188671186639690000005536353667677175436_" gradientUnits="userSpaceOnUse" x1="-452.014" y1="554.5624" x2="-447.9936" y2="554.5624" gradientTransform="matrix(106.5356 106.5353 -106.5353 106.5356 107504.2266 -10922.1133)">
				<stop  offset="0" style="stop-color:#FFFFFF"/>
				<stop  offset="1" style="stop-color:#FFFFFF"/>
			</linearGradient>
			
				<polygon style="clip-path:url(#SVGID_00000036968367064005796520000000218059541993899661_);fill:url(#SVGID_00000080196188671186639690000005536353667677175436_);" points="
				68.3,151.7 416.8,500.2 765.3,151.7 416.8,-196.8 			"/>
		</g>
	</mask>
	
		<linearGradient id="SVGID_00000143592160315208874930000000575780797563487111_" gradientUnits="userSpaceOnUse" x1="-452.4641" y1="554.9963" x2="-448.3973" y2="554.9963" gradientTransform="matrix(106.5356 106.5353 -106.5353 106.5356 107504.2266 -10922.1133)">
		<stop  offset="0" style="stop-color:#99CA49"/>
		<stop  offset="0.1859" style="stop-color:#95C94A"/>
		<stop  offset="0.3551" style="stop-color:#8AC44C"/>
		<stop  offset="0.5179" style="stop-color:#78BD50"/>
		<stop  offset="0.6767" style="stop-color:#5EB355"/>
		<stop  offset="0.8325" style="stop-color:#3CA65C"/>
		<stop  offset="0.9842" style="stop-color:#149665"/>
		<stop  offset="1" style="stop-color:#0F9466"/>
	</linearGradient>
	
		<polygon style="clip-path:url(#SVGID_00000036968367064005796520000000218059541993899661_);mask:url(#SVGID_00000164512621875584249130000004721908350421325228_);fill:url(#SVGID_00000143592160315208874930000000575780797563487111_);" points="
		-28.2,151.7 320.3,500.2 676.9,151.7 320.3,-196.8 	"/>
</g>
<g>
	<defs>
		<path id="SVGID_00000026146841119998071010000016299847259391017608_" d="M343.7,189.8l36.5,36.5c6.1,6.1,16,6.1,22,0
			c9.8-9.8,26.6-2.9,26.6,11v49c0,17.8,14.4,32.3,32.3,32.3c16.1,0,29.6-11.9,32-27.8c1.6-11.4,2.5-23.1,2.5-35
			c0-60.7-21.9-116.3-58.4-159.3L343.7,189.8z"/>
	</defs>
	<clipPath id="SVGID_00000119810515671427656570000006777191794607022753_">
		<use xlink:href="#SVGID_00000026146841119998071010000016299847259391017608_"  style="overflow:visible;"/>
	</clipPath>
	<defs>
		
			<filter id="Adobe_OpacityMaskFilter_00000018225774112936788950000017822112801218353029_" filterUnits="userSpaceOnUse" x="232.7" y="20.5" width="459" height="373.9">
			<feColorMatrix  type="matrix" values="1 0 0 0 0  0 1 0 0 0  0 0 1 0 0  0 0 0 1 0"/>
		</filter>
	</defs>
	
		<mask maskUnits="userSpaceOnUse" x="232.7" y="20.5" width="459" height="373.9" id="SVGID_00000163751438425290964980000011344378075758738825_">
		<g style="filter:url(#Adobe_OpacityMaskFilter_00000018225774112936788950000017822112801218353029_);">
			
				<linearGradient id="SVGID_00000156562572589765427310000018271408877802350475_" gradientUnits="userSpaceOnUse" x1="-455.4333" y1="551.5045" x2="-451.8872" y2="551.5045" gradientTransform="matrix(-17.5001 -17.4998 17.4998 -17.5001 -17089.9961 1915.4263)">
				<stop  offset="0" style="stop-color:#000000"/>
				<stop  offset="0.4554" style="stop-color:#747474"/>
				<stop  offset="1" style="stop-color:#FFFFFF"/>
			</linearGradient>
			
				<polygon style="clip-path:url(#SVGID_00000119810515671427656570000006777191794607022753_);fill:url(#SVGID_00000156562572589765427310000018271408877802350475_);" points="
				691.7,207.5 504.7,20.5 317.8,207.5 504.7,394.4 			"/>
		</g>
	</mask>
	
		<linearGradient id="SVGID_00000152222611438132584900000000029873604585400976_" gradientUnits="userSpaceOnUse" x1="-454.5631" y1="550.2887" x2="-450.2098" y2="550.2887" gradientTransform="matrix(-17.5001 -17.4998 17.4998 -17.5001 -17089.9961 1915.4263)">
		<stop  offset="0" style="stop-color:#0F9466"/>
		<stop  offset="0.4554" style="stop-color:#128F61"/>
		<stop  offset="1" style="stop-color:#078056"/>
	</linearGradient>
	
		<polygon style="clip-path:url(#SVGID_00000119810515671427656570000006777191794607022753_);mask:url(#SVGID_00000163751438425290964980000011344378075758738825_);fill:url(#SVGID_00000152222611438132584900000000029873604585400976_);" points="
		691.7,207.5 419.6,20.5 232.7,207.5 419.6,394.4 	"/>
</g>
<g>
	<defs>
		<path id="SVGID_00000047769388695906950360000004965774134876425345_" d="M55.3,408c45.2,57.3,115.1,94.1,193.7,94.1
			c24.7,0,48.6-3.6,71-10.4c45.1-13.5,59.5-70.1,26.2-103.5c-11.6-11.6-27.4-18.2-43.9-18.2h-24.3c-18.5,0-36.3-7.3-49.4-20.4
			c-11.7-11.7-18.3-27.6-18.3-44.3c0-16.6-6.6-32.6-18.3-44.3l-19.5-19.5c-8-8-8-20.9,0-28.9c11.5-11.5,5.7-31.1-10.2-34.6
			l-25.2-5.4c-25.8-5.5-79.3,8.7-96.3,28.9C2.8,247,31.2,318.9,46,333.8c11.1,11.1,69.9-3.1,69.9,12.6c0,15.8,5.3-4.3-5.9,6.9
			L55.3,408z"/>
	</defs>
	<clipPath id="SVGID_00000033338291262692234720000001169475973283293600_">
		<use xlink:href="#SVGID_00000047769388695906950360000004965774134876425345_"  style="overflow:visible;"/>
	</clipPath>
	<defs>
		
			<filter id="Adobe_OpacityMaskFilter_00000048469438871229180210000008336808603726925441_" filterUnits="userSpaceOnUse" x="-86.7" y="-21.3" width="633.8" height="711.8">
			<feColorMatrix  type="matrix" values="1 0 0 0 0  0 1 0 0 0  0 0 1 0 0  0 0 0 1 0"/>
		</filter>
	</defs>
	
		<mask maskUnits="userSpaceOnUse" x="-86.7" y="-21.3" width="633.8" height="711.8" id="SVGID_00000013910713555075102780000015814540503101660606_">
		<g style="filter:url(#Adobe_OpacityMaskFilter_00000048469438871229180210000008336808603726925441_);">
			
				<linearGradient id="SVGID_00000020361968081974000070000008780356190486416275_" gradientUnits="userSpaceOnUse" x1="-451.7066" y1="555.515" x2="-448.1605" y2="555.515" gradientTransform="matrix(109.5955 109.5958 -109.5958 109.5955 110522.5938 -11175.9238)">
				<stop  offset="0" style="stop-color:#FFFFFF"/>
				<stop  offset="1" style="stop-color:#FFFFFF"/>
			</linearGradient>
			
				<polygon style="clip-path:url(#SVGID_00000033338291262692234720000001169475973283293600_);fill:url(#SVGID_00000020361968081974000070000008780356190486416275_);" points="
				-86.7,334.6 269.2,690.5 625.1,334.6 269.2,-21.3 			"/>
		</g>
	</mask>
	
		<linearGradient id="SVGID_00000084510729364148085420000007254055052796481726_" gradientUnits="userSpaceOnUse" x1="-452.0625" y1="555.8709" x2="-448.5164" y2="555.8709" gradientTransform="matrix(109.5955 109.5958 -109.5958 109.5955 110522.5938 -11175.9238)">
		<stop  offset="0" style="stop-color:#99CA49"/>
		<stop  offset="0.1859" style="stop-color:#95C94A"/>
		<stop  offset="0.3551" style="stop-color:#8AC44C"/>
		<stop  offset="0.5179" style="stop-color:#78BD50"/>
		<stop  offset="0.6767" style="stop-color:#5EB355"/>
		<stop  offset="0.8325" style="stop-color:#3CA65C"/>
		<stop  offset="0.9842" style="stop-color:#149665"/>
		<stop  offset="1" style="stop-color:#0F9466"/>
	</linearGradient>
	
		<polygon style="clip-path:url(#SVGID_00000033338291262692234720000001169475973283293600_);mask:url(#SVGID_00000013910713555075102780000015814540503101660606_);fill:url(#SVGID_00000084510729364148085420000007254055052796481726_);" points="
		-86.7,334.6 191.2,690.5 547.1,334.6 191.2,-21.3 	"/>
</g>
<g>
	<defs>
		<path id="SVGID_00000007414329138426950320000000577896931670542746_" d="M144.3,74.9c20.1,0,47.7-2.9,47.7,17.2
			c0,20.1,20.1,81,0,81c-20.1,0-84.1-41.8-84.1-61.8C107.8,91.3,124.3,74.9,144.3,74.9"/>
	</defs>
	<clipPath id="SVGID_00000037669909167398205440000012369235884779247515_">
		<use xlink:href="#SVGID_00000007414329138426950320000000577896931670542746_"  style="overflow:visible;"/>
	</clipPath>
	<defs>
		
			<filter id="Adobe_OpacityMaskFilter_00000079448476662105563010000016992567459410884537_" filterUnits="userSpaceOnUse" x="57.3" y="19.9" width="205.4" height="205.4">
			<feColorMatrix  type="matrix" values="1 0 0 0 0  0 1 0 0 0  0 0 1 0 0  0 0 0 1 0"/>
		</filter>
	</defs>
	
		<mask maskUnits="userSpaceOnUse" x="57.3" y="19.9" width="205.4" height="205.4" id="SVGID_00000021801249485522362310000009693112471476067511_">
		<g style="filter:url(#Adobe_OpacityMaskFilter_00000079448476662105563010000016992567459410884537_);">
			
				<linearGradient id="SVGID_00000010280915045405113030000007015005631040638859_" gradientUnits="userSpaceOnUse" x1="-453.688" y1="557.0088" x2="-450.142" y2="557.0088" gradientTransform="matrix(48.9178 48.9178 -48.9178 48.9178 49567.9102 -4964.7188)">
				<stop  offset="0" style="stop-color:#FFFFFF"/>
				<stop  offset="1" style="stop-color:#FFFFFF"/>
			</linearGradient>
			
				<polygon style="clip-path:url(#SVGID_00000037669909167398205440000012369235884779247515_);fill:url(#SVGID_00000010280915045405113030000007015005631040638859_);" points="
				57.3,122.6 160,225.3 262.7,122.6 160,19.9 			"/>
		</g>
	</mask>
	
		<linearGradient id="SVGID_00000160155862226671417380000017096495238031116199_" gradientUnits="userSpaceOnUse" x1="-453.688" y1="557.0088" x2="-450.142" y2="557.0088" gradientTransform="matrix(48.9178 48.9178 -48.9178 48.9178 49567.918 -4964.7197)">
		<stop  offset="0" style="stop-color:#99CA49"/>
		<stop  offset="0.1859" style="stop-color:#95C94A"/>
		<stop  offset="0.3551" style="stop-color:#8AC44C"/>
		<stop  offset="0.5179" style="stop-color:#78BD50"/>
		<stop  offset="0.6767" style="stop-color:#5EB355"/>
		<stop  offset="0.8325" style="stop-color:#3CA65C"/>
		<stop  offset="0.9842" style="stop-color:#149665"/>
		<stop  offset="1" style="stop-color:#0F9466"/>
	</linearGradient>
	
		<polygon style="clip-path:url(#SVGID_00000037669909167398205440000012369235884779247515_);mask:url(#SVGID_00000021801249485522362310000009693112471476067511_);fill:url(#SVGID_00000160155862226671417380000017096495238031116199_);" points="
		57.3,122.6 160,225.3 262.7,122.6 160,19.9 	"/>
</g>
<g>
	<defs>
		<path id="SVGID_00000145049364031773788100000002246098121558884737_" d="M109.9,353.5L55.3,408c45.2,57.3,115.1,94.1,193.7,94.1
			c24.7,0,48.6-3.6,71-10.4c45.1-13.5,59.5-70.1,26.2-103.5c-11.6-11.6-27.4-18.2-43.9-18.2h-24.3c-18.5,0-36.3-7.3-49.4-20.4
			c-4.6-4.6-8.5-10-11.4-15.7H123C120,341.1,115.6,347.8,109.9,353.5"/>
	</defs>
	<clipPath id="SVGID_00000177466024540062599820000017935866153879455915_">
		<use xlink:href="#SVGID_00000145049364031773788100000002246098121558884737_"  style="overflow:visible;"/>
	</clipPath>
	<defs>
		
			<filter id="Adobe_OpacityMaskFilter_00000056408518428604318920000007835653000029862576_" filterUnits="userSpaceOnUse" x="55.3" y="333.8" width="324.2" height="168.3">
			<feColorMatrix  type="matrix" values="1 0 0 0 0  0 1 0 0 0  0 0 1 0 0  0 0 0 1 0"/>
		</filter>
	</defs>
	
		<mask maskUnits="userSpaceOnUse" x="55.3" y="333.8" width="324.2" height="168.3" id="SVGID_00000124126426700554889880000001754873820315469496_">
		<g style="filter:url(#Adobe_OpacityMaskFilter_00000056408518428604318920000007835653000029862576_);">
			
				<linearGradient id="SVGID_00000178905348983682979400000001577300441381417136_" gradientUnits="userSpaceOnUse" x1="-444.9691" y1="559.7518" x2="-441.4231" y2="559.7518" gradientTransform="matrix(0 36.5264 -36.5264 0 20663.1875 16629.5996)">
				<stop  offset="0" style="stop-color:#000000"/>
				<stop  offset="0.4554" style="stop-color:#747474"/>
				<stop  offset="1" style="stop-color:#FFFFFF"/>
			</linearGradient>
			
				<rect x="55.3" y="333.8" style="clip-path:url(#SVGID_00000177466024540062599820000017935866153879455915_);fill:url(#SVGID_00000178905348983682979400000001577300441381417136_);" width="324.2" height="168.3"/>
		</g>
	</mask>
	
		<linearGradient id="SVGID_00000064322213583202865490000000343585801400384413_" gradientUnits="userSpaceOnUse" x1="-444.9691" y1="559.7518" x2="-441.4231" y2="559.7518" gradientTransform="matrix(0 36.5264 -36.5264 0 20663.1875 16629.5996)">
		<stop  offset="0" style="stop-color:#0F9466"/>
		<stop  offset="0.4554" style="stop-color:#128F61"/>
		<stop  offset="1" style="stop-color:#078056"/>
	</linearGradient>
	
		<rect x="55.3" y="333.8" style="clip-path:url(#SVGID_00000177466024540062599820000017935866153879455915_);mask:url(#SVGID_00000124126426700554889880000001754873820315469496_);fill:url(#SVGID_00000064322213583202865490000000343585801400384413_);" width="324.2" height="168.3"/>
</g>
<g>
	<defs>
		<path id="SVGID_00000017487051191099890960000006560519853857695668_" d="M224.7,352.1c-8-8-13.6-17.9-16.4-28.6l-123.1,123
			c43.2,36.6,99,58.6,160,58.6c24.7,0.1,48.7-3.6,71.3-10.3"/>
	</defs>
	<defs>
		<path id="SVGID_00000150788189933553502430000006042932742903772316_" d="M316.5,494.7c45.3-13.6,59.8-70.4,26.3-103.9
			c-11.7-11.7-27.5-18.2-44.1-18.2h-24.4"/>
	</defs>
	<clipPath id="SVGID_00000139275919842418551980000003753190382669927322_">
		<use xlink:href="#SVGID_00000017487051191099890960000006560519853857695668_"  style="overflow:visible;"/>
	</clipPath>
	
		<clipPath id="SVGID_00000172424422610925265620000007027781839896758457_" style="clip-path:url(#SVGID_00000139275919842418551980000003753190382669927322_);">
		<use xlink:href="#SVGID_00000150788189933553502430000006042932742903772316_"  style="overflow:visible;"/>
	</clipPath>
	<defs>
		
			<filter id="Adobe_OpacityMaskFilter_00000047763113352150457350000008175481133248708013_" filterUnits="userSpaceOnUse" x="-5.7" y="177.9" width="472.8" height="472.8">
			<feColorMatrix  type="matrix" values="1 0 0 0 0  0 1 0 0 0  0 0 1 0 0  0 0 0 1 0"/>
		</filter>
	</defs>
	
		<mask maskUnits="userSpaceOnUse" x="-5.7" y="177.9" width="472.8" height="472.8" id="SVGID_00000106111201004081965950000013165384933272793990_">
		<g style="filter:url(#Adobe_OpacityMaskFilter_00000047763113352150457350000008175481133248708013_);">
			
				<linearGradient id="SVGID_00000029738628246061563380000004494506638390455207_" gradientUnits="userSpaceOnUse" x1="-453.019" y1="545.1647" x2="-449.4729" y2="545.1647" gradientTransform="matrix(-25.1342 -25.1342 25.1342 -25.1342 -24818.2969 2769.7817)">
				<stop  offset="0" style="stop-color:#000000"/>
				<stop  offset="0.4554" style="stop-color:#747474"/>
				<stop  offset="1" style="stop-color:#FFFFFF"/>
			</linearGradient>
			
				<polygon style="clip-path:url(#SVGID_00000172424422610925265620000007027781839896758457_);fill:url(#SVGID_00000029738628246061563380000004494506638390455207_);" points="
				467.1,414.3 230.7,177.9 -5.7,414.3 230.7,650.6 			"/>
		</g>
	</mask>
	
		<linearGradient id="SVGID_00000062892200182990537200000001311228514393980086_" gradientUnits="userSpaceOnUse" x1="-453.019" y1="545.1647" x2="-449.4729" y2="545.1647" gradientTransform="matrix(-25.1342 -25.1342 25.1342 -25.1342 -24818.2969 2769.7817)">
		<stop  offset="0" style="stop-color:#0F9466"/>
		<stop  offset="0.4554" style="stop-color:#128F61"/>
		<stop  offset="1" style="stop-color:#078056"/>
	</linearGradient>
	
		<polygon style="clip-path:url(#SVGID_00000172424422610925265620000007027781839896758457_);mask:url(#SVGID_00000106111201004081965950000013165384933272793990_);fill:url(#SVGID_00000062892200182990537200000001311228514393980086_);" points="
		467.1,414.3 230.7,177.9 -5.7,414.3 230.7,650.6 	"/>
</g>
<g>
	<defs>
		<path id="SVGID_00000114790600371393265140000015935343849540006576_" d="M292.5,269.6l128.7-128.7l-59.4-59.4L233.1,210.2
			c-7.6,7.6-7.6,19.9,0,27.5l31.9,31.9C272.6,277.2,284.9,277.2,292.5,269.6"/>
	</defs>
	<clipPath id="SVGID_00000101068062946801360910000017132226741884458419_">
		<use xlink:href="#SVGID_00000114790600371393265140000015935343849540006576_"  style="overflow:visible;"/>
	</clipPath>
</g>
<g>
	<path class="st28" d="M129.4,173.9c37.8,0,66.3,21.3,75.3,55.6h-42.5c-6.6-13.6-18.5-20.4-33.3-20.4c-23.8,0-40,17.6-40,45.7
		c0,28,16.3,45.7,40,45.7c14.7,0,26.7-6.8,33.3-20.4h42.5c-9,34.4-37.6,55.4-75.3,55.4c-46.8,0-79.9-33.3-79.9-80.8
		C49.5,207.4,82.6,173.9,129.4,173.9z"/>
	<path class="st28" d="M297,336.1c-45,0-81.7-33.7-81.7-81.4c0-47.7,36.6-81.2,81.7-81.2c45.2,0,81.2,33.5,81.2,81.2
		C378.2,302.4,342,336.1,297,336.1z M297,300.8c25.3,0,41.8-18.3,41.8-46.1c0-28.3-16.5-46.1-41.8-46.1c-25.8,0-42.1,17.9-42.1,46.1
		C254.9,282.5,271.2,300.8,297,300.8z"/>
	<path class="st28" d="M384.2,316.6c20.3-16.7,41.8-33.3,41.8-49.4c0-6.9-3.1-11.4-9.9-11.4c-6.7,0-10.6,5.2-10.6,14.2H384
		C384.6,247,399.6,237,417,237c21.7,0,31.4,12.7,31.4,28.8c0,20.9-18.7,37.6-33.9,49.3h35.3v18.2h-65.6V316.6z"/>
</g>
</svg>
