<?xml version="1.0" encoding="utf-8"?>
<!-- Generator: Adobe Illustrator 27.3.0, SVG Export Plug-In . SVG Version: 6.00 Build 0)  -->
<svg version="1.1" id="Capa_1" xmlns="http://www.w3.org/2000/svg" xmlns:xlink="http://www.w3.org/1999/xlink" x="0px" y="0px"
	 viewBox="0 0 512 512" style="enable-background:new 0 0 512 512;" xml:space="preserve">
<style type="text/css">
	.st0{fill:#CAE0E5;}
	.st1{fill:#4FC3CB;}
	.st2{fill:#17562C;}
	.st3{fill:#25B04B;}
	.st4{fill:#FFFFFF;}
	.st5{fill:#FCB52D;}
	.st6{fill:#F37B32;}
	.st7{fill:#DBE5EA;}
	.st8{fill:#EFEEEE;}
	.st9{fill:#102A4C;}
	.st10{fill:#17578E;}
	.st11{fill:#004A68;}
	.st12{fill:#112A4C;}
</style>
<path class="st0" d="M14.6,306.3l413.9,125.6c29.7-28.5,52.8-64.7,65.5-106.9c39.8-131-34.2-269.5-165.3-309.3S59.2,50,19.5,181
	C6.7,223.2,5.7,266.2,14.6,306.3z"/>
<path class="st0" d="M497.4,204.7L83.5,79.1C53.8,107.5,30.8,143.8,18,186c-39.8,131,34.2,269.5,165.3,309.3S452.8,461,492.5,330
	C505.3,287.8,506.3,244.8,497.4,204.7z"/>
<path class="st1" d="M494,325c21.5-71,9.7-144.1-26.5-202.6c-26.8,10.4-55.9,29.2-54.2,63.3c3.2,60.4-96.3,67.8-8.9,137.4
	c32.4,25.8,50.3,47.8,60,65.4C477,369.3,487,348,494,325z"/>
<path class="st1" d="M19.5,181C41,110,91.5,55.8,154.1,27.3c16.5,23.6,30.3,55.4,9.8,82.7c-36.2,48.5,42.4,109.9-69,119.2
	c-41.2,3.4-68.4,11.8-86.2,21C9,227.3,12.5,204.1,19.5,181z"/>
<g id="surface1_00000056423515089954594430000007639544497709609656_">
	<path class="st2" d="M55.4,428.2l1-183.3c0.1-18.4,15.1-33.2,33.5-33.1l333.3,1.9c18.4,0.1,33.2,15.1,33.1,33.5l-1,183.3
		c-0.1,18.4-15.1,33.2-33.5,33.1l-333.3-1.9C70.2,461.6,55.3,446.6,55.4,428.2z"/>
	<path class="st3" d="M423.2,213.6l-35.4-0.2L136.5,462l285.4,1.6c18.4,0.1,33.4-14.7,33.5-33.1l1-183.3
		C456.5,228.8,441.6,213.8,423.2,213.6z"/>
	<path class="st4" d="M89.2,345.1l33.3,0.2l-0.1,16.7l-33.3-0.2L89.2,345.1z"/>
	<path class="st4" d="M88.9,395.1l33.3,0.2l-0.1,16.7l-33.3-0.2L88.9,395.1z"/>
	<path class="st4" d="M238.9,395.9l33.3,0.2l-0.1,16.7l-33.3-0.2L238.9,395.9z"/>
	<path class="st4" d="M139.2,345.4l33.3,0.2l-0.1,16.7l-33.3-0.2L139.2,345.4z"/>
	<path class="st4" d="M189.2,345.6l33.3,0.2l-0.1,16.7l-33.3-0.2L189.2,345.6z"/>
	<path class="st4" d="M239.2,345.9l33.3,0.2l-0.1,16.7l-33.3-0.2L239.2,345.9z"/>
	<path class="st4" d="M398,246.8l16.7,0.1l-0.1,25l-16.7-0.1L398,246.8z"/>
	<path class="st4" d="M364.7,246.6l16.7,0.1l-0.1,25l-16.7-0.1L364.7,246.6z"/>
	<path class="st4" d="M331.4,246.5l16.7,0.1l-0.1,25l-16.7-0.1L331.4,246.5z"/>
	<path class="st4" d="M298.1,246.3l16.7,0.1l-0.1,25l-16.7-0.1L298.1,246.3z"/>
	<path class="st5" d="M89.5,298.4l0.2-40c0-7.4,6-13.3,13.4-13.3l40,0.2c7.4,0,13.3,6,13.3,13.4l-0.2,40c0,7.4-6,13.3-13.4,13.3
		l-40-0.2C95.4,311.8,89.4,305.8,89.5,298.4z"/>
	<path class="st6" d="M89.6,270.1l25,0.1l-0.1,16.7l-25-0.1L89.6,270.1z"/>
	<path class="st6" d="M131.3,270.3l25,0.1l-0.1,16.7l-25-0.1L131.3,270.3z"/>
</g>
<g id="g2015_00000070833151799334425260000001936733494999122101_" transform="translate(0,470.1105)">
	<path id="path2017_00000086664441833624072800000013227985459372241835_" class="st3" d="M173.6-400.3v43.9l89.1,4.3l4.3-17.2
		l-4.3-31.1H173.6z"/>
</g>
<g id="g2019_00000107580500471464000570000007590671857939585201_" transform="translate(205.5381,470.1108)">
	<path id="path2021_00000173842960192267667800000013632900202362136765_" class="st2" d="M57.2-400.3v48.2l89.1-4.3v-43.9H57.2z"/>
</g>
<g id="g2023_00000132066611379832212800000006205813509949511827_">
	<g>
		<g>
			<g id="g2025_00000058582321519199585530000002060797530847892120_">
				<g id="g2031_00000003818170234996307750000014520867282985754551_" transform="translate(0,368.9092)">
					<path id="path2033_00000014602457413934790470000005729599989508551814_" class="st7" d="M173.6-255.2v110.7
						c0,6.1,5,11.1,11.1,11.1h78l8.7-68.7l-8.7-53.1H173.6z"/>
				</g>
				<g id="g2035_00000120524865885115791040000007793950685522174879_" transform="translate(205.5381,87.9688)">
					<path id="path2037_00000030451439197420995440000007891277087521117370_" class="st8" d="M57.2,147.6h78
						c6.1,0,11.1-5,11.1-11.1V25.8H57.2V147.6z"/>
				</g>
				<path id="path2039_00000080193368105777819880000009176191930570950305_" class="st9" d="M210.1,88h-13V51.7h13V88z"/>
				<path id="path2041_00000016067789305827165940000005759139753461236153_" class="st9" d="M239.7,88h-13V51.7h13V88z"/>
				<path id="path2043_00000093177062930563547070000011519367697192192429_" class="st10" d="M298.8,88h-13V51.7h13V88z"/>
				<path id="path2045_00000121976696096497487510000011913265227628103074_" class="st10" d="M328.4,88h-13V51.7h13V88z"/>
				<g id="g2051_00000005239142348302529750000010441623811703900562_" transform="translate(190.5381,512)">
					<path id="path2053_00000044155501953287439800000008249302743755650491_" class="st9" d="M65.7-460.3v36.3h6.5l4.3-18.2
						l-4.3-18.2H65.7z"/>
				</g>
				<path id="path2055_00000147200934391225101060000003170165773021901716_" class="st10" d="M269.2,51.7h-6.5V88h6.5V51.7z"/>
			</g>
		</g>
	</g>
</g>
<g>
	<path class="st12" d="M198.3,197.8c17.9-14.8,37-29.5,37-43.7c0-6.1-2.8-10.1-8.8-10.1c-5.9,0-9.4,4.6-9.4,12.6h-19.1
		c0.6-20.5,13.9-29.3,29.3-29.3c19.2,0,27.8,11.2,27.8,25.5c0,18.5-16.5,33.3-30,43.6h31.2v16.1h-58.1V197.8z"/>
	<path class="st12" d="M264.7,150.1c0-12,9.4-22.7,29.3-22.7c19.9,0,29.2,10.6,29.2,22.7c0,8.7-4.5,14.8-10.9,18.2
		c8.2,3.9,13,11,13,20.6c0,16.9-14,26.4-31.2,26.4c-17.2,0-31.2-9.5-31.2-26.4c0-9.6,4.7-16.8,12.8-20.6
		C269.1,164.8,264.7,159,264.7,150.1z M281.9,188c0,6.4,4.5,11.1,12.1,11.1c7.5,0,11.9-4.9,11.9-11.1c0-6.9-4.9-11.1-11.9-11.1
		S281.9,180.8,281.9,188z M304,153.1c0-6.4-4-10-9.9-10c-5.9,0-9.9,3.6-9.9,10.1c0,6.1,4.3,9.7,9.9,9.7
		C299.7,163,304,159.3,304,153.1z"/>
</g>
</svg>
