<?xml version="1.0" encoding="utf-8"?>
<!-- Generator: Adobe Illustrator 27.3.0, SVG Export Plug-In . SVG Version: 6.00 Build 0)  -->
<svg version="1.1" id="Capa_1" xmlns="http://www.w3.org/2000/svg" xmlns:xlink="http://www.w3.org/1999/xlink" x="0px" y="0px"
	 viewBox="0 0 512 512" style="enable-background:new 0 0 512 512;" xml:space="preserve">
<style type="text/css">
	.st0{fill:#FBB970;}
	.st1{fill:#CE8449;}
	.st2{fill:#D5E9F8;}
	.st3{fill:#ABCDDD;}
	.st4{fill:#F05859;}
	.st5{fill:#EE3C38;}
	.st6{fill:#4EC3CC;}
	.st7{fill:#07B4C0;}
	.st8{fill:#112A4C;}
	.st9{fill:none;stroke:#FFFFFF;stroke-width:1.396;stroke-miterlimit:10;}
	.st10{fill:#00ADEE;}
	.st11{fill:#F6921E;}
	.st12{fill:#12284C;}
</style>
<path class="st0" d="M463.4,242.6v-42.1L370,189.8c0-1.2-1-2.2-2.2-2.2h-64.6h-64.6c-1.2,0-2.2,1-2.2,2.2v63V318h66.8H370h89.7
	l3.7-41.6C483.4,283.2,466.2,242.6,463.4,242.6"/>
<rect x="310.7" y="200.8" class="st1" width="66.8" height="32.5"/>
<rect x="389.3" y="287.3" class="st1" width="66.8" height="32.5"/>
<rect x="53.3" y="206.2" class="st2" width="99.8" height="72.9"/>
<rect x="93.3" y="206.2" class="st3" width="55.7" height="72.9"/>
<path class="st4" d="M194.6,330.1l-19.8-26.5c0,7.1-12.7-11.1-19.8-11.1l-116.7,4.6c-3.5,0-6,3.2-5.3,6.5
	c4,18.7,13.6,43.5,36.1,68.7c4.3,4.7,5.1,11.6,2.5,17.3l-2.7,19.7c-2.1,4.3-0.6,14,4.1,14l379.5,0.9c2.5,0,4.7-1.4,5.7-3.7
	l27.3-88.4c-38.5,56.5-1.3-4-5.9-4l-28,1C444.4,329.1,194.6,323,194.6,330.1"/>
<path class="st5" d="M480.3,320.1h-50.5L393.9,401h56.5c2.5,0,4.7-1.4,5.7-3.7l29.9-68.2C488.1,325.1,485,320.1,480.3,320.1"/>
<rect x="231.9" y="244" class="st1" width="66.8" height="32.5"/>
<path class="st6" d="M70.1,378.9c0.6,3.3,0.2,6.7-1.3,9.8l4.1,25.4c-2.1,4.3,16.3,7,0,9.2h376.8c2.5,0,4.7-1.4,5.7-3.7l19.1-40.8
	H70.1z"/>
<path class="st7" d="M402.9,378.9L382,423.3h56.5c0.3,0,0.6,0,0.9-0.1c0.6-0.1,1.2-0.3,1.7-0.5c0.5-0.2,1.1-0.6,1.5-1
	c0.7-0.6,1.3-1.3,1.7-2.2l19.1-40.8L402.9,378.9L402.9,378.9z"/>
<path class="st8" d="M158.2,300.2l24.1,35.5H474l-35.4,78.4H87l-49.6-114H158.2z M451.5,314.6h-57.6v-22.2h57.6V314.6z M451.5,271.5
	h-57.6v-22.2h57.6V271.5z M451.5,228.2h-57.6v-22.2h57.6V228.2z M372.8,314.6h-57.6v-22.2h57.6V314.6z M372.8,271.5h-57.6v-22.2
	h57.6V271.5z M372.8,228.2h-57.6v-22.2h57.6V228.2z M294.1,314.6h-57.6v-22.2h57.6V314.6z M294.1,271.5h-57.6v-22.2h57.6V271.5z
	 M294.1,228.2h-57.6v-22.2h57.6V228.2z M136.7,279.2h-73v-70c0-1.7,1.4-3.1,3.1-3.1h69.9V279.2z M42.7,279.2H5.3l67.6,156h379.5
	l54.4-120.6h-34.1V185H215.5v129.6h-22l-24.1-35.5h-11.5V185h-44.8v-65.3H92V185H66.8c-13.4,0-24.1,10.9-24.1,24.1V279.2z"/>
<path class="st9" d="M451.5,314.6h-57.6v-22.2h57.6V314.6z M451.5,271.5h-57.6v-22.2h57.6V271.5z M451.5,228.2h-57.6v-22.2h57.6
	V228.2z M372.8,314.6h-57.6v-22.2h57.6V314.6z M372.8,271.5h-57.6v-22.2h57.6V271.5z M372.8,228.2h-57.6v-22.2h57.6V228.2z
	 M294.1,314.6h-57.6v-22.2h57.6V314.6z M294.1,271.5h-57.6v-22.2h57.6V271.5z M294.1,228.2h-57.6v-22.2h57.6V228.2z M136.7,279.2
	h-73v-70c0-1.7,1.4-3.1,3.1-3.1h69.9V279.2z"/>
<path class="st10" d="M347.9,106.2l29.7,13.3V76.8h-73.4v42.6l29.7-13.3C338.4,104.2,343.5,104.2,347.9,106.2z"/>
<path class="st11" d="M474,76.8h-62.1v69.1c0,5.8-2.9,11.2-7.8,14.4c-4.8,3.1-11.1,3.6-16.3,1.3l-46.9-21l-46.8,21
	c-5.4,2.4-11.5,1.9-16.3-1.3c-4.9-3.2-7.8-8.5-7.8-14.4V76.8h-62.1V318H474V76.8z"/>
<rect x="263.2" y="256.5" class="st12" width="34.9" height="34.3"/>
<rect x="323.5" y="256.5" class="st12" width="34.9" height="34.3"/>
<rect x="383.7" y="256.5" class="st12" width="34.9" height="34.3"/>
</svg>
