<?xml version="1.0" encoding="utf-8"?>
<!-- Generator: Adobe Illustrator 27.3.0, SVG Export Plug-In . SVG Version: 6.00 Build 0)  -->
<svg version="1.1" id="Capa_1" xmlns="http://www.w3.org/2000/svg" xmlns:xlink="http://www.w3.org/1999/xlink" x="0px" y="0px"
	 viewBox="0 0 512 512" style="enable-background:new 0 0 512 512;" xml:space="preserve">
<style type="text/css">
	.st0{fill:#FFC06C;}
	.st1{fill:#D38742;}
	.st2{fill:#E1EFFB;}
	.st3{fill:#BAD5E5;}
	.st4{fill:#FF4C4C;}
	.st5{fill:#EF2929;}
	.st6{fill:#33D8DD;}
	.st7{fill:#0FB0C0;}
	.st8{fill:#12284C;stroke:#FFFFFF;stroke-width:5;stroke-miterlimit:10;}
</style>
<path class="st0" d="M465.7,221.8v-42.6l-94.4-10.7c0-1.2-1-2.2-2.2-2.2h-65.3h-65.3c-1.2,0-2.2,1-2.2,2.2v63.7v65.9h67.5h67.5H462
	l3.7-42.1C485.9,262.9,468.5,221.8,465.7,221.8z"/>
<rect x="311.3" y="179.6" class="st1" width="67.5" height="32.9"/>
<rect x="390.8" y="267" class="st1" width="67.5" height="32.9"/>
<rect x="51.1" y="185" class="st2" width="100.9" height="73.7"/>
<rect x="91.6" y="185" class="st3" width="56.3" height="73.7"/>
<path class="st4" d="M194,310.3l-20-26.8c0,7.2-12.8-11.2-20-11.2l-118,4.7c-3.5,0-6.1,3.2-5.4,6.6c4,18.9,13.7,44,36.5,69.4
	c4.3,4.8,5.2,11.7,2.5,17.5l-2.7,19.9c-2.1,4.3-0.6,14.2,4.1,14.2l383.6,0.9c2.5,0,4.8-1.4,5.8-3.7l27.6-89.4c-38.9,57.1-1.3-4-6-4
	l-28.3,1C446.5,309.3,194,303.1,194,310.3z"/>
<path class="st5" d="M482.8,300.2h-51.1L395.5,382h57.1c2.5,0,4.8-1.4,5.8-3.7l30.2-68.9C490.7,305.2,487.5,300.2,482.8,300.2z"/>
<g>
	<rect x="231.7" y="223.3" class="st1" width="67.5" height="32.9"/>
</g>
<path class="st6" d="M68.1,359.6c0.6,3.3,0.2,6.8-1.3,9.9l4.1,25.7c-2.1,4.3,16.5,7.1,0,9.3h380.9c2.5,0,4.8-1.4,5.8-3.7l19.3-41.2
	H68.1z"/>
<path class="st7" d="M404.5,359.6l-21.1,44.9h57.1c0.3,0,0.6,0,0.9-0.1c0.6-0.1,1.2-0.3,1.7-0.5c0.5-0.2,1.1-0.6,1.5-1
	c0.7-0.6,1.3-1.3,1.7-2.2l19.3-41.2H404.5z"/>
<path class="st8" d="M40.4,258.8H2.6l68.3,157.7h383.6l55-121.9H475v-131H215.1v131h-22.2l-24.4-35.9h-11.6v-95.1h-45.3v-66H90.3v66
	H64.8c-13.5,0-24.4,11-24.4,24.4V258.8z M135.5,258.8H61.7V188c0-1.7,1.4-3.1,3.1-3.1h70.7V258.8z M294.6,207.3h-58.2v-22.4h58.2
	V207.3z M294.6,251h-58.2v-22.4h58.2V251z M294.6,294.6h-58.2v-22.4h58.2V294.6z M374.1,207.3h-58.2v-22.4h58.2V207.3z M374.1,251
	h-58.2v-22.4h58.2V251z M374.1,294.6h-58.2v-22.4h58.2V294.6z M453.7,207.3h-58.2v-22.4h58.2V207.3z M453.7,251h-58.2v-22.4h58.2
	V251z M453.7,294.6h-58.2v-22.4h58.2V294.6z M157.2,280.1l24.4,35.9h294.8l-35.8,79.3H85.2L35.1,280.1H157.2z"/>
</svg>
