<?xml version="1.0" encoding="utf-8"?>
<!-- Generator: Adobe Illustrator 27.3.0, SVG Export Plug-In . SVG Version: 6.00 Build 0)  -->
<svg version="1.1" id="Capa_1" xmlns="http://www.w3.org/2000/svg" xmlns:xlink="http://www.w3.org/1999/xlink" x="0px" y="0px"
	 viewBox="0 0 512 512" style="enable-background:new 0 0 512 512;" xml:space="preserve">
<style type="text/css">
	.st0{fill:#B2D8F2;}
	.st1{fill:#FBB970;}
	.st2{fill:#CE8449;}
	.st3{fill:#D5E9F8;}
	.st4{fill:#ABCDDD;}
	.st5{fill:#F05859;}
	.st6{fill:#EE3C38;}
	.st7{fill:#4EC3CC;}
	.st8{fill:#07B4C0;}
	.st9{fill:#112A4C;}
	.st10{fill:none;stroke:#FFFFFF;stroke-width:1.4;stroke-miterlimit:10;}
</style>
<rect x="324.2" y="335.3" class="st0" width="113.5" height="18.9"/>
<rect x="286.4" y="335.3" class="st0" width="18.9" height="18.9"/>
<path class="st1" d="M466.1,209.9v-42.7l-94.6-10.7c0-1.2-1-2.2-2.2-2.2H238.4c-1.2,0-2.2,1-2.2,2.2v129.9h226.2l3.7-42.2
	C486.3,251,468.9,209.9,466.1,209.9"/>
<rect x="311.4" y="167.6" class="st2" width="67.6" height="33"/>
<rect x="391" y="255.2" class="st2" width="67.6" height="33"/>
<rect x="50.6" y="173" class="st3" width="101.1" height="73.9"/>
<rect x="91.2" y="173" class="st4" width="56.4" height="73.9"/>
<path class="st5" d="M193.8,298.6l-20-26.9c0,7.2-12.8-11.2-20-11.2l-118.2,4.7c-3.5,0-6.1,3.2-5.4,6.6c4,18.9,13.7,44.1,36.6,69.5
	c4.3,4.8,5.2,11.7,2.5,17.5l-2.7,19.9c-2.1,4.3-0.6,14.2,4.1,14.2L455,394c2.5,0,4.8-1.4,5.8-3.7l27.7-89.6c-39,57.2-1.3-4-6-4
	l-28.4,1C446.8,297.6,193.8,291.4,193.8,298.6"/>
<path class="st6" d="M483.2,288.5H432l-36.3,82H453c2.5,0,4.8-1.4,5.8-3.7l30.3-69.1C491.2,293.5,488,288.4,483.2,288.5"/>
<rect x="231.6" y="211.4" class="st2" width="67.6" height="33"/>
<path class="st7" d="M67.7,348c0.6,3.3,0.2,6.8-1.3,9.9l4.1,25.7c-2.1,4.3,16.5,7.1,0,9.3h381.7c2.5,0,4.8-1.4,5.8-3.7l19.3-41.3
	H67.7z"/>
<path class="st8" d="M404.8,348l-21.1,45h57.2c0.3,0,0.6,0,0.9-0.1c0.6-0.1,1.2-0.3,1.7-0.5c0.5-0.2,1.1-0.6,1.5-1
	c0.7-0.6,1.3-1.3,1.7-2.2l19.3-41.3L404.8,348L404.8,348L404.8,348z"/>
<path class="st9" d="M156.9,268.3l24.4,36h295.4l-35.9,79.5H84.8L34.6,268.3H156.9L156.9,268.3z M454.1,282.9h-58.3v-22.4h58.3
	V282.9z M454.1,239.2h-58.3v-22.4h58.3V239.2z M454.1,195.4h-58.3v-22.4h58.3V195.4z M374.3,282.9H316v-22.4h58.3V282.9z
	 M374.3,239.2H316v-22.4h58.3V239.2z M374.3,195.4H316v-22.4h58.3V195.4z M294.6,282.9h-58.3v-22.4h58.3V282.9z M294.6,239.2h-58.3
	v-22.4h58.3V239.2z M294.6,195.4h-58.3v-22.4h58.3V195.4z M135.2,247h-74V176c0-1.7,1.4-3.1,3.1-3.1h70.9V247L135.2,247z M39.9,247
	H2l68.4,158h384.4L510,282.8h-34.6V151.6H215v131.3h-22.2l-24.4-36h-11.6v-95.3h-45.4V85.4H89.9v66.1H64.4
	c-13.5,0-24.4,11-24.4,24.4L39.9,247L39.9,247z"/>
<path class="st10" d="M454.1,282.8h-58.3v-22.4h58.3V282.8z M454.1,239.1h-58.3v-22.4h58.3V239.1z M454.1,195.3h-58.3v-22.4h58.3
	V195.3z M374.3,282.8H316v-22.4h58.3V282.8z M374.3,239.1H316v-22.4h58.3V239.1z M374.3,195.3H316v-22.4h58.3V195.3z M294.6,282.8
	h-58.3v-22.4h58.3V282.8z M294.6,239.1h-58.3v-22.4h58.3V239.1z M294.6,195.3h-58.3v-22.4h58.3V195.3z M135.2,247h-74V176
	c0-1.7,1.4-3.1,3.1-3.1h70.9V247L135.2,247z"/>
</svg>
