<?xml version="1.0" encoding="utf-8"?>
<!-- Generator: Adobe Illustrator 27.3.0, SVG Export Plug-In . SVG Version: 6.00 Build 0)  -->
<svg version="1.1" id="Capa_1" xmlns="http://www.w3.org/2000/svg" xmlns:xlink="http://www.w3.org/1999/xlink" x="0px" y="0px"
	 viewBox="0 0 512 512" style="enable-background:new 0 0 512 512;" xml:space="preserve">
<style type="text/css">
	.st0{fill:#F6901E;}
	.st1{fill:#FBB132;}
	.st2{fill:#F0F6FB;}
</style>
<g>
	<g>
		<g>
			<g>
				<path class="st0" d="M75.5,7c-36.4,0-66,29.5-66,66v257.6c0,36.4,29.5,66,66,66h6.2c5.7,0,10,5.2,9,10.8L87,428h70.6l26.9-25.6
					c4-3.8,9.2-5.9,14.7-5.9h8.9h153.5c36.4,0,66-29.5,66-66V7L75.5,7z"/>
			</g>
			<g>
				<path class="st1" d="M114,402.4L87,428l-12.5,69.6c-1.2,6.8,6.9,11.2,11.9,6.4l107-101.6c4-3.8,9.2-5.9,14.7-5.9h-79.5
					C123.2,396.5,117.9,398.6,114,402.4L114,402.4z"/>
				<g>
					<path class="st1" d="M436.5,7H423v323.5c0,36.4-29.5,66-66,66h79.5c36.4,0,66-29.5,66-66V73C502.5,36.5,472.9,7,436.5,7
						L436.5,7z"/>
				</g>
			</g>
			<g>
				<g>
					<path class="st2" d="M366,123H103.6c-5.2,0-9.4-4.2-9.4-9.4c0-5.2,4.2-9.4,9.4-9.4H366c5.2,0,9.4,4.2,9.4,9.4
						C375.5,118.7,371.3,123,366,123z"/>
				</g>
				<g>
					<path class="st2" d="M321.6,209.6h-218c-5.2,0-9.4-4.2-9.4-9.4c0-5.2,4.2-9.4,9.4-9.4h218c5.2,0,9.4,4.2,9.4,9.4
						C331.1,205.3,326.8,209.6,321.6,209.6L321.6,209.6z"/>
				</g>
				<g>
					<path class="st2" d="M321.6,296.2h-218c-5.2,0-9.4-4.2-9.4-9.4c0-5.2,4.2-9.4,9.4-9.4h218c5.2,0,9.4,4.2,9.4,9.4
						C331.1,291.9,326.8,296.2,321.6,296.2L321.6,296.2z"/>
				</g>
			</g>
		</g>
	</g>
</g>
</svg>
