<?xml version="1.0" encoding="utf-8"?>
<!-- Generator: Adobe Illustrator 27.3.0, SVG Export Plug-In . SVG Version: 6.00 Build 0)  -->
<svg version="1.1" id="Capa_1" xmlns="http://www.w3.org/2000/svg" xmlns:xlink="http://www.w3.org/1999/xlink" x="0px" y="0px"
	 viewBox="0 0 512 512" style="enable-background:new 0 0 512 512;" xml:space="preserve">
<style type="text/css">
	.st0{fill-rule:evenodd;clip-rule:evenodd;fill:#FFFFFF;}
	.st1{fill-rule:evenodd;clip-rule:evenodd;fill:#4FC3CB;}
	.st2{fill-rule:evenodd;clip-rule:evenodd;fill:#CAE0E5;}
	.st3{fill-rule:evenodd;clip-rule:evenodd;fill:#BE202E;}
	.st4{fill:#FFFFFF;}
	.st5{fill:#25B04B;}
	.st6{fill:#E5E5E4;}
	.st7{fill:#A31D29;}
	.st8{fill:#BE202E;}
</style>
<path class="st0" d="M45.7,291.9l37.5,198.8c0.6,3.2,3.7,5.3,6.9,4.7l92.3-17.4L319,452.3l19.6-3.7l80.4-15.1
	c3.2-0.6,5.3-3.7,4.6-6.9l-17.6-93.4L357.4,75.1l-0.5-2.7l-58.7,11c-5.6,1-17.2,4.1-19.7-8.7l-10.9-57.3L9.1,66.2
	c-3.2,0.6-5.3,3.7-4.6,6.9l9.4,49.6l3.9,21L45.7,291.9z"/>
<path class="st1" d="M406.2,333.1l-48.8-258l-0.5-2.7l-0.1-0.9c-0.3-1.7-1.1-1.8-4.1-3.8l-74.8-48.5c-3.5-2.3-4.1-2.9-5.9-2.6
	l-4.3,0.9L9.1,66.2c-3.2,0.6-5.3,3.7-4.6,6.9l78.7,417.6c0.6,3.2,3.7,5.3,6.9,4.7L419,433.3c3.2-0.6,5.3-3.7,4.6-6.9L406.2,333.1z"
	/>
<path class="st2" d="M406.2,333.1l-48.8-258l-0.5-2.7c-0.6-3.1-1.6-3-4.2-4.8l-74.8-48.5c-3.5-2.3-4.1-2.9-5.9-2.6l-4.3,0.9
	l-64.3,12.2C301.7,120,342.1,308.9,306,438.3c-1.7,6-3.5,11.8-5.4,17.6l18.4-3.5l19.6-3.7l80.4-15.1c3.2-0.6,5.3-3.7,4.6-6.9
	L406.2,333.1z"/>
<path class="st0" d="M278.5,74.7c2.4,12.8,14,9.8,19.7,8.7l58.7-11l-0.1-0.9c-0.3-1.7-1.1-1.8-4.1-3.8l-74.8-48.5
	c-3.5-2.3-4.1-2.9-5.9-2.6l-4.3,0.9L278.5,74.7z"/>
<path class="st3" d="M352.7,67.7l-74.8-48.5c-3.5-2.3-4.1-2.9-5.9-2.6l-4.3,0.9l10.9,57.3c2.4,12.8-0.4-1.9,2.3,12L357,72.3
	l-0.1-0.9C356.4,69.8,355.6,69.7,352.7,67.7"/>
<rect x="57.7" y="84.2" transform="matrix(0.9828 -0.1844 0.1844 0.9828 -27.2719 27.4294)" class="st4" width="152.3" height="152.3"/>
<path class="st5" d="M177.3,130.2l-38,55.9l-10.3,15l-40.7-28l14.4-21l19.5,13.1l10.3-15l23.7-34.4L177.3,130.2z"/>
<rect x="93.4" y="274.8" transform="matrix(0.9828 -0.1844 0.1844 0.9828 -61.8077 37.2944)" class="st4" width="152.3" height="152.3"/>
<path class="st5" d="M213.1,320.8l-38,55.9l-10.3,15l-40.7-28l14.4-21l19.5,13.1l10.3-15l23.7-34.4L213.1,320.8z"/>
<path class="st6" d="M243.4,340.9c-0.6,0.3-1,0.8-1.1,1.4l-10.5,51.9l-2.6,13.1c-0.2,0.8,0.2,1.6,0.9,2c0.7,0.4,1.5,0.4,2.2-0.1
	l10.8-8l42.8-31.6c0.5-0.4,0.8-1,0.8-1.6c0-0.6-0.4-1.2-0.9-1.6l-40.5-25.4C244.6,340.7,244,340.7,243.4,340.9z"/>
<path class="st7" d="M290.9,363.4c23.4-26.3,51-62.9,78.8-105.5L305,217.3c-26.2,43.6-47.2,84.4-60.6,116.9L290.9,363.4z"/>
<path class="st8" d="M403.5,59.7l-94.1,150.1c-1.5,2.4-0.8,5.6,1.6,7.1l56.6,35.5c2.4,1.5,5.6,0.8,7.1-1.6L506.9,39.9
	c1.1-1.7,1.1-3.9,0-5.6c-1.1-1.7-3.1-2.6-5.1-2.3l-87,13c-1.5,0.2-2.8,1.1-3.6,2.4l-2,3.1l0.3,0.2l-5.7,9.1L403.5,59.7z"/>
<polygon class="st7" points="390,38.5 311,164.4 321.5,171.1 394.8,54.2 403.5,59.7 403.7,59.8 409.5,50.7 409.2,50.5 400.5,45.1 
	400.5,45.1 "/>
</svg>
