<?xml version="1.0" encoding="utf-8"?>
<!-- Generator: Adobe Illustrator 27.3.0, SVG Export Plug-In . SVG Version: 6.00 Build 0)  -->
<svg version="1.1" id="Capa_1" xmlns="http://www.w3.org/2000/svg" xmlns:xlink="http://www.w3.org/1999/xlink" x="0px" y="0px"
	 viewBox="0 0 512 512" style="enable-background:new 0 0 512 512;" xml:space="preserve">
<style type="text/css">
	.st0{fill:#1B53A4;}
	.st1{fill:#17562C;}
	.st2{fill:#25B04B;}
	.st3{fill:#F7963A;}
	.st4{fill:#F5851F;}
	.st5{fill:#FFFFFF;}
</style>
<g>
	<path class="st0" d="M473.8,504.8H317.5c-8.3,0-15-6.7-15-15v-16l93.1-15.5l93.1,15.5v16C488.8,498,482,504.8,473.8,504.8
		L473.8,504.8z"/>
	<path class="st1" d="M209.4,8.2C98.1,8.2,7.8,98.6,7.8,209.9s90.3,201.7,201.7,201.7s201.7-90.3,201.7-201.7S320.9,8.2,209.4,8.2z
		 M209.4,365.1c-85.7,0-155.2-69.5-155.2-155.2S123.8,54.8,209.4,54.8s155.2,69.5,155.2,155.2S295.1,365.1,209.4,365.1L209.4,365.1z
		"/>
	<path class="st2" d="M279,20.5c55.5,35.9,92.2,98.4,92.2,169.4c0,111.4-90.3,201.7-201.7,201.7c-24.4,0-47.9-4.3-69.6-12.3
		c31.5,20.4,69.1,32.3,109.5,32.3c111.4,0,201.7-90.3,201.7-201.7C411.1,123.1,356.1,49,279,20.5z"/>
	<path class="st3" d="M446,362.1c16.9-14.4,27.5-35.8,27.3-59.7c-0.3-41.6-34.1-75.9-75.7-76.9c-43.7-1-79.4,34.1-79.4,77.6
		c0,23.8,10.7,45,27.5,59.3c12.2,10.3,19,25.6,19,41.6v13.8c0,13.8-11.2,25-25,25H307c-11,0-20,8.9-20,20v11.1h217.2v-11.1
		c0-11-8.9-20-20-20h-32.6c-13.8,0-25-11.2-25-25V404C426.6,387.9,433.6,372.5,446,362.1L446,362.1z"/>
	<path class="st4" d="M484.2,442.6h-20c0,6.1-4.9,11.1-11.1,11.1h-164c-1.3,2.7-2.1,5.7-2.1,8.9v11.1h217.2v-11.1
		C504.2,451.6,495.4,442.6,484.2,442.6z"/>
	<circle class="st5" cx="395.6" cy="310.9" r="23.3"/>
</g>
<path class="st2" d="M326,157.4L208.8,275.2L177.1,307l-85.5-86.1l44.3-44.3l41.2,40.5l31.7-31.7l72.9-72.3L326,157.4z"/>
</svg>
