<?xml version="1.0" encoding="utf-8"?>
<!-- Generator: Adobe Illustrator 27.3.0, SVG Export Plug-In . SVG Version: 6.00 Build 0)  -->
<svg version="1.1" id="Layer_1" xmlns="http://www.w3.org/2000/svg" xmlns:xlink="http://www.w3.org/1999/xlink" x="0px" y="0px"
	 viewBox="0 0 512 512" style="enable-background:new 0 0 512 512;" xml:space="preserve">
<style type="text/css">
	.st0{fill:#4FC3CB;}
	.st1{fill:#07B2BF;}
	.st2{fill:#F7E2C9;}
	.st3{fill:#FFFFFF;}
</style>
<path class="st0" d="M450.6,408.5V507c-50.9,0-119.6,0-194.6,0s-113.1,0-194.6,0v-98.5c0-83.6,53.1-155.2,127.3-182.6
	c21-7.7,43.7-12.1,67.2-12.1s46.3,4.2,67.3,12.1C397.5,253.3,450.6,324.8,450.6,408.5z"/>
<path class="st1" d="M450.6,408.5V507c-50.5,0-119.6,0-194.6,0V213.8c23.7,0,46.3,4.2,67.3,12.1
	C397.5,253.3,450.6,324.8,450.6,408.5z"/>
<path class="st2" d="M354.7,106.7c0,54.4-44.3,98.7-98.7,98.7s-98.7-44.3-98.7-98.7S201.6,8,256,8C310.5,8,354.7,52.2,354.7,106.7z"
	/>
<rect x="286.8" y="283.8" class="st3" width="76.8" height="45.9"/>
<circle class="st3" cx="256" cy="274.8" r="7.9"/>
<circle class="st3" cx="256" cy="329.8" r="7.9"/>
<circle class="st3" cx="256" cy="384.9" r="7.9"/>
<circle class="st3" cx="256" cy="435.5" r="7.9"/>
</svg>
