<?xml version="1.0" encoding="utf-8"?>
<!-- Generator: Adobe Illustrator 27.3.0, SVG Export Plug-In . SVG Version: 6.00 Build 0)  -->
<svg version="1.1" id="Capa_1" xmlns="http://www.w3.org/2000/svg" xmlns:xlink="http://www.w3.org/1999/xlink" x="0px" y="0px"
	 viewBox="0 0 512 512" style="enable-background:new 0 0 512 512;" xml:space="preserve">
<style type="text/css">
	.st0{fill:#00ADEE;}
	.st1{fill:#C6C5C5;}
	.st2{fill:#FFFFFF;}
	.st3{fill:#575B6D;}
</style>
<g>
	<g id="icon_8_">
		<path class="st0" d="M31.4,167.9h449.1v313.3H31.4L31.4,167.9z"/>
		<path class="st1" d="M129.5,91h252.9v390.3H129.5L129.5,91z"/>
		<path class="st2" d="M51.7,194h57.7v68.1H51.7L51.7,194z"/>
		<path class="st2" d="M51.7,292.1h57.7v68.1H51.7L51.7,292.1z"/>
		<path class="st2" d="M51.7,390.2h57.7v68.1H51.7L51.7,390.2z"/>
		<path class="st2" d="M400.4,194h57.7v68.1h-57.7V194z"/>
		<path class="st2" d="M400.4,292.1h57.7v68.1h-57.7V292.1z"/>
		<path class="st2" d="M400.4,390.2h57.7v68.1h-57.7V390.2z"/>
		<path class="st2" d="M155.5,129.5h201.1v37.6H155.5L155.5,129.5z"/>
		<path class="st2" d="M155.5,197.1h201.1v37.6H155.5L155.5,197.1z"/>
		<path class="st2" d="M155.5,264.7h201.1v37.6H155.5L155.5,264.7z"/>
		<path class="st3" d="M166.2,332.1h179.5v149.2H166.2L166.2,332.1z"/>
		<path class="st3" d="M4.8,475.6h502.5V507H4.8L4.8,475.6z"/>
		<path class="st1" d="M246.6,326.1h18.8v149.3h-18.8V326.1z"/>
	</g>
</g>
</svg>
