<?xml version="1.0" encoding="utf-8"?>
<!-- Generator: Adobe Illustrator 27.3.0, SVG Export Plug-In . SVG Version: 6.00 Build 0)  -->
<svg version="1.1" id="Capa_1" xmlns="http://www.w3.org/2000/svg" xmlns:xlink="http://www.w3.org/1999/xlink" x="0px" y="0px"
	 viewBox="0 0 512 512" style="enable-background:new 0 0 512 512;" xml:space="preserve">
<style type="text/css">
	.st0{fill:#12284B;}
	.st1{fill:#FBB970;}
	.st2{fill:#EAAC6E;}
	.st3{fill:#CE8449;}
	.st4{fill:none;stroke:#FFFFFF;stroke-width:1.563;stroke-miterlimit:10;}
</style>
<g>
	<path class="st0" d="M26.3,365.9v54.3c0,6,4.9,10.9,10.9,10.9S48,426.2,48,420.2v-54.3h21.7v32.6c0,6,4.9,10.9,10.9,10.9
		s10.9-4.9,10.9-10.9v-32.6h21.7v54.3c0,6,4.9,10.9,10.9,10.9c6,0,10.9-4.9,10.9-10.9v-54.3h21.7v32.6c0,6,4.9,10.9,10.9,10.9
		s10.9-4.9,10.9-10.9v-32.6h21.7v54.3c0,6,4.9,10.9,10.9,10.9s10.9-4.9,10.9-10.9v-54.3h21.7v32.6c0,6,4.9,10.9,10.9,10.9
		c6,0,10.9-4.9,10.9-10.9v-32.6H287v54.3c0,6,4.9,10.9,10.9,10.9c6,0,10.9-4.9,10.9-10.9v-54.3h21.7v32.6c0,6,4.9,10.9,10.9,10.9
		c6,0,10.9-4.9,10.9-10.9v-32.6h21.7v54.3c0,6,4.9,10.9,10.9,10.9c6,0,10.9-4.9,10.9-10.9v-54.3h21.7v32.6c0,6,4.9,10.9,10.9,10.9
		c6,0,10.9-4.9,10.9-10.9v-32.6h21.7v54.3c0,6,4.9,10.9,10.9,10.9c6,0,10.9-4.9,10.9-10.9v-54.3h23.6v-21.7H6.2v21.7H26.3z"/>
</g>
<polygon class="st1" points="419.3,118.8 91.9,118.8 49.5,118.8 32.4,118.8 32.4,298.7 478.9,298.7 478.9,118.8 461.7,118.8 "/>
<polygon class="st2" points="419.3,118.8 32.4,298.7 478.9,298.7 478.9,118.8 461.7,118.8 "/>
<rect x="69" y="140.3" class="st3" width="26.1" height="138.8"/>
<rect x="137.4" y="140.3" class="st3" width="26.1" height="138.8"/>
<rect x="206" y="140.3" class="st3" width="26.1" height="138.8"/>
<rect x="274.4" y="140.3" class="st3" width="26.1" height="138.8"/>
<rect x="342.8" y="140.3" class="st3" width="26.1" height="138.8"/>
<rect x="411.3" y="140.3" class="st3" width="26.1" height="138.8"/>
<path class="st3" d="M478.8,298.7H32.4V118.8h17.2h42.5h327.3h42.4h17.2v179.9H478.8z M446.5,92.7h-11.8h-27.9H104.6H76.7H64.9H36.9
	H19.3c-7.3,0-13.1,5.9-13.1,13.1v206c0,7.3,5.9,13.1,13.1,13.1h472.7c7.3,0,13.1-5.9,13.1-13.1V105.7c0-7.3-5.9-13.1-13.1-13.1
	h-17.7h-27.8V92.7z"/>
<path class="st4" d="M478.8,298.7H32.4V118.8h17.2h42.5h327.3h42.4h17.2v179.9H478.8z M446.5,92.7h-11.8h-27.9H104.6H76.7H64.9H36.9
	H19.3c-7.3,0-13.1,5.9-13.1,13.1v206c0,7.3,5.9,13.1,13.1,13.1h472.7c7.3,0,13.1-5.9,13.1-13.1V105.7c0-7.3-5.9-13.1-13.1-13.1
	h-17.7h-27.8V92.7z"/>
</svg>
