<?xml version="1.0" encoding="utf-8"?>
<!-- Generator: Adobe Illustrator 27.3.0, SVG Export Plug-In . SVG Version: 6.00 Build 0)  -->
<svg version="1.1" id="Layer_1" xmlns="http://www.w3.org/2000/svg" xmlns:xlink="http://www.w3.org/1999/xlink" x="0px" y="0px"
	 viewBox="0 0 512 512" style="enable-background:new 0 0 512 512;" xml:space="preserve">
<style type="text/css">
	.st0{fill:#BE202E;}
	.st1{fill:none;}
	.st2{fill:#25B04B;}
	.st3{fill:#FFFFFF;}
	.st4{fill:#12284C;}
	.st5{fill:#FDC680;}
	.st6{fill:#E5B274;}
</style>
<path class="st0" d="M58.8,64.7c14.5-15,5-44.5-27.4-40.8l-6.6,8l-7.7,6.4C14.2,71.4,44.2,79.9,58.8,64.7z"/>
<g>
	<path class="st1" d="M25.5,32.7c-8.3,8.6-8.1,22.4,0.6,30.7c8.6,8.3,22.4,8.1,30.7-0.6c8.3-8.6,8.1-22.4-0.6-30.7
		C47.6,23.8,33.8,24.1,25.5,32.7z"/>
	<path class="st1" d="M23.6,111c-4.8,5-4.7,13,0.3,17.8c5,4.8,13,4.7,17.8-0.3c0,0,0,0,0,0l0,0c4.8-5,4.7-13-0.3-17.8
		C36.4,105.8,28.4,106,23.6,111z"/>
	<path class="st1" d="M103.6,27.9c-4.8,5-4.7,13,0.3,17.8c5,4.8,13,4.7,17.8-0.3c0,0,0,0,0,0l0,0c4.8-5,4.7-13-0.3-17.8
		C116.4,22.7,108.4,22.8,103.6,27.9z"/>
	<path class="st2" d="M56.6,187.7c-6.8,0.1-12.3,5.8-12.2,12.6l0.9,45.8c0.1,5.8,4.6,10.8,10.1,11.9c3.7-25.1,11.4-48.9,22.4-70.7
		L56.6,187.7z"/>
	<path class="st2" d="M252.1,56.6c-0.1-6.6-6-12.3-12.6-12.2l-45.8,0.9c-6.8,0.1-12.3,5.8-12.2,12.6l0.5,24.6
		c21.7-11,45.3-18.9,70.2-22.8L252.1,56.6z"/>
	<path class="st2" d="M88.4,257.7c0.1,0,0.2,0,0.2,0c0.8,0,1.6,0.2,2.4,0.4c0.2,0.1,0.4,0.2,0.7,0.2c0.8,0.4,1.6,0.8,2.2,1.4
		c0.6,0.6,1.1,1.3,1.5,2.1c0.1,0.2,0.2,0.3,0.2,0.5c0.1,0.1,0.2,0.3,0.2,0.4c2.2,6.4,4.9,12.7,8.2,18.8c0.1,0.1,0.1,0.2,0.1,0.3
		c0.1,0.3,0.2,0.5,0.3,0.8c0.1,0.2,0.2,0.5,0.2,0.7c0.1,0.2,0.1,0.5,0.1,0.7c0,0.2,0.1,0.5,0.1,0.7c0,0.2,0,0.5,0,0.7
		c0,0.2,0,0.5-0.1,0.7c0,0.2-0.1,0.5-0.1,0.7c-0.1,0.2-0.1,0.5-0.2,0.7c-0.1,0.2-0.2,0.5-0.3,0.7c-0.1,0.2-0.2,0.5-0.3,0.7
		c-0.1,0.2-0.3,0.4-0.4,0.6c-0.2,0.2-0.3,0.4-0.5,0.7c-0.1,0.1-0.1,0.2-0.2,0.2l-21.1,21.9c-4.7,4.9-4.6,12.8,0.3,17.5l33,31.8
		c4.9,4.7,12.8,4.6,17.5-0.3l21.2-22.1c0.1-0.1,0.2-0.1,0.3-0.2c0.2-0.2,0.4-0.4,0.6-0.5c0.2-0.1,0.4-0.3,0.6-0.4
		c0.2-0.1,0.4-0.2,0.7-0.4c0.2-0.1,0.5-0.2,0.7-0.3c0.2-0.1,0.4-0.2,0.7-0.2c0.2-0.1,0.5-0.1,0.7-0.2c0.2,0,0.5-0.1,0.7-0.1
		c0.2,0,0.5,0,0.7,0c0.2,0,0.5,0,0.7,0.1c0.3,0,0.5,0.1,0.8,0.1c0.2,0,0.5,0.1,0.7,0.2c0.3,0.1,0.5,0.2,0.8,0.3
		c0.1,0,0.2,0.1,0.3,0.1c5.8,2.9,12.2,5.4,18.9,7.4c0.1,0,0.3,0.1,0.4,0.2c0.2,0.1,0.3,0.1,0.5,0.2c0.8,0.4,1.6,0.8,2.2,1.4
		c0.6,0.6,1.1,1.4,1.5,2.2c0.1,0.2,0.2,0.4,0.3,0.6c0.3,0.8,0.5,1.5,0.5,2.4c0,0.1,0.1,0.2,0.1,0.3l0.6,30.6
		c0.1,6.6,6,12.3,12.6,12.2l45.8-0.9c3.3-0.1,6.4-1.4,8.7-3.8c2.3-2.4,3.5-5.5,3.5-8.8l-0.6-30.7c0-0.1,0-0.1,0-0.2
		c0-0.9,0.2-1.8,0.5-2.7c0-0.1,0.1-0.2,0.1-0.3c0.3-0.8,0.8-1.5,1.4-2.2c0.1-0.1,0.1-0.2,0.2-0.2c0.6-0.6,1.3-1.1,2.1-1.5
		c0.1-0.1,0.2-0.1,0.4-0.2c0.2-0.1,0.3-0.2,0.4-0.2c6.5-2.2,12.8-5,18.5-8.1c0.1,0,0.1,0,0.2-0.1c0.7-0.3,1.3-0.6,2.1-0.7
		c0.1,0,0.2,0,0.3,0c0.7-0.1,1.3-0.1,2,0c0.1,0,0.2,0,0.3,0c0.7,0.1,1.4,0.3,2,0.6c0.1,0.1,0.3,0.1,0.4,0.2c0.6,0.3,1.2,0.7,1.7,1.2
		c0,0,0,0,0,0c0,0,0,0,0,0l22.1,21.3c4.9,4.7,12.8,4.6,17.5-0.3l31.8-33c4.7-4.9,4.6-12.8-0.3-17.5l-22.1-21.3
		c-0.1-0.1-0.1-0.2-0.2-0.3c-0.2-0.2-0.4-0.4-0.5-0.6c-0.2-0.2-0.3-0.4-0.4-0.6c-0.1-0.2-0.2-0.4-0.3-0.6c-0.1-0.2-0.2-0.5-0.3-0.7
		c-0.1-0.2-0.1-0.4-0.2-0.6c-0.1-0.3-0.1-0.5-0.2-0.8c0-0.2-0.1-0.5-0.1-0.7c0-0.2,0-0.5,0-0.7c0-0.2,0-0.5,0.1-0.7
		c0-0.3,0.1-0.5,0.1-0.7c0.1-0.2,0.1-0.5,0.2-0.7c0.1-0.3,0.2-0.5,0.3-0.8c0-0.1,0.1-0.2,0.1-0.3c3-6,5.5-12.3,7.4-18.9
		c0-0.2,0.1-0.3,0.2-0.5c0-0.1,0.1-0.2,0.2-0.4c0.4-0.8,0.8-1.5,1.4-2.2c0.1-0.1,0.2-0.2,0.2-0.2c0.6-0.6,1.3-1.1,2.1-1.5
		c0.1-0.1,0.2-0.1,0.3-0.1c0.8-0.3,1.7-0.6,2.6-0.6c0.1,0,0.1,0,0.2,0l30.7-0.6c3.3-0.1,6.4-1.4,8.7-3.8c2.3-2.4,3.5-5.5,3.5-8.8
		l-0.9-45.8c-0.1-6.6-6-12.3-12.6-12.2l-30.6,0.6c-0.1,0-0.1,0-0.2,0c-0.9,0-1.8-0.2-2.7-0.5c-0.1,0-0.2-0.1-0.3-0.1
		c-0.8-0.3-1.5-0.8-2.2-1.4c-0.1-0.1-0.2-0.1-0.2-0.2c-0.6-0.6-1.1-1.3-1.5-2.1c-0.1-0.1-0.1-0.2-0.2-0.4c-0.1-0.2-0.2-0.3-0.2-0.4
		c-2.3-6.7-5-13-8.1-18.6c-0.1-0.1-0.1-0.2-0.1-0.3c-0.1-0.3-0.2-0.5-0.3-0.8c-0.1-0.2-0.2-0.4-0.2-0.7c-0.1-0.3-0.1-0.5-0.2-0.8
		c0-0.2-0.1-0.5-0.1-0.7c0-0.2,0-0.5,0-0.7c0-0.2,0-0.5,0.1-0.7c0-0.3,0.1-0.5,0.1-0.8c0.1-0.2,0.1-0.5,0.2-0.7
		c0.1-0.2,0.2-0.5,0.3-0.7c0.1-0.2,0.2-0.4,0.3-0.7c0.1-0.2,0.3-0.4,0.4-0.6c0.2-0.2,0.3-0.4,0.5-0.7c0.1-0.1,0.1-0.2,0.2-0.3
		l21.2-22c4.7-4.9,4.6-12.8-0.3-17.5l-33-31.8c-4.9-4.7-12.8-4.6-17.5,0.3l-21.1,21.9c-0.1,0.1-0.2,0.1-0.2,0.2
		c-0.2,0.2-0.4,0.4-0.6,0.5c-0.2,0.1-0.4,0.3-0.6,0.4c-0.2,0.1-0.4,0.3-0.7,0.4c-0.2,0.1-0.4,0.2-0.7,0.3c-0.2,0.1-0.5,0.2-0.7,0.2
		c-0.2,0.1-0.5,0.1-0.7,0.2c-0.2,0-0.5,0.1-0.7,0.1c-0.2,0-0.5,0-0.7,0c-0.3,0-0.5,0-0.8-0.1c-0.2,0-0.5-0.1-0.7-0.1
		c-0.2,0-0.5-0.1-0.7-0.2c-0.3-0.1-0.5-0.2-0.8-0.3c-0.1,0-0.2-0.1-0.3-0.1c-6.3-3.1-12.7-5.6-19.1-7.5c-0.2-0.1-0.3-0.1-0.5-0.2
		c-0.1,0-0.2-0.1-0.4-0.2c-0.8-0.4-1.5-0.8-2.2-1.4c-0.1-0.1-0.2-0.2-0.2-0.3c-0.6-0.6-1.1-1.3-1.5-2.1c-0.1-0.1-0.1-0.2-0.1-0.3
		c-0.3-0.8-0.5-1.7-0.6-2.6c0-0.1,0-0.1,0-0.2l-0.5-27.3c-24.9,3.9-48.5,11.7-70.2,22.8l0.1,5.7c0.1,4.3-3.3,7.8-7.6,7.8
		c-3.5,0.1-6.4-2.2-7.4-5.4c-5.6,3.4-11,7-16.2,10.8l26.4,25.4c38-17.4,82.9-10,113.4,19.3c40.6,39.1,41.8,103.9,2.7,144.5
		s-103.9,41.8-144.5,2.7c-30.4-29.3-39.5-73.9-23.6-112.5l-27.5-26.5c-4.1,5.6-7.9,11.4-11.5,17.3l0.3,0c2.1,0,4.1,0.8,5.5,2.2
		c1.4,1.4,2.3,3.3,2.4,5.4c0.1,4.3-3.3,7.8-7.6,7.8l-9.1,0.2c-11,21.9-18.7,45.7-22.4,70.7c0.8,0.2,1.7,0.3,2.5,0.2L88.4,257.7z"/>
	<path class="st0" d="M141.5,182.3c-16.2,33.8-8.9,74,18.1,100c34.5,33.2,89.5,32.1,122.7-2.3c33.2-34.5,32.2-89.5-2.3-122.7
		c-27-26-67.5-31.8-100.6-14.3c-3,1.6-6.6,0.9-8.9-1.3c0,0,0,0-0.1,0L138.5,111c-3.7,3.1-7.3,6.3-10.8,9.5l69.8,67.2
		c15-10.4,35.7-9.1,49.3,4c15.5,14.9,16,39.7,1,55.2c-14.9,15.5-39.7,16-55.2,1c-13.6-13.1-15.6-33.8-5.8-49.1l-70-67.4
		c-3.3,3.5-6.5,7.1-9.6,10.8l32.1,30.9C142.1,175.3,143.1,179.1,141.5,182.3z"/>
	<path class="st3" d="M236.8,236.2c9-9.4,8.8-24.4-0.6-33.4c-9.4-9-24.4-8.8-33.4,0.6c0,0,0,0,0,0c0,0,0,0,0,0
		c-9,9.4-8.7,24.4,0.6,33.4C212.8,245.9,227.8,245.6,236.8,236.2z"/>
	<path class="st4" d="M94.9,88.8L72.7,67.5c9.1-14.6,7.1-34-5.8-46.4C52.1,6.8,28.6,7.3,14.4,22c-14.2,14.8-13.8,38.3,1,52.5
		C28.2,87,47.8,88.2,62,78.6L84.2,100C87.7,96.2,91.2,92.4,94.9,88.8z M56.8,62.9c-8.3,8.6-22.1,8.9-30.7,0.6
		c-8.6-8.3-8.9-22.1-0.6-30.7c8.3-8.6,22.1-8.9,30.7-0.6C64.9,40.5,65.1,54.3,56.8,62.9z"/>
	<path class="st4" d="M127.8,120.5L94.9,88.8c-3.7,3.6-7.2,7.3-10.6,11.2l32.6,31.4C120.4,127.7,124,124,127.8,120.5z"/>
	<path class="st4" d="M192.7,248c15.5,14.9,40.3,14.5,55.2-1c14.9-15.5,14.5-40.3-1-55.2c-13.6-13.1-34.3-14.3-49.3-4l-69.8-67.2
		c-3.8,3.5-7.4,7.1-10.9,10.9l70,67.4C177.1,214.2,179.1,234.9,192.7,248z M202.7,203.4C202.8,203.4,202.8,203.4,202.7,203.4
		C202.8,203.4,202.8,203.4,202.7,203.4c9.1-9.4,24.1-9.7,33.4-0.6c9.4,9,9.7,24,0.6,33.4c-9,9.4-24,9.7-33.4,0.6
		C194,227.8,193.7,212.8,202.7,203.4z"/>
	<path class="st4" d="M57.4,132.8c5.7-10.8,3.9-24.4-5.3-33.3C41,88.8,23.2,89.2,12.5,100.3s-10.4,28.9,0.8,39.6
		c9.2,8.9,23,10.1,33.5,4l4.3,4.1c2.5-4.7,5-9.4,7.8-13.9L57.4,132.8z M41.8,128.5L41.8,128.5C41.7,128.5,41.7,128.5,41.8,128.5
		c-4.8,5-12.8,5.2-17.9,0.4c-5-4.8-5.2-12.8-0.3-17.8c4.8-5,12.8-5.2,17.8-0.3C46.4,115.5,46.6,123.5,41.8,128.5z"/>
	<path class="st4" d="M137.4,49.7c5.7-10.8,3.9-24.4-5.3-33.3C121,5.7,103.2,6,92.5,17.2s-10.4,28.9,0.7,39.6
		c9.2,8.9,23,10.1,33.5,4l1,1c4.4-3,8.9-5.8,13.4-8.5L137.4,49.7z M121.8,45.4L121.8,45.4C121.8,45.4,121.8,45.4,121.8,45.4
		c-4.8,5-12.8,5.2-17.9,0.4c-5-4.8-5.2-12.8-0.3-17.8c4.8-5,12.8-5.2,17.8-0.3C126.4,32.3,126.6,40.3,121.8,45.4z"/>
	<path class="st4" d="M58.6,151.7l33.4-2.9l5.9,5.7c3-4.2,6.2-8.3,9.5-12.3l-7.2-7c-1.6-1.5-3.8-2.3-6-2.1L60.7,136l-1.9-1.8
		c-2.8,4.5-5.3,9.2-7.8,13.9l1.5,1.5C54.1,151.1,56.3,151.9,58.6,151.7z"/>
	<path class="st4" d="M128.3,97.5c-0.1,2.2,0.7,4.4,2.4,5.9l7.9,7.6c4-3.3,8.1-6.4,12.4-9.5l-7-6.7l1.7-33.5
		c0.1-2.2-0.7-4.4-2.4-5.9l-2.1-2c-4.6,2.7-9.1,5.5-13.4,8.5L130,64L128.3,97.5z"/>
	<path class="st4" d="M148.9,293.4c40.6,39.1,105.4,37.9,144.5-2.7s37.9-105.4-2.7-144.5c-30.4-29.3-75.3-36.7-113.4-19.3
		l-26.4-25.4c-4.2,3-8.4,6.2-12.4,9.5l31.8,30.6c0,0,0,0,0.1,0c2.3,2.3,5.9,2.9,8.9,1.3c33.2-17.5,73.6-11.7,100.6,14.3
		c34.5,33.2,35.5,88.2,2.3,122.7c-33.2,34.5-88.2,35.5-122.7,2.3c-27-26-34.3-66.2-18.1-100c1.6-3.3,0.6-7.1-2.1-9.3l-32.1-30.9
		c-3.3,4-6.4,8.1-9.5,12.3l27.5,26.5C109.4,219.6,118.5,264.1,148.9,293.4z"/>
</g>
<g>
	<path class="st5" d="M268,425.3c3.7,5,9.1,8.5,15.2,9.8l84.8,24.7c9.5,1.5,19.3,1.1,28.7-1l34.4,46.2L509,447l-38.3-51.4
		c10.9-26.4,6.8-56.6-10.8-79.1l-54.8-73.8c-6.4-8.6-18.6-10.4-27.2-4c-8.6,6.4-10.4,18.6-4,27.2l-11.6-15.6
		c-4.1-5.6-10.9-8.5-17.8-7.6c-3.4,0.3-6.7,1.6-9.4,3.7c-8.5,6.5-10.3,18.5-4,27.2L319.7,258c-4.1-5.6-10.9-8.5-17.8-7.6
		c-3.4,0.3-6.6,1.6-9.4,3.7c-8.6,6.4-10.4,18.5-4,27.1l-46.4-62.2c-4.1-5.6-10.9-8.5-17.8-7.6c-3.4,0.3-6.6,1.6-9.4,3.7
		c-8.6,6.4-10.3,18.6-4,27.2L321.3,390l-31.4-6.6c-14.4-0.6-26.5,10.6-27.1,25c0,0.8,0,1.7,0,2.5C263.1,416.2,264.9,421.2,268,425.3
		L268,425.3z"/>
	<path class="st6" d="M446.4,314.5l-54.8-73.8c-1.7-2.2-3.8-4-6.2-5.3c7.4-1.7,15.2,1.2,19.7,7.3l54.8,73.8
		c17.6,22.5,21.7,52.7,10.8,79.1L509,447l-7.8,5.8l-44.1-59.2C468.1,367.2,464,337,446.4,314.5z"/>
	<path class="st6" d="M342.6,243c7.4-1.7,15.2,1.2,19.7,7.3l29,38.9l-7.8,5.8l-34.8-46.7C347.2,246.1,345.1,244.3,342.6,243z"/>
	<path class="st6" d="M299.9,250.7c7.4-1.7,15.2,1.2,19.7,7.3l40.6,54.5l-7.8,5.8l-46.4-62.2C304.4,253.8,302.3,252,299.9,250.7
		L299.9,250.7z"/>
	<path class="st6" d="M222.3,211.7c7.4-1.7,15.2,1.2,19.7,7.3l87.1,116.8l-7.8,5.8L228.4,217C226.8,214.8,224.7,213,222.3,211.7
		L222.3,211.7z"/>
</g>
</svg>
