<?xml version="1.0" encoding="utf-8"?>
<!-- Generator: Adobe Illustrator 27.3.0, SVG Export Plug-In . SVG Version: 6.00 Build 0)  -->
<svg version="1.1" id="Capa_1" xmlns="http://www.w3.org/2000/svg" xmlns:xlink="http://www.w3.org/1999/xlink" x="0px" y="0px"
	 viewBox="0 0 468.3 468.3" style="enable-background:new 0 0 468.3 468.3;" xml:space="preserve">
<style type="text/css">
	.st0{fill:#FFC06C;}
	.st1{fill:#EDB26B;}
	.st2{fill:#64798A;}
	.st3{fill:#D5D6DB;}
	.st4{fill:#FCD462;}
	.st5{fill:#D38742;}
	.st6{fill:none;}
	.st7{fill:#D38742;stroke:#FFFFFF;stroke-width:5;stroke-miterlimit:10;}
</style>
<path class="st0" d="M384.8,274.3H83.5h-39H28.7v165.5h410.8V274.3h-15.8H384.8z"/>
<path class="st1" d="M387.3,274.3L33.4,438.8h408.3V274.3H426H387.3z"/>
<path class="st2" d="M243.1,130.1c-0.9-0.2-1.9-1-1.9-2.1v-26.1h-14V128c0,7.1,4.8,13.4,11.9,15.6c8.8,2.6,13.9,11.5,11.8,20.6
	c-1.4,6.4-6.8,11.5-13.2,12.8c-5.3,1-10.5-0.2-14.5-3.6c-4-3.3-6.3-8.1-6.3-13.3c0-3.9-3.1-7-7-7c-3.9,0-7,3.1-7,7
	c0,9.4,4.2,18.2,11.4,24.1c5.6,4.7,12.7,7.1,19.9,7.1c2.1,0,4.1-0.2,6.2-0.6c11.8-2.3,21.5-11.7,24.2-23.4
	C268.3,151.1,258.8,134.8,243.1,130.1z"/>
<path class="st3" d="M377.6,255.8l-139.6-94.9c-2.4-1.6-5.5-1.6-7.8,0L90.6,255.8c-2.6,1.7-3.7,4.9-2.8,7.8c0.9,2.9,3.6,5,6.7,5
	h279.2c3.1,0,5.8-2,6.7-5C381.3,260.7,380.2,257.5,377.6,255.8z M117.3,254.6l116.8-79.5L351,254.6L117.3,254.6L117.3,254.6z"/>
<polygon class="st4" points="287.1,48.1 256.5,108.6 211.9,108.6 181.2,48.1 202,0 266.3,0 "/>
<path class="st2" d="M264.6,167.2C264.6,167.2,264.6,167.2,264.6,167.2c-2.7,11.7-12.4,21.2-24.2,23.5c-2.1,0.4-4.1,0.6-6.2,0.6
	c-0.5,0-1,0-1.5,0v-14.1c1.6,0.1,3.3,0,5-0.3c5.3-1,9.9-4.8,12.1-9.7L264.6,167.2L264.6,167.2z"/>
<rect x="62.4" y="294" class="st5" width="24.1" height="127.8"/>
<rect x="125.4" y="294" class="st5" width="24.1" height="127.8"/>
<rect x="188.4" y="294" class="st5" width="24.1" height="127.8"/>
<rect x="251.4" y="294" class="st5" width="24.1" height="127.8"/>
<rect x="314.4" y="294" class="st5" width="24.1" height="127.8"/>
<rect x="377.3" y="294" class="st5" width="24.1" height="127.8"/>
<g>
	<polygon class="st6" points="384.8,274.3 83.5,274.3 44.5,274.3 28.7,274.3 28.7,439.8 439.6,439.8 439.6,274.3 423.8,274.3 	"/>
	<path class="st7" d="M409.7,250.2h-10.8h-25.7h-278H69.4H58.6H32.9H16.7c-6.6,0-12,5.4-12,12v189.6c0,6.6,5.4,12,12,12h434.9
		c6.6,0,12-5.4,12-12V262.2c0-6.6-5.4-12-12-12h-16.2H409.7z M439.6,439.8H28.7V274.3h15.8h39h301.2h39h15.8V439.8z"/>
</g>
</svg>
