<svg height="512" viewBox="0 0 64 64" width="512" xmlns="http://www.w3.org/2000/svg"><g id="Container-Delivery-Logistics-Truck-Transport"><path d="m54 27h4v6h-4z" fill="#d1e7f8"/><path d="m5 37h20v4h-20z" fill="#3d9ae2"/><path d="m49 37v4h-16v-4h12z" fill="#3d9ae2"/><path d="m61 35v6h-12v-4-10h5v6h4v.14z" fill="#3d9ae2"/><path d="m3 21h42v16h-12-8-20-2z" fill="#ff6243"/><circle cx="55" cy="41" fill="#57565c" r="2"/><circle cx="43" cy="41" fill="#57565c" r="2"/><circle cx="38" cy="41" fill="#57565c" r="2"/><circle cx="20" cy="41" fill="#57565c" r="2"/><circle cx="15" cy="41" fill="#57565c" r="2"/><circle cx="10" cy="41" fill="#57565c" r="2"/><path d="m55 44a3 3 0 1 1 3-3 3 3 0 0 1 -3 3zm0-4a1 1 0 1 0 1 1 1 1 0 0 0 -1-1z" fill="#3e3d42"/><path d="m43 44a3 3 0 1 1 3-3 3 3 0 0 1 -3 3zm0-4a1 1 0 1 0 1 1 1 1 0 0 0 -1-1z" fill="#3e3d42"/><path d="m38 44a3 3 0 1 1 3-3 3 3 0 0 1 -3 3zm0-4a1 1 0 1 0 1 1 1 1 0 0 0 -1-1z" fill="#3e3d42"/><path d="m10 44a3 3 0 1 1 3-3 3 3 0 0 1 -3 3zm0-4a1 1 0 1 0 1 1 1 1 0 0 0 -1-1z" fill="#3e3d42"/><path d="m15 44a3 3 0 1 1 3-3 3 3 0 0 1 -3 3zm0-4a1 1 0 1 0 1 1 1 1 0 0 0 -1-1z" fill="#3e3d42"/><path d="m20 44a3 3 0 1 1 3-3 3 3 0 0 1 -3 3zm0-4a1 1 0 1 0 1 1 1 1 0 0 0 -1-1z" fill="#3e3d42"/><g fill="#ed1c24"><path d="m39 24h2v10h-2z"/><path d="m35 24h2v10h-2z"/><path d="m31 24h2v10h-2z"/><path d="m27 24h2v10h-2z"/><path d="m23 24h2v10h-2z"/><path d="m19 24h2v10h-2z"/><path d="m15 24h2v10h-2z"/><path d="m11 24h2v10h-2z"/><path d="m7 24h2v10h-2z"/></g><path d="m2 44h60v2h-60z" fill="#57565c"/><path d="m20 16h12v2h-12z" fill="#c2dff6"/><path d="m16 12h12v2h-12z" fill="#c2dff6"/><path d="m12 12h2v2h-2z" fill="#c2dff6"/></g></svg>