<?xml version="1.0" encoding="utf-8"?>
<!-- Generator: Adobe Illustrator 27.3.0, SVG Export Plug-In . SVG Version: 6.00 Build 0)  -->
<svg version="1.1" id="Layer_1" xmlns="http://www.w3.org/2000/svg" xmlns:xlink="http://www.w3.org/1999/xlink" x="0px" y="0px"
	 viewBox="0 0 512 512" style="enable-background:new 0 0 512 512;" xml:space="preserve">
<style type="text/css">
	.st0{fill:#F05859;}
	.st1{fill:#999EA2;}
	.st2{fill:#07ABE2;}
	.st3{fill:#112A4C;}
	.st4{fill:#FBB970;}
	.st5{fill:#EAAC6E;}
	.st6{fill:#CE8449;}
	.st7{fill:none;stroke:#FFFFFF;stroke-width:1.563;stroke-miterlimit:10;}
	.st8{fill:#029CC6;}
	.st9{fill:#888888;}
	.st10{fill:#102A4C;}
</style>
<path class="st0" d="M35.6,466.7h29.2c0.8-3.9,2.4-7.5,4.4-10.8H35.6V466.7z"/>
<path class="st1" d="M104.4,455.6c-0.2-0.1-0.5-0.2-0.7-0.3c-2-0.6-4-1-6.2-1c-10.7,0-19.4,8.6-19.4,19.4c0,10.7,8.8,19.4,19.4,19.4
	c10.7,0,19.4-8.6,19.4-19.4C116.9,465.5,111.7,458.4,104.4,455.6"/>
<path class="st2" d="M405.2,392.8v-53.9H386v127.7h3.9c3.2-15,16.7-26.4,32.6-26.4c16.1,0,29.5,11.3,32.6,26.4h21.2v-12.4h-0.2
	c-11.6,0-21-9.5-21-21.1c0-11.6,9.5-21,21-21h0.2v-12.4h-64.2C408.3,399.8,405.2,396.7,405.2,392.8"/>
<path class="st2" d="M405.2,392.8v-53.9H386v127.7h3.9c3.2-15,16.7-26.4,32.6-26.4c16.1,0,29.5,11.3,32.6,26.4h21.2v-12.4h-0.2
	c-11.6,0-21-9.5-21-21.1c0-11.6,9.5-21,21-21h0.2v-12.4h-64.2C408.3,399.8,405.2,396.7,405.2,392.8"/>
<path class="st1" d="M422.5,454.3c-10.7,0-19.4,8.6-19.4,19.4c0,10.7,8.7,19.4,19.4,19.4s19.4-8.6,19.4-19.4
	C441.9,463,433.2,454.3,422.5,454.3"/>
<path class="st0" d="M372,466.7v-10.8h-16.1H125.7c2.1,3.3,3.6,6.9,4.4,10.8H372z"/>
<polygon class="st1" points="457.8,338.9 419.2,338.9 419.2,385.8 473.6,385.8 "/>
<path class="st3" d="M476.4,412.2h-0.2c-11.6,0-21,9.5-21,21c0,11.6,9.5,21.1,21,21.1h0.2v12.4h-21.2c-3.2-15-16.7-26.4-32.6-26.4
	c-16,0-29.5,11.3-32.6,26.4H386V338.9h19.3v53.9c0,3.8,3.1,7,7,7h64.2V412.2z M476.4,440.3h-0.2c-3.9,0-7.1-3.2-7.1-7.1
	c0-3.9,3.2-7.1,7.1-7.1h0.2V440.3z M422.5,493.1c-10.7,0-19.4-8.7-19.4-19.4s8.6-19.4,19.4-19.4c10.7,0,19.4,8.7,19.4,19.4
	S433.2,493.1,422.5,493.1 M124.6,493.1c2.6-3.6,4.5-7.8,5.5-12.4h248.8h10.9c0.9,4.5,2.9,8.8,5.5,12.4H124.6z M97.5,493.1
	c-10.7,0-19.4-8.7-19.4-19.4s8.8-19.4,19.4-19.4c2.2,0,4.2,0.3,6.2,1c0.2,0.1,0.5,0.2,0.7,0.3c7.3,2.8,12.5,9.9,12.5,18.1
	C116.9,484.4,108.2,493.1,97.5,493.1 M355.9,455.9H372v10.8H130.2c-0.8-3.9-2.4-7.5-4.4-10.8H355.9z M419.2,338.9h38.5l15.9,46.9
	h-54.4V338.9z M64.9,466.7H35.6v-10.8h33.7C67.2,459.1,65.7,462.8,64.9,466.7 M490.4,392.2V392c0-0.1,0-0.3-0.1-0.4
	c0-0.1,0-0.2-0.1-0.3c0-0.1-0.1-0.2-0.1-0.3s0-0.2-0.1-0.3v-0.1l-20.7-60.9c-0.9-2.9-3.6-4.7-6.6-4.7h-83.8c-3.8,0-7,3.1-7,7v109.9
	h-4.7h-4.2h-14H107.6H87.3H35.6h-14v31.8c0,3.8,3.1,7,7,7h36.2c0.9,4.5,2.9,8.8,5.5,12.4H46.4H31.8c-3.8,0-7,3.1-7,7
	c0,3.8,3.1,7,7,7h14.6h437c3.8,0,7-3.1,7-7c0-3.8-3.1-7-7-7h-33.7c2.6-3.6,4.5-7.8,5.5-12.4h28.2c3.8,0,7-3.1,7-7v-26.4v-28.1v-26.4
	V392.2z"/>
<polygon class="st4" points="305.8,225.6 82.6,225.6 53.7,225.6 42,225.6 42,348.3 346.4,348.3 346.4,225.6 334.7,225.6 "/>
<polygon class="st5" points="305.8,225.6 42,348.3 346.4,348.3 346.4,225.6 334.7,225.6 "/>
<rect x="66.9" y="240.2" class="st6" width="17.8" height="94.6"/>
<rect x="113.6" y="240.2" class="st6" width="17.8" height="94.6"/>
<rect x="160.3" y="240.2" class="st6" width="17.8" height="94.6"/>
<rect x="207" y="240.2" class="st6" width="17.8" height="94.6"/>
<rect x="253.6" y="240.2" class="st6" width="17.8" height="94.6"/>
<rect x="300.3" y="240.2" class="st6" width="17.8" height="94.6"/>
<path class="st6" d="M346.3,348.3H42V225.6h11.7h28.9h223.2h28.9h11.7v122.7H346.3z M324.3,207.8h-8h-19.1h-206H72.2h-8H45.1h-12
	c-4.9,0-9,4-9,9v140.5c0,4.9,4,9,9,9h322.2c4.9,0,9-4,9-9V216.7c0-4.9-4-9-9-9h-12h-18.9V207.8z"/>
<path class="st7" d="M346.3,348.3H42V225.6h11.7h28.9h223.2h28.9h11.7v122.7H346.3z M324.3,207.8h-8h-19.1h-206H72.2h-8H45.1h-12
	c-4.9,0-9,4-9,9v140.5c0,4.9,4,9,9,9h322.2c4.9,0,9-4,9-9V216.7c0-4.9-4-9-9-9h-12h-18.9V207.8z"/>
<path class="st8" d="M386,466.7h3.9c3.2-15,16.7-26.4,32.6-26.4c16.1,0,29.5,11.3,32.6,26.4h21.2v-12.4h-0.2c-11.6,0-21-9.5-21-21.1
	c0-11.6,9.5-21,21-21h0.2v-12.4L386,435.7V466.7z"/>
<path class="st9" d="M193.6,6h17.8v163.1h-17.8V6z"/>
<circle class="st10" cx="202.2" cy="205.6" r="43.8"/>
</svg>
