<?xml version="1.0" encoding="utf-8"?>
<!-- Generator: Adobe Illustrator 27.3.0, SVG Export Plug-In . SVG Version: 6.00 Build 0)  -->
<svg version="1.1" id="Layer_1" xmlns="http://www.w3.org/2000/svg" xmlns:xlink="http://www.w3.org/1999/xlink" x="0px" y="0px"
	 viewBox="0 0 512 512" style="enable-background:new 0 0 512 512;" xml:space="preserve">
<style type="text/css">
	.st0{fill:#F05859;}
	.st1{fill:#999EA2;}
	.st2{fill:#07ABE2;}
	.st3{fill:#F69230;}
	.st4{fill:#112A4C;}
	.st5{fill:#FBB970;}
	.st6{fill:#EAAC6E;}
	.st7{fill:#CE8449;}
	.st8{fill:none;stroke:#FFFFFF;stroke-width:1.56;stroke-miterlimit:10;}
	.st9{fill:#029CC6;}
</style>
<path class="st0" d="M20.4,357.4h31.3c0.9-4.2,2.5-8,4.7-11.6h-36L20.4,357.4L20.4,357.4z"/>
<path class="st1" d="M93.9,345.6c-0.2-0.1-0.6-0.2-0.8-0.3c-2.1-0.7-4.3-1.1-6.6-1.1c-11.4,0-20.7,9.3-20.7,20.7s9.4,20.7,20.7,20.7
	s20.7-9.3,20.7-20.7C107.3,356.1,101.8,348.5,93.9,345.6"/>
<path class="st2" d="M415.6,278.4v-57.6H395v136.5h4.2c3.4-16.1,17.8-28.2,34.9-28.2c17.1,0,31.5,12.1,34.9,28.2h22.7v-13.2h-0.2
	c-12.4,0-22.5-10.1-22.5-22.6c0-12.4,10.1-22.5,22.5-22.5h0.2v-13.2h-68.6C418.9,285.9,415.6,282.6,415.6,278.4"/>
<path class="st2" d="M415.6,278.4v-57.6H395v136.5h4.2c3.4-16.1,17.8-28.2,34.9-28.2c17.1,0,31.5,12.1,34.9,28.2h22.7v-13.2h-0.2
	c-12.4,0-22.5-10.1-22.5-22.6c0-12.4,10.1-22.5,22.5-22.5h0.2v-13.2h-68.6C418.9,285.9,415.6,282.6,415.6,278.4"/>
<path class="st1" d="M434.1,344.1c-11.4,0-20.7,9.3-20.7,20.7s9.3,20.7,20.7,20.7s20.7-9.3,20.7-20.7S445.5,344.1,434.1,344.1"/>
<path class="st3" d="M483.9,321.7c0,4.2,3.4,7.6,7.6,7.6h0.2v-15.1h-0.3C487.2,314.1,483.9,317.5,483.9,321.7"/>
<path class="st0" d="M380,357.4v-11.6H116.7c2.2,3.5,3.9,7.4,4.7,11.6H380z"/>
<polygon class="st1" points="471.7,220.8 430.5,220.8 430.5,270.9 488.7,270.9 "/>
<path class="st4" d="M491.7,299.1h-0.2c-12.4,0-22.5,10.1-22.5,22.5c0,12.3,10.1,22.6,22.5,22.6h0.2v13.2H469
	c-3.4-16.1-17.8-28.2-34.9-28.2c-17.1,0-31.5,12.1-34.9,28.2H395V220.8h20.6v57.6c0,4.1,3.3,7.5,7.5,7.5h68.6L491.7,299.1
	L491.7,299.1z M491.7,329.1h-0.2c-4.2,0-7.6-3.4-7.6-7.6c0-4.2,3.4-7.6,7.6-7.6h0.2V329.1z M434.1,385.6c-11.4,0-20.7-9.3-20.7-20.7
	s9.3-20.7,20.7-20.7s20.7,9.3,20.7,20.7S445.5,385.6,434.1,385.6 M115.5,385.6c2.7-3.9,4.8-8.4,5.8-13.2h277.7
	c1,4.8,3.1,9.4,5.8,13.2H115.5z M86.6,385.6c-11.4,0-20.7-9.3-20.7-20.7s9.4-20.7,20.7-20.7c2.3,0,4.5,0.3,6.6,1.1
	c0.2,0.1,0.6,0.2,0.8,0.3c7.8,3,13.3,10.6,13.3,19.4C107.3,376.4,98,385.7,86.6,385.6 M362.8,345.9H380v11.6H121.5
	c-0.9-4.2-2.5-8-4.7-11.6H362.8z M430.6,220.8h41.2l17,50.1h-58.1L430.6,220.8L430.6,220.8z M51.7,357.5H20.4v-11.6h36
	C54.2,349.3,52.5,353.3,51.7,357.5 M506.6,277.7v-0.2c0-0.1,0-0.3-0.1-0.4c0-0.1,0-0.2-0.1-0.3c0-0.1-0.1-0.2-0.1-0.3
	c0-0.1,0-0.2-0.1-0.3V276L484,210.9c-1-3.1-3.9-5.1-7.1-5.1h-89.6c-4.1,0-7.5,3.3-7.5,7.5v117.5H5.4v34c0,4.1,3.3,7.5,7.5,7.5h38.8
	c1,4.8,3.1,9.4,5.8,13.2H16.3c-4.1,0-7.5,3.3-7.5,7.5s3.3,7.5,7.5,7.5h482.8c4.1,0,7.5-3.3,7.5-7.5s-3.3-7.5-7.5-7.5h-36
	c2.7-3.9,4.8-8.4,5.8-13.2h30.2c4.1,0,7.5-3.3,7.5-7.5L506.6,277.7L506.6,277.7z"/>
<polygon class="st5" points="309.2,173.3 70.6,173.3 39.7,173.3 27.2,173.3 27.2,304.5 352.7,304.5 352.7,173.3 340.1,173.3 "/>
<polygon class="st6" points="309.2,173.3 27.2,304.5 352.7,304.5 352.7,173.3 340.1,173.3 "/>
<rect x="53.9" y="189" class="st7" width="19.1" height="101.2"/>
<rect x="103.7" y="189" class="st7" width="19.1" height="101.2"/>
<rect x="153.7" y="189" class="st7" width="19.1" height="101.2"/>
<rect x="203.6" y="189" class="st7" width="19.1" height="101.2"/>
<rect x="253.5" y="189" class="st7" width="19.1" height="101.2"/>
<rect x="303.4" y="189" class="st7" width="19.1" height="101.2"/>
<path class="st7" d="M352.6,304.5H27.2V173.3h325.6v131.1H352.6z M329,154.3H17.6c-5.3,0-9.6,4.3-9.6,9.6v150.2
	c0,5.3,4.3,9.6,9.6,9.6h344.5c5.3,0,9.6-4.3,9.6-9.6V163.8c0-5.3-4.3-9.6-9.6-9.6H329L329,154.3L329,154.3z"/>
<path class="st8" d="M352.6,304.5H27.2V173.3h325.6v131.1H352.6z M329,154.3H17.6c-5.3,0-9.6,4.3-9.6,9.6v150.2
	c0,5.3,4.3,9.6,9.6,9.6h344.5c5.3,0,9.6-4.3,9.6-9.6V163.8c0-5.3-4.3-9.6-9.6-9.6H329L329,154.3L329,154.3z"/>
<path class="st9" d="M395,357.4h4.2c3.4-16.1,17.8-28.2,34.9-28.2s31.5,12.1,34.9,28.2h22.7v-13.2h-0.2c-12.4,0-22.5-10.1-22.5-22.6
	c0-12.4,10.1-22.5,22.5-22.5h0.2V286L395,324.3L395,357.4L395,357.4z"/>
</svg>
