<?xml version="1.0" encoding="UTF-8"?>
<svg id="Capa_1" data-name="Capa 1" xmlns="http://www.w3.org/2000/svg" viewBox="0 0 468.29 468.29">
  <defs>
    <style>
      .cls-1 {
        fill: none;
        stroke: #fff;
        stroke-miterlimit: 10;
        stroke-width: 1.54px;
      }

      .cls-2 {
        fill: #eaac6e;
      }

      .cls-3 {
        fill: #fbb970;
      }

      .cls-4 {
        fill: #ce8449;
      }

      .cls-5 {
        fill: #cbced3;
      }

      .cls-6 {
        fill: #102a4c;
      }

      .cls-7 {
        fill: #607685;
      }
    </style>
  </defs>
  <polygon class="cls-3" points="382.69 275.33 85.76 275.33 47.32 275.33 31.75 275.33 31.75 438.43 436.6 438.43 436.6 275.33 421.03 275.33 382.69 275.33"/>
  <polygon class="cls-2" points="385.16 275.33 36.38 437.44 438.77 437.44 438.77 275.33 423.3 275.33 385.16 275.33"/>
  <path class="cls-7" d="m243.04,133.21c-.89-.2-1.87-.98-1.87-2.07v-25.72h-13.8v25.72c0,7,4.73,13.2,11.73,15.37,8.67,2.57,13.7,11.33,11.63,20.3-1.38,6.31-6.7,11.33-13.01,12.61-5.22.99-10.35-.2-14.29-3.55-3.94-3.25-6.21-7.98-6.21-13.11,0-3.84-3.06-6.9-6.9-6.9s-6.9,3.06-6.9,6.9c0,9.26,4.14,17.94,11.23,23.75,5.52,4.63,12.52,7,19.61,7,2.07,0,4.04-.2,6.11-.59,11.63-2.27,21.19-11.53,23.85-23.06,3.65-15.96-5.71-32.03-21.19-36.66"/>
  <path class="cls-5" d="m119.07,255.91l115.11-78.35,115.2,78.35H119.07Zm256.53,1.18l-137.58-93.53c-2.36-1.57-5.42-1.57-7.69,0l-137.58,93.53c-2.56,1.68-3.65,4.83-2.76,7.69.88,2.86,3.55,4.93,6.6,4.93h275.15c3.06,0,5.72-1.97,6.6-4.93.88-2.86-.2-6.01-2.76-7.69"/>
  <polygon class="cls-6" points="286.41 52.4 256.25 112.02 212.3 112.02 182.04 52.4 202.54 5 265.91 5 286.41 52.4"/>
  <path class="cls-7" d="m264.23,169.78h0c-2.66,11.53-12.22,20.89-23.85,23.16-2.07.39-4.04.59-6.11.59h-1.48v-13.89c1.58.1,3.25,0,4.93-.3,5.22-.98,9.76-4.73,11.92-9.56h14.59Z"/>
  <rect class="cls-4" x="64.96" y="294.74" width="23.75" height="125.95"/>
  <rect class="cls-4" x="127.05" y="294.74" width="23.75" height="125.95"/>
  <rect class="cls-4" x="189.14" y="294.74" width="23.75" height="125.95"/>
  <rect class="cls-4" x="251.23" y="294.74" width="23.75" height="125.95"/>
  <rect class="cls-4" x="313.31" y="294.74" width="23.75" height="125.95"/>
  <rect class="cls-4" x="375.3" y="294.74" width="23.75" height="125.95"/>
  <path class="cls-4" d="m436.7,438.43H31.75v-163.1h404.85v163.1h.1Zm-29.47-186.85H19.93c-6.51,0-11.83,5.32-11.83,11.83v186.85c0,6.51,5.32,11.83,11.83,11.83h428.6c6.5,0,11.83-5.32,11.83-11.83v-186.85c0-6.5-5.32-11.83-11.83-11.83h-41.29Z"/>
  <path class="cls-1" d="m436.7,438.43H31.75v-163.1h404.85v163.1h.1Z"/>
</svg>