<?xml version="1.0" encoding="utf-8"?>
<!-- Generator: Adobe Illustrator 27.3.0, SVG Export Plug-In . SVG Version: 6.00 Build 0)  -->
<svg version="1.1" id="Layer_1" xmlns="http://www.w3.org/2000/svg" xmlns:xlink="http://www.w3.org/1999/xlink" x="0px" y="0px"
	 viewBox="0 0 512 512" style="enable-background:new 0 0 512 512;" xml:space="preserve">
<style type="text/css">
	.st0{fill:#4FC3CB;}
	.st1{fill:#07B2BF;}
	.st2{fill:#474F5D;}
	.st3{fill:#FFFFFF;}
</style>
<path class="st0" d="M506,255c0,73.2-31.4,139-81.5,184.7C380,480.3,320.9,505,256,505s-124-24.7-168.5-65.3C37.4,394,6,328.2,6,255
	C6,116.9,117.9,5,256,5S506,116.9,506,255z"/>
<path class="st1" d="M506,255c0,73.2-31.4,139-81.5,184.7C380,480.3,320.9,505,256,505V5C394.1,5,506,116.9,506,255z"/>
<g id="Page-1">
	<g id="_x30_23---Copyright-Logo">
		<circle id="Oval" class="st2" cx="257.8" cy="255" r="175.2"/>
		<circle id="Oval_00000129919705501241381890000017866552607918188959_" class="st3" cx="257.8" cy="255" r="139"/>
		<path id="Shape" class="st2" d="M334.2,303.8c-21.4,33.5-62.1,49.1-100.4,38.6s-65.3-44.8-66.6-84.5s23.4-75.6,61-88.6
			c37.5-13,79.2,0,102.7,32c1.1,1.4,1.4,3.3,1,5s-1.6,3.2-3.2,4l-22.1,11c-2.4,1.3-5.4,0.7-7.2-1.4c-10.5-12.6-26.2-19.8-42.7-19.5
			c-28.9,0.8-52.3,24-53.4,52.9c-0.6,24,14.6,45.6,37.4,53.1c22.8,7.5,47.9-0.9,61.6-20.6c1.7-2.4,4.9-3.2,7.6-1.9l21.7,10.9
			c1.6,0.8,2.7,2.2,3.2,3.8C335.4,300.6,335.1,302.4,334.2,303.8L334.2,303.8z"/>
	</g>
</g>
</svg>
