<?xml version="1.0" encoding="utf-8"?>
<!-- Generator: Adobe Illustrator 27.3.0, SVG Export Plug-In . SVG Version: 6.00 Build 0)  -->
<svg version="1.1" id="Capa_1" xmlns="http://www.w3.org/2000/svg" xmlns:xlink="http://www.w3.org/1999/xlink" x="0px" y="0px"
	 viewBox="0 0 512 512" style="enable-background:new 0 0 512 512;" xml:space="preserve">
<style type="text/css">
	.st0{fill:#CAE0E5;}
	.st1{fill:#4FC3CB;}
	.st2{fill:#17562C;}
	.st3{fill:#25B04B;}
	.st4{fill:#FFFFFF;}
	.st5{fill:#FCB52D;}
	.st6{fill:#F37B32;}
</style>
<path class="st0" d="M17.8,190.4l312.7,298c39.3-12,76.1-34,106.5-65.9c94.3-99,90.6-255.8-8.5-350.1S172.8-18.2,78.5,80.8
	C48.1,112.7,28,150.5,17.8,190.4z"/>
<path class="st0" d="M494.2,316.6l-312.7-298c-39.3,12-76.1,34-106.5,65.9c-94.3,99-90.6,255.8,8.5,350.1s255.8,90.6,350.1-8.5
	C463.9,394.3,484,356.5,494.2,316.6z"/>
<path class="st1" d="M437.1,422.4c51.1-53.6,73.4-124.2,67.4-192.6c-28.6-2.7-63,0.9-76.7,32.1c-24.3,55.3-116.4,17.2-69.7,118.6
	c17.3,37.5,23.4,65.3,24.2,85.3C402,454.3,420.5,439.8,437.1,422.4z"/>
<path class="st1" d="M78.5,80.8C129.6,27.2,199,1.5,267.6,4.2c4.1,28.4,2.1,63-28.4,78.2c-54.1,27-11.5,117.1-115.1,75.3
	c-38.3-15.5-66.3-20.2-86.3-20C48.4,117.4,61.9,98.2,78.5,80.8z"/>
<g id="surface1_00000071540346220127483710000004973405023112383139_">
	<path class="st2" d="M36.1,244.7l83.3-163c8.4-16.4,28.4-22.9,44.8-14.5l296.4,151.4c16.4,8.4,22.9,28.4,14.5,44.8l-83.3,163
		c-8.4,16.4-28.4,22.9-44.8,14.5L50.6,289.5C34.3,281.2,27.8,261.1,36.1,244.7z"/>
	<path class="st3" d="M460.6,218.6l-31.5-16.1L93.2,311.3L347,440.9c16.4,8.4,36.4,1.9,44.8-14.5l83.3-163
		C483.4,247,476.9,227,460.6,218.6z"/>
	<path class="st4" d="M103.6,185.8l29.6,15.1l-7.6,14.8L96,200.6L103.6,185.8z"/>
	<path class="st4" d="M80.9,230.2l29.6,15.1l-7.6,14.8l-29.6-15.1L80.9,230.2z"/>
	<path class="st4" d="M214.3,298.4l29.6,15.1l-7.6,14.8l-29.6-15.1L214.3,298.4z"/>
	<path class="st4" d="M148.1,208.5l29.6,15.1l-7.6,14.8l-29.6-15.1L148.1,208.5z"/>
	<path class="st4" d="M192.5,231.2l29.6,15.1l-7.6,14.8L185,246L192.5,231.2z"/>
	<path class="st4" d="M237,253.9l29.6,15.1l-7.6,14.8l-29.6-15.1L237,253.9z"/>
	<path class="st4" d="M423.2,236.9l14.8,7.6l-11.4,22.2l-14.8-7.6L423.2,236.9z"/>
	<path class="st4" d="M393.6,221.8l14.8,7.6L397,251.6l-14.8-7.6L393.6,221.8z"/>
	<path class="st4" d="M363.9,206.6l14.8,7.6l-11.4,22.2l-14.8-7.6L363.9,206.6z"/>
	<path class="st4" d="M334.3,191.5l14.8,7.6l-11.4,22.2l-14.8-7.6L334.3,191.5z"/>
	<path class="st5" d="M124.8,144.3l18.2-35.6c3.3-6.6,11.4-9.1,17.9-5.8l35.6,18.2c6.6,3.3,9.1,11.4,5.8,17.9l-18.2,35.6
		c-3.3,6.6-11.4,9.1-17.9,5.8l-35.6-18.2C124.1,158.8,121.5,150.8,124.8,144.3z"/>
	<path class="st6" d="M137.7,119.1l22.2,11.4l-7.6,14.8l-22.2-11.4L137.7,119.1z"/>
	<path class="st6" d="M174.7,138l22.2,11.4l-7.6,14.8l-22.2-11.4L174.7,138z"/>
</g>
</svg>
