<?xml version="1.0" encoding="utf-8"?>
<!-- Generator: Adobe Illustrator 27.3.0, SVG Export Plug-In . SVG Version: 6.00 Build 0)  -->
<svg version="1.1" id="Capa_1" xmlns="http://www.w3.org/2000/svg" xmlns:xlink="http://www.w3.org/1999/xlink" x="0px" y="0px"
	 viewBox="0 0 512 512" style="enable-background:new 0 0 512 512;" xml:space="preserve">
<style type="text/css">
	.st0{opacity:0.8;}
	.st1{fill:#6D6D6D;}
	.st2{fill:#BE202E;}
	.st3{fill:#F1CC31;}
	.st4{opacity:0.4;fill:url(#SVGID_1_);}
</style>
<g>
	<g class="st0">
		<path class="st1" d="M219.6,175.3L118.2,350.6c-16.2,27.9,4,62.9,36.3,62.9h202.4c32.2,0,52.4-34.9,36.3-62.8l-101-175.4
			C276.1,147.4,235.7,147.3,219.6,175.3z"/>
	</g>
	<path class="st2" d="M502.5,413.5L288.2,55.7c-14.6-24.4-49.9-24.4-64.5,0L9.5,413.5c-15,25,3,56.9,32.2,56.9h428.5
		C499.4,470.4,517.5,438.6,502.5,413.5z"/>
	<g>
		<path class="st3" d="M457.3,442.6H54c-6.5,0-12.4-3.5-15.6-9.1c-3.2-5.6-3.1-12.5,0.2-18.1L240.2,75.6c3.3-5.5,9.1-8.8,15.5-8.8
			c6.4,0,12.2,3.3,15.5,8.8l201.7,339.8c3.3,5.6,3.4,12.5,0.2,18.1C469.8,439.1,463.8,442.6,457.3,442.6z M65.6,418h380.1
			l-190-320.2L65.6,418z"/>
	</g>
	<linearGradient id="SVGID_1_" gradientUnits="userSpaceOnUse" x1="16.9231" y1="219.2948" x2="343.8307" y2="219.2948">
		<stop  offset="0" style="stop-color:#352713"/>
		<stop  offset="0.1392" style="stop-color:#392B16"/>
		<stop  offset="0.2788" style="stop-color:#45371F"/>
		<stop  offset="0.4187" style="stop-color:#584B2E"/>
		<stop  offset="0.5588" style="stop-color:#736743"/>
		<stop  offset="0.6992" style="stop-color:#968C5F"/>
		<stop  offset="0.8398" style="stop-color:#C1B880"/>
		<stop  offset="0.9782" style="stop-color:#F3ECA7"/>
		<stop  offset="1" style="stop-color:#FCF5AE"/>
	</linearGradient>
	<path class="st4" d="M343.8,148.5l-55.6-92.8c-14.6-24.4-49.9-24.4-64.5,0L16.9,401.2C257.6,340.3,325.1,217.2,343.8,148.5z"/>
</g>
<g>
	<path class="st3" d="M256.1,391.1c-15.2,0-25.4-9.7-25.4-21.7c0-12.5,10.2-22.2,25.4-22.2c14.9,0,25.2,9.7,25.2,22.2
		C281.3,381.4,271,391.1,256.1,391.1z M232.4,189.5h46.1l-5,141.3h-36.1L232.4,189.5z"/>
</g>
</svg>
