<?xml version="1.0" encoding="utf-8"?>
<!-- Generator: Adobe Illustrator 27.3.0, SVG Export Plug-In . SVG Version: 6.00 Build 0)  -->
<svg version="1.1" id="Capa_1" xmlns="http://www.w3.org/2000/svg" xmlns:xlink="http://www.w3.org/1999/xlink" x="0px" y="0px"
	 viewBox="0 0 512 512" style="enable-background:new 0 0 512 512;" xml:space="preserve">
<style type="text/css">
	.st0{fill:#F1F4F9;}
	.st1{fill:#E0E5EE;}
	.st2{fill:#FDBC40;}
	.st3{fill:#F89D43;}
	.st4{fill:#102A4C;}
</style>
<g>
	<path class="st0" d="M256,506C118.7,506,6,393.3,6,256S118.7,6,256,6s250,112.7,250,250S393.3,506,256,506z"/>
</g>
<path class="st1" d="M506,256C506,118.7,393.3,6,256,6v500C393.3,506,506,393.3,506,256z"/>
<g id="_x31_9-dark_mode_3_">
	<g>
		<path class="st2" d="M83.8,338.5l50.7-29.3l14.7,25.4L83.8,338.5z"/>
	</g>
	<g>
		<path class="st2" d="M173.5,83.7l29.3,50.8l-25.4,14.6L173.5,83.7z"/>
	</g>
	<g>
		<path class="st2" d="M148.1,413.4l29.3-50.8l25.4,14.6L148.1,413.4z"/>
	</g>
	<g>
		<path class="st2" d="M98.4,148.1l50.7,29.3l-14.7,25.4L98.4,148.1z"/>
	</g>
	<g>
		<path class="st2" d="M65.6,241.4h58.6v29.3L65.6,241.4z"/>
	</g>
	<g>
		<path class="st2" d="M241.4,387.8h29.3l-29.3,58.6V387.8z"/>
	</g>
	<g>
		<path class="st2" d="M270.6,65.6v58.6h-29.3L270.6,65.6z"/>
	</g>
	<g>
		<path class="st2" d="M256,358.5c-56.5,0-102.5-46-102.5-102.5s46-102.5,102.5-102.5c17.8,0,35.5,4.7,51.2,13.6l22.2,12.6
			l-22.1,12.8c-22.6,13-36.6,37.4-36.6,63.5s14,50.4,36.6,63.5l22.1,12.8l-22.2,12.6C291.5,353.8,273.8,358.5,256,358.5L256,358.5z"
			/>
	</g>
	<path class="st3" d="M307.2,344.9l22.2-12.6l-22.1-12.8c-22.6-13-36.6-37.4-36.6-63.5s14-50.4,36.6-63.5l22.1-12.8l-22.2-12.6
		c-15.7-8.9-33.4-13.6-51.2-13.6v205.1C273.8,358.5,291.5,353.8,307.2,344.9z"/>
</g>
<path class="st3" d="M256,387.8h14.6l-29.3,58.6L256,387.8z"/>
<path class="st3" d="M270.6,65.6v58.6H256L270.6,65.6z"/>
<path class="st4" d="M446.5,256c0-56.5-46-102.5-102.5-102.5v205.1C400.5,358.5,446.5,312.5,446.5,256z"/>
</svg>
