<?xml version="1.0" encoding="UTF-8"?>
<svg id="Layer_1" data-name="Layer 1" xmlns="http://www.w3.org/2000/svg" viewBox="0 0 512 512">
  <defs>
    <style>
      .cls-1 {
        fill: #f1cc31;
      }

      .cls-2 {
        fill: #fff;
      }

      .cls-3 {
        fill: #aaa;
      }

      .cls-4 {
        fill: #be202e;
      }

      .cls-5 {
        fill: #c4d6eb;
      }

      .cls-6 {
        fill: #c6c5c5;
      }

      .cls-7 {
        fill: #112a4c;
      }

      .cls-8 {
        fill: #363c73;
      }

      .cls-9 {
        fill: #17578f;
      }

      .cls-10 {
        fill: #3b3d4c;
      }

      .cls-11 {
        fill: #5d5e70;
      }
    </style>
  </defs>
  <path class="cls-10" d="m290.52,475.46c-7.64-14.31-8.34-33.6-8.34-33.6h-50.91s-.7,19.29-8.34,33.6c-7.64,14.31-23.63,23.25-23.63,23.25h114.84s-15.98-8.94-23.63-23.25Z"/>
  <path class="cls-3" d="m507.96,431.38c0,11.85-7.47,21.46-16.68,21.46H20.72c-9.21,0-16.68-9.61-16.68-21.46V32.46c0-11.85,7.47-21.46,16.68-21.46h470.56c9.21,0,16.68,9.61,16.68,21.46v398.92Z"/>
  <path class="cls-6" d="m4.04,391.55v39.83c0,11.85,7.47,21.46,16.68,21.46h470.56c9.21,0,16.68-9.61,16.68-21.46v-39.83H4.04Z"/>
  <rect class="cls-11" x="195.02" y="489.39" width="124.23" height="16.61" rx=".88" ry=".88"/>
  <rect class="cls-1" x="22.32" y="32.57" width="465.81" height="336.42" rx="3.41" ry="3.41"/>
  <path class="cls-5" d="m474.48,66.51c0-5.19-3.27-9.4-7.31-9.4H47.4c-4.03,0-7.31,4.21-7.31,9.4v26.42h434.38v-26.42Z"/>
  <path class="cls-2" d="m40.1,92.93v242.12c0,5.19,3.27,9.4,7.31,9.4h419.77c4.03,0,7.31-4.21,7.31-9.4V92.93H40.1Z"/>
  <path class="cls-10" d="m257.32,437.37h-3.18c-8.09,0-14.64-6.96-14.64-15.54v-3.38c0-8.58,6.55-15.54,14.64-15.54h3.18c8.09,0,14.64,6.96,14.64,15.54v3.38c0,8.58-6.55,15.54-14.64,15.54Z"/>
  <path class="cls-8" d="m420.79,75.29c0,3.67-2.31,6.64-5.16,6.64s-5.16-2.97-5.16-6.64,2.31-6.64,5.16-6.64,5.16,2.97,5.16,6.64Z"/>
  <path class="cls-8" d="m441.83,75.29c0,3.67-2.31,6.64-5.16,6.64s-5.16-2.97-5.16-6.64,2.31-6.64,5.16-6.64,5.16,2.97,5.16,6.64Z"/>
  <path class="cls-8" d="m462.86,75.29c0,3.67-2.31,6.64-5.16,6.64s-5.16-2.97-5.16-6.64,2.31-6.64,5.16-6.64,5.16,2.97,5.16,6.64Z"/>
  <polygon class="cls-7" points="284.24 184.78 310.41 192.11 284.24 324.53 242.29 324.53 242.29 194.83 242.29 184.78 284.24 184.78"/>
  <polygon class="cls-9" points="326.19 194.83 326.19 324.46 284.24 324.46 284.24 184.78 326.19 184.78 326.19 194.83"/>
  <path class="cls-7" d="m172.47,324.53l27.59-68.59c0-5.57-19.94-27.57-27.68-27.57h-41.85v96.23l41.95-.07Z"/>
  <path class="cls-9" d="m214.42,324.53v-96.23h-41.95c0,44.41-.38,96.23-.38,96.23h42.32Z"/>
  <path class="cls-7" d="m396.67,326.91l27.3-68.93c0-5.57-19.56-138.06-27.3-138.06h-42.14v207.05l42.14-.07Z"/>
  <path class="cls-9" d="m438.81,326.91V119.86h-42.14c0,44.61-.38,207.05-.38,207.05h42.52Z"/>
  <polygon class="cls-4" points="459.4 328.97 57.03 328.97 57.03 111.95 90.93 111.95 90.93 304.6 459.4 304.6 459.4 328.97"/>
</svg>