<?xml version="1.0" encoding="UTF-8"?>
<svg id="Layer_1" data-name="Layer 1" xmlns="http://www.w3.org/2000/svg" viewBox="0 0 591 591">
  <defs>
    <style>
      .cls-1 {
        fill: #f6901e;
      }

      .cls-2 {
        fill: #f37b32;
      }

      .cls-3 {
        fill: #fcb52d;
      }

      .cls-4 {
        fill: #fbb132;
      }

      .cls-5 {
        fill: #102a4c;
      }

      .cls-6 {
        fill: #1b53a4;
      }

      .cls-7 {
        fill: #5eb2d0;
      }
    </style>
  </defs>
  <path class="cls-1" d="m45.1,432.71h499.79c23.3-41.45,36.61-89.27,36.61-140.2C581.51,134.27,453.23,6,295,6S8.49,134.27,8.49,292.51c0,50.93,13.31,98.75,36.61,140.2Z"/>
  <path class="cls-1" d="m544.89,158.29H45.1c-23.3,41.45-36.61,89.27-36.61,140.2,0,158.23,128.27,286.51,286.51,286.51s286.51-128.27,286.51-286.51c0-50.93-13.31-98.75-36.61-140.2Z"/>
  <path class="cls-4" d="m581.51,292.51c0-85.71-37.65-162.62-97.29-215.12-26.15,20.54-52.04,51.08-38.64,88.16,23.76,65.77-83.79,107.25,36.27,154.92,44.45,17.65,71.65,36.01,88.3,52.13,7.39-25.42,11.37-52.29,11.37-80.1Z"/>
  <path class="cls-4" d="m8.49,292.51c0-85.71,37.65-162.62,97.29-215.12,26.15,20.54,52.04,51.08,38.64,88.16-23.76,65.77,83.79,107.25-36.27,154.92-44.45,17.65-71.65,36.01-88.3,52.13-7.39-25.42-11.37-52.29-11.37-80.1Z"/>
  <g id="surface1">
    <path class="cls-6" d="m103.82,463.65l-60.35-203.02c-6.06-20.38,5.55-41.83,25.94-47.89l369.12-109.73c20.38-6.06,41.83,5.55,47.89,25.94l60.35,203.02c6.06,20.38-5.55,41.83-25.94,47.89l-369.12,109.73c-20.38,6.06-41.83-5.55-47.89-25.94Z"/>
    <path class="cls-5" d="m438.52,103.01l-39.22,11.66-194.54,359.14,316.06-93.96c20.38-6.06,32-27.5,25.94-47.89l-60.35-203.02c-6.06-20.38-27.5-32-47.89-25.94Z"/>
    <path class="cls-7" d="m113.3,360.39l36.91-10.97,5.49,18.46-36.91,10.97-5.49-18.46Z"/>
    <path class="cls-7" d="m129.76,415.76l36.91-10.97,5.49,18.46-36.91,10.97-5.49-18.46Z"/>
    <path class="cls-7" d="m295.86,366.38l36.91-10.97,5.49,18.46-36.91,10.97-5.49-18.46Z"/>
    <path class="cls-7" d="m168.67,343.93l36.91-10.97,5.49,18.46-36.91,10.97-5.49-18.46Z"/>
    <path class="cls-7" d="m224.03,327.47l36.91-10.97,5.49,18.46-36.91,10.97-5.49-18.46Z"/>
    <path class="cls-7" d="m279.4,311.01l36.91-10.97,5.49,18.46-36.91,10.97-5.49-18.46Z"/>
    <path class="cls-7" d="m421.81,148.16l18.46-5.49,8.23,27.68-18.46,5.49-8.23-27.68Z"/>
    <path class="cls-7" d="m384.9,159.13l18.46-5.49,8.23,27.68-18.46,5.49-8.23-27.68Z"/>
    <path class="cls-7" d="m347.99,170.1l18.46-5.49,8.23,27.68-18.46,5.49-8.23-27.68Z"/>
    <path class="cls-7" d="m311.08,181.08l18.45-5.49,8.23,27.68-18.45,5.49-8.23-27.68Z"/>
    <path class="cls-3" d="m97.94,308.72l-13.17-44.29c-2.43-8.16,2.22-16.73,10.38-19.16l44.29-13.17c8.16-2.43,16.73,2.22,19.15,10.38l13.17,44.29c2.43,8.16-2.21,16.73-10.37,19.15l-44.29,13.17c-8.16,2.43-16.73-2.22-19.16-10.38Z"/>
    <path class="cls-2" d="m88.61,277.34l27.68-8.23,5.49,18.46-27.68,8.23-5.49-18.46Z"/>
    <path class="cls-2" d="m134.75,263.63l27.68-8.23,5.49,18.46-27.68,8.23-5.49-18.46Z"/>
  </g>
</svg>