<?xml version="1.0" encoding="utf-8"?>
<!-- Generator: Adobe Illustrator 27.3.0, SVG Export Plug-In . SVG Version: 6.00 Build 0)  -->
<svg version="1.1" id="Capa_1" xmlns="http://www.w3.org/2000/svg" xmlns:xlink="http://www.w3.org/1999/xlink" x="0px" y="0px"
	 viewBox="0 0 512 512" style="enable-background:new 0 0 512 512;" xml:space="preserve">
<style type="text/css">
	.st0{fill:#102A4C;}
	.st1{fill:#AAAAAA;}
	.st2{fill:#BE202E;}
	.st3{fill:#FFFFFF;}
	.st4{fill:#112A4C;}
	.st5{fill:#2A3C74;}
	.st6{fill:#D71F37;}
</style>
<rect x="325.4" y="324.5" transform="matrix(0.7071 -0.7071 0.7071 0.7071 -144.5882 348.6462)" class="st0" width="46.2" height="48.8"/>
<path class="st1" d="M341.7,63.6c-76.8-76.8-201.6-76.8-278.4,0s-76.8,201.6,0,278.4s201.6,76.8,278.4,0S418.6,140.4,341.7,63.6z"/>
<path class="st2" d="M491.7,420l-62.1-62.1c-20-20-52.1-20-72.1,0c-20,20-20,52.1,0,72.1l62.1,62.1c20,20,52.1,20,72.1,0
	C511.5,472.1,511.5,439.8,491.7,420z"/>
<path class="st3" d="M301,301.3c-54.3,54.3-142.7,54.3-196.9,0c-54.3-54.3-54.3-142.7,0-196.9c54.3-54.3,142.7-54.3,196.9,0
	C355.4,158.6,355.4,247,301,301.3z"/>
<path class="st4" d="M177.6,140.4c-20.6,0-37.4-16.8-37.4-37.4c0-6.9,5.6-12.5,12.5-12.5c6.9,0,12.5,5.6,12.5,12.5
	c0,6.9,5.6,12.5,12.5,12.5c6.9,0,12.5,5.6,12.5,12.5C190.1,134.8,184.5,140.4,177.6,140.4z"/>
<path class="st4" d="M227.6,140.4c-6.9,0-12.5-5.6-12.5-12.5c0-6.9,5.6-12.5,12.5-12.5c6.9,0,12.5-5.6,12.5-12.5
	c0-6.9,5.6-12.5,12.5-12.5S265,96.1,265,103C265,123.6,248.2,140.4,227.6,140.4z"/>
<path class="st4" d="M147.1,189l-27.6-13.8c-1.9-1-4.3,0.4-4.3,2.6c0,6.9-5.6,12.5-12.5,12.5s-12.5-5.6-12.5-12.5
	c0-20.8,21.9-34.2,40.4-25l27.6,13.8c6.2,3.1,8.7,10.6,5.6,16.7C160.8,189.6,153.3,192.1,147.1,189z"/>
<path class="st4" d="M241.4,183.4c-3.1-6.2-0.6-13.7,5.6-16.7l27.6-13.8c18.5-9.3,40.4,4.3,40.4,25c0,6.9-5.6,12.5-12.5,12.5
	s-12.5-5.6-12.5-12.5c0-2.1-2.1-3.6-4.3-2.6L258.1,189C251.9,192.1,244.4,189.6,241.4,183.4z"/>
<path class="st4" d="M152.7,315.2c-6.9,0-12.5-5.6-12.5-12.5V300c0-18.5,10.3-35.2,26.9-43.5c6.2-3.1,13.7-0.6,16.7,5.6
	c3.1,6.2,0.6,13.7-5.6,16.7c-8.1,4-13.1,12.1-13.1,21.1v2.6C165.2,309.6,159.6,315.2,152.7,315.2z"/>
<path class="st4" d="M102.8,265.2c-6.9,0-12.5-5.6-12.5-12.5c0-20.6,16.8-37.4,37.4-37.4h25c6.9,0,12.5,5.6,12.5,12.5
	s-5.6,12.5-12.5,12.5h-25c-6.9,0-12.5,5.6-12.5,12.5C115.2,259.7,109.7,265.2,102.8,265.2z"/>
<path class="st4" d="M252.5,315.2c-6.9,0-12.5-5.6-12.5-12.5V300c0-9-5-17.1-13.1-21.1c-6.2-3.1-8.7-10.6-5.6-16.7
	c3.1-6.2,10.6-8.6,16.7-5.6c16.6,8.3,26.9,25,26.9,43.5v2.6C265,309.6,259.4,315.2,252.5,315.2z"/>
<path class="st4" d="M302.5,265.2c-6.9,0-12.5-5.6-12.5-12.5c0-6.9-5.6-12.5-12.5-12.5h-25c-6.9,0-12.5-5.6-12.5-12.5
	s5.6-12.5,12.5-12.5h25c20.6,0,37.4,16.8,37.4,37.4C314.9,259.7,309.4,265.2,302.5,265.2z"/>
<path class="st4" d="M265,165.4l-32.7,25h-59.4l-32.7-25l9.5-15.5l16.7-27.5c2.2-4.2,6.5-7,11.2-7h49.9c4.7,0,9,2.7,11.2,7
	L265,165.4z"/>
<polygon class="st5" points="190.1,190.3 172.9,190.3 140.2,165.4 149.7,149.9 "/>
<path class="st6" d="M265,165.4v62.4c0,11-2.7,21.2-7.5,30c-10.7,19.5-31.5,32.5-54.9,32.5c-34.4,0-62.4-28-62.4-62.4v-62.4
	L265,165.4L265,165.4z"/>
<path class="st2" d="M257.5,257.7c-10.7,19.5-31.5,32.5-54.9,32.5c-34.4,0-62.4-28-62.4-62.4v-62.4h25L257.5,257.7z"/>
</svg>
