<?xml version="1.0" encoding="utf-8"?>
<!-- Generator: Adobe Illustrator 27.3.0, SVG Export Plug-In . SVG Version: 6.00 Build 0)  -->
<svg version="1.1" id="Layer_1" xmlns="http://www.w3.org/2000/svg" xmlns:xlink="http://www.w3.org/1999/xlink" x="0px" y="0px"
	 viewBox="0 0 512 512" style="enable-background:new 0 0 512 512;" xml:space="preserve">
<style type="text/css">
	.st0{fill:#F05859;}
	.st1{fill:#999EA2;}
	.st2{fill:#07ABE2;}
	.st3{fill:#F69230;}
	.st4{fill:#112A4C;}
	.st5{fill:#B2D8F2;}
	.st6{fill:#E15158;}
	.st7{fill:none;stroke:#FFFFFF;stroke-width:1.563;stroke-miterlimit:10;}
	.st8{fill:#029CC6;}
</style>
<path class="st0" d="M480.8,390.4h-36.4c-1-4.9-2.9-9.3-5.5-13.4h41.9V390.4z"/>
<path class="st1" d="M395.3,376.6c0.3-0.1,0.6-0.3,0.9-0.4c2.4-0.8,5-1.3,7.7-1.3c13.3,0,24.1,10.8,24.1,24.1
	c0,13.3-10.9,24.1-24.1,24.1c-13.3,0-24.1-10.8-24.1-24.1C379.8,388.9,386.2,380.1,395.3,376.6"/>
<path class="st2" d="M111.4,298.5v-67h23.9v158.8h-4.9c-4-18.7-20.7-32.8-40.6-32.8c-20,0-36.6,14.1-40.6,32.8H23v-15.4h0.3
	c14.5,0,26.1-11.8,26.1-26.3c0-14.5-11.8-26.1-26.1-26.1H23v-15.4h79.8C107.6,307.2,111.4,303.4,111.4,298.5"/>
<path class="st2" d="M111.4,298.5v-67h23.9v158.8h-4.9c-4-18.7-20.7-32.8-40.6-32.8c-20,0-36.6,14.1-40.6,32.8H23v-15.4h0.3
	c14.5,0,26.1-11.8,26.1-26.3c0-14.5-11.8-26.1-26.1-26.1H23v-15.4h79.8C107.6,307.2,111.4,303.4,111.4,298.5"/>
<path class="st1" d="M89.9,374.9c13.3,0,24.1,10.8,24.1,24.1c0,13.3-10.8,24.1-24.1,24.1S65.9,412.3,65.9,399
	C65.9,385.8,76.6,374.9,89.9,374.9"/>
<path class="st3" d="M31.9,348.8c0,4.9-4,8.8-8.8,8.8h-0.3v-17.5h0.4C28.1,340,31.9,344,31.9,348.8"/>
<path class="st0" d="M152.8,390.4V377h20h196c-2.6,4.1-4.5,8.6-5.5,13.4H152.8z"/>
<polygon class="st1" points="46.1,231.5 94,231.5 94,289.8 26.4,289.8 "/>
<path class="st4" d="M23,307.2h79.8c4.9,0,8.7-4,8.7-8.7v-67h23.9v158.8h-4.9c-4-18.7-20.7-32.8-40.6-32.8
	c-19.8,0-36.6,14.1-40.6,32.8H23v-15.4h0.3c14.3,0,26.1-11.8,26.1-26.2c0-14.3-11.7-26.1-26.1-26.1H23V307.2z M23,339.9h0.3
	c4.9,0,8.8,4,8.8,8.8c0,4.9-4,8.8-8.8,8.8H23V339.9z M89.9,423.2c-13.3,0-24.1-10.8-24.1-24.1c0-13.3,10.8-24.1,24.1-24.1
	c13.3,0,24.1,10.8,24.1,24.1C114,412.5,103.2,423.2,89.9,423.2 M123.9,423.2c3.2-4.5,5.6-9.7,6.8-15.4h13.6h219.2
	c1.2,5.6,3.6,10.9,6.8,15.4H123.9z M403.9,423.2c-13.3,0-24.1-10.8-24.1-23.9c0-10.2,6.4-19.1,15.5-22.5c0.3-0.1,0.6-0.3,0.9-0.4
	c2.4-0.9,5-1.3,7.7-1.3c13.2,0,24.1,10.8,24.1,24.1C428,412.5,417.2,423.2,403.9,423.2 M368.8,377c-2.6,4.1-4.5,8.6-5.5,13.4H152.8
	V377h20H368.8z M94,289.8H26.4l19.7-58.3H94V289.8z M444.5,390.4c-1-4.9-2.9-9.5-5.5-13.4h41.9v13.4H444.5 M5.6,298.5v32.8v35V399
	c0,4.9,4,8.7,8.7,8.7h35.1c1.2,5.6,3.6,10.9,6.8,15.4H14.3c-4.9,0-8.7,4-8.7,8.7c0,4.9,4,8.7,8.7,8.7h453.1h18.2
	c4.9,0,8.7-4,8.7-8.7c0-4.9-4-8.7-8.7-8.7h-18.2h-29.7c3.2-4.5,5.6-9.7,6.8-15.4h45.1c4.9,0,8.7-4,8.7-8.7v-39.6h-17.4h-64.3h-25.2
	H181.5h-17.4h-5.2h-5.9V222.8c0-4.9-4-8.7-8.7-8.7H40c-3.7,0-7,2.3-8.2,5.9L6.1,295.7v0.1c-0.1,0.1-0.1,0.3-0.1,0.4
	s-0.1,0.3-0.1,0.4c-0.1,0.1-0.1,0.3-0.1,0.4c-0.1,0.1-0.1,0.4-0.1,0.5v0.3V298.5z"/>
<rect x="301.6" y="112.5" class="st5" width="122.9" height="20.5"/>
<rect x="342.6" y="71.5" class="st5" width="122.9" height="20.5"/>
<rect x="486" y="71.5" class="st5" width="20.5" height="20.5"/>
<polygon class="st0" points="235.1,176.4 422.4,176.4 458.4,176.4 472.9,176.4 472.9,328.9 184.5,328.9 184.5,176.4 199.1,176.4 "/>
<polygon class="st6" points="235.1,176.4 472.9,328.9 184.5,328.9 184.5,176.4 199.1,176.4 "/>
<path class="st0" d="M184.4,328.9V176.4H199h36h187.3h36h14.6v152.5H184.7H184.4z M212.1,154.1h-23.6h-15c-6.1,0-11.1,5-11.1,11.1
	V340c0,6.1,5,11.1,11.1,11.1H484c6.1,0,11.1-5,11.1-11.1V165.4c0-6.1-5-11.1-11.1-11.1h-15h-23.7h-10h-23.7H245.7h-23.7h-10V154.1z"
	/>
<path class="st7" d="M184.4,328.9V176.4H199h36h187.3h36h14.6v152.5H184.7H184.4z M212.1,154.1h-23.6h-15c-6.1,0-11.1,5-11.1,11.1
	V340c0,6.1,5,11.1,11.1,11.1H484c6.1,0,11.1-5,11.1-11.1V165.4c0-6.1-5-11.1-11.1-11.1h-15h-23.7h-10h-23.7H245.7h-23.7h-10V154.1z"
	/>
<path class="st8" d="M135.4,390.4h-4.9c-4-18.7-20.7-32.8-40.6-32.8c-20,0-36.6,14.1-40.6,32.8H23v-15.4h0.3
	c14.5,0,26.1-11.8,26.1-26.3c0-14.5-11.8-26.1-26.1-26.1H23v-15.4l112.4,44.6V390.4z"/>
</svg>
