<?xml version="1.0" encoding="utf-8"?>
<!-- Generator: Adobe Illustrator 27.3.0, SVG Export Plug-In . SVG Version: 6.00 Build 0)  -->
<svg version="1.1" id="Capa_1" xmlns="http://www.w3.org/2000/svg" xmlns:xlink="http://www.w3.org/1999/xlink" x="0px" y="0px"
	 viewBox="0 0 512 512" style="enable-background:new 0 0 512 512;" xml:space="preserve">
<style type="text/css">
	.st0{fill-rule:evenodd;clip-rule:evenodd;fill:#FFFFFF;}
	.st1{fill-rule:evenodd;clip-rule:evenodd;fill:#4FC3CB;}
	.st2{fill-rule:evenodd;clip-rule:evenodd;fill:#CAE0E5;}
	.st3{fill-rule:evenodd;clip-rule:evenodd;fill:#BE202E;}
	.st4{fill:#102A4C;}
	.st5{fill:#E5E5E4;}
	.st6{fill:#A31D29;}
	.st7{fill:#BE202E;}
</style>
<path class="st0" d="M44.4,292.1l37.7,200c0.6,3.2,3.7,5.3,7,4.8l92.9-17.5l137.5-25.9l19.7-3.7l80.9-15.2c3.2-0.6,5.3-3.7,4.7-6.9
	L407,333.7L358,73.9l-0.5-2.7l-59.1,11.1c-5.7,1-17.4,4.1-19.8-8.8l-11-57.6L7.6,65c-3.2,0.6-5.3,3.7-4.7,6.9l9.5,49.9l3.9,21.1
	L44.4,292.1z"/>
<path class="st1" d="M407.1,333.5L358,73.9l-0.5-2.7l-0.1-0.9c-0.3-1.7-1.1-1.8-4.1-3.8L278,17.8c-3.5-2.3-4.1-2.9-6-2.6l-4.4,0.9
	L7.6,65c-3.2,0.6-5.3,3.7-4.7,6.9l79.2,420.2c0.6,3.2,3.7,5.3,7,4.8l331-62.5c3.2-0.6,5.3-3.7,4.7-6.9L407.1,333.5z"/>
<path class="st2" d="M407.1,333.5L358,73.9l-0.5-2.7c-0.6-3.1-1.6-3-4.3-4.8L278,17.7c-3.5-2.3-4.1-2.9-6-2.6l-4.4,0.9l-64.7,12.2
	c99.1,91,139.7,281,103.4,411.2c-1.7,6-3.5,11.9-5.5,17.7l18.6-3.5l19.7-3.7l80.9-15.2c3.2-0.6,5.3-3.7,4.7-6.9L407.1,333.5z"/>
<path class="st0" d="M278.7,73.6c2.4,12.9,14.1,9.8,19.8,8.8l59.1-11.1l-0.1-0.9c-0.3-1.7-1.1-1.8-4.1-3.8L278,17.8
	c-3.5-2.3-4.2-2.9-6-2.6l-4.4,0.9L278.7,73.6z"/>
<path class="st3" d="M353.3,66.5L278,17.7c-3.5-2.3-4.1-2.9-6-2.6l-4.4,0.9l11,57.6c2.4,12.9-0.4-1.9,2.3,12l76.7-14.5l-0.1-0.9
	C357.1,68.6,356.2,68.5,353.3,66.5"/>
<path class="st4" d="M59.7,156.5c0.9,4.3,5.1,7.2,9.4,6.3l246.2-48.6c4.3-0.9,7.2-5.1,6.3-9.4c-0.9-4.3-5.1-7.2-9.4-6.3L66,147.1
	C61.7,148,58.8,152.2,59.7,156.5z"/>
<path class="st4" d="M78.8,212.3l246.2-48.6c4.3-0.9,7.2-5.1,6.3-9.4c-0.9-4.3-5.1-7.2-9.4-6.3L75.7,196.6c-4.3,0.9-7.2,5.1-6.3,9.4
	C70.3,210.3,74.5,213.1,78.8,212.3z"/>
<path class="st4" d="M284.7,214.9c-0.9-4.3-5.1-7.2-9.4-6.3L85.5,246c-4.3,0.9-7.2,5.1-6.3,9.4c0.9,4.3,5.1,7.2,9.4,6.3l189.8-37.4
	C282.7,223.4,285.6,219.2,284.7,214.9L284.7,214.9z"/>
<path class="st4" d="M196.5,291.8c4.3-0.9,7.2-5.1,6.3-9.4c-0.9-4.3-5.1-7.2-9.4-6.3l-98.1,19.4c-4.3,0.9-7.2,5.1-6.3,9.4
	c0.9,4.3,5.1,7.2,9.4,6.3L196.5,291.8z"/>
<path class="st4" d="M119,454.4c4.4,0.4,8.3-2.9,8.6-7.3c0-0.2,1.8-18.5,21.8-22.4c9.9-2,15.4,1,22.9,5.1c8.7,4.7,19.5,10.6,37.5,7
	c22.4-4.4,29.8-30.5,30.1-31.6c1.2-4.3-1.3-8.6-5.6-9.8c-4.2-1.2-8.7,1.3-9.9,5.6c-0.1,0.2-5.1,17.7-17.8,20.1
	c-12.3,2.4-18.7-1-26.8-5.4c-8.5-4.6-18.1-9.8-33.7-6.7c-25.4,5-33.8,26.3-34.7,36.8C111.3,450.1,114.6,454,119,454.4z"/>
<path class="st5" d="M243.3,341.4c-0.6,0.3-1,0.8-1.1,1.4l-10.5,52.2l-2.7,13.2c-0.2,0.8,0.2,1.6,0.9,2c0.7,0.4,1.6,0.4,2.2-0.1
	l10.9-8l43.1-31.8c0.5-0.4,0.8-1,0.8-1.6c0-0.6-0.4-1.2-0.9-1.6l-40.7-25.5C244.6,341.2,243.9,341.2,243.3,341.4z"/>
<path class="st6" d="M291.1,364.1c23.5-26.4,51.3-63.3,79.3-106.2l-65.2-40.9c-26.4,43.9-47.4,85-61,117.7L291.1,364.1z"/>
<path class="st7" d="M404.4,58.4l-94.7,151c-1.5,2.4-0.8,5.7,1.6,7.2l56.9,35.7c2.4,1.5,5.7,0.8,7.2-1.6l133-212.2
	c1.1-1.7,1.1-3.9,0-5.6c-1.1-1.7-3.1-2.6-5.1-2.3l-87.5,13.1c-1.5,0.2-2.8,1.1-3.6,2.4l-2,3.1l0.3,0.2l-5.8,9.2L404.4,58.4z"/>
<polygon class="st6" points="390.8,37.1 311.3,163.9 322,170.5 395.7,53 404.4,58.4 404.7,58.6 410.4,49.4 410.1,49.2 401.4,43.8 
	401.4,43.8 "/>
</svg>
