<?xml version="1.0" encoding="UTF-8"?>
<svg xmlns="http://www.w3.org/2000/svg" xmlns:xlink="http://www.w3.org/1999/xlink" viewBox="0 0 512 512">
  <defs>
    <style>
      .cls-1 {
        fill: #c3d2d8;
      }

      .cls-2 {
        fill: #dbe5ea;
      }

      .cls-3 {
        fill: #12284b;
      }

      .cls-4 {
        fill: #229d49;
      }

      .cls-5 {
        fill: #25b04b;
      }

      .cls-6 {
        fill: url(#linear-gradient-2);
      }

      .cls-6, .cls-7 {
        mix-blend-mode: screen;
        opacity: .4;
      }

      .cls-7 {
        fill: url(#linear-gradient);
      }

      .cls-8 {
        isolation: isolate;
      }
    </style>
    <linearGradient id="linear-gradient" x1="-146.24" y1="167.67" x2="381.52" y2="167.67" gradientUnits="userSpaceOnUse">
      <stop offset="0" stop-color="#352713"/>
      <stop offset=".14" stop-color="#382b16"/>
      <stop offset=".28" stop-color="#44371f"/>
      <stop offset=".42" stop-color="#574b2e"/>
      <stop offset=".56" stop-color="#736743"/>
      <stop offset=".7" stop-color="#968b5e"/>
      <stop offset=".84" stop-color="#c1b880"/>
      <stop offset=".98" stop-color="#f3eca7"/>
      <stop offset="1" stop-color="#fcf5ae"/>
    </linearGradient>
    <linearGradient id="linear-gradient-2" x1="65.65" y1="149.48" x2="315.73" y2="149.48" xlink:href="#linear-gradient"/>
  </defs>
  <g class="cls-8">
    <g id="Layer_1" data-name="Layer 1">
      <g>
        <path class="cls-2" d="m362.58,28.74C322.44,121.22,229.78,243.06,16.2,330.34c31.69,102.33,127.06,176.66,239.8,176.66,138.62,0,251-112.38,251-251,0-100.51-59.1-187.18-144.42-227.26Z"/>
        <path class="cls-1" d="m362.58,28.74c-32.36-15.2-68.46-23.74-106.58-23.74C117.38,5,5,117.38,5,256c0,25.88,3.92,50.85,11.2,74.34C229.78,243.06,322.44,121.22,362.58,28.74Z"/>
        <path class="cls-7" d="m362.58,28.74c-32.36-15.2-68.46-23.74-106.58-23.74C117.38,5,5,117.38,5,256c0,25.88,3.92,50.85,11.2,74.34C229.78,243.06,322.44,121.22,362.58,28.74Z"/>
      </g>
      <g>
        <path class="cls-5" d="m306.75,83.65c-19.02,43.82-62.92,101.55-164.13,142.91,15.01,48.49,60.21,83.71,113.63,83.71,65.68,0,118.93-53.25,118.93-118.93,0-47.62-28-88.69-68.43-107.68Z"/>
        <path class="cls-4" d="m306.75,83.65c-15.33-7.2-32.44-11.25-50.5-11.25-65.68,0-118.93,53.25-118.93,118.93,0,12.26,1.86,24.09,5.31,35.23,101.2-41.36,145.11-99.09,164.13-142.91Z"/>
        <path class="cls-6" d="m306.75,83.65c-15.33-7.2-32.44-11.25-50.5-11.25-65.68,0-118.93,53.25-118.93,118.93,0,12.26,1.86,24.09,5.31,35.23,101.2-41.36,145.11-99.09,164.13-142.91Z"/>
      </g>
      <path class="cls-3" d="m395.8,191.39v-.22c0-1.29,0-2.59-.11-3.88,0-.43,0-.97-.11-1.4,0-.97-.11-1.94-.11-2.91,0-.43-.11-.97-.11-1.4-.11-1.29-.22-2.59-.32-3.88v-.22c-.11-1.51-.32-2.91-.54-4.42,0-.11,0-.32-.11-.43-.22-1.4-.43-2.7-.65-3.99,0-.11,0-.22-.11-.32-2.8-16.5-8.52-32.35-16.82-46.59l-.11-.11c-.65-1.08-1.29-2.16-1.94-3.24-.22-.32-.43-.65-.65-.97-.54-.86-1.08-1.62-1.62-2.48-.22-.32-.43-.75-.75-1.08-.65-.97-1.29-1.94-2.05-2.91-.43-.65-.97-1.29-1.4-1.94-.22-.32-.54-.65-.75-.97-.54-.75-1.19-1.51-1.73-2.26q-.11-.11-.22-.22c-18.12-22.97-43.24-40.12-72.25-48.1h0c-1.19-.32-2.48-.65-3.67-.97-.65-.22-1.4-.32-2.05-.54h-.22c-10.03-2.26-20.6-3.56-31.38-3.56-77,0-139.33,62.44-139.33,139.33,0,11.97,1.51,23.51,4.31,34.62.22.75.43,1.62.65,2.37.22.65.32,1.19.54,1.83.43,1.62.97,3.24,1.51,4.85h0c3.77,11.43,8.95,22.11,15.31,32.03h.11c8.95,13.7,19.84,25.56,32.35,35.16l.11.11c.97.75,1.94,1.4,2.91,2.16.22.22.43.32.75.54.75.54,1.51,1.08,2.26,1.62,1.08.75,2.16,1.51,3.34,2.16.11,0,.11.11.22.11,14.13,9.06,29.98,15.64,46.91,19.09h.11c1.08.22,2.16.43,3.24.65.11,0,.22,0,.32.11,3.02.54,6.15.97,9.27,1.29.43,0,.75.11,1.19.11.75.11,1.51.11,2.26.22.65,0,1.19.11,1.83.11s1.29.11,2.05.11,1.51.11,2.26.11c.54,0,1.19,0,1.73.11,1.19,0,2.37.11,3.67.11h.32c77-.54,139.44-62.98,139.54-139.87Zm-123.48,106.11v-4.21c0-8.84-7.23-15.96-15.96-15.96s-15.96,7.23-15.96,15.96v4.21c-46.59-7.01-83.25-43.67-90.15-90.15h4.21c8.84,0,15.96-7.23,15.96-15.96s-7.23-15.96-15.96-15.96h-4.21c7.01-46.59,43.67-83.25,90.15-90.15v4.21c0,8.84,7.23,15.96,15.96,15.96s15.96-7.23,15.96-15.96v-4.21c46.59,7.01,83.25,43.67,90.15,90.15h-4.21c-8.84,0-15.96,7.23-15.96,15.96s7.23,15.96,15.96,15.96h4.21c-6.9,46.59-43.57,83.25-90.15,90.15Z"/>
      <path class="cls-3" d="m239.97,189.02v58.99c0,8.84,7.23,15.96,15.96,15.96s15.96-7.23,15.96-15.96v-52.41l48.85-49.61c3.02-3.02,4.64-7.12,4.64-11.32s-1.73-8.3-4.74-11.32c-3.02-3.02-7.01-4.64-11.22-4.64h-.22c-4.31,0-8.3,1.73-11.22,4.74l-53.38,54.24c-3.02,3.13-4.64,7.01-4.64,11.32Z"/>
      <g>
        <path class="cls-4" d="m220.33,405.19c0,27.23-18.85,45.95-48.18,45.95h-34.43v-91.91h34.43c29.33,0,48.18,18.59,48.18,45.96Zm-49.62,26.58c16.89,0,26.84-9.69,26.84-26.58s-9.95-26.84-26.84-26.84h-10.61v53.42h10.61Z"/>
        <path class="cls-4" d="m228.7,359.23h22.39v54.99c0,10.87,5.37,17.15,15.97,17.15s16.23-6.28,16.23-17.15v-54.99h22.39v54.86c0,25.4-17.81,37.97-39.02,37.97s-37.97-12.57-37.97-37.97v-54.86Z"/>
        <path class="cls-4" d="m373.88,377.17h-33.91v18.59h29.98v17.28h-29.98v20.16h33.91v17.94h-56.3v-91.91h56.3v17.94Z"/>
      </g>
    </g>
  </g>
</svg>