<?xml version="1.0" encoding="utf-8"?>
<!-- Generator: Adobe Illustrator 27.3.0, SVG Export Plug-In . SVG Version: 6.00 Build 0)  -->
<svg version="1.1" id="Capa_1" xmlns="http://www.w3.org/2000/svg" xmlns:xlink="http://www.w3.org/1999/xlink" x="0px" y="0px"
	 viewBox="0 0 424.4 424.4" style="enable-background:new 0 0 424.4 424.4;" xml:space="preserve">
<style type="text/css">
	.st0{fill:#FBB970;}
	.st1{fill:#CE8449;}
	.st2{fill:#D5E9F8;}
	.st3{fill:#ABCDDD;}
	.st4{fill:#F05859;}
	.st5{fill:#EE3C38;}
	.st6{fill:#4EC3CC;}
	.st7{fill:#07B4C0;}
	.st8{fill:#112A4C;}
	.st9{fill:none;stroke:#FFFFFF;stroke-width:1.396;stroke-miterlimit:10;}
	.st10{fill:#33C5F3;}
	.st11{fill:#17578E;}
	.st12{fill:#4998D2;}
	.st13{fill:#102A4C;}
	.st14{fill:#00ADEE;}
</style>
<path class="st0" d="M45.6,157.7v-34.3l76.1-8.6c0-1,0.8-1.8,1.8-1.8h52.6h52.6c1,0,1.8,0.8,1.8,1.8v51.4v53.1h-54.4h-54.4H48.5
	l-3-33.9C29.3,190.8,43.3,157.7,45.6,157.7"/>
<rect x="115.6" y="121" class="st1" width="54.4" height="26.5"/>
<rect x="51.5" y="191.4" class="st1" width="54.4" height="26.5"/>
<rect x="298.5" y="128" class="st2" width="81.3" height="59.4"/>
<rect x="301.8" y="125.3" class="st3" width="45.4" height="59.4"/>
<path class="st4" d="M268.1,226.3l16.1-21.6c0,5.8,10.3-9,16.1-9l95.1,3.8c2.8,0,4.9,2.6,4.4,5.3c-3.2,15.2-11,35.5-29.4,55.9
	c-3.5,3.9-4.2,9.4-2,14.1l2.2,16c1.7,3.5,0.5,11.4-3.3,11.4l-309.2,0.7c-2,0-3.9-1.1-4.7-3L31.1,228c31.4,46,1-3.2,4.8-3.2l22.8,0.8
	C64.6,225.5,268.1,220.5,268.1,226.3"/>
<path class="st5" d="M31.8,218.2H73l29.2,65.9h-46c-2,0-3.9-1.1-4.7-3l-24.3-55.5C25.4,222.2,28,218.2,31.8,218.2"/>
<rect x="179.8" y="158.9" class="st1" width="54.4" height="26.5"/>
<path class="st6" d="M366.1,266.1c-0.5,2.7-0.2,5.5,1,8l-3.3,20.7c1.7,3.5-13.3,5.7,0,7.5H56.8c-2,0-3.9-1.1-4.7-3l-15.6-33.2H366.1
	z"/>
<path class="st7" d="M94.9,266.1l17,36.2h-46c-0.2,0-0.5,0-0.7-0.1c-0.5-0.1-1-0.2-1.4-0.4c-0.4-0.2-0.9-0.5-1.2-0.8
	c-0.6-0.5-1-1-1.4-1.8L45.6,266L94.9,266.1L94.9,266.1z"/>
<path class="st8" d="M392.7,204.7l-40.4,92.9H65.8l-28.9-63.9h237.7l19.7-28.9H392.7z M55.2,198.3h46.9v18.1H55.2V198.3z
	 M55.2,163.2h46.9v18.1H55.2V163.2z M55.2,128h46.9V146H55.2V128z M119.4,198.3h46.9v18.1h-46.9V198.3z M119.4,163.2h46.9v18.1
	h-46.9V163.2z M119.4,128h46.9V146h-46.9V128z M183.5,198.3h46.9v18.1h-46.9V198.3z M183.5,163.2h46.9v18.1h-46.9V163.2z M183.5,128
	h46.9V146h-46.9V128z M311.8,128h57c1.4,0,2.5,1.1,2.5,2.5v57.1h-59.5V128z M388.4,130.5c0-10.8-8.8-19.7-19.7-19.7h-20.6V57.6H331
	v53.2h-36.5v76.7h-9.4l-19.7,28.9h-17.9V110.8H38.1v105.6H10.3l44.3,98.3h309.2l55.1-127.1h-30.5V130.5z"/>
<path class="st9" d="M55.2,198.3h46.9v18.1H55.2V198.3z M55.2,163.2h46.9v18.1H55.2V163.2z M55.2,128h46.9V146H55.2V128z
	 M119.4,198.3h46.9v18.1h-46.9V198.3z M119.4,163.2h46.9v18.1h-46.9V163.2z M119.4,128h46.9V146h-46.9V128z M183.5,198.3h46.9v18.1
	h-46.9V198.3z M183.5,163.2h46.9v18.1h-46.9V163.2z M183.5,128h46.9V146h-46.9V128z M311.8,128h57c1.4,0,2.5,1.1,2.5,2.5v57.1h-59.5
	V128z"/>
<g>
	<path class="st10" d="M14.8,417c-5.6,0-10.2-4.6-10.2-10.2V331h414.7v75.8c0,5.6-4.6,10.2-10.2,10.2H14.8L14.8,417z"/>
	<path class="st11" d="M4.7,280.1c13.1-22.5,47.1-23.8,60.2-1.3l0.4,0.6c13.1,22.5,45.7,22.5,58.8,0l0.3-0.5
		c13.1-22.5,45.8-22.4,58.9,0.1c13,22.6,45.8,22.6,58.9,0.1l0.2-0.4c13.1-22.5,45.7-22.5,58.8,0l0.4,0.6c13.1,22.5,45.7,22.5,58.8,0
		l0.4-0.7c13.1-22.5,45.7-22.5,58.8,0v77.4c-13.1-22.5-45.7-22.5-58.8,0l-0.4,0.7c-13.1,22.5-45.7,22.5-58.8,0l-0.4-0.6
		c-13.1-22.5-45.7-22.5-58.8,0l-0.2,0.4c-13.1,22.5-45.8,22.5-58.9-0.1c-13-22.6-45.8-22.6-58.9-0.1l-0.3,0.5
		c-13.1,22.5-45.7,22.5-58.8,0l-0.4-0.6c-13.1-22.5-47.2-21-60.2,1.4L4.7,280.1"/>
	<path class="st12" d="M212.2,331H4.6v75.8c0,5.6,4.6,10.2,10.2,10.2h197.4L212.2,331z"/>
	<path class="st13" d="M64.9,278.8c-13.1-22.5-47.1-21.1-60.2,1.3l0,77.5c13.1-22.5,47.2-23.9,60.2-1.4l0.4,0.6
		c13.1,22.5,45.7,22.5,58.8,0l0.3-0.5c13.1-22.5,45.8-22.4,58.9,0.1c6.4,11.2,17.7,16.8,29,16.9v-77.4c-11.3-0.1-22.6-5.8-29-16.9
		c-13-22.6-45.8-22.6-58.9-0.1l-0.3,0.5c-13.1,22.5-45.7,22.5-58.8,0L64.9,278.8L64.9,278.8z"/>
</g>
<path class="st14" d="M94,60.7c-0.1-0.1-0.1-0.3-0.2-0.5c-0.1-0.3-0.2-0.5-0.3-0.8c0-0.1,0-0.2-0.1-0.2c-0.3-1.1-0.5-2.2-0.5-3.4
	c0-1.2,0.2-2.3,0.5-3.4c0-0.1,0-0.2,0.1-0.2c0.1-0.3,0.2-0.5,0.3-0.8c0.1-0.1,0.1-0.3,0.2-0.4c0.1-0.2,0.2-0.4,0.3-0.6
	c0.1-0.2,0.2-0.4,0.3-0.6c0.1-0.1,0.1-0.2,0.2-0.3c0.1-0.3,0.3-0.5,0.5-0.7c0-0.1,0.1-0.1,0.1-0.1c0.4-0.6,0.9-1.2,1.5-1.8
	l27.9-27.9c2.4-2.4,5.6-3.8,9.1-3.8c3.4,0,6.6,1.3,9.1,3.8c5,5,5,13.1,0,18.1l-6,6H261c7.1,0,12.8,5.8,12.8,12.8
	s-5.8,12.8-12.8,12.8H136.8l6.6,6.6c2.4,2.4,3.8,5.6,3.8,9.1c0,3.4-1.3,6.6-3.8,9.1c-5,5-13.1,5-18.1,0L96.8,64.8
	c-0.6-0.6-1.1-1.2-1.5-1.8c0,0-0.1-0.1-0.1-0.1c-0.2-0.3-0.3-0.5-0.5-0.8c-0.1-0.1-0.1-0.2-0.2-0.3c-0.1-0.2-0.2-0.4-0.3-0.6
	C94.2,61,94.1,60.8,94,60.7z"/>
</svg>
