<?xml version="1.0" encoding="utf-8"?>
<!-- Generator: Adobe Illustrator 27.3.0, SVG Export Plug-In . SVG Version: 6.00 Build 0)  -->
<svg version="1.1" id="Layer_1" xmlns="http://www.w3.org/2000/svg" xmlns:xlink="http://www.w3.org/1999/xlink" x="0px" y="0px"
	 viewBox="0 0 512 512" style="enable-background:new 0 0 512 512;" xml:space="preserve">
<style type="text/css">
	.st0{fill:#25B04B;}
	.st1{fill:#17562C;}
	.st2{fill:#DBE5EA;}
	.st3{fill:#EFEEEE;}
	.st4{fill:#102A4C;}
	.st5{fill:#17578E;}
	.st6{fill:#004A68;}
	.st7{opacity:0.1;fill:#17578E;}
	.st8{opacity:0.1;fill:#102A4C;}
	.st9{fill:#BE202E;}
</style>
<g id="g2015_00000032625691108435954540000004434800979500914869_" transform="translate(0,470.1105)">
	<path id="path2017_00000111902345965132714600000010884134372778923918_" class="st0" d="M14.6-414.9v118.9L256-284.3l11.7-46.5
		L256-414.9H14.6z"/>
</g>
<g id="g2019_00000147210748201487223370000003811626187165858743_" transform="translate(205.5381,470.1108)">
	<path id="path2021_00000122718392836114704830000000968004785664027019_" class="st1" d="M50.5-414.9v130.6l241.3-11.7v-118.9H50.5
		z"/>
</g>
<g id="g2023_00000047041278251285687990000010004396535092495037_">
	<g>
		<g>
			<g id="g2025_00000000224337012962522790000003967921410035361196_">
				<g id="g2031_00000008109438581572433600000013764265242998166180_" transform="translate(0,368.9092)">
					<path id="path2033_00000077321905362336103800000007381137849699234478_" class="st2" d="M14.6-194.9V105
						c0,16.6,13.5,30.1,30.1,30.1H256l23.5-186L256-194.9H14.6z"/>
				</g>
				<g id="g2035_00000014598831065851796900000008253252848955545485_" transform="translate(205.5381,87.9688)">
					<path id="path2037_00000067203926851391780420000017189781024678987910_" class="st3" d="M50.5,416h211.3
						c16.6,0,30.1-13.5,30.1-30.1V86.1H50.5V416z"/>
				</g>
				<path id="path2039_00000025425150654108802860000017863267981401051313_" class="st4" d="M113.4,104.4H78.2V6h35.2V104.4z"/>
				<path id="path2041_00000083073850601537987000000014546495274344593549_" class="st4" d="M193.5,104.4h-35.2V6h35.2V104.4z"/>
				<path id="path2043_00000122693654933183343690000000364343191358449842_" class="st5" d="M353.7,104.4h-35.2V6h35.2V104.4z"/>
				<path id="path2045_00000096758606806907301550000010364388649027589522_" class="st5" d="M433.8,104.4h-35.2V6h35.2V104.4z"/>
				<g id="g2051_00000031186737670816076400000003696177812072037267_" transform="translate(190.5381,512)">
					<path id="path2053_00000080180555590147275290000012180868918508132751_" class="st4" d="M47.9-506v98.4h17.6l11.7-49.2
						L65.5-506H47.9z"/>
				</g>
				<path id="path2055_00000096061715980365394620000014314089838548151443_" class="st5" d="M273.6,6H256v98.4h17.6V6z"/>
			</g>
		</g>
	</g>
</g>
<g>
	<g>
		<path class="st7" d="M87.6,264.7H63.9c-5.8,0-10.5-4.7-10.5-10.5v-23.7c0-5.8,4.7-10.5,10.5-10.5h23.7c5.8,0,10.5,4.7,10.5,10.5
			v23.7C98.1,260.1,93.4,264.7,87.6,264.7z"/>
		<path class="st7" d="M176.8,264.7h-23.7c-5.8,0-10.5-4.7-10.5-10.5v-23.7c0-5.8,4.7-10.5,10.5-10.5h23.7c5.8,0,10.5,4.7,10.5,10.5
			v23.7C187.3,260.1,182.6,264.7,176.8,264.7z"/>
		<path class="st7" d="M266,264.7h-23.7c-5.8,0-10.5-4.7-10.5-10.5v-23.7c0-5.8,4.7-10.5,10.5-10.5H266c5.8,0,10.5,4.7,10.5,10.5
			v23.7C276.5,260.1,271.8,264.7,266,264.7z"/>
		<path class="st7" d="M87.6,353.9H63.9c-5.8,0-10.5-4.7-10.5-10.5v-23.7c0-5.8,4.7-10.5,10.5-10.5h23.7c5.8,0,10.5,4.7,10.5,10.5
			v23.7C98.1,349.3,93.4,353.9,87.6,353.9z"/>
		<path class="st7" d="M176.8,353.9h-23.7c-5.8,0-10.5-4.7-10.5-10.5v-23.7c0-5.8,4.7-10.5,10.5-10.5h23.7c5.8,0,10.5,4.7,10.5,10.5
			v23.7C187.3,349.3,182.6,353.9,176.8,353.9z"/>
		<path class="st5" d="M266,353.9h-23.7c-5.8,0-10.5-4.7-10.5-10.5v-23.7c0-5.8,4.7-10.5,10.5-10.5H266c5.8,0,10.5,4.7,10.5,10.5
			v23.7C276.5,349.3,271.8,353.9,266,353.9z"/>
		<path class="st7" d="M87.6,443.1H63.9c-5.8,0-10.5-4.7-10.5-10.5V409c0-5.8,4.7-10.5,10.5-10.5h23.7c5.8,0,10.5,4.7,10.5,10.5
			v23.7C98.1,438.5,93.4,443.1,87.6,443.1z"/>
		<path class="st7" d="M176.8,443.1h-23.7c-5.8,0-10.5-4.7-10.5-10.5V409c0-5.8,4.7-10.5,10.5-10.5h23.7c5.8,0,10.5,4.7,10.5,10.5
			v23.7C187.3,438.5,182.6,443.1,176.8,443.1z"/>
		<path class="st7" d="M266,443.1h-23.7c-5.8,0-10.5-4.7-10.5-10.5V409c0-5.8,4.7-10.5,10.5-10.5H266c5.8,0,10.5,4.7,10.5,10.5v23.7
			C276.5,438.5,271.8,443.1,266,443.1z"/>
	</g>
	<path class="st8" d="M265.7,220.2h-23.1c-1.4,0-2.7,0.3-3.9,0.8c4,1.6,6.8,5.5,6.8,10V254c0,4.6-2.8,8.4-6.8,10
		c1.2,0.5,2.6,0.8,3.9,0.8h23.1c5.9,0,10.8-4.8,10.8-10.8v-23.1C276.5,225,271.7,220.2,265.7,220.2z"/>
	<path class="st8" d="M176.5,220.2h-23.1c-1.4,0-2.7,0.3-3.9,0.8c4,1.6,6.8,5.5,6.8,10V254c0,4.6-2.8,8.4-6.8,10
		c1.2,0.5,2.6,0.8,3.9,0.8h23.1c5.9,0,10.8-4.8,10.8-10.8v-23.1C187.3,225,182.5,220.2,176.5,220.2z"/>
	<path class="st8" d="M87.3,220.2H64.3c-1.4,0-2.7,0.3-3.9,0.8c4,1.6,6.8,5.5,6.8,10V254c0,4.6-2.8,8.4-6.8,10
		c1.2,0.5,2.6,0.8,3.9,0.8h23.1c5.9,0,10.8-4.8,10.8-10.8v-23.1C98.1,225,93.3,220.2,87.3,220.2z"/>
	<path class="st8" d="M87.3,309.3H64.3c-1.4,0-2.7,0.3-3.9,0.8c4,1.6,6.8,5.5,6.8,10v23.1c0,4.6-2.8,8.4-6.8,10
		c1.2,0.5,2.6,0.8,3.9,0.8h23.1c5.9,0,10.8-4.8,10.8-10.8v-23.1C98.1,314.2,93.3,309.3,87.3,309.3L87.3,309.3z"/>
	<path class="st8" d="M87.3,398.5H64.3c-1.4,0-2.7,0.3-3.9,0.8c4,1.6,6.8,5.5,6.8,10v23.1c0,4.6-2.8,8.4-6.8,10
		c1.2,0.5,2.6,0.8,3.9,0.8h23.1c5.9,0,10.8-4.8,10.8-10.8v-23.1C98.1,403.4,93.3,398.5,87.3,398.5L87.3,398.5z"/>
	<path class="st8" d="M176.5,309.3h-23.1c-1.4,0-2.7,0.3-3.9,0.8c4,1.6,6.8,5.5,6.8,10v23.1c0,4.6-2.8,8.4-6.8,10
		c1.2,0.5,2.6,0.8,3.9,0.8h23.1c5.9,0,10.8-4.8,10.8-10.8v-23.1C187.3,314.2,182.5,309.3,176.5,309.3L176.5,309.3z"/>
	<path class="st8" d="M176.5,398.5h-23.1c-1.4,0-2.7,0.3-3.9,0.8c4,1.6,6.8,5.5,6.8,10v23.1c0,4.6-2.8,8.4-6.8,10
		c1.2,0.5,2.6,0.8,3.9,0.8h23.1c5.9,0,10.8-4.8,10.8-10.8v-23.1C187.3,403.4,182.5,398.5,176.5,398.5L176.5,398.5z"/>
	<path class="st4" d="M265.7,309.3h-23.1c-1.4,0-2.7,0.3-3.9,0.8c4,1.6,6.8,5.5,6.8,10v23.1c0,4.6-2.8,8.4-6.8,10
		c1.2,0.5,2.6,0.8,3.9,0.8h23.1c5.9,0,10.8-4.8,10.8-10.8v-23.1C276.5,314.2,271.7,309.3,265.7,309.3L265.7,309.3z"/>
	<path class="st8" d="M265.7,398.5h-23.1c-1.4,0-2.7,0.3-3.9,0.8c4,1.6,6.8,5.5,6.8,10v23.1c0,4.6-2.8,8.4-6.8,10
		c1.2,0.5,2.6,0.8,3.9,0.8h23.1c5.9,0,10.8-4.8,10.8-10.8v-23.1C276.5,403.4,271.7,398.5,265.7,398.5L265.7,398.5z"/>
</g>
<path class="st7" d="M358.9,264.7h-23.7c-5.8,0-10.5-4.7-10.5-10.5v-23.7c0-5.8,4.7-10.5,10.5-10.5h23.7c5.8,0,10.5,4.7,10.5,10.5
	v23.7C369.4,260.1,364.7,264.7,358.9,264.7z"/>
<path class="st7" d="M448.1,264.7h-23.7c-5.8,0-10.5-4.7-10.5-10.5v-23.7c0-5.8,4.7-10.5,10.5-10.5h23.7c5.8,0,10.5,4.7,10.5,10.5
	v23.7C458.6,260.1,453.9,264.7,448.1,264.7z"/>
<path class="st7" d="M358.9,353.9h-23.7c-5.8,0-10.5-4.7-10.5-10.5v-23.7c0-5.8,4.7-10.5,10.5-10.5h23.7c5.8,0,10.5,4.7,10.5,10.5
	v23.7C369.4,349.3,364.7,353.9,358.9,353.9z"/>
<path class="st7" d="M448.1,353.9h-23.7c-5.8,0-10.5-4.7-10.5-10.5v-23.7c0-5.8,4.7-10.5,10.5-10.5h23.7c5.8,0,10.5,4.7,10.5,10.5
	v23.7C458.6,349.3,453.9,353.9,448.1,353.9z"/>
<path class="st7" d="M358.9,443.1h-23.7c-5.8,0-10.5-4.7-10.5-10.5V409c0-5.8,4.7-10.5,10.5-10.5h23.7c5.8,0,10.5,4.7,10.5,10.5
	v23.7C369.4,438.5,364.7,443.1,358.9,443.1z"/>
<path class="st8" d="M447.8,220.2h-23.1c-1.4,0-2.7,0.3-3.9,0.8c4,1.6,6.8,5.5,6.8,10V254c0,4.6-2.8,8.4-6.8,10
	c1.2,0.5,2.6,0.8,3.9,0.8h23.1c5.9,0,10.8-4.8,10.8-10.8v-23.1C458.6,225,453.7,220.2,447.8,220.2z"/>
<path class="st8" d="M358.6,220.2h-23.1c-1.4,0-2.7,0.3-3.9,0.8c4,1.6,6.8,5.5,6.8,10V254c0,4.6-2.8,8.4-6.8,10
	c1.2,0.5,2.6,0.8,3.9,0.8h23.1c5.9,0,10.8-4.8,10.8-10.8v-23.1C369.4,225,364.5,220.2,358.6,220.2z"/>
<path class="st8" d="M358.6,309.3h-23.1c-1.4,0-2.7,0.3-3.9,0.8c4,1.6,6.8,5.5,6.8,10v23.1c0,4.6-2.8,8.4-6.8,10
	c1.2,0.5,2.6,0.8,3.9,0.8h23.1c5.9,0,10.8-4.8,10.8-10.8v-23.1C369.4,314.2,364.5,309.3,358.6,309.3L358.6,309.3z"/>
<path class="st8" d="M358.6,398.5h-23.1c-1.4,0-2.7,0.3-3.9,0.8c4,1.6,6.8,5.5,6.8,10v23.1c0,4.6-2.8,8.4-6.8,10
	c1.2,0.5,2.6,0.8,3.9,0.8h23.1c5.9,0,10.8-4.8,10.8-10.8v-23.1C369.4,403.4,364.5,398.5,358.6,398.5L358.6,398.5z"/>
<path class="st8" d="M447.8,309.3h-23.1c-1.4,0-2.7,0.3-3.9,0.8c4,1.6,6.8,5.5,6.8,10v23.1c0,4.6-2.8,8.4-6.8,10
	c1.2,0.5,2.6,0.8,3.9,0.8h23.1c5.9,0,10.8-4.8,10.8-10.8v-23.1C458.6,314.2,453.7,309.3,447.8,309.3L447.8,309.3z"/>
<g>
	<path class="st9" d="M253.1,426.7c-52.4,0-95.1-42.6-95.1-95.1s42.6-95.1,95.1-95.1s95.1,42.6,95.1,95.1S305.5,426.7,253.1,426.7z
		 M253.1,273.9c-31.8,0-57.7,25.9-57.7,57.7s25.9,57.7,57.7,57.7s57.7-25.9,57.7-57.7S284.9,273.9,253.1,273.9z"/>
</g>
</svg>
