<?xml version="1.0" encoding="utf-8"?>
<!-- Generator: Adobe Illustrator 27.3.0, SVG Export Plug-In . SVG Version: 6.00 Build 0)  -->
<svg version="1.1" id="Capa_1" xmlns="http://www.w3.org/2000/svg" xmlns:xlink="http://www.w3.org/1999/xlink" x="0px" y="0px"
	 viewBox="0 0 512 512" style="enable-background:new 0 0 512 512;" xml:space="preserve">
<style type="text/css">
	.st0{fill:#FBB970;}
	.st1{fill:#CE8449;}
	.st2{fill:#D5E9F8;}
	.st3{fill:#ABCDDD;}
	.st4{fill:#F05859;}
	.st5{fill:#EE3C38;}
	.st6{fill:#4EC3CC;}
	.st7{fill:#07B4C0;}
	.st8{fill:#112A4C;}
	.st9{fill:none;stroke:#FFFFFF;stroke-width:1.396;stroke-miterlimit:10;}
	.st10{fill:#33C5F3;}
	.st11{fill:#17578E;}
	.st12{fill:#4998D2;}
	.st13{fill:#102A4C;}
	.st14{fill:#25B04B;}
</style>
<path class="st0" d="M455.6,195.6v-41.2l-91.2-10.3c0-1.2-1-2.1-2.1-2.1h-63.1H236c-1.2,0-2.1,1-2.1,2.1v61.6v63.7h65.2h65.2h87.7
	l3.6-40.7C475.2,235.3,458.3,195.6,455.6,195.6"/>
<rect x="306.4" y="151.5" class="st1" width="65.2" height="31.8"/>
<rect x="383.2" y="236" class="st1" width="65.2" height="31.8"/>
<rect x="54.9" y="160" class="st2" width="97.5" height="71.2"/>
<rect x="94" y="156.8" class="st3" width="54.4" height="71.2"/>
<path class="st4" d="M188.8,277.9L169.4,252c0,7-12.4-10.8-19.3-10.8l-114.1,4.5c-3.4,0-5.9,3.1-5.2,6.4
	c3.9,18.3,13.2,42.5,35.3,67.1c4.2,4.6,5,11.3,2.4,16.9l-2.6,19.2c-2,4.2-0.6,13.7,4,13.7l370.8,0.9c2.4,0,4.6-1.4,5.6-3.6
	l26.7-86.4c-37.6,55.2-1.3-3.9-5.8-3.9l-27.4,1C432.8,276.9,188.8,270.9,188.8,277.9"/>
<path class="st5" d="M472.2,268.1h-49.4l-35,79.1H443c2.4,0,4.6-1.4,5.6-3.6l29.2-66.6C479.8,272.9,476.7,268.1,472.2,268.1"/>
<rect x="229.5" y="197" class="st1" width="65.2" height="31.8"/>
<path class="st6" d="M71.3,325.5c0.6,3.2,0.2,6.6-1.3,9.6l4,24.8c-2,4.2,15.9,6.9,0,9h368.2c2.4,0,4.6-1.4,5.6-3.6l18.7-39.8H71.3z"
	/>
<path class="st7" d="M396.5,325.5l-20.4,43.4h55.2c0.3,0,0.6,0,0.9-0.1c0.6-0.1,1.2-0.3,1.6-0.5c0.5-0.2,1.1-0.6,1.5-1
	c0.7-0.6,1.3-1.3,1.6-2.1l18.7-39.8L396.5,325.5L396.5,325.5z"/>
<path class="st8" d="M157.4,251.9l23.6,34.7H466l-34.6,76.7H87.8L39.4,251.9H157.4z M444,265.9h-56.3v-21.7H444V265.9z M444,223.8
	h-56.3v-21.7H444V223.8z M444,181.6h-56.3v-21.7H444V181.6z M367.1,265.9h-56.3v-21.7h56.3V265.9z M367.1,223.8h-56.3v-21.7h56.3
	V223.8z M367.1,181.6h-56.3v-21.7h56.3V181.6z M290.3,265.9H234v-21.7h56.3V265.9z M290.3,223.8H234v-21.7h56.3V223.8z M290.3,181.6
	H234v-21.7h56.3V181.6z M136.5,231.3H65.1v-68.4c0-1.6,1.4-3,3-3h68.3V231.3z M44.5,231.3H8l66,152.4h370.8L498,265.9h-33.3V139.3
	H213.4v126.6H192l-23.6-34.7h-11.2v-91.9h-43.8V75.5H92.8v63.8H68.1c-13,0-23.6,10.6-23.6,23.6V231.3z"/>
<path class="st9" d="M444,265.9h-56.3v-21.7H444V265.9z M444,223.8h-56.3v-21.7H444V223.8z M444,181.6h-56.3v-21.7H444V181.6z
	 M367.1,265.9h-56.3v-21.7h56.3V265.9z M367.1,223.8h-56.3v-21.7h56.3V223.8z M367.1,181.6h-56.3v-21.7h56.3V181.6z M290.3,265.9
	H234v-21.7h56.3V265.9z M290.3,223.8H234v-21.7h56.3V223.8z M290.3,181.6H234v-21.7h56.3V181.6z M136.5,231.3H65.1v-68.4
	c0-1.6,1.4-3,3-3h68.3V231.3z"/>
<g>
	<path class="st10" d="M492.5,506.5H19.6c-6.7,0-12.2-5.5-12.2-12.2v-90.9h497.3v90.9C504.7,501,499.3,506.5,492.5,506.5
		L492.5,506.5z"/>
	<path class="st11" d="M504.7,342.4l0,92.9c-15.7-26.9-56.5-28.7-72.2-1.7l-0.4,0.8c-15.7,26.9-54.8,26.9-70.5,0l-0.3-0.6
		c-15.7-27-55-26.9-70.6,0.1c-15.6,27.1-54.9,27.1-70.6,0.1l-0.3-0.5c-15.7-26.9-54.8-26.9-70.5,0l-0.4,0.8
		c-15.7,26.9-54.8,26.9-70.5,0l-0.5-0.8c-15.7-26.9-54.8-26.9-70.5,0v-92.8c15.7-26.9,54.8-26.9,70.5,0l0.5,0.8
		c15.7,26.9,54.8,26.9,70.5,0l0.4-0.8c15.7-26.9,54.8-26.9,70.5,0l0.3,0.5c15.7,27,55,26.9,70.6-0.1c15.6-27.1,54.9-27.1,70.6-0.1
		l0.3,0.6c15.7,26.9,54.8,26.9,70.5,0l0.4-0.8C448.2,313.8,489,315.4,504.7,342.4"/>
	<path class="st12" d="M255.9,506.5h236.6c6.7,0,12.2-5.5,12.2-12.2v-90.9H255.9L255.9,506.5z"/>
	<path class="st13" d="M432.5,340.8l-0.4,0.8c-15.7,26.9-54.8,26.9-70.5,0l-0.3-0.6c-15.7-27-55-26.9-70.6,0.1
		c-7.7,13.4-21.2,20.2-34.8,20.3v92.8c13.6-0.2,27.1-6.9,34.8-20.3c15.6-27.1,54.9-27.1,70.6-0.1l0.3,0.6
		c15.7,26.9,54.8,26.9,70.5,0l0.4-0.8c15.7-26.9,56.5-25.2,72.2,1.7l0-92.9C489,315.4,448.2,313.8,432.5,340.8L432.5,340.8z"/>
</g>
<path class="st14" d="M397.5,79.2c0.1-0.2,0.1-0.4,0.2-0.5c0.1-0.3,0.2-0.6,0.3-0.9c0-0.1,0-0.2,0.1-0.3c0.4-1.3,0.6-2.7,0.6-4.1
	c0-1.4-0.2-2.8-0.6-4.1c0-0.1,0-0.2-0.1-0.3c-0.1-0.3-0.2-0.6-0.3-0.9c-0.1-0.2-0.1-0.4-0.2-0.5c-0.1-0.2-0.2-0.4-0.3-0.7
	c-0.1-0.2-0.2-0.5-0.4-0.7c-0.1-0.1-0.2-0.3-0.2-0.4c-0.2-0.3-0.3-0.6-0.5-0.9c0-0.1-0.1-0.1-0.1-0.2c-0.5-0.7-1.1-1.5-1.8-2.1
	L360.7,29c-2.9-2.9-6.8-4.5-10.9-4.5c-4.1,0-8,1.6-10.9,4.5c-6,6-6,15.7,0,21.7l7.3,7.3H187.6c-8.5,0-15.4,6.9-15.4,15.4
	s6.9,15.4,15.4,15.4h158.6l-7.9,7.9c-2.9,2.9-4.5,6.8-4.5,10.9c0,4.1,1.6,8,4.5,10.9c6,6,15.7,6,21.7,0l34.1-34.1
	c0.7-0.7,1.3-1.4,1.8-2.2c0,0,0.1-0.1,0.1-0.1c0.2-0.3,0.4-0.6,0.6-0.9c0.1-0.1,0.2-0.3,0.2-0.4c0.1-0.2,0.2-0.5,0.4-0.8
	C397.3,79.6,397.4,79.4,397.5,79.2z"/>
</svg>
