<?xml version="1.0" encoding="utf-8"?>
<!-- Generator: Adobe Illustrator 27.3.0, SVG Export Plug-In . SVG Version: 6.00 Build 0)  -->
<svg version="1.1" id="color" xmlns="http://www.w3.org/2000/svg" xmlns:xlink="http://www.w3.org/1999/xlink" x="0px" y="0px"
	 viewBox="0 0 512 512" style="enable-background:new 0 0 512 512;" xml:space="preserve">
<style type="text/css">
	.st0{fill:#3B3D4C;}
	.st1{fill:#AAAAAA;}
	.st2{fill:#C6C5C5;}
	.st3{fill:#5D5E70;}
	.st4{fill:#F1CC31;}
	.st5{fill:#C4D6EB;}
	.st6{fill:#FFFFFF;}
	.st7{fill:#102A4C;}
	.st8{fill:#363C73;}
</style>
<path class="st0" d="M290.7,476.3c-7.7-14.4-8.4-33.7-8.4-33.7h-20.9h-9.3h-20.9c0,0-0.7,19.4-8.4,33.7
	c-7.7,14.4-23.7,23.3-23.7,23.3h53h9.3h53C314.4,499.7,298.3,490.7,290.7,476.3z"/>
<path class="st1" d="M509,432.1c0,11.9-7.5,21.6-16.7,21.6H19.8C10.5,453.6,3,444,3,432.1V31.5C3,19.6,10.5,10,19.8,10h472.5
	c9.2,0,16.7,9.6,16.7,21.5V432.1z"/>
<path class="st2" d="M3,392.1v40c0,11.9,7.5,21.6,16.7,21.6h472.5c9.2,0,16.7-9.6,16.7-21.6v-40H3z"/>
<path class="st3" d="M318.6,507h-123c-0.5,0-0.9-0.4-0.9-0.9v-14.9c0-0.5,0.4-0.9,0.9-0.9h123c0.5,0,0.9,0.4,0.9,0.9v14.9
	C319.5,506.6,319.1,507,318.6,507z"/>
<path class="st4" d="M485.7,369.4H24.8c-1.9,0-3.4-1.5-3.4-3.4v-331c0-1.9,1.5-3.4,3.4-3.4h460.9c1.9,0,3.4,1.5,3.4,3.4v331
	C489.1,367.9,487.5,369.4,485.7,369.4z"/>
<path class="st5" d="M475.4,65.7c0-5.2-3.3-9.4-7.3-9.4H46.6c-4.1,0-7.3,4.2-7.3,9.4v26.5h436.1V65.7z"/>
<path class="st6" d="M39.2,92.3v243.1c0,5.2,3.3,9.4,7.3,9.4H468c4.1,0,7.3-4.2,7.3-9.4V92.3H39.2z"/>
<path class="st0" d="M257.3,438.1h-3.2c-8.1,0-14.7-7-14.7-15.6v-3.4c0-8.6,6.6-15.6,14.7-15.6h3.2c8.1,0,14.7,7,14.7,15.6v3.4
	C272,431.1,265.4,438.1,257.3,438.1z"/>
<g>
	<g>
		<g>
			<rect x="169" y="164.3" class="st7" width="176" height="4.1"/>
		</g>
	</g>
</g>
<g>
	<g>
		<g>
			<rect x="80.8" y="122" class="st7" width="353.3" height="9.4"/>
		</g>
	</g>
</g>
<g>
	<g>
		<g>
			<rect x="168.5" y="177.1" class="st7" width="176.6" height="4.1"/>
		</g>
	</g>
</g>
<g>
	<g>
		<g>
			<rect x="168.5" y="151.4" class="st7" width="176.6" height="4.1"/>
		</g>
	</g>
</g>
<g>
	<g>
		<g>
			<rect x="168.5" y="189.9" class="st7" width="176.6" height="4.1"/>
		</g>
	</g>
</g>
<g>
	<g>
		<g>
			<rect x="168.5" y="202.7" class="st7" width="176.6" height="4.1"/>
		</g>
	</g>
</g>
<g>
	<g>
		<g>
			<rect x="168.5" y="215.5" class="st7" width="176.6" height="4.1"/>
		</g>
	</g>
</g>
<g>
	<g>
		<g>
			<rect x="168.5" y="228.3" class="st7" width="176.6" height="4.1"/>
		</g>
	</g>
</g>
<g>
	<g>
		<g>
			<rect x="168.5" y="241.1" class="st7" width="176.6" height="4.1"/>
		</g>
	</g>
</g>
<g>
	<g>
		<g>
			<rect x="168.5" y="253.9" class="st7" width="95.4" height="4.1"/>
		</g>
	</g>
</g>
<path class="st8" d="M421.5,74.6c0,3.7-2.3,6.7-5.2,6.7s-5.2-3-5.2-6.7s2.3-6.7,5.2-6.7S421.5,70.9,421.5,74.6z"/>
<path class="st8" d="M442.6,74.6c0,3.7-2.3,6.7-5.2,6.7c-2.9,0-5.2-3-5.2-6.7s2.3-6.7,5.2-6.7C440.3,67.9,442.6,70.9,442.6,74.6z"/>
<path class="st8" d="M463.7,74.6c0,3.7-2.3,6.7-5.2,6.7c-2.9,0-5.2-3-5.2-6.7s2.3-6.7,5.2-6.7C461.4,67.9,463.7,70.9,463.7,74.6z"/>
<g>
	<path class="st7" d="M157.7,324.8H84.1c-1.7,0-3.2-1.4-3.2-3.2V154.5c0-1.7,1.4-3.2,3.2-3.2h73.6c1.7,0,3.2,1.4,3.2,3.2v167.2
		C160.8,323.4,159.4,324.8,157.7,324.8z"/>
</g>
<g>
	<path class="st7" d="M430.1,324.8h-73.6c-1.7,0-3.2-1.4-3.2-3.2V154.5c0-1.7,1.4-3.2,3.2-3.2h73.6c1.7,0,3.2,1.4,3.2,3.2v167.2
		C433.3,323.4,431.9,324.8,430.1,324.8z"/>
</g>
</svg>
