<?xml version="1.0" encoding="utf-8"?>
<!-- Generator: Adobe Illustrator 27.3.0, SVG Export Plug-In . SVG Version: 6.00 Build 0)  -->
<svg version="1.1" id="Layer_1" xmlns="http://www.w3.org/2000/svg" xmlns:xlink="http://www.w3.org/1999/xlink" x="0px" y="0px"
	 viewBox="0 0 511 511" style="enable-background:new 0 0 511 511;" xml:space="preserve">
<style type="text/css">
	.st0{fill:none;stroke:#FFFFFF;stroke-width:3;stroke-miterlimit:10;}
	.st1{fill:#F1CC31;}
	.st2{opacity:0.4;fill:url(#SVGID_1_);}
	.st3{fill:#FDF3F4;}
	.st4{fill:#25B04B;}
</style>
<path class="st0" d="M446.5,219.1c-1.3-4.1-128.3-25-128.3-25S259,79.8,254.7,79.8c-4.3,0-63.4,114.3-63.4,114.3S64.3,215,63,219.1
	c-1.3,4.1,89.1,95.6,89.1,95.6S132.8,442,136.2,444.5c3.5,2.5,118.5-55.2,118.5-55.2s116.5,56.6,118.5,55.2
	c3.5-2.5-15.9-129.8-15.9-129.8S447.8,223.2,446.5,219.1z"/>
<g>
	<path class="st1" d="M3,198.9c-0.1,0.2,0.1,0.6,0.3,1.1l1.7-2.2C3.8,198.2,3.1,198.6,3,198.9z"/>
	<path class="st1" d="M506.5,198.9c-1.4-4.3-106.7-22.4-150.1-29.7c-40.7,59.4-113,127.7-241.1,186.8
		c-7.1,48.6-19.5,136.5-16.2,138.9c4.6,3.3,155.6-72.5,155.6-72.5s153,74.4,155.6,72.5c4.6-3.3-20.9-170.4-20.9-170.4
		S508.3,204.3,506.5,198.9z"/>
	<path class="st1" d="M356.4,169.2c-11.3-1.9-18.4-3.1-18.4-3.1S260.4,16,254.7,16c-5.6,0-83.3,150.1-83.3,150.1S23.8,190.4,5,197.8
		L3.3,200C9.7,212.8,120,324.5,120,324.5s-2,12.8-4.7,31.5C243.4,296.9,315.7,228.6,356.4,169.2z"/>
	<linearGradient id="SVGID_1_" gradientUnits="userSpaceOnUse" x1="-183.5724" y1="185.9821" x2="396.0078" y2="185.9821">
		<stop  offset="0" style="stop-color:#352713"/>
		<stop  offset="0.1392" style="stop-color:#392B16"/>
		<stop  offset="0.2788" style="stop-color:#45371F"/>
		<stop  offset="0.4187" style="stop-color:#584B2E"/>
		<stop  offset="0.5588" style="stop-color:#736743"/>
		<stop  offset="0.6992" style="stop-color:#968C5F"/>
		<stop  offset="0.8398" style="stop-color:#C1B880"/>
		<stop  offset="0.9782" style="stop-color:#F3ECA7"/>
		<stop  offset="1" style="stop-color:#FCF5AE"/>
	</linearGradient>
	<path class="st2" d="M356.4,169.2c-11.3-1.9-18.4-3.1-18.4-3.1S260.4,16,254.7,16c-5.6,0-83.3,150.1-83.3,150.1S23.8,190.4,5,197.8
		L3.3,200C9.7,212.8,120,324.5,120,324.5s-2,12.8-4.7,31.5C243.4,296.9,315.7,228.6,356.4,169.2z"/>
</g>
<g>
	<polygon class="st3" points="363.2,278.7 339.2,304.4 343.5,339.3 309,346 291.9,376.8 260.1,361.9 228.2,376.8 211.2,346 
		176.7,339.3 181,304.4 157,278.7 181,253 176.7,218.1 211.2,211.4 228.2,180.6 260.1,195.6 291.9,180.6 309,211.4 343.5,218.1 
		339.2,253 	"/>
</g>
<path class="st4" d="M324.7,251.2l-64.6,65l-17.4,17.4l-47.1-47.5l24.4-24.4l22.7,22.3l17.4-17.4l40.1-39.8L324.7,251.2z"/>
</svg>
