<?xml version="1.0" encoding="utf-8"?>
<!-- Generator: Adobe Illustrator 27.3.0, SVG Export Plug-In . SVG Version: 6.00 Build 0)  -->
<svg version="1.1" id="Layer_1" xmlns="http://www.w3.org/2000/svg" xmlns:xlink="http://www.w3.org/1999/xlink" x="0px" y="0px"
	 viewBox="0 0 512 512" style="enable-background:new 0 0 512 512;" xml:space="preserve">
<style type="text/css">
	.st0{fill:#CE8449;}
	.st1{fill:none;stroke:#FFFFFF;stroke-width:1.563;stroke-miterlimit:10;}
	.st2{fill:#00ADEE;}
	.st3{fill:#F6921E;}
	.st4{fill:#12284C;}
</style>
<path class="st0" d="M478.2,377.7H35V155.6h17.1h42.2h325.1h42.1h17.1v222.1H478.2z M446.1,129.7h-11.7h-27.8h-300H78.9H67.2H39.5
	H21.9c-7.2,0-13,5.9-13,13.1v248c0,7.2,5.9,13,13,13h469.4c7.2,0,13-5.9,13-13V142.6c0-7.2-5.8-13.1-13-13.1h-17.5h-27.6V129.7z"/>
<path class="st1" d="M478.2,377.7H35V155.6h17.1h42.2h325.1h42.1h17.1v222.1H478.2z M446.1,129.7h-11.7h-27.8h-300H78.9H67.2H39.5
	H21.9c-7.2,0-13,5.9-13,13.1v248c0,7.2,5.9,13,13,13h469.4c7.2,0,13-5.9,13-13V142.6c0-7.2-5.8-13.1-13-13.1h-17.5h-27.6V129.7z"/>
<path class="st2" d="M94.8,281.8l11.5,5.6v-17.9H78v17.9l11.4-5.6C91.2,281,93.1,281,94.8,281.8z"/>
<path class="st3" d="M143.4,269.5h-23.9v29c0,2.5-1.1,4.7-3,6c-1.9,1.3-4.3,1.5-6.3,0.5l-18.1-8.8L74.1,305c-2.1,1-4.4,0.8-6.3-0.5
	c-1.9-1.3-3-3.6-3-6v-29H40.9v101.3h102.6V269.5z M75.7,359.3H62.2v-14.4h13.5V359.3z M98.9,359.3H85.4v-14.4h13.5V359.3z
	 M122.1,359.3h-13.5v-14.4h13.5V359.3z"/>
<rect x="62.2" y="344.9" class="st4" width="13.5" height="14.4"/>
<rect x="85.4" y="344.9" class="st4" width="13.5" height="14.4"/>
<rect x="108.6" y="344.9" class="st4" width="13.5" height="14.4"/>
<path class="st2" d="M203.5,281.8l11.5,5.6v-17.9h-28.3v17.9l11.4-5.6C199.8,281,201.8,281,203.5,281.8z"/>
<path class="st3" d="M252.1,269.5h-23.9v29c0,2.5-1.1,4.7-3,6c-1.9,1.3-4.3,1.5-6.3,0.5l-18.1-8.8l-18.1,8.8c-2.1,1-4.4,0.8-6.3-0.5
	c-1.9-1.3-3-3.6-3-6v-29h-23.9v101.3h102.6V269.5z M184.3,359.3h-13.5v-14.4h13.5V359.3z M207.5,359.3h-13.5v-14.4h13.5V359.3z
	 M230.8,359.3h-13.5v-14.4h13.5V359.3z"/>
<rect x="170.9" y="344.9" class="st4" width="13.5" height="14.4"/>
<rect x="194.1" y="344.9" class="st4" width="13.5" height="14.4"/>
<rect x="217.3" y="344.9" class="st4" width="13.5" height="14.4"/>
<path class="st2" d="M312.5,281.8l11.5,5.6v-17.9h-28.3v17.9l11.4-5.6C308.9,281,310.8,281,312.5,281.8z"/>
<path class="st3" d="M361.1,269.5h-23.9v29c0,2.5-1.1,4.7-3,6c-1.9,1.3-4.3,1.5-6.3,0.5l-18.1-8.8l-18.1,8.8c-2.1,1-4.4,0.8-6.3-0.5
	c-1.9-1.3-3-3.6-3-6v-29h-23.9v101.3h102.6V269.5z M293.3,359.3h-13.5v-14.4h13.5V359.3z M316.6,359.3h-13.5v-14.4h13.5V359.3z
	 M339.8,359.3h-13.5v-14.4h13.5V359.3z"/>
<rect x="279.9" y="344.9" class="st4" width="13.5" height="14.4"/>
<rect x="303.1" y="344.9" class="st4" width="13.5" height="14.4"/>
<rect x="326.3" y="344.9" class="st4" width="13.5" height="14.4"/>
<path class="st2" d="M421.2,281.8l11.5,5.6v-17.9h-28.3v17.9l11.4-5.6C417.5,281,419.5,281,421.2,281.8z"/>
<path class="st3" d="M469.8,269.5h-23.9v29c0,2.5-1.1,4.7-3,6c-1.9,1.3-4.3,1.5-6.3,0.5l-18.1-8.8l-18.1,8.8c-2.1,1-4.4,0.8-6.3-0.5
	c-1.9-1.3-3-3.6-3-6v-29h-23.9v101.3h102.6V269.5z M402,359.3h-13.5v-14.4H402V359.3z M425.2,359.3h-13.5v-14.4h13.5V359.3z
	 M448.4,359.3H435v-14.4h13.5V359.3z"/>
<rect x="388.5" y="344.9" class="st4" width="13.5" height="14.4"/>
<rect x="411.8" y="344.9" class="st4" width="13.5" height="14.4"/>
<rect x="435" y="344.9" class="st4" width="13.5" height="14.4"/>
<path class="st2" d="M94.8,174.2l11.5,5.6v-17.9H78v17.9l11.4-5.6C91.2,173.4,93.1,173.4,94.8,174.2z"/>
<path class="st3" d="M143.4,161.9h-23.9v29c0,2.5-1.1,4.7-3,6c-1.9,1.3-4.3,1.5-6.3,0.5l-18.1-8.8l-18.1,8.8c-2.1,1-4.4,0.8-6.3-0.5
	c-1.9-1.3-3-3.6-3-6v-29H40.9v101.3h102.6V161.9z M75.7,251.7H62.2v-14.4h13.5V251.7z M98.9,251.7H85.4v-14.4h13.5V251.7z
	 M122.1,251.7h-13.5v-14.4h13.5V251.7z"/>
<rect x="62.2" y="237.4" class="st4" width="13.5" height="14.4"/>
<rect x="85.4" y="237.4" class="st4" width="13.5" height="14.4"/>
<rect x="108.6" y="237.4" class="st4" width="13.5" height="14.4"/>
<path class="st2" d="M203.5,174.2l11.5,5.6v-17.9h-28.3v17.9l11.4-5.6C199.8,173.4,201.8,173.4,203.5,174.2z"/>
<path class="st3" d="M252.1,161.9h-23.9v29c0,2.5-1.1,4.7-3,6c-1.9,1.3-4.3,1.5-6.3,0.5l-18.1-8.8l-18.1,8.8c-2.1,1-4.4,0.8-6.3-0.5
	c-1.9-1.3-3-3.6-3-6v-29h-23.9v101.3h102.6V161.9z M184.3,251.7h-13.5v-14.4h13.5V251.7z M207.5,251.7h-13.5v-14.4h13.5V251.7z
	 M230.8,251.7h-13.5v-14.4h13.5V251.7z"/>
<rect x="170.9" y="237.4" class="st4" width="13.5" height="14.4"/>
<rect x="194.1" y="237.4" class="st4" width="13.5" height="14.4"/>
<rect x="217.3" y="237.4" class="st4" width="13.5" height="14.4"/>
<path class="st2" d="M312.5,174.2l11.5,5.6v-17.9h-28.3v17.9l11.4-5.6C308.9,173.4,310.8,173.4,312.5,174.2z"/>
<path class="st3" d="M361.1,161.9h-23.9v29c0,2.5-1.1,4.7-3,6c-1.9,1.3-4.3,1.5-6.3,0.5l-18.1-8.8l-18.1,8.8c-2.1,1-4.4,0.8-6.3-0.5
	c-1.9-1.3-3-3.6-3-6v-29h-23.9v101.3h102.6V161.9z M293.3,251.7h-13.5v-14.4h13.5V251.7z M316.6,251.7h-13.5v-14.4h13.5V251.7z
	 M339.8,251.7h-13.5v-14.4h13.5V251.7z"/>
<rect x="279.9" y="237.4" class="st4" width="13.5" height="14.4"/>
<rect x="303.1" y="237.4" class="st4" width="13.5" height="14.4"/>
<rect x="326.3" y="237.4" class="st4" width="13.5" height="14.4"/>
<path class="st2" d="M421.2,174.2l11.5,5.6v-17.9h-28.3v17.9l11.4-5.6C417.5,173.4,419.5,173.4,421.2,174.2z"/>
<path class="st3" d="M469.8,161.9h-23.9v29c0,2.5-1.1,4.7-3,6c-1.9,1.3-4.3,1.5-6.3,0.5l-18.1-8.8l-18.1,8.8c-2.1,1-4.4,0.8-6.3-0.5
	c-1.9-1.3-3-3.6-3-6v-29h-23.9v101.3h102.6V161.9z M402,251.7h-13.5v-14.4H402V251.7z M425.2,251.7h-13.5v-14.4h13.5V251.7z
	 M448.4,251.7H435v-14.4h13.5V251.7z"/>
<rect x="388.5" y="237.4" class="st4" width="13.5" height="14.4"/>
<rect x="411.8" y="237.4" class="st4" width="13.5" height="14.4"/>
<rect x="435" y="237.4" class="st4" width="13.5" height="14.4"/>
</svg>
