<?xml version="1.0" encoding="utf-8"?>
<!-- Generator: Adobe Illustrator 27.3.0, SVG Export Plug-In . SVG Version: 6.00 Build 0)  -->
<svg version="1.1" id="Capa_1" xmlns="http://www.w3.org/2000/svg" xmlns:xlink="http://www.w3.org/1999/xlink" x="0px" y="0px"
	 viewBox="0 0 508 508" style="enable-background:new 0 0 508 508;" xml:space="preserve">
<style type="text/css">
	.st0{fill-rule:evenodd;clip-rule:evenodd;fill:#FFFFFF;}
	.st1{fill-rule:evenodd;clip-rule:evenodd;fill:#4FC3CB;}
	.st2{fill-rule:evenodd;clip-rule:evenodd;fill:#CAE0E5;}
	.st3{fill-rule:evenodd;clip-rule:evenodd;fill:#BE202E;}
	.st4{fill:#112A4C;}
	.st5{fill:#102A4C;}
	.st6{fill:#BE202E;}
	.st7{fill:#FFFFFF;}
</style>
<path class="st0" d="M42.9,288.7l36.3,192.5c0.6,3.1,3.6,5.1,6.7,4.6l89.4-16.8L307.6,444l19-3.6l77.9-14.7c3.1-0.6,5.1-3.6,4.5-6.7
	l-17-90.4L344.7,78.7l-0.5-2.6l-56.9,10.7c-5.4,1-16.7,4-19-8.5l-10.6-55.5L7.5,70.1c-3.1,0.6-5.1,3.6-4.5,6.7l9.1,48l3.8,20.3
	L42.9,288.7z"/>
<path class="st1" d="M392,328.5L344.7,78.7l-0.5-2.6l-0.1-0.8c-0.3-1.7-1.1-1.7-3.9-3.7l-72.4-47c-3.4-2.2-4-2.8-5.7-2.5l-4.2,0.8
	L7.5,70.1c-3.1,0.6-5.1,3.6-4.5,6.7l76.2,404.4c0.6,3.1,3.6,5.1,6.7,4.6l318.5-60.1c3.1-0.6,5.1-3.6,4.5-6.7L392,328.5z"/>
<path class="st2" d="M392,328.5L344.7,78.7l-0.5-2.6c-0.6-3-1.5-2.9-4.1-4.6l-72.4-47c-3.4-2.2-4-2.8-5.7-2.5l-4.2,0.8l-62.3,11.8
	c95.3,87.5,134.4,270.4,99.5,395.7c-1.6,5.8-3.4,11.4-5.3,17l17.9-3.3l19-3.6l77.9-14.7c3.1-0.6,5.1-3.6,4.5-6.7L392,328.5z"/>
<path class="st0" d="M268.4,78.4c2.3,12.4,13.6,9.4,19,8.4l56.9-10.7l-0.1-0.8c-0.3-1.6-1.1-1.7-3.9-3.7l-72.4-47
	c-3.4-2.2-4-2.8-5.7-2.5l-4.2,0.8L268.4,78.4z"/>
<path class="st3" d="M340.1,71.6l-72.4-47c-3.4-2.2-4-2.8-5.7-2.5l-4.2,0.8l10.6,55.5c2.3,12.4-0.3-1.8,2.2,11.6l73.8-14l-0.1-0.8
	C343.8,73.6,343,73.5,340.1,71.6"/>
<path class="st4" d="M312,139.4L70.8,184.9c-1.5-7.9-0.6-3.5-1.5-7.9c-0.8-4.3-1.5-7.9-1.5-7.9l241.1-45.5c1.5,7.9,0.6,3.5,1.5,7.9
	C311.3,135.9,310.4,131.5,312,139.4"/>
<path class="st4" d="M356.9,377.3l-241.1,45.5c-1.5-7.9-0.6-3.5-1.5-7.9c-0.8-4.3-1.5-7.9-1.5-7.9l241.1-45.5
	c1.5,7.9,0.6,3.5,1.5,7.9C356.2,373.8,355.4,369.4,356.9,377.3"/>
<path class="st4" d="M345.7,317.8l-241.1,45.5c-1.5-7.9-0.6-3.5-1.5-7.9c-0.8-4.3-1.5-7.9-1.5-7.9L342.6,302
	c1.5,7.9,0.6,3.5,1.5,7.9C345,314.3,344.1,309.9,345.7,317.8"/>
<path class="st4" d="M334.4,258.3L93.3,303.8c-1.5-7.9-0.6-3.5-1.5-7.9c-0.8-4.3-1.5-7.9-1.5-7.9l241.1-45.5
	c1.5,7.9,0.6,3.5,1.5,7.9C333.8,254.8,333,250.5,334.4,258.3"/>
<path class="st4" d="M323.2,198.9L82.1,244.4c-1.5-7.9-0.6-3.5-1.5-7.9c-0.8-4.3-1.5-7.9-1.5-7.9l241.1-45.5
	c1.5,7.9,0.6,3.5,1.5,7.9C322.5,195.3,321.7,191,323.2,198.9"/>
<rect x="374.5" y="362.3" transform="matrix(0.7071 -0.7071 0.7071 0.7071 -154.0195 387.7255)" class="st5" width="33.1" height="34.9"/>
<path class="st5" d="M386.1,175.5c-55-55-144.4-55-199.4,0s-55,144.4,0,199.4s144.4,55,199.4,0S441.1,230.5,386.1,175.5z"/>
<path class="st6" d="M493.5,430.7l-44.5-44.5c-14.3-14.3-37.3-14.3-51.6,0c-14.3,14.3-14.3,37.3,0,51.6l44.5,44.5
	c14.3,14.3,37.3,14.3,51.6,0C507.7,468,507.7,444.9,493.5,430.7z"/>
<path class="st7" d="M357,345.8c-38.9,38.9-102.2,38.9-141,0c-38.9-38.9-38.9-102.2,0-141c38.9-38.9,102.2-38.9,141,0
	C395.9,243.6,395.9,306.9,357,345.8z"/>
</svg>
