<?xml version="1.0" encoding="utf-8"?>
<!-- Generator: Adobe Illustrator 27.3.0, SVG Export Plug-In . SVG Version: 6.00 Build 0)  -->
<svg version="1.1" id="Layer_1" xmlns="http://www.w3.org/2000/svg" xmlns:xlink="http://www.w3.org/1999/xlink" x="0px" y="0px"
	 viewBox="0 0 511 511" style="enable-background:new 0 0 511 511;" xml:space="preserve">
<style type="text/css">
	.st0{fill:#CBCBCA;}
	.st1{fill:#E5E5E4;}
	.st2{fill:#5D5E70;}
	.st3{fill:#3B3D4C;}
	.st4{fill:#AAAAAA;}
	.st5{fill:#C6C5C5;}
	.st6{fill:#17578E;}
	.st7{fill:#102A4C;}
</style>
<path class="st0" d="M424.5,98.9l-0.2,0.1L376,140.7l-12.7-14.7c-20.7-24.1-57.2-26.8-81.3-6.1l-27.5,23.6l-43.2-12.3l1.4-36.2
	l27.5-23.6C291,27.5,368,33.3,411.8,84.2L424.5,98.9z"/>
<path class="st1" d="M424.3,99L376,140.7l-12.7-14.7c-20.7-24.1-57.2-26.8-81.3-6.1l-27.5,23.6l-24.5-28.4l27.5-23.6
	C306.6,49.2,379.9,53.1,424.3,99z"/>
<path class="st2" d="M57.3,265.1L81.3,293l-53.1,45.7L4.2,310.7L57.3,265.1z"/>
<path class="st3" d="M57.3,265l9.7,11.3L13.9,322l-9.7-11.3L57.3,265z"/>
<path class="st1" d="M48.5,236.4l59.9,69.6l-33.6,28.9l-59.9-69.6L48.5,236.4z"/>
<path class="st0" d="M48.5,236.4l19.9,23.1l-33.6,28.9l-19.9-23.1L48.5,236.4z"/>
<path class="st4" d="M295.7,191.3L212.7,95L70.2,156.1c-12.5,5.3-16.1,21.2-7.3,31.5l18,20.9L37,246.2l82.9,96.3
	c16.3,19,44.9,21.1,63.9,4.8l107.1-92.2C309.9,238.9,312,210.3,295.7,191.3z M267,227.4L208.3,278c-3.6,3.1-9.1,2.7-12.2-0.9
	l-41.2-47.8l71.9-61.9l41.2,47.8C271.1,218.8,270.6,224.3,267,227.4z"/>
<path class="st5" d="M204.6,329.4c-19,16.3-47.5,14.2-63.9-4.8l-82.9-96.3L37,246.2l82.9,96.3c16.3,19,44.9,21.1,63.9,4.8
	l107.1-92.2L204.6,329.4z"/>
<path class="st5" d="M101.6,190.6l-18-20.9c-4.4-5.1-5.7-11.6-4.4-17.5l-9.1,3.9c-12.5,5.3-16.1,21.2-7.3,31.5l18,20.9L101.6,190.6z
	"/>
<g>
	<g>
		<g>
			<path class="st6" d="M388.7,167.5c-9.4,0-18.3,4.2-24.2,11.6c-25.4,31.6-92.9,120.7-92.9,178.7c0,64.7,52.4,117.1,117.1,117.1
				s117.1-52.4,117.1-117.1c0-58.1-67.5-147.2-92.9-178.7C407,171.8,398.1,167.5,388.7,167.5L388.7,167.5z"/>
		</g>
	</g>
	<g>
		<g>
			<path class="st7" d="M388.7,167.5c-9.4,0-18.3,4.2-24.2,11.6c-25.4,31.6-92.9,120.7-92.9,178.7h58.5c32.3,0,58.5-26.2,58.5-58.5
				V167.5z"/>
		</g>
	</g>
</g>
</svg>
