<?xml version="1.0" encoding="utf-8"?>
<!-- Generator: Adobe Illustrator 27.3.0, SVG Export Plug-In . SVG Version: 6.00 Build 0)  -->
<svg version="1.1" id="Layer_1" xmlns="http://www.w3.org/2000/svg" xmlns:xlink="http://www.w3.org/1999/xlink" x="0px" y="0px"
	 viewBox="0 0 511 511" style="enable-background:new 0 0 511 511;" xml:space="preserve">
<style type="text/css">
	.st0{fill:#102A4C;}
	.st1{fill:#C6C5C4;}
	.st2{fill:#99A1AF;}
	.st3{fill:#4F5761;}
	.st4{fill:#AAAAAA;}
	.st5{fill:#C6C5C5;}
	.st6{fill:#17578E;}
</style>
<path class="st0" d="M248.3,230.8c-5.1-5.1-6.4-13.1-2.8-19.7l38.7-70.3c4.8-8.8,3.3-19.8-3.8-26.9l-40.6-40.6
	c-8.8-8.8-23.2-8.8-32,0l-65.1,65.1c-6.5,6.5-17,6.5-23.5,0s-6.5-17,0-23.5l65.1-65.1c21.8-21.8,57.2-21.8,78.9,0l40.6,40.6
	c17.5,17.5,21.3,44.8,9.4,66.4L274.6,227c-4.4,8-14.5,11-22.5,6.5C250.6,232.8,249.4,231.8,248.3,230.8z"/>
<path class="st1" d="M308.3,255.1v-32h61.8c15.7,0,30.4,6.1,41.5,17.2l18.9,18.9c3.4,3.4,3.4,8.9,0,12.2l-10.4,10.4
	c-3.4,3.4-8.9,3.4-12.2,0L389,262.9c-5.1-5.1-11.8-7.8-18.9-7.8L308.3,255.1z"/>
<path class="st2" d="M308.3,223.1h47.5v32h-47.5V223.1z"/>
<path class="st3" d="M282.9,205.1v68.1h36.9c7.6,0,13.8-6.2,13.8-13.8v-40.5c0-7.6-6.2-13.8-13.8-13.8H282.9z"/>
<path class="st4" d="M115.8,390.7l-95.1-95.1c-22.7-22.7-22.7-59.6,0-82.3l108.4-108.4c22.7-22.7,59.6-22.7,82.3,0l66,66
	c10.6,10.6,16.8,25,17,40.1l1.1,57.2c0.3,15.8-5.9,31.1-17,42.3l-80.4,80.4C175.3,413.4,138.5,413.4,115.8,390.7z"/>
<g>
	<path class="st5" d="M189.2,398C73.9,345.7,61.7,232.5,89.8,144.1l-69.1,69.2c-22.7,22.7-22.7,59.6,0,82.3l95.1,95.1
		C135.7,410.7,166.5,413.1,189.2,398z"/>
</g>
<g>
	<g>
		<g>
			<path class="st6" d="M420.8,262.2c-7,0-13.6,3.2-18,8.6c-19,23.5-69.3,90-69.3,133.3c0,48.2,39.1,87.3,87.3,87.3
				s87.3-39.1,87.3-87.3c0-43.3-50.3-109.7-69.3-133.3C434.4,265.3,427.8,262.2,420.8,262.2L420.8,262.2z"/>
		</g>
	</g>
	<g>
		<g>
			<path class="st0" d="M420.8,262.2c-7,0-13.6,3.2-18,8.6c-19,23.5-69.3,90-69.3,133.3h43.7c24.1,0,43.7-19.5,43.7-43.7V262.2z"/>
		</g>
	</g>
</g>
</svg>
