<?xml version="1.0" encoding="utf-8"?>
<!-- Generator: Adobe Illustrator 27.3.0, SVG Export Plug-In . SVG Version: 6.00 Build 0)  -->
<svg version="1.1" id="Capa_1" xmlns="http://www.w3.org/2000/svg" xmlns:xlink="http://www.w3.org/1999/xlink" x="0px" y="0px"
	 viewBox="0 0 512 512" style="enable-background:new 0 0 512 512;" xml:space="preserve">
<style type="text/css">
	.st0{fill:#F1CC31;}
	.st1{fill:#BE202E;}
	.st2{fill:#FFFFFF;}
	.st3{fill:#112A4C;}
	.st4{fill:#17578F;}
</style>
<g>
	<path class="st0" d="M283.3,255.8l10.3,10.3l83.6,83.6h0l46.5,46.5c35.9-35.9,58.1-85.5,58.1-140.3H358.4H283.3z"/>
	<path class="st1" d="M377.2,349.6l-83.6-83.6l-10.3-10.3l0,0v-47.1v-74.8V41.7V31V3.1c-15.6,0-7.6-0.2-15.6,0
		C193.7,7.6,128.2,44,84.8,98.7h0c-2.2,2.7-4.3,5.5-6.3,8.3c-0.8,1-1.5,2.1-2.2,3.1c-1.4,1.9-2.7,3.9-4,5.8
		c-0.8,1.3-1.6,2.6-2.5,3.8c-1.2,1.8-2.3,3.6-3.4,5.4c-0.8,1.4-1.6,2.7-2.4,4.1c-1,1.8-2.1,3.6-3.1,5.5c-0.8,1.4-1.5,2.8-2.2,4.2
		c-1,1.9-1.9,3.8-2.9,5.7c-0.7,1.4-1.4,2.8-2,4.2c-1,2.1-1.9,4.2-2.8,6.3c-0.6,1.3-1.1,2.5-1.7,3.8c-1.1,2.8-2.2,5.6-3.3,8.4
		c-0.2,0.7-0.5,1.3-0.8,2c-1.3,3.5-2.4,7-3.5,10.5c-0.4,1.1-0.7,2.3-1,3.4c-0.7,2.4-1.4,4.9-2.1,7.4c-0.4,1.4-0.7,2.8-1,4.2
		c-0.6,2.3-1.1,4.5-1.6,6.8c-0.3,1.5-0.6,3-0.9,4.5c-0.4,2.2-0.9,4.5-1.3,6.8c-0.3,1.5-0.5,3-0.7,4.5c-0.4,2.3-0.7,4.7-1,7
		c-0.2,1.5-0.4,2.9-0.5,4.4c-0.3,2.6-0.5,5.2-0.7,7.8c-0.1,1.3-0.2,2.5-0.3,3.8c-0.2,3.9-0.4,7.8-0.4,11.7c0,1.2,0,2.5,0,3.7h0
		c0,1.1,0.1,2.1,0.1,3.2c0,2,0,4,0.1,6c0,0.8,0.1,1.6,0.1,2.4c0.1,1.5,0.2,3,0.3,4.4c0.1,2,0.2,3.9,0.4,5.9c0.1,0.8,0.2,1.6,0.3,2.4
		c0.1,1.5,0.3,2.9,0.5,4.4c0.2,1.9,0.4,3.9,0.7,5.8c0.1,0.8,0.3,1.6,0.4,2.4c0.2,1.4,0.5,2.8,0.7,4.3c0.1,0.3,0.1,0.6,0.2,0.9
		c0.3,1.6,0.5,3.2,0.8,4.7c0.2,0.8,0.3,1.6,0.5,2.4c0.3,1.4,0.6,2.8,0.9,4.2c0.1,0.5,0.2,1,0.3,1.6c0.3,1.3,0.5,2.7,0.9,4
		c0.2,0.8,0.4,1.6,0.6,2.4c0.3,1.4,0.7,2.7,1.1,4.1c0.2,0.6,0.3,1.2,0.5,1.9c0.3,1.2,0.6,2.4,1,3.6c0.2,0.8,0.5,1.6,0.7,2.4
		c0.4,1.3,0.9,2.6,1.3,4c0.2,0.7,0.4,1.3,0.6,2c0.4,1.1,0.7,2.2,1.1,3.3c0.3,0.8,0.6,1.6,0.9,2.4c0.5,1.3,1,2.6,1.5,3.9
		c0.2,0.6,0.5,1.3,0.7,1.9c0.4,1,0.7,2,1.1,3h0c0.4,0.9,0.7,1.7,1.1,2.6c0.5,1.3,1.1,2.5,1.6,3.8c1.1,2.5,2.1,4.9,3.3,7.4
		c0.6,1.3,1.2,2.5,1.8,3.7c1.2,2.4,2.4,4.8,3.6,7.1c0.7,1.2,1.4,2.4,2,3.7c1.3,2.3,2.6,4.6,3.9,6.9c0.7,1.2,1.5,2.4,2.2,3.6
		c1.4,2.2,2.8,4.5,4.2,6.6c0.8,1.2,1.6,2.4,2.4,3.6c1.5,2.1,2.9,4.3,4.5,6.4c0.9,1.2,1.8,2.3,2.7,3.5c1.6,2,3.1,4.1,4.7,6.1
		c0.9,1.2,1.9,2.3,2.9,3.4c1.6,1.9,3.2,3.9,4.9,5.8c1,1.1,2.1,2.2,3.1,3.4c1.7,1.8,3.4,3.7,5.1,5.4c1.1,1.1,2.2,2.2,3.4,3.3
		c1.7,1.7,3.5,3.4,5.3,5.1c1.2,1.1,2.4,2.2,3.6,3.2c1.8,1.6,3.6,3.2,5.4,4.8c1.3,1.1,2.6,2.1,3.9,3.1c1.8,1.5,3.7,3,5.5,4.5
		c1.3,1,2.7,2,4.1,3c1.9,1.4,3.7,2.8,5.7,4.1c1.4,1,2.9,1.9,4.4,2.9c1.9,1.3,3.8,2.5,5.7,3.8c1.5,1,3.1,1.9,4.7,2.8
		c1.9,1.1,3.8,2.3,5.8,3.4c1.6,0.9,3.3,1.8,4.9,2.6c1.9,1,3.8,2.1,5.8,3.1c1.7,0.9,3.5,1.7,5.2,2.5c1.9,0.9,3.8,1.9,5.8,2.7
		c1.8,0.8,3.7,1.5,5.6,2.3c1.9,0.8,3.8,1.6,5.8,2.4c1.9,0.7,3.9,1.4,5.9,2.1c1.9,0.7,3.8,1.4,5.7,2c2,0.7,4.1,1.3,6.2,1.9
		c1.9,0.6,3.8,1.2,5.7,1.7c2.2,0.6,4.4,1.1,6.6,1.7c1.8,0.4,3.6,0.9,5.5,1.4c2.4,0.5,4.7,0.9,7.1,1.4c1.7,0.3,3.5,0.7,5.2,1
		c2.6,0.4,5.3,0.8,8,1.2c1.5,0.2,3,0.5,4.6,0.7c3.2,0.4,6.3,0.6,9.5,0.9c1.1,0.1,2.1,0.2,3.2,0.3c4.3,0.3,8.6,0.5,12.9,0.5
		c58.7,1,112.9-18.1,156.3-50.7c15.2-11.4,13.1-9.8,26.8-23.5L438.5,411c0,0,0,0,0,0l-14.8-14.8L377.2,349.6L377.2,349.6z"/>
</g>
<path class="st2" d="M98.2,343.6h137.5c7.4,0,13.5-6,13.5-13.5c0-7.4-6-13.5-13.5-13.5H98.2c-7.4,0-13.5,6-13.5,13.5
	C84.7,337.5,90.8,343.6,98.2,343.6L98.2,343.6z"/>
<path class="st2" d="M98.2,293.6h113.4c7.4,0,13.5-6,13.5-13.5c0-7.4-6-13.5-13.5-13.5H98.2c-7.4,0-13.5,6-13.5,13.5
	C84.7,287.5,90.8,293.6,98.2,293.6L98.2,293.6z"/>
<path class="st2" d="M98.2,243.5h113.4c7.4,0,13.5-6,13.5-13.5c0-7.4-6-13.5-13.5-13.5H98.2c-7.4,0-13.5,6-13.5,13.5
	C84.7,237.5,90.8,243.5,98.2,243.5L98.2,243.5z"/>
<path class="st2" d="M98.2,193.5h137.5c7.4,0,13.5-6,13.5-13.5c0-7.4-6-13.5-13.5-13.5H98.2c-7.4,0-13.5,6-13.5,13.5
	C84.7,187.5,90.8,193.5,98.2,193.5L98.2,193.5z"/>
<polygon class="st3" points="388.4,157.9 398.8,162 388.4,235.3 371.7,235.3 371.7,163.5 371.7,157.9 "/>
<polygon class="st4" points="405,163.5 405,235.2 388.4,235.2 388.4,157.9 405,157.9 "/>
<path class="st3" d="M343.9,235.3l11-38c0-3.1-7.9-15.3-11-15.3h-16.7v5.6v47.7L343.9,235.3z"/>
<path class="st4" d="M360.6,235.3v-47.7V182h-16.7c0,24.6-0.1,53.3-0.1,53.3H360.6z"/>
<path class="st3" d="M433.1,236.6l10.9-38.2c0-3.1-7.8-76.4-10.9-76.4h-16.8v5.6v109L433.1,236.6z"/>
<path class="st4" d="M449.9,236.6v-109V122h-16.8c0,24.7-0.2,114.6-0.2,114.6H449.9z"/>
<g>
	<polygon class="st1" points="481.8,237.7 299.3,237.7 299.3,52.2 312.8,52.2 312.8,224.2 481.8,224.2 	"/>
</g>
</svg>
