<?xml version="1.0" encoding="utf-8"?>
<!-- Generator: Adobe Illustrator 27.3.0, SVG Export Plug-In . SVG Version: 6.00 Build 0)  -->
<svg version="1.1" id="Capa_1" xmlns="http://www.w3.org/2000/svg" xmlns:xlink="http://www.w3.org/1999/xlink" x="0px" y="0px"
	 viewBox="0 0 512 512" style="enable-background:new 0 0 512 512;" xml:space="preserve">
<style type="text/css">
	.st0{fill:#17578E;}
	.st1{fill:#112A4C;}
	.st2{fill:#17578F;}
	.st3{fill:#FDC680;}
	.st4{fill:#E5B274;}
	.st5{fill:#BE202E;}
	.st6{fill:#DC4955;}
</style>
<g>
	
		<rect x="186.2" y="102.9" transform="matrix(0.7071 -0.7071 0.7071 0.7071 -63.1571 196.6617)" class="st0" width="39.2" height="143.3"/>
</g>
<g>
	
		<rect x="231.9" y="155" transform="matrix(0.7071 -0.7071 0.7071 0.7071 -34.5331 265.767)" class="st0" width="143.3" height="39.2"/>
</g>
<g>
	
		<rect x="186.5" y="279.4" transform="matrix(8.092313e-03 -1 1 8.092313e-03 -42.9897 554.7302)" class="st0" width="143.3" height="39.2"/>
</g>
<path class="st1" d="M256.5,57.5c-92.6,0-167.7,75.1-167.7,167.7S163.8,393,256.5,393s167.7-75.1,167.7-167.7S349.1,57.5,256.5,57.5
	z M256.5,354.3c-71.3,0-129-57.8-129-129s57.8-129,129-129s129,57.8,129,129S327.7,354.3,256.5,354.3L256.5,354.3z"/>
<path class="st2" d="M314.3,67.7c46.1,29.9,76.7,81.8,76.7,140.9c0,92.6-75.1,167.7-167.7,167.7c-20.3,0-39.8-3.6-57.8-10.2
	c26.2,17,57.5,26.9,91.1,26.9c92.6,0,167.7-75.1,167.7-167.7C424.2,152.9,378.5,91.3,314.3,67.7z"/>
<path class="st3" d="M71.5,261.1l-25.6-51.7c-10.6-21.4-2.4-47.4,18.6-58.8l4.1-2.2L87.3,131c8.8-8.2,23.1-5.1,27.8,6.1l17.6,41.1
	c0.4,0.9,1.7,1,2.2,0.1l10.1-18.7c1.3-2.5,4.5-3.5,7-2.1l6.4,3.4c10.7,5.7,15.4,18.5,10.9,29.7l-60,151.2l-55.4-19L71.5,261.1z"/>
<path class="st4" d="M64.5,150.5l4.1-2.2l1.2-1.1c-7.9,12.7-9.3,29-2.2,43.4L92.1,240c0.7,1.5,0.9,3.2,0.4,4.7l-24.6,82.8l-14-4.8
	l17.6-61.7l-25.6-51.7C35.3,187.9,43.5,162,64.5,150.5L64.5,150.5z"/>
<path class="st5" d="M51.7,295.3L6.8,424.7c-0.9,2.6,0.5,5.4,3.1,6.3l66.8,23.2c2.6,0.9,5.4-0.5,6.3-3.1l44.9-129.4
	c0.9-2.7-0.5-5.7-3.2-6.6l-66.3-23C55.6,291.2,52.7,292.6,51.7,295.3L51.7,295.3z"/>
<path class="st6" d="M51.7,295.3c0.9-2.7,3.9-4.1,6.6-3.2l21.5,7.5c-2.5-0.9-5.3,0.6-6.3,3.3L27,437l-17.2-6
	c-2.6-0.9-3.9-3.7-3.1-6.3L51.7,295.3z"/>
<path class="st3" d="M440.5,261.1l25.6-51.7c10.6-21.4,2.4-47.4-18.6-58.8l-4.1-2.2L424.7,131c-8.8-8.2-23.1-5.1-27.8,6.1
	l-17.6,41.1c-0.4,0.9-1.7,1-2.2,0.1L367,159.6c-1.3-2.5-4.5-3.5-7-2.1l-6.4,3.4c-10.7,5.7-15.4,18.5-10.9,29.7l60,151.2l55.4-19
	L440.5,261.1z"/>
<path class="st4" d="M447.5,150.5l-4.1-2.2l-1.2-1.1c7.9,12.7,9.3,29,2.2,43.4L419.9,240c-0.7,1.5-0.9,3.2-0.4,4.7l24.6,82.8l14-4.8
	l-17.6-61.7l25.6-51.7C476.7,187.9,468.5,162,447.5,150.5L447.5,150.5z"/>
<path class="st5" d="M460.3,295.3l44.9,129.4c0.9,2.6-0.5,5.4-3.1,6.3l-66.8,23.2c-2.6,0.9-5.4-0.5-6.3-3.1l-44.9-129.4
	c-0.9-2.7,0.5-5.7,3.2-6.6l66.3-23C456.4,291.2,459.3,292.6,460.3,295.3L460.3,295.3z"/>
<path class="st6" d="M460.3,295.3c-0.9-2.7-3.9-4.1-6.6-3.2l-21.5,7.5c2.5-0.9,5.3,0.6,6.3,3.3L485,437l17.2-6
	c2.6-0.9,3.9-3.7,3.1-6.3L460.3,295.3z"/>
<circle class="st1" cx="256.5" cy="225.2" r="57.4"/>
</svg>
