<?xml version="1.0" encoding="utf-8"?>
<!-- Generator: Adobe Illustrator 27.3.0, SVG Export Plug-In . SVG Version: 6.00 Build 0)  -->
<svg version="1.1" id="Layer_1" xmlns="http://www.w3.org/2000/svg" xmlns:xlink="http://www.w3.org/1999/xlink" x="0px" y="0px"
	 viewBox="0 0 512 512" style="enable-background:new 0 0 512 512;" xml:space="preserve">
<style type="text/css">
	.st0{fill:#EFEEEE;}
	.st1{fill:#DBE5EA;}
	.st2{opacity:0.4;fill:url(#SVGID_1_);}
	.st3{fill:#102A4C;}
</style>
<g>
	<path class="st0" d="M362.4,29.7c-40.1,92.3-132.5,213.9-345.7,301C48.3,432.8,143.5,507,256,507c138.3,0,250.5-112.2,250.5-250.5
		C506.5,156.2,447.5,69.7,362.4,29.7z"/>
	<path class="st1" d="M362.4,29.7C330.1,14.5,294,6,256,6C117.7,6,5.5,118.2,5.5,256.5c0,25.8,3.9,50.7,11.2,74.2
		C229.8,243.6,322.3,122,362.4,29.7z"/>
	<linearGradient id="SVGID_1_" gradientUnits="userSpaceOnUse" x1="-145.4402" y1="168.3471" x2="381.2682" y2="168.3471">
		<stop  offset="0" style="stop-color:#352713"/>
		<stop  offset="0.1392" style="stop-color:#392B16"/>
		<stop  offset="0.2788" style="stop-color:#45371F"/>
		<stop  offset="0.4187" style="stop-color:#584B2E"/>
		<stop  offset="0.5588" style="stop-color:#736743"/>
		<stop  offset="0.6992" style="stop-color:#968C5F"/>
		<stop  offset="0.8398" style="stop-color:#C1B880"/>
		<stop  offset="0.9782" style="stop-color:#F3ECA7"/>
		<stop  offset="1" style="stop-color:#FCF5AE"/>
	</linearGradient>
	<path class="st2" d="M362.4,29.7C330.1,14.5,294,6,256,6C117.7,6,5.5,118.2,5.5,256.5c0,25.8,3.9,50.7,11.2,74.2
		C229.8,243.6,322.3,122,362.4,29.7z"/>
</g>
<g>
	<path class="st3" d="M270.9,346.5h-71.2l-14.2,65.6h-68.6l14.2-65.6H67.5v-66.1h77.7l12-56.2H95v-66.1h75.9l13.7-63.5h68.6
		l-13.7,63.5h71.2l13.7-63.5h68.6l-13.7,63.5h53.2v66.1h-66.9l-12,56.2h51.5v66.1h-65.6l-14.2,65.6h-68.6L270.9,346.5z M297.1,224.2
		h-71.2l-12,56.2h71.2L297.1,224.2z"/>
</g>
</svg>
