<?xml version="1.0" encoding="utf-8"?>
<!-- Generator: Adobe Illustrator 27.3.0, SVG Export Plug-In . SVG Version: 6.00 Build 0)  -->
<svg version="1.1" id="Capa_1" xmlns="http://www.w3.org/2000/svg" xmlns:xlink="http://www.w3.org/1999/xlink" x="0px" y="0px"
	 viewBox="0 0 512 512" style="enable-background:new 0 0 512 512;" xml:space="preserve">
<style type="text/css">
	.st0{fill:#BE202E;}
	.st1{fill:#25B04B;}
	.st2{fill:#A31D29;}
	.st3{fill:#17562C;}
	.st4{fill:#EFEEEE;}
	.st5{fill:#DBE5EA;}
	.st6{fill:#6BCBDE;}
	.st7{fill:#00B5BC;}
</style>
<g>
	<path class="st0" d="M320.8,180.3c0-34.5-29.1-62.6-64.8-62.6v125.1C291.7,242.9,320.8,214.8,320.8,180.3z"/>
	<path class="st0" d="M362.4,180.3c0,56.7-47.7,102.7-106.4,102.7v160.9l116.6-193.6c24.9-41.4,26.1-91.7,3.1-134.7
		C354.1,75.2,315.6,49.8,270,45.8c-4.6-0.4-9.3-0.6-14-0.6v32.4C314.7,77.6,362.4,123.7,362.4,180.3z"/>
	<path class="st1" d="M412.7,97.2C384.4,44.3,333.8,11,273.8,5.8C267.9,5.3,261.9,5,256,5v40.2c4.7,0,9.4,0.2,14,0.6
		c45.6,4,84.1,29.4,105.7,69.9c23,42.9,21.8,93.3-3.1,134.7L256,443.9V504c7.4,0,14.3-3.8,18-10l134.6-223.5
		C440.7,217.2,442.2,152.4,412.7,97.2z"/>
	<path class="st0" d="M362.4,180.3c0-56.7-47.7-102.7-106.4-102.7v40.2c35.7,0,64.8,28.1,64.8,62.6c0,34.5-29.1,62.6-64.8,62.6v40.2
		C314.7,283.1,362.4,237,362.4,180.3z"/>
	<path class="st2" d="M191.2,180.3c0,34.5,29.1,62.6,64.8,62.6c0,0,0,0,0,0V117.8c0,0,0,0,0,0C220.3,117.8,191.2,145.8,191.2,180.3z
		"/>
	<path class="st2" d="M242,45.8c-45.6,4-84.1,29.4-105.7,69.9c-23,42.9-21.8,93.3,3.1,134.7L256,444l0,0V283.1c0,0,0,0,0,0
		c-58.6,0-106.4-46.1-106.4-102.8c0-56.7,47.7-102.7,106.4-102.7c0,0,0,0,0,0V45.2c0,0,0,0,0,0C251.3,45.2,246.6,45.4,242,45.8z"/>
	<path class="st3" d="M256,444L139.4,250.3c-24.9-41.4-26.1-91.7-3.1-134.7c21.6-40.4,60.2-65.9,105.7-69.9c4.6-0.4,9.3-0.6,14-0.6
		c0,0,0,0,0,0V5c-5.9,0-11.9,0.3-17.8,0.8c-60,5.2-110.6,38.6-138.9,91.4c-29.5,55.2-28,120,4.1,173.3L238,494
		c3.7,6.2,10.6,10,18,10c0,0,0,0,0,0L256,444L256,444z"/>
	<path class="st2" d="M256,242.9c-35.7,0-64.8-28.1-64.8-62.6c0-34.5,29.1-62.6,64.8-62.6c0,0,0,0,0,0V77.6c0,0,0,0,0,0
		c-58.6,0-106.4,46.1-106.4,102.7c0,56.7,47.7,102.8,106.4,102.8c0,0,0,0,0,0L256,242.9C256,242.9,256,242.9,256,242.9z"/>
</g>
<path class="st4" d="M256,82.9l-87.5,87.5v96c0,7,5.7,12.7,12.7,12.7h34.8c0,0,12.7-5.9,39.9-5.9s39.9,5.9,39.9,5.9h34.8
	c7,0,12.7-5.7,12.7-12.7v-96L256,82.9z"/>
<path class="st5" d="M343.5,170.4v96c0,7-5.7,12.7-12.7,12.7h-34.8c0,0-12.7-5.9-39.9-5.9V82.9L343.5,170.4z"/>
<path class="st2" d="M283.2,199.2h-54.4c-7,0-12.7,5.7-12.7,12.7v67.1h79.8V212C295.9,204.9,290.2,199.2,283.2,199.2z"/>
<path class="st0" d="M295.9,212v67.1H256v-79.8h27.2C290.2,199.2,295.9,204.9,295.9,212z"/>
<path class="st6" d="M366.9,193.8c-2.5,2.5-5.7,3.7-9,3.7s-6.5-1.2-9-3.7L256,100.9l-92.9,92.9c-5,5-13,5-18,0c-5-5-5-13,0-18
	L247,73.9c2.5-2.5,5.7-3.7,9-3.7c3.3,0,6.5,1.2,9,3.7l101.9,101.9C371.9,180.8,371.9,188.8,366.9,193.8L366.9,193.8z"/>
<path class="st7" d="M366.9,193.8c-2.5,2.5-5.7,3.7-9,3.7s-6.5-1.2-9-3.7L256,100.9V70.1c3.3,0,6.5,1.2,9,3.7l101.9,101.9
	C371.9,180.8,371.9,188.8,366.9,193.8L366.9,193.8z"/>
</svg>
