<?xml version="1.0" encoding="utf-8"?>
<!-- Generator: Adobe Illustrator 27.3.0, SVG Export Plug-In . SVG Version: 6.00 Build 0)  -->
<svg version="1.1" id="Capa_1" xmlns="http://www.w3.org/2000/svg" xmlns:xlink="http://www.w3.org/1999/xlink" x="0px" y="0px"
	 viewBox="0 0 512 512" style="enable-background:new 0 0 512 512;" xml:space="preserve">
<style type="text/css">
	.st0{fill:#1B53A4;}
	.st1{fill:#102A4C;}
	.st2{fill:#FFFFFF;}
	.st3{fill:#E0E0E2;}
	.st4{fill:#6BCBDE;}
	.st5{fill:#00B5BC;}
	.st6{fill:#FFEC92;}
	.st7{fill:#FCBF10;}
	.st8{fill:#17578E;}
	.st9{fill:#F7E2C9;}
</style>
<path class="st0" d="M507.5,255.5c0,73.6-31.6,139.8-82,185.8C380.8,482.1,321.3,507,256,507s-124.8-24.9-169.5-65.7
	c-50.4-46-82-112.2-82-185.8C4.5,116.6,117.1,4,256,4S507.5,116.6,507.5,255.5z"/>
<path class="st1" d="M507.5,255.5c0,73.6-31.6,139.8-82,185.8C380.8,482.1,321.3,507,256,507V4C394.9,4,507.5,116.6,507.5,255.5z"/>
<path class="st2" d="M309.9,168.7H202.1v-16.5c0-11.7,9.6-21.4,21.4-21.4h65.1c11.7,0,21.4,9.6,21.4,21.4L309.9,168.7L309.9,168.7z"
	/>
<path class="st3" d="M309.9,152.2v16.5H256v-37.8h32.6C300.3,130.8,309.9,140.4,309.9,152.2z"/>
<path class="st4" d="M410.8,386.4H101.2c-13.6,0-24.5-11-24.5-24.5V188c0-13.6,11-24.5,24.5-24.5h309.7c13.6,0,24.5,11,24.5,24.5
	v173.8C435.4,375.4,424.4,386.4,410.8,386.4z"/>
<path class="st5" d="M435.4,188v173.8c0,13.6-11,24.5-24.5,24.5H256V163.5h154.8C424.4,163.5,435.4,174.5,435.4,188z"/>
<rect x="120.9" y="202.4" class="st2" width="111.6" height="145"/>
<g>
	<rect x="283" y="238.3" class="st3" width="112.8" height="22.3"/>
	<rect x="283" y="289.3" class="st3" width="112.8" height="22.3"/>
</g>
<rect x="232.9" y="66" class="st6" width="46.3" height="80.9"/>
<rect x="256" y="66" class="st7" width="23.2" height="80.9"/>
<path class="st8" d="M232.2,319.5v28.1c-14.5,0-34.2,0-55.6,0s-32.3,0-55.6,0v-28.1c0-23.9,15.2-44.3,36.4-52.1
	c6-2.2,12.5-3.4,19.2-3.4c6.8,0,13.2,1.2,19.2,3.4C217.1,275.2,232.2,295.6,232.2,319.5z"/>
<path class="st1" d="M232.2,319.5v28.1c-14.4,0-34.2,0-55.6,0v-83.7c6.8,0,13.2,1.2,19.2,3.4C217.1,275.2,232.2,295.6,232.2,319.5z"
	/>
<path class="st9" d="M204.9,233.3c0,15.5-12.6,28.2-28.2,28.2c-15.5,0-28.2-12.6-28.2-28.2s12.6-28.2,28.2-28.2
	C192.2,205.1,204.9,217.8,204.9,233.3z"/>
<circle class="st2" cx="176.7" cy="281.3" r="2.3"/>
<circle class="st2" cx="176.7" cy="297" r="2.3"/>
<circle class="st2" cx="176.7" cy="312.8" r="2.3"/>
</svg>
