<?xml version="1.0" encoding="utf-8"?>
<!-- Generator: Adobe Illustrator 27.3.0, SVG Export Plug-In . SVG Version: 6.00 Build 0)  -->
<svg version="1.1" id="Capa_1" xmlns="http://www.w3.org/2000/svg" xmlns:xlink="http://www.w3.org/1999/xlink" x="0px" y="0px"
	 viewBox="0 0 512 512" style="enable-background:new 0 0 512 512;" xml:space="preserve">
<style type="text/css">
	.st0{fill:#DBE5EA;}
	.st1{fill:#C3D2D8;}
	.st2{opacity:0.4;fill:url(#SVGID_1_);}
	.st3{fill:#00ADEE;}
	.st4{fill:#F6921E;}
	.st5{fill:#12284C;}
	.st6{fill:#25B04B;}
</style>
<g>
	<path class="st0" d="M362.2,29.6c-40,92.1-132.3,213.5-345,300.4C48.7,432,143.7,506,256,506c138.1,0,250-111.9,250-250
		C506,155.9,447.1,69.6,362.2,29.6z"/>
	<path class="st1" d="M362.2,29.6C329.9,14.5,294,6,256,6C117.9,6,6,117.9,6,256c0,25.8,3.9,50.6,11.2,74
		C229.9,243.1,322.2,121.8,362.2,29.6z"/>
	<linearGradient id="SVGID_1_" gradientUnits="userSpaceOnUse" x1="-144.6389" y1="168.023" x2="381.0182" y2="168.023">
		<stop  offset="0" style="stop-color:#352713"/>
		<stop  offset="0.1392" style="stop-color:#392B16"/>
		<stop  offset="0.2788" style="stop-color:#45371F"/>
		<stop  offset="0.4187" style="stop-color:#584B2E"/>
		<stop  offset="0.5588" style="stop-color:#736743"/>
		<stop  offset="0.6992" style="stop-color:#968C5F"/>
		<stop  offset="0.8398" style="stop-color:#C1B880"/>
		<stop  offset="0.9782" style="stop-color:#F3ECA7"/>
		<stop  offset="1" style="stop-color:#FCF5AE"/>
	</linearGradient>
	<path class="st2" d="M362.2,29.6C329.9,14.5,294,6,256,6C117.9,6,6,117.9,6,256c0,25.8,3.9,50.6,11.2,74
		C229.9,243.1,322.2,121.8,362.2,29.6z"/>
</g>
<path class="st3" d="M265.5,230.3l29.6,13.2v-42.4h-73v42.4l29.5-13.2C256,228.4,261,228.4,265.5,230.3z"/>
<path class="st4" d="M390.8,201.2h-61.7v68.7c0,5.8-2.9,11.2-7.8,14.3c-4.8,3.1-11,3.6-16.2,1.3l-46.6-20.9l-46.6,20.9
	c-5.3,2.4-11.4,1.9-16.2-1.3c-4.9-3.1-7.8-8.5-7.8-14.3v-68.7h-61.7v239.9h264.6V201.2z M216,413.9h-34.7v-34.1H216V413.9z
	 M275.9,413.9h-34.7v-34.1h34.7V413.9z M335.8,413.9h-34.7v-34.1h34.7V413.9z"/>
<rect x="181.2" y="379.9" class="st5" width="34.7" height="34.1"/>
<rect x="241.2" y="379.9" class="st5" width="34.7" height="34.1"/>
<rect x="301.1" y="379.9" class="st5" width="34.7" height="34.1"/>
<path class="st6" d="M400.3,123.9c0.1-0.2,0.1-0.4,0.2-0.6c0.1-0.3,0.2-0.6,0.3-0.9c0-0.1,0-0.2,0.1-0.3c0.4-1.3,0.6-2.7,0.6-4.2
	c0-1.5-0.2-2.9-0.6-4.2c0-0.1,0-0.2-0.1-0.3c-0.1-0.3-0.2-0.6-0.3-0.9c-0.1-0.2-0.1-0.4-0.2-0.5c-0.1-0.2-0.2-0.4-0.3-0.7
	c-0.1-0.2-0.2-0.5-0.4-0.7c-0.1-0.1-0.2-0.3-0.2-0.4c-0.2-0.3-0.4-0.6-0.6-0.9c0-0.1-0.1-0.1-0.1-0.2c-0.5-0.8-1.1-1.5-1.8-2.2
	l-34.1-34.1c-3-3-6.9-4.6-11.1-4.6c-4.2,0-8.1,1.6-11.1,4.6c-6.1,6.1-6.1,16,0,22.1l7.4,7.4h-98.6c-8.6,0-15.6,7-15.6,15.6
	s7,15.6,15.6,15.6h98.6l-8,8c-3,3-4.6,6.9-4.6,11.1s1.6,8.1,4.6,11.1c6.1,6.1,16,6.1,22.1,0l34.7-34.7c0.7-0.7,1.3-1.4,1.8-2.2
	c0,0,0.1-0.1,0.1-0.1c0.2-0.3,0.4-0.6,0.6-0.9c0.1-0.1,0.2-0.3,0.2-0.4c0.1-0.3,0.2-0.5,0.4-0.8
	C400.1,124.3,400.2,124.1,400.3,123.9z"/>
<path class="st6" d="M108.5,112.6c-0.1,0.2-0.1,0.4-0.2,0.6c-0.1,0.3-0.2,0.6-0.3,0.9c0,0.1,0,0.2-0.1,0.3c-0.4,1.3-0.6,2.7-0.6,4.2
	c0,1.5,0.2,2.9,0.6,4.2c0,0.1,0,0.2,0.1,0.3c0.1,0.3,0.2,0.6,0.3,0.9c0.1,0.2,0.1,0.4,0.2,0.5c0.1,0.2,0.2,0.4,0.3,0.7
	c0.1,0.2,0.2,0.5,0.4,0.7c0.1,0.1,0.2,0.3,0.2,0.4c0.2,0.3,0.4,0.6,0.6,0.9c0,0.1,0.1,0.1,0.1,0.2c0.5,0.8,1.1,1.5,1.8,2.2
	l34.1,34.1c3,3,6.9,4.6,11.1,4.6c4.2,0,8.1-1.6,11.1-4.6c6.1-6.1,6.1-16,0-22.1l-7.4-7.4l98.6,0c8.6,0,15.6-7,15.6-15.6
	s-7-15.6-15.6-15.6l-98.6,0l8-8c3-3,4.6-6.9,4.6-11.1s-1.6-8.1-4.6-11.1c-6.1-6.1-16-6.1-22.1,0l-34.7,34.7
	c-0.7,0.7-1.3,1.4-1.8,2.2c0,0-0.1,0.1-0.1,0.1c-0.2,0.3-0.4,0.6-0.6,0.9c-0.1,0.1-0.2,0.3-0.2,0.4c-0.1,0.3-0.2,0.5-0.4,0.8
	C108.7,112.1,108.6,112.3,108.5,112.6z"/>
</svg>
