<?xml version="1.0" encoding="utf-8"?>
<!-- Generator: Adobe Illustrator 27.3.0, SVG Export Plug-In . SVG Version: 6.00 Build 0)  -->
<svg version="1.1" id="Capa_1" xmlns="http://www.w3.org/2000/svg" xmlns:xlink="http://www.w3.org/1999/xlink" x="0px" y="0px"
	 viewBox="0 0 512 512" style="enable-background:new 0 0 512 512;" xml:space="preserve">
<style type="text/css">
	.st0{fill:#229D49;}
	.st1{fill:#25B04B;}
	.st2{fill:#FFFFFF;}
</style>
<path class="st0" d="M506,257c0,73.2-31.4,139-81.5,184.7C380,482.3,320.9,507,256,507s-124-24.7-168.5-65.3C37.4,396,6,330.2,6,257
	C6,118.9,117.9,7,256,7S506,118.9,506,257z"/>
<path class="st1" d="M506,257c0,73.2-31.4,139-81.5,184.7C380,482.3,320.9,507,256,507V7C394.1,7,506,118.9,506,257z"/>
<g>
	<path class="st2" d="M212.5,125.8c0-22.3,17.6-39.9,43.7-39.9c25.7,0,43.3,17.6,43.3,39.9c0,21.9-17.6,39.4-43.3,39.4
		C230.1,165.3,212.5,147.7,212.5,125.8z M219.4,190.1h73.3v239.2h-73.3V190.1z"/>
</g>
</svg>
