<?xml version="1.0" encoding="utf-8"?>
<!-- Generator: Adobe Illustrator 27.3.0, SVG Export Plug-In . SVG Version: 6.00 Build 0)  -->
<svg version="1.1" id="Capa_1" xmlns="http://www.w3.org/2000/svg" xmlns:xlink="http://www.w3.org/1999/xlink" x="0px" y="0px"
	 viewBox="0 0 512 512" style="enable-background:new 0 0 512 512;" xml:space="preserve">
<style type="text/css">
	.st0{fill-rule:evenodd;clip-rule:evenodd;fill:#FFFFFF;}
	.st1{fill-rule:evenodd;clip-rule:evenodd;fill:#F1CC31;}
	.st2{fill-rule:evenodd;clip-rule:evenodd;fill:#F6921E;}
	.st3{fill:#12284C;}
	.st4{fill:#FFFFFF;}
</style>
<path class="st0" d="M59.3,267.4l0,229.6c0,3.7,3,6.6,6.7,6.7l106.6,0l157.8,0l22.6,0l92.9,0c3.7,0,6.7-3,6.6-6.7l0-107.8l0-298.1
	l0-3.1l-67.8,0c-6.5,0-20.1,0.9-20.1-13.9l-0.1-66.2L66,8c-3.7,0-6.7,3-6.6,6.7l0,57.3l-0.1,24.2L59.3,267.4z"/>
<path class="st1" d="M452.7,389.2l-0.1-298l0-3.1l0-1c0-2-0.9-2.2-3.7-5.1l-73.2-69.8c-3.4-3.3-4-4.1-6.1-4.1l-5,0.1L66,8
	c-3.7,0-6.6,3-6.6,6.7L59.3,497c0,3.7,3,6.6,6.7,6.7l379.9,0c3.7,0,6.6-3,6.6-6.7L452.7,389.2z"/>
<path class="st2" d="M452.7,389.2l-0.1-298l0-3.1c0-3.5-1.1-3.7-3.7-6.2l-73.2-69.8c-3.4-3.3-4-4.1-6.1-4.1l-5,0l-74.3,0
	c90.8,121.5,96,340.7,28.6,477.4c-3.1,6.3-6.4,12.4-9.8,18.4l21.3,0l22.6,0l92.9,0c3.7,0,6.6-3,6.6-6.7L452.7,389.2z"/>
<g>
	<path class="st3" d="M95.4,403.9h14.1v57.7H95.4V403.9z"/>
	<path class="st3" d="M168.9,403.9v57.7h-14.1L131.3,426v35.6h-14.1v-57.7h14.1l23.5,35.8v-35.8H168.9z"/>
	<path class="st3" d="M216,403.9h14.9l-20.5,57.7h-17.6l-20.5-57.7h15l14.3,43.6L216,403.9z"/>
	<path class="st3" d="M261.6,462.2c-16.4,0-29.7-12.2-29.7-29.6s13.3-29.5,29.7-29.5c16.4,0,29.5,12.2,29.5,29.5
		S277.9,462.2,261.6,462.2z M261.6,449.4c9.2,0,15.2-6.7,15.2-16.8c0-10.3-6-16.8-15.2-16.8c-9.4,0-15.3,6.5-15.3,16.8
		C246.3,442.7,252.2,449.4,261.6,449.4z"/>
	<path class="st3" d="M296.5,403.9h14.1v57.7h-14.1V403.9z"/>
	<path class="st3" d="M345,403.3c13.7,0,24.1,7.7,27.4,20.2h-15.5c-2.4-4.9-6.7-7.4-12.1-7.4c-8.6,0-14.5,6.4-14.5,16.6
		c0,10.2,5.9,16.6,14.5,16.6c5.3,0,9.7-2.5,12.1-7.4h15.5c-3.3,12.5-13.6,20.1-27.4,20.1c-17,0-29-12.1-29-29.3
		C316,415.4,328,403.3,345,403.3z"/>
	<path class="st3" d="M413.9,415.2h-21.3v11.7h18.8v10.8h-18.8v12.7h21.3v11.3h-35.3v-57.7h35.3V415.2z"/>
</g>
<g>
	<path class="st4" d="M144.8,119c-2.4,0-4.7-0.8-6.7-2.5l-13.4-11.4c-4.3-3.7-4.8-10.2-1.2-14.5c3.7-4.3,10.2-4.8,14.5-1.2l5.7,4.9
		l14.5-16.4c3.7-4.3,10.3-4.7,14.5-0.9c4.3,3.8,4.7,10.3,0.9,14.5l-21.2,24C150.5,117.8,147.7,119,144.8,119z"/>
</g>
<g>
	<path class="st3" d="M192.2,150.9h-86.6c-5.7,0-10.3-4.6-10.3-10.3V54c0-5.7,4.6-10.3,10.3-10.3h86.6c5.7,0,10.3,4.6,10.3,10.3
		v86.6C202.5,146.3,197.9,150.9,192.2,150.9z M115.9,130.3h66v-66h-66V130.3z"/>
</g>
<g>
	<g>
		<path class="st3" d="M379.4,205.2H233.7c-6,0-10.9-4.6-10.9-10.3c0-5.7,4.9-10.3,10.9-10.3h145.7c6,0,10.9,4.6,10.9,10.3
			C390.3,200.6,385.4,205.2,379.4,205.2z"/>
	</g>
</g>
<g>
	<g>
		<path class="st3" d="M378.2,250.4H253.5c-6,0-10.9-4.6-10.9-10.3c0-5.7,4.9-10.3,10.9-10.3h124.7c6,0,10.9,4.6,10.9,10.3
			C389,245.8,384.2,250.4,378.2,250.4z"/>
	</g>
</g>
<g>
	<g>
		<path class="st3" d="M379.4,295h-50.3c-6,0-10.9-4.6-10.9-10.3s4.9-10.3,10.9-10.3h50.3c6,0,10.9,4.6,10.9,10.3
			S385.4,295,379.4,295z"/>
	</g>
</g>
<g>
	<g>
		<path class="st3" d="M379.4,369.3h-50.3c-6,0-10.9-4.6-10.9-10.3s4.9-10.3,10.9-10.3h50.3c6,0,10.9,4.6,10.9,10.3
			C390.3,364.7,385.4,369.3,379.4,369.3z"/>
	</g>
</g>
<g>
	<path class="st3" d="M202,205.2h-34.4c-6,0-10.9-4.6-10.9-10.3s4.9-10.3,10.9-10.3H202c6,0,10.9,4.6,10.9,10.3S208,205.2,202,205.2
		z"/>
</g>
<g>
	<path class="st3" d="M136.5,205.2h-18.7c-6,0-10.9-4.6-10.9-10.3s4.9-10.3,10.9-10.3h18.7c6,0,10.9,4.6,10.9,10.3
		S142.5,205.2,136.5,205.2z"/>
</g>
<g>
	<path class="st3" d="M220.8,250.4H202c-6,0-10.9-4.6-10.9-10.3c0-5.7,4.9-10.3,10.9-10.3h18.7c6,0,10.9,4.6,10.9,10.3
		C231.6,245.8,226.8,250.4,220.8,250.4z"/>
</g>
<g>
	<path class="st3" d="M327.6,331.6h-18.7c-6,0-10.9-4.6-10.9-10.3c0-5.7,4.9-10.3,10.9-10.3h18.7c6,0,10.9,4.6,10.9,10.3
		C338.5,327,333.6,331.6,327.6,331.6z"/>
</g>
<g>
	<path class="st3" d="M272.9,331.6h-96.2c-6,0-10.9-4.6-10.9-10.3c0-5.7,4.9-10.3,10.9-10.3h96.2c6,0,10.9,4.6,10.9,10.3
		C283.8,327,278.9,331.6,272.9,331.6z"/>
</g>
<g>
	<path class="st3" d="M295.2,295H155c-6,0-10.9-4.6-10.9-10.3c0-5.7,4.9-10.3,10.9-10.3h140.2c6,0,10.9,4.6,10.9,10.3
		C306.1,290.4,301.2,295,295.2,295z"/>
</g>
</svg>
