<?xml version="1.0" encoding="utf-8"?>
<!-- Generator: Adobe Illustrator 27.3.0, SVG Export Plug-In . SVG Version: 6.00 Build 0)  -->
<svg version="1.1" id="Capa_1" xmlns="http://www.w3.org/2000/svg" xmlns:xlink="http://www.w3.org/1999/xlink" x="0px" y="0px"
	 viewBox="0 0 512 512" style="enable-background:new 0 0 512 512;" xml:space="preserve">
<style type="text/css">
	.st0{fill-rule:evenodd;clip-rule:evenodd;fill:#FFFFFF;}
	.st1{fill-rule:evenodd;clip-rule:evenodd;fill:#F1CC31;}
	.st2{fill-rule:evenodd;clip-rule:evenodd;fill:#F6921E;}
	.st3{fill-rule:evenodd;clip-rule:evenodd;fill:#12284C;}
	.st4{fill:#12284C;}
</style>
<path class="st0" d="M59.7,266.9l0,229.1c0,3.7,3,6.6,6.7,6.7l106.4,0l157.4,0l22.6,0l92.7,0c3.7,0,6.6-3,6.6-6.7l0-107.6l0-297.5
	l0-3.1l-67.7,0c-6.5,0-20.1,0.9-20.1-13.8l-0.1-66.1L66.4,8c-3.7,0-6.6,3-6.6,6.7l0,57.2L59.8,96L59.7,266.9z"/>
<path class="st1" d="M452.3,388.4l-0.1-297.4l0-3.1l0-1c0-2-0.8-2.2-3.7-5.1l-73.1-69.7c-3.4-3.3-4-4.1-6.1-4.1l-5,0.1L66.4,8
	c-3.7,0-6.6,3-6.6,6.7L59.7,496c0,3.7,3,6.6,6.7,6.7l379.1,0c3.7,0,6.6-3,6.6-6.7L452.3,388.4z"/>
<path class="st2" d="M452.3,388.4l-0.1-297.4l0-3.1c0-3.5-1.1-3.7-3.7-6.2l-73.1-69.7c-3.4-3.3-4-4.1-6.1-4.1l-5,0l-74.1,0
	c90.6,121.3,95.8,340,28.6,476.4c-3.1,6.3-6.4,12.4-9.7,18.4l21.3,0l22.6,0l92.7,0c3.7,0,6.6-3,6.6-6.7L452.3,388.4z"/>
<path class="st0" d="M364.5,74.1c0,14.8,13.6,13.8,20.1,13.8l67.7,0l0-1c0-2-0.9-2.2-3.7-5.1l-73.1-69.7c-3.4-3.3-4-4.1-6.1-4.1
	l-5,0L364.5,74.1z"/>
<path class="st3" d="M448.5,81.8l-73.1-69.7c-3.4-3.3-4-4.1-6.1-4.1l-5,0l0.2,66.1c0,14.8,0-2.2,0,13.8l87.8,0l0-1
	C452.2,84.9,451.3,84.7,448.5,81.8"/>
<g>
	<path class="st4" d="M95.7,403.1h14v57.6h-14V403.1z"/>
	<path class="st4" d="M169,403.1v57.6h-14l-23.5-35.5v35.5h-14v-57.6h14l23.5,35.7v-35.7H169z"/>
	<path class="st4" d="M216,403.1h14.8l-20.4,57.6h-17.6l-20.4-57.6h14.9l14.3,43.5L216,403.1z"/>
	<path class="st4" d="M261.5,461.3c-16.3,0-29.6-12.2-29.6-29.5c0-17.3,13.3-29.4,29.6-29.4c16.4,0,29.4,12.1,29.4,29.4
		C291,449,277.9,461.3,261.5,461.3z M261.5,448.5c9.2,0,15.2-6.6,15.2-16.7c0-10.3-6-16.7-15.2-16.7c-9.4,0-15.3,6.5-15.3,16.7
		C246.3,441.8,252.2,448.5,261.5,448.5z"/>
	<path class="st4" d="M296.4,403.1h14v57.6h-14V403.1z"/>
	<path class="st4" d="M344.8,402.5c13.7,0,24,7.7,27.3,20.2h-15.4c-2.4-4.9-6.7-7.4-12.1-7.4c-8.6,0-14.5,6.4-14.5,16.6
		c0,10.2,5.9,16.6,14.5,16.6c5.3,0,9.7-2.5,12.1-7.4h15.4c-3.3,12.5-13.6,20.1-27.3,20.1c-17,0-29-12.1-29-29.3
		C315.8,414.6,327.8,402.5,344.8,402.5z"/>
	<path class="st4" d="M413.6,414.3h-21.2V426h18.8v10.8h-18.8v12.6h21.2v11.2h-35.3v-57.6h35.3V414.3z"/>
</g>
<path class="st4" d="M93.9,170.2v170.6c0,10.6,8.7,19.3,19.3,19.3h80.8c4.5,0,8.2-3.7,8.2-8.2s-3.7-8.2-8.2-8.2h-80.8
	c-1.6,0-2.9-1.3-2.9-2.9v-42.5H318v45.4h-91c-4.5,0-8.2,3.7-8.2,8.2s3.7,8.2,8.2,8.2h167.8c10.6,0,19.3-8.7,19.3-19.3V170.2
	c0-10.6-8.7-19.3-19.3-19.3H113.2C102.6,150.9,93.9,159.5,93.9,170.2L93.9,170.2z M113.2,167.3H318v45.4H110.4v-42.5
	C110.4,168.6,111.7,167.3,113.2,167.3L113.2,167.3z M110.4,281.9v-52.7H318v52.7H110.4z M397.6,281.9h-63.2v-52.7h63.2V281.9z
	 M394.7,343.7h-60.3v-45.4h63.2v42.5C397.6,342.4,396.3,343.7,394.7,343.7z M397.6,170.2v42.5h-63.2v-45.4h60.3
	C396.3,167.3,397.6,168.6,397.6,170.2L397.6,170.2z"/>
<path class="st4" d="M231.8,90.7c-2.7,0-4.4-1.9-8.5-8.1c-4.3-6.5-10.7-16.2-23.7-16.2c-12.9,0-19.4,9.8-23.7,16.2
	c-4.1,6.1-5.8,8.1-8.5,8.1c-2.7,0-4.4-1.9-8.5-8.1c-4.3-6.5-10.7-16.2-23.7-16.2s-19.4,9.8-23.7,16.2c-4.1,6.1-5.8,8.1-8.5,8.1
	c-5,0-9.1,4.1-9.1,9.1c0,5,4.1,9.1,9.1,9.1c12.9,0,19.4-9.8,23.7-16.2c4.1-6.1,5.8-8.1,8.5-8.1s4.4,1.9,8.5,8.1
	c4.3,6.5,10.7,16.2,23.7,16.2c12.9,0,19.4-9.8,23.7-16.2c4.1-6.1,5.8-8.1,8.5-8.1s4.4,1.9,8.5,8.1c4.3,6.5,10.7,16.2,23.7,16.2
	c5,0,9.1-4.1,9.1-9.1C240.9,94.8,236.8,90.7,231.8,90.7L231.8,90.7z"/>
</svg>
