<?xml version="1.0" encoding="utf-8"?>
<!-- Generator: Adobe Illustrator 27.3.0, SVG Export Plug-In . SVG Version: 6.00 Build 0)  -->
<svg version="1.1" id="Capa_1" xmlns="http://www.w3.org/2000/svg" xmlns:xlink="http://www.w3.org/1999/xlink" x="0px" y="0px"
	 viewBox="0 0 56 56" style="enable-background:new 0 0 56 56;" xml:space="preserve">
<style type="text/css">
	.st0{fill-rule:evenodd;clip-rule:evenodd;fill:#FFFFFF;}
	.st1{fill-rule:evenodd;clip-rule:evenodd;fill:#9677A7;}
	.st2{fill-rule:evenodd;clip-rule:evenodd;fill:#796189;}
	.st3{fill-rule:evenodd;clip-rule:evenodd;fill:#FBB132;}
	.st4{fill:#FFFFFF;}
</style>
<path class="st0" d="M6.5,29.3l0,25.1c0,0.4,0.3,0.7,0.7,0.7l11.7,0l17.2,0l2.5,0l10.2,0c0.4,0,0.7-0.3,0.7-0.7l0-11.8l0-32.6l0-0.3
	l-7.4,0c-0.7,0-2.2,0.1-2.2-1.5l0-7.2l-32.6,0c-0.4,0-0.7,0.3-0.7,0.7l0,6.3l0,2.6L6.5,29.3z"/>
<path class="st1" d="M49.5,42.6l0-32.6l0-0.3l0-0.1c0-0.2-0.1-0.2-0.4-0.6l-8-7.6c-0.4-0.4-0.4-0.4-0.7-0.5l-0.5,0l-32.6,0
	c-0.4,0-0.7,0.3-0.7,0.7l0,52.7c0,0.4,0.3,0.7,0.7,0.7l41.5,0c0.4,0,0.7-0.3,0.7-0.7L49.5,42.6z"/>
<path class="st2" d="M49.5,42.6l0-32.6l0-0.3c0-0.4-0.1-0.4-0.4-0.7l-8-7.6c-0.4-0.4-0.4-0.4-0.7-0.5l-0.5,0l-8.1,0
	c9.9,13.3,10.5,37.2,3.1,52.2c-0.3,0.7-0.7,1.4-1.1,2l2.3,0l2.5,0l10.2,0c0.4,0,0.7-0.3,0.7-0.7L49.5,42.6z"/>
<path class="st0" d="M39.9,8.1c0,1.6,1.5,1.5,2.2,1.5l7.4,0l0-0.1c0-0.2-0.1-0.2-0.4-0.6l-8-7.6c-0.4-0.4-0.4-0.4-0.7-0.5l-0.5,0
	L39.9,8.1z"/>
<path class="st3" d="M49.1,9l-8-7.6c-0.4-0.4-0.4-0.4-0.7-0.5l-0.5,0l0,7.2c0,1.6,0-0.2,0,1.5l9.6,0l0-0.1C49.5,9.3,49.4,9.3,49.1,9
	"/>
<g>
	<path class="st4" d="M13,36.5l2.5,0l-0.1,6.9c0,2.2-1.4,3.3-3.4,3.3c-2.1,0-3.5-1.3-3.5-3.5l2.5,0c0,0.9,0.4,1.3,1,1.3
		c0.6,0,0.9-0.4,1-1.1L13,36.5z"/>
	<path class="st4" d="M20.6,46.8c-2.2,0-3.9-1.1-3.9-3.2l2.6,0c0.1,0.8,0.6,1.2,1.2,1.2c0.7,0,1.2-0.4,1.2-0.9c0-1.9-5.1-0.9-5-4.5
		c0-1.9,1.6-3,3.7-3c2.2,0,3.7,1.1,3.8,3.1l-2.7,0c0-0.7-0.5-1-1.2-1.1c-0.6,0-1,0.3-1.1,0.9c0,1.8,5,1,5,4.4
		C24.4,45.4,23,46.8,20.6,46.8z"/>
	<path class="st4" d="M30.3,46.9c-2.9,0-5.2-2.2-5.2-5.3c0-3.1,2.4-5.2,5.3-5.2c2.9,0,5.2,2.2,5.2,5.3S33.2,46.9,30.3,46.9z
		 M30.3,44.6c1.6,0,2.7-1.1,2.7-2.9c0-1.8-1-3-2.7-3c-1.7,0-2.7,1.1-2.7,2.9C27.6,43.4,28.6,44.6,30.3,44.6z"/>
	<path class="st4" d="M45.6,36.8L45.5,47l-2.5,0L39,40.6l-0.1,6.3l-2.5,0l0.1-10.2l2.5,0l4.1,6.3l0.1-6.3L45.6,36.8z"/>
</g>
<g>
	<path class="st4" d="M20.2,16.9l0-4c0-0.6,0.5-1,1-1c0.6,0,1-0.4,1-1s-0.4-1-1-1c-1.7,0-3,1.3-3,3l0,4c0,1.1-0.9,2-2,2
		c-0.6,0-1,0.4-1,1s0.4,1,1,1c1.1,0,2,0.9,2,2l0,4c0,1.7,1.3,3,3,3c0.6,0,1-0.4,1-1s-0.4-1-1-1c-0.6,0-1-0.5-1-1l0-4
		c0-1.2-0.5-2.3-1.4-3C19.7,19.1,20.2,18,20.2,16.9z"/>
	<circle class="st4" cx="28.2" cy="16.4" r="1.5"/>
	<path class="st4" d="M40.2,19c-1.1,0-2-0.9-2-2l0-4c0-1.7-1.3-3-3-3c-0.6,0-1,0.4-1,1s0.4,1,1,1c0.6,0,1,0.5,1,1l0,4
		c0,1.2,0.5,2.3,1.4,3c-0.8,0.7-1.4,1.8-1.4,3l0,4c0,0.6-0.5,1-1,1c-0.6,0-1,0.4-1,1c0,0.6,0.4,1,1,1c1.7,0,3-1.3,3-3l0-4
		c0-1.1,0.9-2,2-2c0.6,0,1-0.4,1-1C41.2,19.5,40.7,19.1,40.2,19z"/>
	<path class="st4" d="M28.2,21.9c-0.6,0-1,0.4-1,1l0,3c0,0.6,0.4,1,1,1c0.6,0,1-0.4,1-1l0-3C29.2,22.4,28.7,21.9,28.2,21.9z"/>
</g>
</svg>
