<?xml version="1.0" encoding="UTF-8"?>
<svg id="Layer_1" data-name="Layer 1" xmlns="http://www.w3.org/2000/svg" viewBox="0 0 512 512">
  <defs>
    <style>
      .cls-1 {
        fill: #00adee;
      }

      .cls-2 {
        fill: #f6921e;
      }

      .cls-3 {
        fill: #ce8449;
      }

      .cls-4 {
        fill: #12284c;
      }

      .cls-5 {
        fill: none;
        stroke: #fff;
        stroke-miterlimit: 10;
        stroke-width: 1.56px;
      }
    </style>
  </defs>
  <path class="cls-3" d="m479.66,368.54H32.34v-224.08h447.63v224.08h-.31Zm-32.39-250.27H19.17c-7.27,0-13.17,5.9-13.17,13.17v250.27c0,7.27,5.9,13.17,13.17,13.17h473.66c7.27,0,13.17-5.9,13.17-13.17v-250.42c0-7.27-5.9-13.17-13.17-13.17h-45.56v.15Z"/>
  <path class="cls-5" d="m479.66,368.54H32.34v-224.08h447.63v224.08h-.31Zm-32.39-250.27H19.17c-7.27,0-13.17,5.9-13.17,13.17v250.27c0,7.27,5.9,13.17,13.17,13.17h473.66c7.27,0,13.17-5.9,13.17-13.17v-250.42c0-7.27-5.9-13.17-13.17-13.17h-45.56v.15Z"/>
  <path class="cls-1" d="m92.75,271.75l11.56,5.64v-18.07h-28.55v18.07l11.55-5.64c1.74-.84,3.71-.84,5.44,0Z"/>
  <path class="cls-2" d="m141.78,259.32h-24.15v29.27c0,2.47-1.14,4.75-3.04,6.09-1.87,1.31-4.31,1.52-6.34.54l-18.22-8.89-18.22,8.89c-2.09,1-4.46.8-6.35-.54-1.9-1.34-3.03-3.61-3.03-6.09v-29.27h-24.15v102.21h103.5v-102.21Zm-68.39,90.65h-13.58v-14.52h13.58v14.52Zm23.44,0h-13.58v-14.52h13.58v14.52Zm23.43,0h-13.58v-14.52h13.58v14.52Z"/>
  <rect class="cls-4" x="59.81" y="335.45" width="13.58" height="14.52"/>
  <rect class="cls-4" x="83.25" y="335.45" width="13.58" height="14.52"/>
  <rect class="cls-4" x="106.68" y="335.45" width="13.58" height="14.52"/>
  <path class="cls-1" d="m202.4,271.75l11.56,5.64v-18.07h-28.55v18.07l11.55-5.64c1.74-.84,3.71-.84,5.44,0Z"/>
  <path class="cls-2" d="m251.43,259.32h-24.15v29.27c0,2.47-1.14,4.75-3.04,6.09-1.87,1.31-4.31,1.52-6.34.54l-18.22-8.89-18.22,8.89c-2.09,1-4.46.8-6.35-.54-1.9-1.34-3.03-3.61-3.03-6.09v-29.27h-24.15v102.21h103.5v-102.21Zm-68.39,90.65h-13.58v-14.52h13.58v14.52Zm23.44,0h-13.58v-14.52h13.58v14.52Zm23.43,0h-13.58v-14.52h13.58v14.52Z"/>
  <rect class="cls-4" x="169.46" y="335.45" width="13.58" height="14.52"/>
  <rect class="cls-4" x="192.89" y="335.45" width="13.58" height="14.52"/>
  <rect class="cls-4" x="216.32" y="335.45" width="13.58" height="14.52"/>
</svg>