<?xml version="1.0" encoding="utf-8"?>
<!-- Generator: Adobe Illustrator 27.3.0, SVG Export Plug-In . SVG Version: 6.00 Build 0)  -->
<svg version="1.1" id="Capa_1" xmlns="http://www.w3.org/2000/svg" xmlns:xlink="http://www.w3.org/1999/xlink" x="0px" y="0px"
	 viewBox="0 0 512 512" style="enable-background:new 0 0 512 512;" xml:space="preserve">
<style type="text/css">
	.st0{fill:#25B04B;}
	.st1{fill:#17562C;}
	.st2{fill:none;}
	.st3{fill:#FDCD07;}
	.st4{fill:#FBB816;}
	.st5{fill:#FFFFFF;}
	.st6{fill:#E8ECF3;}
</style>
<path class="st0" d="M434.1,434.1c-98.5,98.5-257.6,98.5-356.1,0s-98.7-257.6-0.1-356.2s257.6-98.5,356.1,0S532.6,335.6,434.1,434.1
	z"/>
<path class="st1" d="M434.1,434.1c-98.5,98.5-257.6,98.5-356.1,0L434.1,78C532.6,176.5,532.6,335.6,434.1,434.1z"/>
<g>
	<g>
		<path class="st2" d="M181.7,271.8l-38.4,38.4c-14.9,14.9-14.9,39.2,0,54.1c14.9,14.9,39.2,14.9,54.1,0l38.4-38.4
			c-12.2-4.2-23.6-11.2-33.2-20.9C192.9,295.3,186,283.9,181.7,271.8L181.7,271.8z"/>
	</g>
	<g>
		<path class="st2" d="M321.5,240.2l38.4-38.4c14.9-14.9,14.9-39.2,0-54.1c-14.9-14.9-39.2-14.9-54.1,0l-38.4,38.4
			c12.2,4.2,23.6,11.2,33.2,20.9C310.3,216.7,317.3,228.1,321.5,240.2L321.5,240.2z"/>
	</g>
	<g>
		
			<ellipse transform="matrix(0.7071 -0.7071 0.7071 0.7071 -107.3337 252.8736)" class="st2" cx="251.6" cy="256" rx="19.6" ry="33.4"/>
	</g>
	<g>
		<path class="st3" d="M267.4,186.1l-29.6,29.6c-4.8,4.8-8,10.5-9.8,16.6c12.9-3.6,27.3-0.4,37.5,9.8c10.1,10.1,13.4,24.6,9.8,37.5
			c-1.7,6.1-5,11.8-9.8,16.6l-29.6,29.6l-38.4,38.4c-14.9,14.9-39.2,14.9-54.1,0c-14.9-14.9-14.9-39.2,0-54.1l38.4-38.4
			c-8.7-25.2-5.7-53.6,9.1-76.6c-5.2,3.3-10.1,7.3-14.6,11.8L108.2,275c-34.3,34.3-34.3,90.1,0,124.4s90.1,34.3,124.4,0l68.1-68.1
			c4.5-4.5,8.5-9.4,11.8-14.6c14.8-23,17.8-51.4,9.1-76.6c-4.2-12.2-11.2-23.6-20.9-33.2C291,197.3,279.6,190.3,267.4,186.1
			L267.4,186.1z"/>
	</g>
	<g>
		<path class="st4" d="M265.5,242.1c10.1,10.1,13.4,24.6,9.8,37.5c-1.7,6.1-5,11.8-9.8,16.6l-29.6,29.6l-38.4,38.4
			c-14.9,14.9-39.2,14.9-54.1,0c-0.2-0.2-0.5-0.5-0.7-0.7l-35.1,35.2c0.2,0.2,0.4,0.5,0.7,0.7c34.3,34.3,90.1,34.3,124.4,0
			l68.1-68.1c4.5-4.5,8.5-9.4,11.8-14.6c14.8-23,17.8-51.4,9.1-76.6c-4.2-12.2-11.2-23.6-20.9-33.2L265.5,242.1z"/>
	</g>
	<g>
		<path class="st5" d="M270.7,112.5l-68.1,68.1c-4.5,4.5-8.5,9.4-11.8,14.6c-14.8,23-17.8,51.4-9.1,76.6
			c4.2,12.2,11.2,23.6,20.9,33.2c9.7,9.7,21.1,16.6,33.2,20.9l29.6-29.6c4.8-4.8,8-10.5,9.8-16.6c-12.9,3.6-27.3,0.4-37.5-9.8
			c-10.1-10.1-13.4-24.6-9.8-37.5c1.7-6.1,5-11.8,9.8-16.6l29.6-29.6l38.4-38.4c14.9-14.9,39.2-14.9,54.1,0
			c14.9,14.9,14.9,39.2,0,54.1l-38.4,38.4c8.7,25.2,5.7,53.6-9.1,76.6c5.2-3.3,10.1-7.3,14.6-11.8l68.1-68.1
			c34.3-34.3,34.3-90.1,0-124.4S305,78.2,270.7,112.5L270.7,112.5z"/>
	</g>
	<g>
		<path class="st6" d="M202.6,305c9.7,9.7,21.1,16.6,33.2,20.9l29.6-29.6c4.8-4.8,8-10.5,9.8-16.6c-12.9,3.6-27.3,0.4-37.5-9.8
			L202.6,305z"/>
		<path class="st6" d="M359.9,147.7c14.9,14.9,14.9,39.2,0,54.1l-38.4,38.4c8.7,25.2,5.7,53.6-9.1,76.6c5.2-3.3,10.1-7.3,14.6-11.8
			l68.1-68.1c34.3-34.3,34.3-90.1,0-124.4L359.9,147.7z"/>
	</g>
</g>
</svg>
