<?xml version="1.0" encoding="utf-8"?>
<!-- Generator: Adobe Illustrator 27.3.0, SVG Export Plug-In . SVG Version: 6.00 Build 0)  -->
<svg version="1.1" id="Layer_1" xmlns="http://www.w3.org/2000/svg" xmlns:xlink="http://www.w3.org/1999/xlink" x="0px" y="0px"
	 viewBox="0 0 512 512" style="enable-background:new 0 0 512 512;" xml:space="preserve">
<style type="text/css">
	.st0{fill:#EFEEEE;}
	.st1{fill:#25B04B;}
	.st2{fill:#FFFFFF;}
	.st3{fill:#BE202E;}
	.st4{fill:#4FC3CB;}
	.st5{fill:#07B4C0;}
	.st6{fill:#112A4C;}
</style>
<rect x="103.3" y="58.2" class="st0" width="379.7" height="181.7"/>
<rect x="103.3" y="288.2" class="st0" width="379.7" height="181.7"/>
<rect x="31.2" y="283" class="st1" width="150.7" height="184.9"/>
<path class="st2" d="M154.4,354.8l-47.2,47.5l-12.7,12.7l-34.4-34.7l17.8-17.8l16.6,16.3l12.7-12.7l29.3-29.1L154.4,354.8z"/>
<rect x="31.2" y="55" class="st3" width="150.7" height="184.9"/>
<g>
	<path class="st4" d="M34.3,427.2V326.3H6.4v100.9c-0.2,27.5,21.5,50.7,50.1,53.5H260v-26.8H59.3C45,452.5,34.2,441,34.3,427.2z"/>
	<path class="st5" d="M456.9,480.7c29.1-2.2,51.5-25.5,51.5-53.5v-53.5c0-7.4-6.2-13.4-13.9-13.4s-13.9,6-13.9,13.4v53.5
		c0,14.3-11.6,26.1-26.5,26.8H260v26.8H456.9z"/>
</g>
<g>
	<path class="st4" d="M480.4,323.6v100.9h27.9V323.6c0.2-27.5-21.5-50.7-50.1-53.5H254.7v26.8h200.7
		C469.6,298.3,480.5,309.8,480.4,323.6z"/>
	<path class="st5" d="M57.8,270.1c-29.1,2.2-51.5,25.5-51.5,53.5v53.5c0,7.4,6.2,13.4,13.9,13.4s13.9-6,13.9-13.4v-53.5
		c0-14.3,11.6-26.1,26.5-26.8h193.9v-26.8H57.8z"/>
</g>
<g>
	<path class="st4" d="M31.6,200.8V99.9H3.7v100.9c-0.2,27.5,21.5,50.7,50.1,53.5h203.6v-26.8H56.7C42.4,226.1,31.5,214.5,31.6,200.8
		z"/>
	<path class="st5" d="M454.2,254.3c29.1-2.2,51.5-25.5,51.5-53.5v-53.5c0-7.4-6.2-13.4-13.9-13.4s-13.9,6-13.9,13.4v53.5
		c0,14.3-11.6,26.1-26.5,26.8H257.3v26.8H454.2z"/>
</g>
<g>
	<path class="st4" d="M477.7,97.2v100.9h27.9V97.2c0.2-27.5-21.5-50.7-50.1-53.5H252v26.8h200.7C467,71.8,477.8,83.4,477.7,97.2z"/>
	<path class="st5" d="M55.1,43.7C26,45.9,3.6,69.2,3.7,97.2v53.5c0,7.4,6.2,13.4,13.9,13.4s13.9-6,13.9-13.4V97.2
		c0-14.3,11.6-26.1,26.5-26.8H252V43.7H55.1z"/>
</g>
<rect x="49.1" y="136.9" transform="matrix(0.7071 0.7071 -0.7071 0.7071 135.7647 -33.8326)" class="st2" width="119.3" height="20.1"/>
<rect x="49.1" y="136.9" transform="matrix(0.7071 -0.7071 0.7071 0.7071 -72.0769 119.9234)" class="st2" width="119.3" height="20.1"/>
<path class="st6" d="M454.6,138l-250.8,2.4c-0.1-8.2,0-3.6-0.1-8.2c0-4.5-0.1-8.2-0.1-8.2l250.8-2.4c0.1,8.2,0,3.6,0.1,8.2
	C454.6,134.4,454.5,129.8,454.6,138"/>
<path class="st6" d="M454.6,181.2l-250.8,2.4c-0.1-8.2,0-3.6-0.1-8.2c0-4.5-0.1-8.2-0.1-8.2l250.8-2.4c0.1,8.2,0,3.6,0.1,8.2
	C454.6,177.6,454.5,173,454.6,181.2"/>
<path class="st6" d="M454.6,360.8l-250.8,2.4c-0.1-8.2,0-3.6-0.1-8.2c0-4.5-0.1-8.2-0.1-8.2l250.8-2.4c0.1,8.2,0,3.6,0.1,8.2
	C454.6,357.2,454.5,352.6,454.6,360.8"/>
<path class="st6" d="M454.6,404.1l-250.8,2.4c-0.1-8.2,0-3.6-0.1-8.2c0-4.5-0.1-8.2-0.1-8.2l250.8-2.4c0.1,8.2,0,3.6,0.1,8.2
	C454.6,400.4,454.5,395.8,454.6,404.1"/>
</svg>
