<?xml version="1.0" encoding="utf-8"?>
<!-- Generator: Adobe Illustrator 27.3.0, SVG Export Plug-In . SVG Version: 6.00 Build 0)  -->
<svg version="1.1" id="Layer_1" xmlns="http://www.w3.org/2000/svg" xmlns:xlink="http://www.w3.org/1999/xlink" x="0px" y="0px"
	 viewBox="0 0 464 464" style="enable-background:new 0 0 464 464;" xml:space="preserve">
<style type="text/css">
	.st0{fill:#A31D29;}
	.st1{fill:#BE202E;}
	.st2{fill:#FFFFFF;}
	.st3{fill:none;stroke:#FFFFFF;stroke-width:1.536;stroke-miterlimit:10;}
</style>
<path class="st0" d="M4.8,350C5.2,367.1,19,380.7,36,380.7h423.3v-31.4V215.4L4.8,350z"/>
<path class="st1" d="M459.3,129.8c0-17.3-14-31.4-31.4-31.4H4.8c0,29.7-0.1,14-0.1,31.4v219.5c0,0.2,0.1,0.5,0.1,0.7l454.6-134.6
	V129.8z"/>
<g>
	<path class="st2" d="M113,190.9v83.6h32.9v19.4H87.9v-103H113z"/>
	<path class="st2" d="M157.9,190.9H183v103h-25.1V190.9z"/>
	<path class="st2" d="M271.3,190.9h26.6l-36.5,103h-31.4l-36.5-103h26.7l25.5,77.7L271.3,190.9z"/>
	<path class="st2" d="M371.3,211h-38v20.8h33.6v19.4h-33.6v22.6h38v20.1h-63.1v-103h63.1V211z"/>
</g>
<path class="st3" d="M427.2,100.7H7.1c0,29.7-0.1,14-0.1,31.4v219.5c0,0.2,0.1,0.5,0.1,0.7c0.4,17.1,14.7,30.7,31.5,30.7H457v-31.4
	v-134v-87.2C457,113.2,444.3,100.7,427.2,100.7z"/>
</svg>
