<?xml version="1.0" encoding="utf-8"?>
<!-- Generator: Adobe Illustrator 27.3.0, SVG Export Plug-In . SVG Version: 6.00 Build 0)  -->
<svg version="1.1" id="Layer_1" xmlns="http://www.w3.org/2000/svg" xmlns:xlink="http://www.w3.org/1999/xlink" x="0px" y="0px"
	 viewBox="0 0 512 512" style="enable-background:new 0 0 512 512;" xml:space="preserve">
<style type="text/css">
	.st0{fill:#25B04B;}
	.st1{fill:#FFFFFF;}
	.st2{fill:#BE202E;}
	.st3{fill:#A31D29;}
	.st4{fill:#17562C;}
</style>
<path class="st0" d="M256,506C154.8,506,4.3,487.6,4.3,436.8c0-35.2,69.1-52.5,127-60.9c5.9-0.7,11.3,3.5,12,9.4
	c0.7,5.7-3.2,10.9-8.9,11.9c-79.1,11.4-108.5,30.3-108.5,39.6c0,16.2,81.2,47.7,230.2,47.7s230.2-31.5,230.2-47.7
	c0-8.6-30-30.1-122.9-41.5c-5.9-0.9-10-6.3-9.1-12.2c0.8-5.7,6-9.7,11.7-9.2c53,6.5,141.8,23.3,141.8,62.9
	C507.7,487.6,357.2,506,256,506z"/>
<g>
	<path class="st1" d="M314.2,169.4c0-30-25.3-54.4-56.3-54.4v108.8C289,223.8,314.2,199.4,314.2,169.4z"/>
	<path class="st2" d="M350.4,169.4c0,49.3-41.5,89.3-92.5,89.3v139.9l101.4-168.3c21.7-36,22.7-79.7,2.7-117.1
		c-18.8-35.1-52.3-57.3-91.9-60.7c-4-0.4-8.1-0.5-12.2-0.5v28.2C308.9,80.1,350.4,120.2,350.4,169.4z"/>
	<path class="st0" d="M394.1,97.2c-24.6-46-68.6-74.9-120.8-79.5c-5.1-0.4-10.3-0.7-15.4-0.7v34.9c4.1,0,8.2,0.2,12.2,0.5
		c39.6,3.4,73.1,25.6,91.9,60.7c20,37.3,19,81.1-2.7,117.1L257.9,398.6v52.2c6.4,0,12.4-3.3,15.6-8.7l117-194.3
		C418.5,201.5,419.8,145.2,394.1,97.2z"/>
	<path class="st2" d="M350.4,169.4c0-49.2-41.5-89.3-92.5-89.3V115c31,0,56.3,24.4,56.3,54.4c0,30-25.3,54.4-56.3,54.4v34.9
		C308.9,258.7,350.4,218.7,350.4,169.4z"/>
	<path class="st1" d="M201.6,169.4c0,30,25.3,54.4,56.3,54.4c0,0,0,0,0,0V115c0,0,0,0,0,0C226.9,115,201.6,139.4,201.6,169.4z"/>
	<path class="st3" d="M245.7,52.5c-39.6,3.4-73.1,25.6-91.9,60.7c-20,37.3-19,81.1,2.7,117.1l101.4,168.3l0,0V258.7c0,0,0,0,0,0
		c-51,0-92.5-40.1-92.5-89.3c0-49.3,41.5-89.3,92.5-89.3c0,0,0,0,0,0V51.9c0,0,0,0,0,0C253.8,51.9,249.7,52.1,245.7,52.5z"/>
	<path class="st4" d="M257.9,398.6L156.5,230.3c-21.7-36-22.7-79.7-2.7-117.1c18.8-35.1,52.3-57.3,91.9-60.7c4-0.4,8.1-0.5,12.2-0.5
		c0,0,0,0,0,0V17c-5.2,0-10.3,0.2-15.5,0.7c-52.2,4.6-96.2,33.5-120.8,79.5c-25.7,48-24.3,104.3,3.6,150.7l117,194.3
		c3.2,5.4,9.2,8.7,15.6,8.7c0,0,0,0,0,0L257.9,398.6L257.9,398.6z"/>
	<path class="st3" d="M257.9,223.8c-31,0-56.3-24.4-56.3-54.4c0-30,25.3-54.4,56.3-54.4c0,0,0,0,0,0V80.1c0,0,0,0,0,0
		c-51,0-92.5,40.1-92.5,89.3c0,49.3,41.5,89.3,92.5,89.3c0,0,0,0,0,0L257.9,223.8C257.9,223.8,257.9,223.8,257.9,223.8z"/>
</g>
</svg>
