<?xml version="1.0" encoding="utf-8"?>
<!-- Generator: Adobe Illustrator 27.3.0, SVG Export Plug-In . SVG Version: 6.00 Build 0)  -->
<svg version="1.1" id="Layer_1" xmlns="http://www.w3.org/2000/svg" xmlns:xlink="http://www.w3.org/1999/xlink" x="0px" y="0px"
	 viewBox="0 0 512 512" style="enable-background:new 0 0 512 512;" xml:space="preserve">
<style type="text/css">
	.st0{fill:#DBE5EA;}
	.st1{fill:#BE202E;}
	.st2{fill:#AECAD5;}
	.st3{opacity:0.4;fill:url(#SVGID_1_);}
	.st4{fill:#FFFFFF;}
	.st5{fill-rule:evenodd;clip-rule:evenodd;fill:#BE202E;}
</style>
<path class="st0" d="M161.2,255.5c0,42.2,34.4,76.6,76.6,76.6c26,0,50.1-13.1,64.3-34.9c3.3-5,8.9-7.5,14.5-7
	c-4.9-6.2-9.7-12.5-14.6-19h-8.1c-8.6,0-15.7-7.1-15.7-15.7c0-4.4,1.8-8.3,4.7-11.2c-13.7-20.2-27.2-41.9-40.4-65.3
	c-1.6-0.1-3.1-0.1-4.7-0.1C195.6,178.9,161.2,213.3,161.2,255.5z"/>
<path class="st0" d="M448.6,417c-38.6-27.4-78.7-63-117.8-109.4c-0.3,2.3-1,4.6-2.4,6.8c-19.9,30.8-53.8,49.2-90.6,49.2
	c-59.6,0-108.1-48.5-108.1-108.1c0-55.6,42.2-101.4,96.1-107.4C206,109.5,187,66.7,169.5,19.3C73.3,54.7,4.5,147.2,4.5,255.5
	C4.5,394.2,117.3,507,256,507C333.3,507,402.4,472,448.6,417z"/>
<path class="st1" d="M302.1,297.3c-14.1,21.8-38.2,34.9-64.3,34.9c-42.2,0-76.6-34.4-76.6-76.6s34.4-76.6,76.6-76.6
	c1.6,0,3.1,0.1,4.7,0.1c-5.6-10-11.1-20.3-16.6-30.9c-54,6-96.1,51.8-96.1,107.4c0,59.5,48.4,108.1,108.1,108.1
	c36.7,0,70.6-18.4,90.6-49.2c1.4-2.1,2.1-4.4,2.4-6.8c-4.8-5.6-9.5-11.4-14.2-17.4C311,289.8,305.3,292.2,302.1,297.3z"/>
<path class="st2" d="M237.8,147.4c36.7,0,70.6,18.4,90.6,49.2c4.7,7.3,2.7,17-4.6,21.7c-7.3,4.7-17,2.7-21.7-4.6
	c-13.3-20.6-35.3-33.3-59.6-34.7c13.1,23.4,26.6,45.1,40.4,65.3c2.8-2.8,6.7-4.6,11-4.6h72.6c8.6,0,15.7,7.1,15.7,15.7
	c0,8.6-7.1,15.7-15.7,15.7H302c4.8,6.5,9.7,12.9,14.6,19c2.5,0.2,5,0.9,7.2,2.4c5.2,3.4,7.6,9.2,7,15C369.9,354,410,389.7,448.6,417
	c36.7-43.7,58.9-100.1,58.9-161.5C507.5,116.8,394.7,4,256,4c-30.4,0-59.5,5.4-86.5,15.3c17.5,47.4,36.5,90.2,56.4,128.8
	C229.8,147.7,233.8,147.4,237.8,147.4z"/>
<linearGradient id="SVGID_1_" gradientUnits="userSpaceOnUse" x1="-712.0408" y1="719.655" x2="-84.4169" y2="719.655" gradientTransform="matrix(0 1 -1 0 1058.1542 577.6929)">
	<stop  offset="0" style="stop-color:#352713"/>
	<stop  offset="0.1392" style="stop-color:#392B16"/>
	<stop  offset="0.2788" style="stop-color:#45371F"/>
	<stop  offset="0.4187" style="stop-color:#584B2E"/>
	<stop  offset="0.5588" style="stop-color:#736743"/>
	<stop  offset="0.6992" style="stop-color:#968C5F"/>
	<stop  offset="0.8398" style="stop-color:#C1B880"/>
	<stop  offset="0.9782" style="stop-color:#F3ECA7"/>
	<stop  offset="1" style="stop-color:#FCF5AE"/>
</linearGradient>
<path class="st3" d="M237.8,147.4c36.7,0,70.6,18.4,90.6,49.2c4.7,7.3,2.7,17-4.6,21.7c-7.3,4.7-17,2.7-21.7-4.6
	c-13.3-20.6-35.3-33.3-59.6-34.7c13.1,23.4,26.6,45.1,40.4,65.3c2.8-2.8,6.7-4.6,11-4.6h72.6c8.6,0,15.7,7.1,15.7,15.7
	c0,8.6-7.1,15.7-15.7,15.7H302c4.8,6.5,9.7,12.9,14.6,19c2.5,0.2,5,0.9,7.2,2.4c5.2,3.4,7.6,9.2,7,15C369.9,354,410,389.7,448.6,417
	c36.7-43.7,58.9-100.1,58.9-161.5C507.5,116.8,394.7,4,256,4c-30.4,0-59.5,5.4-86.5,15.3c17.5,47.4,36.5,90.2,56.4,128.8
	C229.8,147.7,233.8,147.4,237.8,147.4z"/>
<path class="st4" d="M302.1,213.7c4.7,7.3,14.4,9.3,21.7,4.6c7.3-4.7,9.3-14.4,4.6-21.7c-19.9-30.8-53.8-49.2-90.6-49.2
	c-4,0-8,0.2-11.9,0.7c5.5,10.6,11,20.9,16.6,30.9C266.7,180.5,288.8,193.2,302.1,213.7z"/>
<path class="st1" d="M302.1,213.7c4.7,7.3,14.4,9.3,21.7,4.6c7.3-4.7,9.3-14.4,4.6-21.7c-19.9-30.8-53.8-49.2-90.6-49.2
	c-4,0-8,0.2-11.9,0.7c5.5,10.6,11,20.9,16.6,30.9C266.7,180.5,288.8,193.2,302.1,213.7z"/>
<path class="st4" d="M323.8,292.6c-2.2-1.5-4.7-2.2-7.2-2.4c4.7,6,9.5,11.7,14.2,17.4C331.4,301.9,329,296,323.8,292.6z"/>
<path class="st1" d="M323.8,292.6c-2.2-1.5-4.7-2.2-7.2-2.4c4.7,6,9.5,11.7,14.2,17.4C331.4,301.9,329,296,323.8,292.6z"/>
<path class="st5" d="M262.2,239.5h108.7c8.7,0,15.9,7.1,15.9,15.9c0,8.7-7.1,15.9-15.9,15.9H262.2c-8.7,0-15.9-7.1-15.9-15.9
	C246.3,246.6,253.5,239.5,262.2,239.5z"/>
<polygon class="st1" points="362.2,206.2 411.3,255.3 362.2,304.5 "/>
<g>
	<path class="st1" d="M258.7,474.9C137.5,474.9,39,376.3,39,255.2c0-121.1,98.6-219.7,219.7-219.7c121.1,0,219.7,98.6,219.7,219.7
		C478.4,376.3,379.8,474.9,258.7,474.9z M258.7,48.8c-113.8,0-206.4,92.6-206.4,206.4s92.6,206.4,206.4,206.4S465.1,369,465.1,255.2
		S372.5,48.8,258.7,48.8z"/>
</g>
</svg>
