<?xml version="1.0" encoding="UTF-8"?>
<svg id="Layer_1" data-name="Layer 1" xmlns="http://www.w3.org/2000/svg" viewBox="0 0 512 512">
  <defs>
    <style>
      .cls-1 {
        fill: #f1cc31;
      }

      .cls-2 {
        fill: #fdf3f4;
      }

      .cls-3 {
        fill: #07b2bf;
      }

      .cls-4 {
        fill: #4fc3cb;
      }
    </style>
  </defs>
  <path class="cls-4" d="m506.5,255.5c0,73.31-31.5,139.27-81.69,185.08-44.53,40.63-103.77,65.42-168.81,65.42s-124.27-24.78-168.81-65.42C37,394.77,5.5,328.81,5.5,255.5,5.5,117.16,117.66,5,256,5s250.5,112.16,250.5,250.5Z"/>
  <path class="cls-3" d="m506.5,255.5c0,73.31-31.5,139.27-81.69,185.08-44.53,40.63-103.77,65.42-168.81,65.42V5c138.34,0,250.5,112.16,250.5,250.5Z"/>
  <g>
    <path class="cls-2" d="m261.56,142.85c0,3.56,2.43,6.54,5.78,7.59v-15.19c-3.35,1.05-5.78,4.03-5.78,7.59Z"/>
    <path class="cls-2" d="m147.06,384.19c-8.57-.83-15.09-7.78-15.04-16.04v-193.21h135.31v-24.5c-3.35-1.05-5.78-4.03-5.78-7.59s2.43-6.54,5.78-7.59v-24.5h-126.95c-13.85,0-25.07,10.77-25.07,24.07v233.32c-.09,16.51,12.89,30.39,30,32.09h122.02v-16.04h-120.27Zm66.77-249.36s.05,0,.09,0h1.67c4.62-.25,8.56,3.15,8.82,7.58.26,4.43-3.28,8.22-7.9,8.46h-.92c-4.59.46-8.7-2.73-9.19-7.14,0-.03,0-.05,0-.08-.48-4.41,2.84-8.35,7.43-8.82Zm-33.43,0s.05,0,.09,0h1.67c4.62-.25,8.56,3.15,8.82,7.58.26,4.43-3.28,8.22-7.9,8.46h-.92c-4.59.46-8.7-2.73-9.19-7.14,0-.03,0-.05,0-.08-.48-4.41,2.84-8.35,7.43-8.82Zm-33.26,0h1.59c4.62-.25,8.56,3.15,8.82,7.58s-3.28,8.22-7.9,8.46h-.92c-4.62,0-8.36-3.59-8.36-8.02-.07-3.9,2.78-7.28,6.77-8.02Z"/>
    <path class="cls-2" d="m416.16,368.15v-14.2c0-4.43-3.74-8.02-8.36-8.02s-8.36,3.59-8.36,8.02v14.2c.01,8.56-6.97,15.61-15.88,16.04h-116.23v16.04h117.99c17.44-1.3,30.89-15.29,30.84-32.09Z"/>
    <path class="cls-2" d="m269.91,134.83h104.46c4.62,0,8.36,3.59,8.36,8.02s-3.74,8.02-8.36,8.02h-104.46c-.91,0-1.76-.17-2.58-.43v24.5h132.1v23.08c0,4.43,3.74,8.02,8.36,8.02,3.21,0,6.14-1.79,7.52-4.57.52-1.08.81-2.26.84-3.45v-63.2c0-13.29-11.22-24.07-25.07-24.07h-123.75v24.5c.82-.26,1.67-.43,2.58-.43Z"/>
  </g>
  <path class="cls-1" d="m427.78,287.83c.12-.28.21-.57.31-.85.18-.47.35-.94.5-1.43.05-.15.08-.31.12-.46.58-2.06.91-4.23.91-6.47s-.33-4.41-.91-6.48c-.04-.15-.07-.3-.12-.45-.15-.49-.33-.97-.5-1.44-.1-.28-.19-.56-.31-.83-.15-.35-.32-.69-.48-1.04-.18-.39-.35-.77-.56-1.15-.12-.22-.26-.43-.39-.65-.27-.47-.54-.94-.85-1.4-.06-.1-.14-.18-.21-.28-.81-1.17-1.71-2.29-2.75-3.33l-52.53-52.54c-4.55-4.56-10.61-7.07-17.05-7.07s-12.5,2.51-17.05,7.07c-9.4,9.4-9.41,24.7,0,34.1l11.37,11.38h-151.95c-13.3,0-24.12,10.82-24.12,24.12s10.82,24.12,24.12,24.12h151.94l-12.35,12.35c-4.55,4.56-7.06,10.61-7.06,17.05s2.51,12.49,7.06,17.05c9.4,9.4,24.7,9.4,34.1,0l53.51-53.51c1.06-1.06,1.99-2.21,2.81-3.41.04-.06.1-.12.14-.19.32-.47.6-.96.88-1.45.12-.2.25-.4.36-.61.21-.39.38-.78.57-1.18.16-.34.32-.67.47-1.01Z"/>
</svg>