<?xml version="1.0" encoding="utf-8"?>
<!-- Generator: Adobe Illustrator 27.3.0, SVG Export Plug-In . SVG Version: 6.00 Build 0)  -->
<svg version="1.1" id="Layer_1" xmlns="http://www.w3.org/2000/svg" xmlns:xlink="http://www.w3.org/1999/xlink" x="0px" y="0px"
	 viewBox="0 0 512 512" style="enable-background:new 0 0 512 512;" xml:space="preserve">
<style type="text/css">
	.st0{fill:#F6901E;}
	.st1{fill:#FBB132;}
	.st2{fill:#4FC3CB;}
	.st3{fill:#07B2BF;}
	.st4{fill:#F7E2C9;}
	.st5{fill:#FFFFFF;}
</style>
<path class="st0" d="M39.8,374.2h432.5c20.2-35.9,31.7-77.2,31.7-121.3C503.9,116,392.9,5,256,5S8.1,116,8.1,252.9
	C8.1,297,19.6,338.4,39.8,374.2z"/>
<path class="st0" d="M472.2,136.8H39.8C19.6,172.6,8.1,214,8.1,258.1C8.1,395,119.1,506,256,506s247.9-111,247.9-247.9
	C503.9,214,492.4,172.6,472.2,136.8z"/>
<path class="st1" d="M503.9,252.9c0-74.2-32.6-140.7-84.2-186.1c-22.6,17.8-45,44.2-33.4,76.3c20.6,56.9-72.5,92.8,31.4,134.1
	c38.5,15.3,62,31.2,76.4,45.1C500.5,300.2,503.9,277,503.9,252.9z"/>
<path class="st1" d="M8.1,252.9c0-74.2,32.6-140.7,84.2-186.1c22.6,17.8,45,44.2,33.4,76.3c-20.6,56.9,72.5,92.8-31.4,134.1
	c-38.5,15.3-62,31.2-76.4,45.1C11.5,300.2,8.1,277,8.1,252.9z"/>
<path class="st2" d="M431.5,415v90.7c-46.9,0-110.1,0-179.2,0s-104.1,0-179.2,0V415c0-77,48.9-142.9,117.2-168.1
	c19.3-7.1,40.2-11.1,61.9-11.1s42.6,3.9,62,11.1C382.6,272.1,431.5,338,431.5,415z"/>
<path class="st3" d="M431.5,415v90.7c-46.5,0-110.1,0-179.2,0V235.8c21.8,0,42.6,3.9,62,11.1C382.6,272.1,431.5,338,431.5,415z"/>
<path class="st4" d="M343.2,137.2c0,50.1-40.8,90.9-90.9,90.9c-50.1,0-90.9-40.8-90.9-90.9s40.8-90.9,90.9-90.9
	C302.5,46.3,343.2,87,343.2,137.2z"/>
<rect x="280.7" y="300.2" class="st5" width="70.7" height="42.3"/>
<circle class="st5" cx="252.3" cy="291.9" r="7.3"/>
<circle class="st5" cx="252.3" cy="342.6" r="7.3"/>
<circle class="st5" cx="252.3" cy="393.3" r="7.3"/>
<circle class="st5" cx="252.3" cy="439.9" r="7.3"/>
</svg>
