<?xml version="1.0" encoding="utf-8"?>
<!-- Generator: Adobe Illustrator 27.3.0, SVG Export Plug-In . SVG Version: 6.00 Build 0)  -->
<svg version="1.1" id="Layer_1" xmlns="http://www.w3.org/2000/svg" xmlns:xlink="http://www.w3.org/1999/xlink" x="0px" y="0px"
	 viewBox="0 0 512 512" style="enable-background:new 0 0 512 512;" xml:space="preserve">
<style type="text/css">
	.st0{fill:#25B04B;}
	.st1{fill:#17562C;}
	.st2{fill:#DBE5EA;}
	.st3{fill:#EFEEEE;}
	.st4{fill:#102A4C;}
	.st5{fill:#17578E;}
	.st6{fill:#004A68;}
</style>
<g id="g2013_00000060711657658582338330000018078041956734114966_" transform="matrix(1.3333333,0,0,-1.3333333,0,682.66667)">
	<g id="g2015_00000017504053309537955030000001044255227570325134_" transform="translate(0,470.1105)">
		<path id="path2017_00000028324471720358598890000014464139520785761939_" class="st0" d="M10.6-0.3v-89.3L192-98.5l8.8,35L192-0.3
			H10.6z"/>
	</g>
	<g id="g2019_00000090277996401456594600000001419247938579354000_" transform="translate(205.5381,470.1108)">
		<path id="path2021_00000065781011471917466150000013850781847051200410_" class="st1" d="M-13.5-0.3v-98.1l181.4,8.8v89.3H-13.5z"
			/>
	</g>
	<g id="g2023_00000063600930990233382650000006686703216561840304_">
		<g>
			<g>
				<g id="g2025_00000090254380365471710150000004515220963576723362_">
					<g id="g2031_00000143596224551672661400000015773962959656970907_" transform="translate(0,368.9092)">
						<path id="path2033_00000079462246638124672790000006591504383674369180_" class="st2" d="M10.6,11.5v-225.3
							c0-12.4,10.1-22.6,22.6-22.6H192l17.7,139.8L192,11.5H10.6z"/>
					</g>
					<g id="g2035_00000047058160178814773110000004547758742070871684_" transform="translate(205.5381,87.9688)">
						<path id="path2037_00000043423958365379130750000009379070264102638001_" class="st3" d="M-13.5,44.5h158.8
							c12.4,0,22.6,10.1,22.6,22.6v225.3H-13.5V44.5z"/>
					</g>
					<path id="path2039_00000102502379515545104410000001129674818543005861_" class="st4" d="M84.8,432.8H58.4v74h26.5V432.8z"/>
					<path id="path2041_00000132776762779390348400000003810536904094148285_" class="st4" d="M145,432.8h-26.5v74H145V432.8z"/>
					<path id="path2043_00000178184489899682285890000011174654301253407118_" class="st5" d="M265.4,432.8h-26.5v74h26.5V432.8z"/>
					<path id="path2045_00000127741744634415513310000016111150755131224197_" class="st5" d="M325.6,432.8h-26.5v74h26.5V432.8z"/>
					<g id="g2051_00000126308576209320912870000014619637476781755791_" transform="translate(190.5381,512)">
						<path id="path2053_00000121274109420726308980000003098106429815141250_" class="st4" d="M-11.8-5.2v-74H1.5l8.8,37l-8.8,37
							H-11.8z"/>
					</g>
					<path id="path2055_00000067944115931698149660000006887805859764314276_" class="st5" d="M205.2,506.8H192v-74h13.2V506.8z"/>
				</g>
			</g>
		</g>
	</g>
</g>
<g>
	<path class="st0" d="M35.4,272h25.2l24.6,60.6l24.3-60.6h25.1v87.6h-21.3v-52.5l-19.6,52.5H76.5l-19.7-52.7v52.7H35.4V272z"/>
	<path class="st0" d="M187.8,360.5c-24.8,0-45-18.6-45-44.9c0-26.3,20.2-44.8,45-44.8c25,0,44.8,18.5,44.8,44.8
		C232.6,341.9,212.6,360.5,187.8,360.5z M187.8,341c14,0,23.1-10.1,23.1-25.5c0-15.6-9.1-25.5-23.1-25.5c-14.2,0-23.2,9.9-23.2,25.5
		C164.6,330.9,173.5,341,187.8,341z"/>
	<path class="st0" d="M319.1,272v87.6h-21.3l-35.7-54v54h-21.3V272h21.3l35.7,54.3V272H319.1z"/>
	<path class="st0" d="M326.2,272H394v17.1h-23.2v70.5h-21.3v-70.5h-23.2V272z"/>
	<path class="st0" d="M455.6,323.5h-33.2v36.1h-21.3V272h21.3v34.3h33.2V272H477v87.6h-21.3V323.5z"/>
</g>
</svg>
