<?xml version="1.0" encoding="utf-8"?>
<!-- Generator: Adobe Illustrator 26.5.0, SVG Export Plug-In . SVG Version: 6.00 Build 0)  -->
<svg version="1.1" id="Layer_1" xmlns="http://www.w3.org/2000/svg" xmlns:xlink="http://www.w3.org/1999/xlink" x="0px" y="0px"
	 viewBox="0 0 650.88 290.45" style="enable-background:new 0 0 650.88 290.45;" xml:space="preserve">
<style type="text/css">
	.st0{fill:#12284C;}
	.st1{fill:#BE1E2D;}
	.st2{fill:#FFFFFF;}
	.st3{fill:none;}
</style>
<g>
	<path class="st1" d="M253.21,242.24h3.74l6.24,21.72h1.65l6.29-21.72h3.74l-10.39,36.05h-3.74l3.24-11.09h-3.7L253.21,242.24z"/>
	<path class="st1" d="M278.47,254.68c0-4.56,0.82-7.86,2.45-9.89c1.63-2.03,4.38-3.05,8.26-3.05s6.62,1.02,8.24,3.05
		c1.62,2.03,2.42,5.33,2.42,9.89c0,4.56-0.77,7.87-2.3,9.94c-1.53,2.06-4.33,3.1-8.39,3.1c-4.06,0-6.86-1.03-8.39-3.1
		C279.23,262.55,278.47,259.24,278.47,254.68z M282.31,254.6c0,3.64,0.44,6.2,1.32,7.66c0.88,1.46,2.73,2.2,5.54,2.2
		c2.81,0,4.65-0.72,5.52-2.17c0.87-1.45,1.3-4,1.3-7.66s-0.48-6.18-1.45-7.57c-0.96-1.38-2.75-2.07-5.37-2.07s-4.41,0.69-5.39,2.07
		C282.81,248.45,282.31,250.96,282.31,254.6z"/>
	<path class="st1" d="M321.41,242.24h3.74v24.97h-3.74v-1.75c-2.5,1.5-4.96,2.25-7.39,2.25c-3.4,0-5.65-0.88-6.77-2.65
		s-1.67-5.03-1.67-9.79v-13.03h3.74v12.98c0,3.63,0.32,6.06,0.95,7.29c0.63,1.23,2.06,1.85,4.29,1.85c1.1,0,2.21-0.16,3.34-0.48
		c1.13-0.32,2-0.62,2.6-0.92l0.9-0.45V242.24z"/>
	<path class="st1" d="M334.29,267.21v-24.97h3.7v3.4c2.9-2,5.94-3.31,9.14-3.95v3.79c-1.4,0.27-2.85,0.68-4.37,1.25
		c-1.51,0.57-2.67,1.07-3.47,1.5l-1.25,0.65v18.33H334.29z"/>
	<path class="st1" d="M368.64,236.6v-4.34h3.74v4.34H368.64z M368.64,267.21v-24.97h3.74v24.97H368.64z"/>
	<path class="st1" d="M385.12,267.21h-3.74v-24.97h3.7v1.75c2.7-1.5,5.28-2.25,7.74-2.25c3.33,0,5.57,0.9,6.72,2.7
		c1.15,1.8,1.72,4.99,1.72,9.59v13.18h-3.69v-13.08c0-3.46-0.34-5.83-1.02-7.12c-0.68-1.28-2.14-1.92-4.37-1.92
		c-1.07,0-2.19,0.16-3.37,0.48c-1.18,0.32-2.09,0.62-2.72,0.92l-0.95,0.45V267.21z"/>
	<path class="st1" d="M421.87,245.49h-7.94v11.93c0,2.86,0.21,4.74,0.62,5.64c0.42,0.9,1.41,1.35,2.97,1.35l4.44-0.3l0.25,3.1
		c-2.23,0.37-3.93,0.55-5.09,0.55c-2.6,0-4.4-0.63-5.39-1.9c-1-1.27-1.5-3.68-1.5-7.24v-13.13h-3.54v-3.24h3.54v-7.64h3.7v7.64h7.94
		V245.49z"/>
	<path class="st1" d="M445.04,264.11l1.45-0.15l0.1,2.95c-3.79,0.53-7.04,0.8-9.74,0.8c-3.6,0-6.14-1.04-7.64-3.12
		c-1.5-2.08-2.25-5.32-2.25-9.71c0-8.75,3.48-13.13,10.44-13.13c3.36,0,5.87,0.94,7.54,2.82c1.66,1.88,2.5,4.84,2.5,8.86l-0.2,2.85
		h-16.48c0,2.76,0.5,4.81,1.5,6.14s2.74,2,5.22,2C439.95,264.41,442.47,264.31,445.04,264.11z M443.69,253.28
		c0-3.06-0.49-5.23-1.47-6.49c-0.98-1.27-2.58-1.9-4.79-1.9c-2.21,0-3.88,0.67-4.99,2c-1.12,1.33-1.69,3.46-1.72,6.39H443.69z"/>
	<path class="st1" d="M454.97,267.21v-35.85h3.74v35.85H454.97z"/>
	<path class="st1" d="M468.65,267.21v-35.85h3.74v35.85H468.65z"/>
	<path class="st1" d="M482.08,236.6v-4.34h3.74v4.34H482.08z M482.08,267.21v-24.97h3.74v24.97H482.08z"/>
	<path class="st1" d="M504.65,278.94c-3.99,0-6.78-0.54-8.36-1.62c-1.58-1.08-2.37-3.05-2.37-5.92c0-1.37,0.3-2.47,0.9-3.32
		c0.6-0.85,1.61-1.81,3.05-2.87c-0.93-0.63-1.4-1.78-1.4-3.45c0-0.57,0.42-1.62,1.25-3.15l0.45-0.8c-2.63-1.2-3.95-3.71-3.95-7.54
		c0-5.69,3.11-8.54,9.34-8.54c1.6,0,3.08,0.17,4.44,0.5l0.75,0.15l7.39-0.2v3.2l-4.74-0.1c1.1,1.1,1.65,2.76,1.65,4.99
		c0,3.13-0.77,5.32-2.32,6.57c-1.55,1.25-3.99,1.87-7.31,1.87c-0.9,0-1.71-0.07-2.45-0.2c-0.6,1.46-0.9,2.41-0.9,2.85
		c0,1.03,0.32,1.67,0.95,1.92c0.63,0.25,2.55,0.38,5.74,0.38c3.2,0,5.49,0.5,6.89,1.5c1.4,1,2.1,2.95,2.1,5.84
		C515.74,276.3,512.04,278.94,504.65,278.94z M497.61,271.1c0,1.76,0.49,2.99,1.47,3.67c0.98,0.68,2.8,1.02,5.44,1.02
		c2.65,0,4.54-0.37,5.69-1.1c1.15-0.73,1.72-1.96,1.72-3.67c0-1.71-0.42-2.82-1.25-3.32c-0.83-0.5-2.46-0.75-4.89-0.75l-5.39-0.25
		c-1.1,0.8-1.84,1.5-2.22,2.1S497.61,270.17,497.61,271.1z M497.96,250.28c0,1.96,0.44,3.36,1.32,4.19
		c0.88,0.83,2.34,1.25,4.37,1.25c2.03,0,3.48-0.41,4.34-1.25c0.87-0.83,1.3-2.24,1.3-4.22c0-1.98-0.43-3.39-1.3-4.22
		c-0.87-0.83-2.31-1.25-4.34-1.25c-2.03,0-3.49,0.43-4.37,1.27C498.4,246.91,497.96,248.32,497.96,250.28z"/>
	<path class="st1" d="M538.36,264.11l1.45-0.15l0.1,2.95c-3.8,0.53-7.04,0.8-9.74,0.8c-3.59,0-6.14-1.04-7.64-3.12
		c-1.5-2.08-2.25-5.32-2.25-9.71c0-8.75,3.48-13.13,10.43-13.13c3.36,0,5.87,0.94,7.54,2.82c1.66,1.88,2.5,4.84,2.5,8.86l-0.2,2.85
		h-16.48c0,2.76,0.5,4.81,1.5,6.14c1,1.33,2.74,2,5.22,2C533.27,264.41,535.79,264.31,538.36,264.11z M537.01,253.28
		c0-3.06-0.49-5.23-1.47-6.49c-0.98-1.27-2.58-1.9-4.79-1.9c-2.21,0-3.88,0.67-4.99,2c-1.12,1.33-1.69,3.46-1.72,6.39H537.01z"/>
	<path class="st1" d="M551.34,267.21h-3.74v-24.97h3.7v1.75c2.7-1.5,5.28-2.25,7.74-2.25c3.33,0,5.57,0.9,6.72,2.7
		c1.15,1.8,1.72,4.99,1.72,9.59v13.18h-3.69v-13.08c0-3.46-0.34-5.83-1.02-7.12c-0.68-1.28-2.14-1.92-4.37-1.92
		c-1.07,0-2.19,0.16-3.37,0.48c-1.18,0.32-2.09,0.62-2.72,0.92l-0.95,0.45V267.21z"/>
	<path class="st1" d="M584.24,241.74c1.1,0,2.96,0.2,5.59,0.6l1.2,0.15l-0.15,3.05c-2.66-0.3-4.63-0.45-5.89-0.45
		c-2.83,0-4.75,0.67-5.77,2.02c-1.02,1.35-1.52,3.84-1.52,7.49c0,3.64,0.47,6.18,1.42,7.61s2.92,2.15,5.92,2.15l5.89-0.45l0.15,3.1
		c-3.1,0.47-5.41,0.7-6.94,0.7c-3.89,0-6.58-1-8.06-3c-1.48-2-2.22-5.37-2.22-10.11c0-4.74,0.8-8.07,2.4-9.99
		C577.85,242.7,580.51,241.74,584.24,241.74z"/>
	<path class="st1" d="M614.4,264.11l1.45-0.15l0.1,2.95c-3.8,0.53-7.04,0.8-9.74,0.8c-3.59,0-6.14-1.04-7.64-3.12
		c-1.5-2.08-2.25-5.32-2.25-9.71c0-8.75,3.48-13.13,10.43-13.13c3.36,0,5.87,0.94,7.54,2.82c1.66,1.88,2.5,4.84,2.5,8.86l-0.2,2.85
		h-16.48c0,2.76,0.5,4.81,1.5,6.14s2.74,2,5.22,2C609.31,264.41,611.84,264.31,614.4,264.11z M613.05,253.28
		c0-3.06-0.49-5.23-1.47-6.49c-0.98-1.27-2.58-1.9-4.79-1.9c-2.21,0-3.88,0.67-4.99,2c-1.12,1.33-1.69,3.46-1.72,6.39H613.05z"/>
</g>
<g>
	<polyline class="st1" points="639.91,49.56 555.41,12 555.44,30.81 597.62,49.56 555.5,68.3 555.53,87.11 639.91,49.56 	"/>
</g>
<g>
	<path class="st0" d="M51.28,138.06v74.19H25.52v-74.19H15.14v-21.91h10.38v-4.23c0-13.84,2.05-23.38,6.15-28.64
		c4.1-5.25,11.4-7.88,21.91-7.88c4.61,0,10.57,0.64,17.87,1.92l4.04,0.58l-0.38,20.95c-5.64-0.26-10.38-0.39-14.22-0.39
		c-3.84,0-6.41,1.03-7.69,3.08c-1.28,2.05-1.92,5.57-1.92,10.57v4.04h23.25v21.91H51.28z"/>
	<path class="st0" d="M85.48,127.01c6.79-8.77,18.13-13.16,34.02-13.16c15.89,0,27.23,4.39,34.02,13.16
		c6.79,8.78,10.18,21.11,10.18,37c0,33.7-14.73,50.55-44.2,50.55c-29.47,0-44.21-16.85-44.21-50.55
		C75.3,148.12,78.69,135.79,85.48,127.01z M105.38,185.73c2.62,4.61,7.33,6.92,14.13,6.92c6.79,0,11.5-2.31,14.13-6.92
		c2.62-4.61,3.94-11.85,3.94-21.72c0-9.86-1.31-17.04-3.94-21.53c-2.63-4.48-7.34-6.73-14.13-6.73c-6.79,0-11.5,2.24-14.13,6.73
		c-2.63,4.49-3.94,11.66-3.94,21.53C101.44,173.88,102.75,181.12,105.38,185.73z"/>
	<path class="st0" d="M172.43,212.25v-96.1h25.56v10.19c10.76-6.41,21.01-10.57,30.75-12.49v25.95
		c-10.38,2.18-19.29,4.42-26.71,6.73l-3.84,1.35v64.38H172.43z"/>
	<path class="st0" d="M234.83,116.15h25.37l11.73,74.19h4.61l14.61-72.26h26.52l14.61,72.26h4.61l11.72-74.19h25.37l-18.26,96.1
		h-40.36l-10.96-58.81l-10.96,58.81h-40.36L234.83,116.15z"/>
	<path class="st0" d="M455.41,146.14v39.98c0.25,3.07,0.77,5.22,1.54,6.44c0.77,1.22,2.37,2.08,4.81,2.59l-0.77,19.41
		c-6.53,0-11.76-0.45-15.66-1.35c-3.91-0.9-7.85-2.69-11.82-5.38c-9.22,4.48-18.64,6.73-28.25,6.73c-19.86,0-29.79-10.5-29.79-31.52
		c0-10.25,2.75-17.52,8.26-21.81c5.51-4.29,13.96-6.82,25.37-7.59l20.56-1.54v-5.96c0-3.97-0.9-6.69-2.69-8.17
		c-1.8-1.47-4.68-2.21-8.65-2.21l-36.13,1.54l-0.77-17.87c13.71-3.71,26.75-5.57,39.11-5.57c12.36,0,21.27,2.57,26.71,7.69
		C452.68,126.66,455.41,134.86,455.41,146.14z M412.16,171.51c-7.18,0.64-10.76,4.49-10.76,11.53c0,7.05,3.14,10.57,9.42,10.57
		c4.87,0,10.19-0.77,15.95-2.31l2.88-0.77v-20.57L412.16,171.51z"/>
	<path class="st0" d="M470.47,212.25v-96.1h25.56v10.19c10.76-6.41,21.01-10.57,30.75-12.49v25.95
		c-10.38,2.18-19.29,4.42-26.71,6.73l-3.85,1.35v64.38H470.47z"/>
	<path class="st0" d="M616.29,75.41v136.84h-25.56v-4.04c-8.97,4.23-16.72,6.34-23.26,6.34c-13.97,0-23.71-4.04-29.21-12.11
		c-5.51-8.07-8.26-20.85-8.26-38.34c0-17.49,3.3-30.24,9.9-38.25c6.6-8.01,16.56-12.01,29.89-12.01c4.1,0,9.8,0.64,17.11,1.92
		l3.65,0.77V87.67L616.29,75.41z M587.84,189.19l2.69-0.58v-50.55c-7.05-1.28-13.33-1.92-18.84-1.92
		c-10.38,0-15.57,9.22-15.57,27.68c0,9.99,1.15,17.11,3.46,21.33s6.12,6.34,11.44,6.34C576.34,191.49,581.95,190.72,587.84,189.19z"
		/>
</g>
<g>
	<rect x="342.65" y="61.38" class="st3" width="12.01" height="5.66"/>
	<rect x="356.74" y="61.38" class="st3" width="12.01" height="5.66"/>
	<rect x="342.65" y="53.65" class="st3" width="12.01" height="5.66"/>
	<path class="st3" d="M399.69,47.31c0-0.77-0.63-1.4-1.4-1.4h-13.37v14.77h14.77V47.31z"/>
	<rect x="342.65" y="45.91" class="st3" width="12.01" height="5.66"/>
	<rect x="356.74" y="53.65" class="st3" width="12.01" height="5.66"/>
	<rect x="356.74" y="45.91" class="st3" width="12.01" height="5.66"/>
	<path class="st3" d="M236.24,65.6l0.01,0.11l12.72,8.17c0.64-1.1,1.46-2.36,2.5-3.81c0.66-0.93,1.41-1.93,2.24-3
		c-2.72-0.46-8.79-1.38-16.4-2.49L236.24,65.6z"/>
	<path class="st3" d="M291.01,89.43c0.12,0.02,0.2-0.01,0.28-0.09l3.25-3.25c0.23-0.23,0.3-0.7,0.19-1.19l-7.74-34.42
		c-3.01,2.84-6.79,6.34-10.84,9.97l14.06,28.25C290.42,89.1,290.73,89.39,291.01,89.43z"/>
	<path class="st3" d="M261.77,91.14l1.01-1.01c-1.07-7.49-1.98-13.49-2.45-16.29c-1.04,0.8-2.02,1.53-2.92,2.18
		c-1.46,1.04-2.73,1.87-3.84,2.51l8.09,12.6L261.77,91.14z"/>
	<path class="st3" d="M241.28,32.69l-3.25,3.25c-0.08,0.09-0.11,0.17-0.09,0.28c0.05,0.28,0.33,0.6,0.74,0.79l28.47,14.18
		c3.66-4.08,7.19-7.88,10.02-10.89l-34.7-7.81C241.99,32.39,241.51,32.47,241.28,32.69z"/>
	<path class="st3" d="M270.55,62.62c10.33-9.05,20.55-18.92,21.56-19.93c1.03-1.03,2.61-3.46,3.66-6.12
		c1.02-2.58,1.2-4.63,0.48-5.35c-0.28-0.28-0.79-0.43-1.48-0.43c-1.02,0-2.35,0.32-3.87,0.91c-2.66,1.05-5.09,2.64-6.12,3.66
		c-1,1-10.84,11.18-19.93,21.56c-3.36,3.84-6.2,7.22-8.49,10.13l-0.23,0.3c-1.12,1.43-2.12,2.75-2.97,3.93
		c-1.23,1.72-2.15,3.16-2.78,4.33l5.98-5.98l1.48,1.48l-5.98,5.98c1.17-0.63,2.61-1.55,4.33-2.78
		C259.85,71.7,264.68,67.77,270.55,62.62z"/>
	<path class="st3" d="M521.99,55.43l-0.92-0.58c-0.95-0.6-1.72-1.45-2.22-2.45l-3.57-7.15c-0.72-1.44-2.16-2.33-3.77-2.33H500.7
		v24.15h23.26V59C523.96,57.54,523.23,56.21,521.99,55.43z M518.12,55.62h-14.55V44.45h1.95v9.23h12.6V55.62z"/>
	<polygon class="st3" points="433.94,67.07 433.94,67.07 498.76,67.07 498.76,42.13 498.76,40.97 498.76,36.07 432.17,36.07 
		432.17,63.95 432.17,64.31 432.17,67.07 	"/>
	<path class="st3" d="M523.96,69.01h-85.89v0.01h-2.18v2.63l8.01,3.25c1.41-2.76,4.25-4.68,7.56-4.68c4.35,0,7.91,3.3,8.41,7.52
		h42.84c0.5-4.22,4.06-7.52,8.41-7.52c3.38,0,6.29,2,7.66,4.87l5.18-3.68V69.01z"/>
	<path class="st3" d="M451.46,85.3c3.62,0,6.57-2.95,6.57-6.57s-2.95-6.57-6.57-6.57c-3.62,0-6.57,2.95-6.57,6.57
		S447.84,85.3,451.46,85.3z"/>
	<rect x="328.56" y="45.91" class="st3" width="12.01" height="5.66"/>
	<path class="st3" d="M511.12,85.3c3.62,0,6.57-2.95,6.57-6.57s-2.95-6.57-6.57-6.57c-3.62,0-6.57,2.95-6.57,6.57
		S507.49,85.3,511.12,85.3z"/>
	<rect x="328.56" y="61.38" class="st3" width="12.01" height="5.66"/>
	<polygon class="st3" points="381.48,62.76 377.15,69.12 370.83,69.12 356.74,69.12 354.66,69.12 342.65,69.12 340.57,69.12 
		326.49,69.12 324.07,69.12 331.17,84.85 395.23,84.85 404.86,62.76 401.77,62.76 382.84,62.76 	"/>
	<rect x="328.56" y="53.65" class="st3" width="12.01" height="5.66"/>
	<path class="st1" d="M523.03,53.79l-0.92-0.58c-0.65-0.41-1.18-0.99-1.52-1.68l-3.57-7.15c-1.05-2.1-3.16-3.4-5.51-3.4H500.7v-6.85
		h-70.47v29.82v0.36v4.71h3.71v3.94l9.27,3.76c-0.16,0.65-0.27,1.32-0.27,2.01c0,4.69,3.82,8.51,8.51,8.51
		c4.37,0,7.94-3.32,8.42-7.57h42.83c0.48,4.24,4.05,7.57,8.42,7.57c4.69,0,8.51-3.82,8.51-8.51c0-0.59-0.06-1.17-0.18-1.74
		l6.46-4.58v-4.19v-1.15V59C525.9,56.87,524.83,54.92,523.03,53.79z M523.96,67.07H500.7V42.92h10.81c1.6,0,3.05,0.89,3.77,2.33
		l3.57,7.15c0.5,1.01,1.27,1.85,2.22,2.45l0.92,0.58c1.23,0.78,1.97,2.11,1.97,3.56V67.07z M511.12,70.22
		c-4.35,0-7.91,3.3-8.41,7.52h-42.84c-0.5-4.22-4.06-7.52-8.41-7.52c-3.31,0-6.15,1.92-7.56,4.68l-8.01-3.25v-2.63h2.18v-0.01h85.89
		v2.39l-5.18,3.68C517.41,72.22,514.5,70.22,511.12,70.22z M451.46,72.16c3.62,0,6.57,2.95,6.57,6.57s-2.95,6.57-6.57,6.57
		c-3.62,0-6.57-2.95-6.57-6.57S447.84,72.16,451.46,72.16z M511.12,72.16c3.62,0,6.57,2.95,6.57,6.57s-2.95,6.57-6.57,6.57
		c-3.62,0-6.57-2.95-6.57-6.57S507.49,72.16,511.12,72.16z M432.17,63.95V36.07h66.59v4.9v1.15v24.94h-64.82v0.01h-1.77v-2.76V63.95
		z"/>
	<polygon class="st1" points="505.52,44.45 503.57,44.45 503.57,55.62 518.12,55.62 518.12,53.67 505.52,53.67 	"/>
	<path class="st1" d="M290.14,29.76c-2.62,1.03-5.43,2.73-6.83,4.13c-0.4,0.4-2.06,2.11-4.47,4.64l-35.91-8.08
		c-1.2-0.27-2.39,0.02-3.13,0.76l-3.25,3.25c-0.57,0.56-0.81,1.31-0.68,2.1c0.16,0.95,0.85,1.82,1.87,2.33l27.96,13.92
		c-0.81,0.91-1.62,1.82-2.42,2.74c-3.17,3.62-5.88,6.85-8.12,9.66c-0.93-0.18-2.93-0.51-7.54-1.21c-4.04-0.61-8.35-1.24-10.02-1.49
		c-0.67-0.09-1.36,0.13-1.84,0.61l-1.01,1.01c-0.46,0.47-0.69,1.11-0.62,1.76c0.07,0.65,0.43,1.23,0.98,1.59l12.87,8.27
		c-0.39,0.87-0.75,1.93-0.55,2.83l-2.04,2.04l1.48,1.48l2.07-2.07c0.16,0.03,0.32,0.09,0.5,0.09c0.78,0,1.62-0.31,2.27-0.6
		l8.19,12.75c0.36,0.55,0.93,0.91,1.58,0.98c0.08,0.01,0.16,0.01,0.24,0.01c0.57,0,1.11-0.22,1.52-0.63l1.01-1
		c0.48-0.48,0.71-1.17,0.61-1.84c-0.24-1.66-0.87-5.97-1.49-10.02c-0.66-4.35-0.99-6.38-1.18-7.38c2.83-2.25,6.08-4.98,9.73-8.18
		c0.87-0.77,1.74-1.53,2.61-2.3l13.81,27.73c0.5,1.01,1.38,1.71,2.33,1.87c0.14,0.02,0.28,0.03,0.41,0.03
		c0.63,0,1.22-0.24,1.68-0.71l3.25-3.25c0.73-0.73,1.02-1.93,0.76-3.13l-8.02-35.63c2.63-2.5,4.42-4.23,4.83-4.64
		c1.4-1.4,3.09-4.2,4.13-6.83c1.78-4.51,0.99-6.62,0.02-7.6C296.77,28.77,294.65,27.98,290.14,29.76z M286.99,50.48l7.74,34.42
		c0.11,0.49,0.03,0.96-0.19,1.19l-3.25,3.25c-0.09,0.08-0.17,0.11-0.28,0.09c-0.28-0.05-0.6-0.34-0.8-0.74l-14.06-28.25
		C280.2,56.82,283.98,53.32,286.99,50.48z M251.46,70.07c-1.04,1.45-1.86,2.71-2.5,3.81l-12.72-8.17l-0.01-0.11l1.06-1.02
		c7.61,1.11,13.68,2.03,16.4,2.49C252.87,68.14,252.13,69.14,251.46,70.07z M257.84,71.12l-1.48-1.48l-5.98,5.98
		c0.62-1.17,1.54-2.61,2.78-4.33c0.85-1.18,1.85-2.5,2.97-3.93l0.23-0.3c2.3-2.91,5.13-6.29,8.49-10.13
		c9.09-10.38,18.93-20.56,19.93-21.56c1.02-1.03,3.46-2.61,6.12-3.66c1.52-0.6,2.86-0.91,3.87-0.91c0.69,0,1.2,0.15,1.48,0.43
		c0.72,0.72,0.53,2.77-0.48,5.35c-1.05,2.66-2.64,5.09-3.66,6.12c-1,1-11.23,10.88-21.56,19.93c-5.88,5.15-10.71,9.08-14.36,11.7
		c-1.72,1.23-3.16,2.15-4.33,2.78L257.84,71.12z M257.41,76.02c0.9-0.65,1.88-1.37,2.92-2.18c0.47,2.8,1.37,8.8,2.45,16.29
		l-1.01,1.01l-0.1-0.01l-8.09-12.6C254.68,77.89,255.95,77.06,257.41,76.02z M267.15,51.19l-28.47-14.18
		c-0.4-0.2-0.69-0.51-0.74-0.79c-0.02-0.12,0.01-0.2,0.09-0.28l3.25-3.25c0.23-0.22,0.71-0.3,1.19-0.19l34.7,7.81
		C274.34,43.31,270.81,47.11,267.15,51.19z"/>
	<path class="st1" d="M401.77,47.31c0-1.92-1.56-3.48-3.48-3.48h-5.36V32.14h-2.08v11.69h-8.02v16.85h-2.46l-4.33,6.35h-5.23v-5.66
		V59.3v-5.66v-2.08v-7.74h-14.09h-2.08h-12.01h-2.08h-14.09v7.74v2.08v5.66v2.08v5.66h-5.63l8.97,19.89h66.84l11.37-26.24h-6.26
		V47.31z M384.92,45.91h13.37c0.77,0,1.4,0.63,1.4,1.4v13.37h-14.77V45.91z M368.75,67.04h-12.01v-5.66h12.01V67.04z M342.65,61.38
		h12.01v5.66h-12.01V61.38z M342.65,53.65h12.01v5.66h-12.01V53.65z M368.75,59.3h-12.01v-5.66h12.01V59.3z M356.74,45.91h12.01
		v5.66h-12.01V45.91z M342.65,45.91h12.01v5.66h-12.01V45.91z M328.56,45.91h12.01v5.66h-12.01V45.91z M328.56,53.65h12.01v5.66
		h-12.01V53.65z M328.56,61.38h12.01v5.66h-12.01V61.38z M404.86,62.76l-9.62,22.09h-64.06l-7.1-15.74h2.42h14.09h2.08h12.01h2.08
		h14.09h6.32l4.33-6.35h1.36h18.93H404.86z"/>
</g>
</svg>
