<?xml version="1.0" encoding="utf-8"?>
<!-- Generator: Adobe Illustrator 27.3.0, SVG Export Plug-In . SVG Version: 6.00 Build 0)  -->
<svg version="1.1" id="Layer_1" xmlns="http://www.w3.org/2000/svg" xmlns:xlink="http://www.w3.org/1999/xlink" x="0px" y="0px"
	 viewBox="0 0 512 512" style="enable-background:new 0 0 512 512;" xml:space="preserve">
<style type="text/css">
	.st0{fill-rule:evenodd;clip-rule:evenodd;fill:#FFFFFF;}
	.st1{fill-rule:evenodd;clip-rule:evenodd;fill:#4FC3CB;}
	.st2{fill-rule:evenodd;clip-rule:evenodd;fill:#CAE0E5;}
	.st3{fill-rule:evenodd;clip-rule:evenodd;fill:#BE202E;}
	.st4{fill:#112A4C;}
	.st5{fill:#17578F;}
	.st6{fill:#BE202E;}
	.st7{opacity:0.4;fill:url(#SVGID_1_);}
</style>
<path class="st0" d="M43.3,291l36.2,192.2c0.6,3.1,3.6,5.1,6.7,4.6l89.2-16.8l132-24.9l18.9-3.6l77.8-14.6c3.1-0.6,5.1-3.6,4.5-6.7
	l-17-90.2L344.6,81.5l-0.5-2.6l-56.8,10.7c-5.4,1-16.7,4-19-8.4l-10.6-55.4L8,72.8c-3.1,0.6-5.1,3.6-4.5,6.7l9.1,47.9l3.8,20.3
	L43.3,291z"/>
<path class="st1" d="M391.8,330.8L344.6,81.5l-0.5-2.6l-0.1-0.8c-0.3-1.6-1.1-1.7-3.9-3.7l-72.3-46.9c-3.4-2.2-4-2.8-5.7-2.5
	l-4.2,0.8L8,72.8c-3.1,0.6-5.1,3.6-4.5,6.7l76.1,403.7c0.6,3.1,3.6,5.1,6.7,4.6l317.9-60c3.1-0.6,5.1-3.6,4.5-6.7L391.8,330.8z"/>
<path class="st2" d="M391.8,330.8L344.6,81.5l-0.5-2.6c-0.6-3-1.5-2.9-4.1-4.6l-72.3-46.9c-3.4-2.2-4-2.8-5.7-2.5l-4.2,0.8
	l-62.2,11.8c95.2,87.4,134.2,269.9,99.3,395c-1.6,5.8-3.4,11.4-5.3,17l17.8-3.3l19-3.6l77.7-14.6c3.1-0.6,5.1-3.6,4.5-6.7
	L391.8,330.8z"/>
<path class="st0" d="M268.4,81.1c2.3,12.4,13.6,9.4,19,8.4l56.8-10.7l-0.1-0.8c-0.3-1.6-1.1-1.7-3.9-3.7l-72.3-46.9
	c-3.4-2.2-4-2.8-5.7-2.5l-4.2,0.8L268.4,81.1z"/>
<path class="st3" d="M340,74.3l-72.3-46.9c-3.4-2.2-4-2.8-5.7-2.5l-4.2,0.8l10.6,55.4c2.3,12.4-0.3-1.8,2.2,11.6l73.6-13.9l-0.1-0.8
	C343.7,76.3,342.9,76.2,340,74.3"/>
<path class="st4" d="M311.9,142L71.2,187.4c-1.5-7.9-0.6-3.5-1.5-7.9c-0.8-4.3-1.5-7.9-1.5-7.9l240.7-45.4c1.5,7.9,0.6,3.5,1.5,7.9
	C311.3,138.5,310.4,134.1,311.9,142"/>
<path class="st4" d="M356.8,379.5l-240.7,45.4c-1.5-7.9-0.6-3.5-1.5-7.9c-0.8-4.3-1.5-7.9-1.5-7.9l240.7-45.4
	c1.5,7.9,0.6,3.5,1.5,7.9C356,375.9,355.3,371.6,356.8,379.5"/>
<path class="st4" d="M345.5,320.1l-240.7,45.4c-1.5-7.9-0.6-3.5-1.5-7.9c-0.8-4.3-1.5-7.9-1.5-7.9l240.7-45.4
	c1.5,7.9,0.6,3.5,1.5,7.9C344.9,316.6,344,312.2,345.5,320.1"/>
<path class="st4" d="M334.3,260.7L93.6,306.1c-1.5-7.9-0.6-3.5-1.5-7.9c-0.8-4.3-1.5-7.9-1.5-7.9L331.2,245c1.5,7.9,0.6,3.5,1.5,7.9
	C333.7,257.2,332.9,252.9,334.3,260.7"/>
<path class="st4" d="M323.2,201.4L82.5,246.8c-1.5-7.9-0.6-3.5-1.5-7.9c-0.8-4.3-1.5-7.9-1.5-7.9l240.7-45.4
	c1.5,7.9,0.6,3.5,1.5,7.9C322.4,197.8,321.6,193.5,323.2,201.4"/>
<path class="st4" d="M373,344.1l24.2-83.2c1.7-6.8,42.6-168.1,38.8-169.1l-20.9-5.2L412,99L373,344.1L373,344.1z"/>
<path class="st5" d="M373.2,344.2l80.6-234.9l3.1-12.3L436,91.7c-13.5,54.4-63,252.4-63,252.4L373.2,344.2z"/>
<g>
	<path class="st6" d="M479.7,47.4c-18.2,23.8-53.7,52.3-121.6,62.2c1.8,31.8,24,60.1,56.5,68.2c40,10,80.5-14.4,90.5-54.4
		C512.2,94.3,501.4,65.1,479.7,47.4z"/>
	<path class="st6" d="M479.7,47.4c-8.2-6.7-18.1-11.8-29.1-14.5c-40-10-80.5,14.4-90.5,54.4c-1.9,7.5-2.5,15-2.1,22.3
		C425.9,99.7,461.4,71.2,479.7,47.4z"/>
	
		<linearGradient id="SVGID_1_" gradientUnits="userSpaceOnUse" x1="116.2407" y1="117.3184" x2="273.2254" y2="117.3184" gradientTransform="matrix(0.9704 0.2415 -0.2415 0.9704 238.3362 -90.996)">
		<stop  offset="0" style="stop-color:#352713"/>
		<stop  offset="0.1392" style="stop-color:#392B16"/>
		<stop  offset="0.2788" style="stop-color:#45371F"/>
		<stop  offset="0.4187" style="stop-color:#584B2E"/>
		<stop  offset="0.5588" style="stop-color:#736743"/>
		<stop  offset="0.6992" style="stop-color:#968C5F"/>
		<stop  offset="0.8398" style="stop-color:#C1B880"/>
		<stop  offset="0.9782" style="stop-color:#F3ECA7"/>
		<stop  offset="1" style="stop-color:#FCF5AE"/>
	</linearGradient>
	<path class="st7" d="M479.7,47.4c-8.2-6.7-18.1-11.8-29.1-14.5c-40-10-80.5,14.4-90.5,54.4c-1.9,7.5-2.5,15-2.1,22.3
		C425.9,99.7,461.4,71.2,479.7,47.4z"/>
</g>
</svg>
