<?xml version="1.0" encoding="utf-8"?>
<!-- Generator: Adobe Illustrator 27.3.0, SVG Export Plug-In . SVG Version: 6.00 Build 0)  -->
<svg version="1.1" id="Layer_1" xmlns="http://www.w3.org/2000/svg" xmlns:xlink="http://www.w3.org/1999/xlink" x="0px" y="0px"
	 viewBox="0 0 512 512" style="enable-background:new 0 0 512 512;" xml:space="preserve">
<style type="text/css">
	.st0{fill:#102A4C;}
	.st1{fill:#CDCDCD;}
	.st2{fill:#229D49;}
	.st3{fill:#F7B836;}
	.st4{fill:#EAAF21;}
	.st5{fill:#25B04B;}
	.st6{fill:#ACACAC;}
	.st7{fill:#FFCF45;}
</style>
<g>
	<path class="st0" d="M257.9,83.1v-27c-0.1,0-0.1,0-0.2,0c-16.8,0-30.5,13.4-31,30.2c9.1-2.1,18.5-3.3,28.2-3.3
		C255.8,83,256.8,83.1,257.9,83.1z"/>
	<path class="st1" d="M240.3,473.7c-0.2-0.1-0.3-0.1-0.5-0.2C240,473.6,240.2,473.6,240.3,473.7z"/>
	<path class="st1" d="M233,469.9c-0.5-0.3-1-0.6-1.5-1C232,469.3,232.5,469.6,233,469.9z"/>
	<path class="st1" d="M236.3,471.8c-0.3-0.2-0.6-0.3-0.8-0.5C235.7,471.5,236,471.7,236.3,471.8z"/>
	<path class="st1" d="M220.3,457.9c7.7,5.7,17.2,9.1,27.6,9c3.4,0,6.7-0.5,9.9-1.2v-31.5c-15.5,0.2-30.9,0-46.2-0.6
		c0.8,12.7,6.6,24,15.6,31.9C224.7,463.3,222.3,460.7,220.3,457.9z"/>
	<path class="st1" d="M229.4,467.4c-0.6-0.5-1.2-0.9-1.7-1.4C228.3,466.4,228.9,466.9,229.4,467.4z"/>
	<path class="st1" d="M227.7,466c-0.2-0.1-0.3-0.3-0.5-0.4C227.4,465.7,227.6,465.8,227.7,466z"/>
	<path class="st1" d="M240.3,473.7c5.4,2.2,11.3,3.4,17.5,3.4v-0.1C251.7,477.1,245.7,475.9,240.3,473.7z"/>
	<path class="st1" d="M231.5,468.9c-0.7-0.5-1.4-1-2.1-1.5C230.1,467.9,230.8,468.4,231.5,468.9z"/>
	<path class="st1" d="M235.4,471.3c-0.8-0.5-1.6-0.9-2.4-1.4C233.8,470.4,234.6,470.9,235.4,471.3z"/>
	<path class="st1" d="M239.8,473.5c-1.2-0.5-2.4-1.1-3.6-1.7C237.4,472.4,238.6,473,239.8,473.5z"/>
	<path class="st1" d="M257.9,465.7c-3.2,0.7-6.5,1.2-9.9,1.2c-10.4,0.1-19.9-3.2-27.6-9c2,2.8,4.3,5.4,6.9,7.7
		c0.2,0.1,0.3,0.3,0.5,0.4c0.6,0.5,1.1,1,1.7,1.4c0.7,0.5,1.4,1.1,2.1,1.5c0.5,0.3,1,0.6,1.5,1c0.8,0.5,1.6,1,2.4,1.4
		c0.3,0.2,0.6,0.3,0.8,0.5c1.2,0.6,2.3,1.2,3.6,1.7c0.2,0.1,0.3,0.1,0.5,0.2c5.4,2.2,11.3,3.4,17.5,3.4V465.7z"/>
	<path class="st2" d="M257.9,344.5V108h-31.2V87.3c0-0.3,0-0.6,0-0.9c-8.5,2-16.7,4.8-24.4,8.4c-43.2,19.6-73.9,62.2-76,112.6
		l-5.4,129.3c0.1-0.1,0.1-0.2,0.2-0.3C166.6,342.2,212.3,344.9,257.9,344.5z"/>
	<path class="st2" d="M226.6,108h31.2V83.1c-1,0-2-0.1-3-0.1c-9.7,0.1-19.1,1.2-28.2,3.3c0,0.3,0,0.6,0,0.9V108z"/>
	<path class="st3" d="M91.2,411.8c-0.2-0.6-0.3-1.2-0.5-1.8C90.9,410.6,91,411.2,91.2,411.8z"/>
	<path class="st3" d="M92.3,414.5c-0.3-0.7-0.7-1.4-0.9-2.1C91.7,413.1,92,413.8,92.3,414.5z"/>
	<path class="st3" d="M100.1,422.3c-0.6-0.3-1.2-0.7-1.8-1.1C98.9,421.7,99.5,422,100.1,422.3z"/>
	<path class="st3" d="M95.6,418.9c-0.5-0.5-0.9-1-1.3-1.5C94.6,418,95.1,418.5,95.6,418.9z"/>
	<path class="st3" d="M93.9,417c-0.4-0.6-0.8-1.2-1.2-1.9C93.1,415.8,93.5,416.4,93.9,417z"/>
	<path class="st3" d="M102.8,423.5c-0.8-0.3-1.5-0.6-2.3-0.9C101.3,422.9,102.1,423.2,102.8,423.5z"/>
	<path class="st3" d="M105.9,424.2c-0.8-0.1-1.6-0.3-2.4-0.5C104.2,423.9,105,424.1,105.9,424.2z"/>
	<path class="st3" d="M97.8,420.9c-0.6-0.5-1.2-1-1.8-1.5C96.6,420,97.2,420.5,97.8,420.9z"/>
	<path class="st2" d="M257.2,384.5c0.2,0,0.4,0,0.6,0v-37.1H120.3l0.5-10.8c-15.6,19.4-26.3,42.2-30.3,66.9c-0.3,2-0.3,4,0.1,5.9
		c40.5,5.3,81.4,8,122.7,8.3C218.9,398.7,236.4,384.7,257.2,384.5z"/>
	<path class="st2" d="M257.9,417.1v-32.5c-0.2,0-0.4,0-0.6,0c-20.8,0.2-38.3,14.2-43.9,33.2C228.1,417.9,243,417.6,257.9,417.1z"/>
	<path class="st2" d="M257.9,347.5v-3c-45.6,0.4-91.2-2.2-136.9-8c-0.1,0.1-0.1,0.2-0.2,0.3l-0.5,10.8H257.9z"/>
	<path class="st4" d="M91.4,412.4c-0.1-0.2-0.1-0.4-0.2-0.6C91.3,412,91.3,412.2,91.4,412.4z"/>
	<path class="st4" d="M98.3,421.3c-0.2-0.1-0.3-0.2-0.5-0.3C98,421.1,98.2,421.2,98.3,421.3z"/>
	<path class="st4" d="M94.2,417.4c-0.1-0.1-0.2-0.3-0.3-0.4C94,417.2,94.1,417.3,94.2,417.4z"/>
	<path class="st4" d="M96.1,419.5c-0.2-0.2-0.3-0.3-0.5-0.5C95.7,419.1,95.9,419.3,96.1,419.5z"/>
	<path class="st4" d="M105.9,424.2C105.9,424.2,105.9,424.2,105.9,424.2C105.9,424.2,105.9,424.2,105.9,424.2
		c35,5,70.2,8.1,105.7,9.4c0,0,0,0,0,0C176.1,432.3,140.9,429.3,105.9,424.2z"/>
	<path class="st4" d="M92.7,415.2c-0.1-0.2-0.3-0.5-0.4-0.7C92.4,414.7,92.6,414.9,92.7,415.2z"/>
	<path class="st4" d="M90.6,409.5c0,0.2,0.1,0.3,0.1,0.5C90.7,409.8,90.7,409.7,90.6,409.5C90.6,409.5,90.6,409.5,90.6,409.5z"/>
	<path class="st4" d="M103.4,423.7c-0.2-0.1-0.4-0.1-0.6-0.2C103,423.6,103.2,423.6,103.4,423.7z"/>
	<path class="st4" d="M100.6,422.6c-0.2-0.1-0.3-0.2-0.4-0.2C100.3,422.4,100.4,422.5,100.6,422.6z"/>
	<path class="st4" d="M257.9,434.2L257.9,434.2c-15.5,0.1-30.9-0.1-46.2-0.6c0,0,0,0,0,0C227,434.1,242.4,434.3,257.9,434.2z"/>
	<path class="st5" d="M211.6,433.6c0-0.8-0.1-1.6-0.1-2.3c0-4.7,0.6-9.2,1.9-13.5c-41.3-0.3-82.2-3-122.7-8.3c0,0.2,0.1,0.3,0.1,0.5
		c0.1,0.6,0.3,1.2,0.5,1.8c0.1,0.2,0.1,0.4,0.2,0.6c0.3,0.7,0.6,1.4,0.9,2.1c0.1,0.2,0.2,0.5,0.4,0.7c0.4,0.6,0.8,1.3,1.2,1.9
		c0.1,0.1,0.2,0.3,0.3,0.4c0.4,0.5,0.9,1,1.3,1.5c0.2,0.2,0.3,0.3,0.5,0.5c0.6,0.5,1.2,1,1.8,1.5c0.2,0.1,0.3,0.2,0.5,0.3
		c0.6,0.4,1.2,0.7,1.8,1.1c0.1,0.1,0.3,0.2,0.4,0.2c0.7,0.4,1.5,0.7,2.3,0.9c0.2,0.1,0.4,0.1,0.6,0.2c0.8,0.2,1.6,0.4,2.4,0.5
		c0,0,0.1,0,0.1,0C140.9,429.3,176.1,432.3,211.6,433.6z"/>
	<path class="st5" d="M213.4,417.8c-1.2,4.3-1.9,8.8-1.9,13.5c0,0.8,0.1,1.6,0.1,2.3c15.4,0.5,30.8,0.7,46.2,0.6v-17.1
		C243,417.6,228.1,417.9,213.4,417.8z"/>
	<path class="st0" d="M288.8,87.2c0-8.7-3.4-16.4-9.1-22c-5.6-5.6-13.4-9.1-21.9-9.1v27C268.5,83.2,278.9,84.6,288.8,87.2z"/>
	<path class="st6" d="M291.9,433.2c-11.4,0.5-22.8,0.8-34.1,1v31.5C274.3,461.9,287.4,449.4,291.9,433.2z"/>
	<path class="st6" d="M303.9,432.6C303.9,432.6,303.8,432.6,303.9,432.6c-1,24.5-21,44.3-45.8,44.5c-0.1,0-0.2,0-0.2,0v0.1
		c0.1,0,0.2,0,0.2,0C282.8,476.9,302.9,457.1,303.9,432.6z"/>
	<path class="st6" d="M257.9,465.7v11.4c0.1,0,0.2,0,0.2,0c24.8-0.2,44.8-20,45.7-44.5c-4,0.2-7.9,0.4-11.9,0.6
		C287.4,449.4,274.3,461.9,257.9,465.7z"/>
	<path class="st5" d="M288.8,108h-31v236.5c40.5-0.4,81-3.3,121.5-8.6c0,0,0,0,0-0.1c4.6-0.5,9.2-1.3,13.9-1.9
		c0.1,0.1,0.1,0.2,0.2,0.2L385.6,205c-2-34.5-17.5-65.2-41-87c-9.5-9-20.4-16.5-32.2-22.1c-7.4-3.6-15.3-6.5-23.5-8.7c0,0,0,0,0,0.1
		V108z"/>
	<path class="st5" d="M257.9,108h31V87.3c0,0,0,0,0-0.1c-9.9-2.6-20.3-4-31-4.2V108z"/>
	<path class="st5" d="M284.8,393.4c0.6,0.4,1.2,0.9,1.8,1.4c0,0,0.1,0.1,0.1,0.1c6.4,5.1,11.3,11.9,14.2,19.7
		c27.1-2.1,54.3-5.3,81.7-9.6c10-1.6,26.1-11.8,24.3-21.7c-2.3-12.8-7.1-24.4-12.8-35.8H257.9v37.1c10.1,0,19.4,3.4,27,8.9
		C284.9,393.4,284.9,393.4,284.8,393.4z"/>
	<path class="st4" d="M413.5,420.3c7.9-3.1,12.9-11.3,11.4-19.9c-1-5.8-2.5-11.5-4.2-17c1.7,5.5,3.2,11.2,4.2,17
		C426.4,408.9,421.3,417.2,413.5,420.3z"/>
	<path class="st5" d="M293.3,415.2c-1-8-3.9-15.5-8.4-21.7c-7.6-5.6-16.9-8.9-27-8.9v32.5C269.7,416.6,281.5,416,293.3,415.2z"/>
	<path class="st4" d="M286.7,394.8c0,0,0.1,0.1,0.1,0.1C286.7,394.8,286.7,394.8,286.7,394.8z"/>
	<path class="st4" d="M286.8,394.9c6.3,5.1,11.2,11.9,14.2,19.7c0,0,0.1,0,0.1,0C298.1,406.8,293.1,400,286.8,394.9z"/>
	<path class="st4" d="M284.8,393.4c0,0,0,0.1,0.1,0.1c0.6,0.4,1.2,0.8,1.8,1.3C286.1,394.3,285.5,393.8,284.8,393.4z"/>
	<path class="st5" d="M286.8,394.9c0,0-0.1-0.1-0.1-0.1c-0.6-0.5-1.2-0.9-1.8-1.3c4.5,6.2,7.5,13.6,8.4,21.7
		c2.5-0.2,5.1-0.4,7.6-0.6C298,406.8,293.1,400,286.8,394.9z"/>
	<path class="st5" d="M379.4,335.8c-40.5,5.3-81,8.2-121.5,8.6v3h128C383.9,343.5,381.7,339.6,379.4,335.8z"/>
	<path class="st4" d="M303.9,432.6C303.9,432.6,303.9,432.6,303.9,432.6c35-1.9,70.3-5.6,105.8-11.2c1.3-0.2,2.6-0.6,3.8-1.1
		c-1.2,0.5-2.5,0.8-3.8,1C374.1,426.9,338.9,430.6,303.9,432.6z"/>
	<path class="st4" d="M420.6,383.4c-5.7-18-15-34.7-27.2-49.3l0,0C405.6,348.8,414.9,365.4,420.6,383.4z"/>
	<path class="st4" d="M291.9,433.2c-11.4,0.5-22.8,0.8-34.1,1v0C269.2,434,280.5,433.7,291.9,433.2
		C291.9,433.2,291.9,433.2,291.9,433.2z"/>
	<path class="st4" d="M303.8,432.6C303.8,432.6,303.8,432.6,303.8,432.6C303.8,432.6,303.9,432.6,303.8,432.6
		C303.9,432.6,303.9,432.6,303.8,432.6C303.9,432.6,303.8,432.6,303.8,432.6z"/>
	<path class="st4" d="M291.9,433.2C291.9,433.2,291.9,433.2,291.9,433.2c4-0.1,7.9-0.4,11.9-0.6c0,0,0,0,0,0
		C299.9,432.8,295.9,433,291.9,433.2z"/>
	<path class="st4" d="M379.3,335.8C379.3,335.8,379.3,335.8,379.3,335.8c4.7-0.5,9.3-1.2,13.9-1.8c0.1,0.1,0.1,0.2,0.2,0.2l0,0
		c-0.1-0.1-0.1-0.2-0.2-0.2C388.6,334.5,383.9,335.3,379.3,335.8z"/>
	<path class="st2" d="M394.2,347.5L394.2,347.5c14.5,30-1.5,55.9-11.5,57.5c-27.4,4.3-54.6,7.4-81.7,9.6c1.8,4.9,2.9,10.3,2.9,15.8
		c0,0.7-0.1,1.4-0.1,2.2c35-2,70.3-5.7,105.8-11.2c1.3-0.2,2.6-0.6,3.8-1c7.8-3.1,13-11.4,11.4-19.9c-1-5.8-2.5-11.4-4.2-17
		c-5.7-18-15-34.6-27.2-49.2L394.2,347.5z"/>
	<path class="st2" d="M293.7,420.1c0-1.7-0.2-3.3-0.4-5c-11.9,0.8-23.7,1.5-35.5,1.9v17.1c11.3-0.1,22.7-0.4,34.1-1
		C293.1,429,293.7,424.7,293.7,420.1z"/>
	<path class="st4" d="M303.9,430.4c0,0.7-0.1,1.4-0.1,2.2c0,0,0,0,0,0C303.9,431.8,304,431.1,303.9,430.4c0-5.6-1.1-10.9-2.9-15.8
		c0,0-0.1,0-0.1,0C302.8,419.5,303.9,424.8,303.9,430.4z"/>
	<path class="st2" d="M300.9,414.6c-2.5,0.2-5.1,0.4-7.6,0.6c0.2,1.6,0.3,3.3,0.4,5c0,4.5-0.6,8.9-1.8,13.1c4-0.2,7.9-0.4,11.9-0.6
		c0-0.7,0.1-1.4,0.1-2.2C303.9,424.8,302.8,419.5,300.9,414.6z"/>
	<path class="st5" d="M394.2,347.5l-0.8-13.4c-0.1-0.1-0.1-0.2-0.2-0.2c-4.6,0.7-12.1-0.4-16.8,0.2c2.3,3.8,7.4,9.4,9.4,13.4H394.2z
		"/>
</g>
<g id="_x33_7_Order_now_00000176041858286576789650000017928174968009982341_">
	<g>
		<g>
			<path class="st7" d="M21.5,189.6c-10,0.2-18.1,8.5-17.9,18.5c0.2,10.1,8.5,18.1,18.5,17.9l28.9-0.5c10-0.2,18.1-8.5,17.9-18.5
				c-0.2-10.1-8.5-18.1-18.5-17.9L21.5,189.6z"/>
			<path class="st7" d="M92.1,121l-20.8-20c-7.2-7-18.8-6.8-25.8,0.5c-7,7.2-6.8,18.8,0.5,25.8l20.8,20c7.2,7,18.8,6.8,25.8-0.5
				C99.6,139.5,99.3,128,92.1,121z"/>
			<path class="st7" d="M69,266.8l-20,20.8c-7,7.2-6.8,18.8,0.5,25.8c7.2,7,18.8,6.8,25.8-0.5l20-20.8c7-7.2,6.8-18.8-0.5-25.8
				S76,259.5,69,266.8z"/>
		</g>
	</g>
</g>
<g id="_x33_7_Order_now_00000106142050122930411340000007540052309989245599_">
	<g>
		<g>
			<path class="st7" d="M489.7,226.3c10,0.2,18.4-7.7,18.6-17.8c0.2-10.1-7.7-18.4-17.8-18.6l-28.9-0.7c-10-0.2-18.4,7.7-18.6,17.8
				c-0.2,10.1,7.7,18.4,17.8,18.6L489.7,226.3z"/>
			<path class="st7" d="M416.3,291.9l19.9,20.9c6.9,7.3,18.5,7.5,25.8,0.6c7.3-6.9,7.5-18.5,0.6-25.8l-19.9-20.9
				c-6.9-7.3-18.5-7.5-25.8-0.6C409.7,273.1,409.4,284.6,416.3,291.9z"/>
			<path class="st7" d="M445.5,147.2l20.9-19.9c7.3-6.9,7.5-18.5,0.6-25.8c-6.9-7.3-18.5-7.5-25.8-0.6l-20.9,19.9
				c-7.3,6.9-7.5,18.5-0.6,25.8C426.7,153.9,438.2,154.2,445.5,147.2z"/>
		</g>
	</g>
</g>
</svg>
