<?xml version="1.0" encoding="utf-8"?>
<!-- Generator: Adobe Illustrator 27.3.0, SVG Export Plug-In . SVG Version: 6.00 Build 0)  -->
<svg version="1.1" id="svg915" xmlns:svg="http://www.w3.org/2000/svg"
	 xmlns="http://www.w3.org/2000/svg" xmlns:xlink="http://www.w3.org/1999/xlink" x="0px" y="0px" viewBox="0 0 682.7 682.7"
	 style="enable-background:new 0 0 682.7 682.7;" xml:space="preserve">
<style type="text/css">
	.st0{fill:#00ADEE;}
	.st1{fill:none;stroke:#7DBFD1;stroke-width:1;stroke-linecap:round;stroke-linejoin:round;stroke-miterlimit:5.3333;}
	.st2{fill:#0093C0;}
	.st3{fill:#DBE5EA;}
	.st4{fill:#12284C;}
	.st5{fill:#DDF1FC;}
	.st6{fill:#FFCF45;}
	.st7{fill:#FFDD8E;}
	.st8{fill:#CDCDCD;}
</style>
<g id="g921" transform="matrix(1.3333333,0,0,-1.3333333,0,682.66667)">
	<path id="path923" class="st0" d="M415.1,6.3H103.8v488h311.3V6.3z"/>
	<g id="g925" transform="translate(344.5078,7.5)">
		<path id="path927" class="st1" d="M40.9-1.2h-0.2"/>
	</g>
	<path id="path929" class="st2" d="M415.1,6.3h-29.7v488h29.7V6.3z"/>
	<g id="g931" transform="translate(106,186.8003)">
		<path id="path933" class="st3" d="M-69.9,82.1v-262.6H37.6V71.1L-69.9,82.1z"/>
	</g>
	<g id="g939">
		<g>
			<g id="g941">
				<g id="g959" transform="translate(142.2432,76.2144)">
					<path id="path961" class="st4" d="M-53.1,30.7c6.1,0,11,4.9,11,11v24.6c0,6.1-4.9,11-11,11s-11-4.9-11-11V41.7
						C-64.1,35.6-59.2,30.7-53.1,30.7"/>
				</g>
				<g id="g963" transform="translate(142.7212,159.4746)">
					<path id="path965" class="st4" d="M-52.9,69.4c-6.1,0-11-4.9-11-11V33.8c0-6.1,4.9-11,11-11s11,4.9,11,11v24.6
						C-41.9,64.4-46.8,69.4-52.9,69.4"/>
				</g>
				<g id="g967" transform="translate(241.2686,107.9946)">
					<path id="path969" class="st5" d="M-7.1,45.5c-6.1,0-11-4.9-11-11V9.9c0-6.1,4.9-11,11-11s11,4.9,11,11v24.6
						C3.9,40.5-1,45.5-7.1,45.5"/>
				</g>
				<g id="g971" transform="translate(241.2686,159.4746)">
					<path id="path973" class="st5" d="M-7.1,69.4c-6.1,0-11-4.9-11-11V33.8c0-6.1,4.9-11,11-11s11,4.9,11,11v24.6
						C3.9,64.4-1,69.4-7.1,69.4"/>
				</g>
				<g id="g975" transform="translate(275.7314,107.9946)">
					<path id="path977" class="st5" d="M8.9,45.5c-6.1,0-11-4.9-11-11V9.9c0-6.1,4.9-11,11-11s11,4.9,11,11v24.6
						C19.9,40.5,15,45.5,8.9,45.5"/>
				</g>
				<g id="g979" transform="translate(275.7314,159.4746)">
					<path id="path981" class="st5" d="M8.9,69.4c-6.1,0-11-4.9-11-11V33.8c0-6.1,4.9-11,11-11s11,4.9,11,11v24.6
						C19.9,64.4,15,69.4,8.9,69.4"/>
				</g>
				<g id="g983" transform="translate(310.7402,107.9946)">
					<path id="path985" class="st5" d="M25.2,45.5c-6.1,0-11-4.9-11-11V9.9c0-6.1,4.9-11,11-11s11,4.9,11,11v24.6
						C36.2,40.5,31.2,45.5,25.2,45.5"/>
				</g>
				<g id="g987" transform="translate(310.7402,159.4746)">
					<path id="path989" class="st5" d="M25.2,69.4c-6.1,0-11-4.9-11-11V33.8c0-6.1,4.9-11,11-11s11,4.9,11,11v24.6
						C36.2,64.4,31.2,69.4,25.2,69.4"/>
				</g>
				<g id="g991" transform="translate(206.2686,107.6357)">
					<path id="path993" class="st5" d="M-23.4,45.3c-6.1,0-11-4.9-11-11V9.7c0-6.1,4.9-11,11-11s11,4.9,11,11v24.6
						C-12.4,40.4-17.3,45.3-23.4,45.3"/>
				</g>
				<g id="g995" transform="translate(206.2686,159.1157)">
					<path id="path997" class="st5" d="M-23.4,69.2c-6.1,0-11-4.9-11-11V33.6c0-6.1,4.9-11,11-11s11,4.9,11,11v24.6
						C-12.4,64.3-17.3,69.2-23.4,69.2"/>
				</g>
				<g id="g999" transform="translate(241.2637,179.353)">
					<path id="path1001" class="st5" d="M-7.1,78.6c6.1,0,11,4.9,11,11v24.6c0,6.1-4.9,11-11,11s-11-4.9-11-11V89.6
						C-18.1,83.5-13.2,78.6-7.1,78.6"/>
				</g>
				<g id="g1003" transform="translate(241.2637,230.833)">
					<path id="path1005" class="st5" d="M-7.1,102.5c6.1,0,11,4.9,11,11v24.6c0,6.1-4.9,11-11,11s-11-4.9-11-11v-24.6
						C-18.1,107.4-13.2,102.5-7.1,102.5"/>
				</g>
				<g id="g1007" transform="translate(275.7275,179.353)">
					<path id="path1009" class="st5" d="M8.9,78.6c6.1,0,11,4.9,11,11v24.6c0,6.1-4.9,11-11,11s-11-4.9-11-11V89.6
						C-2.1,83.5,2.8,78.6,8.9,78.6"/>
				</g>
				<g id="g1011" transform="translate(275.7275,230.833)">
					<path id="path1013" class="st5" d="M8.9,102.5c6.1,0,11,4.9,11,11v24.6c0,6.1-4.9,11-11,11s-11-4.9-11-11v-24.6
						C-2.1,107.4,2.8,102.5,8.9,102.5"/>
				</g>
				<g id="g1015" transform="translate(310.7363,179.353)">
					<path id="path1017" class="st5" d="M25.2,78.6c6.1,0,11,4.9,11,11v24.6c0,6.1-4.9,11-11,11s-11-4.9-11-11V89.6
						C14.2,83.5,19.1,78.6,25.2,78.6"/>
				</g>
				<g id="g1019" transform="translate(310.7363,230.833)">
					<path id="path1021" class="st5" d="M25.2,102.5c6.1,0,11,4.9,11,11v24.6c0,6.1-4.9,11-11,11s-11-4.9-11-11v-24.6
						C14.2,107.4,19.1,102.5,25.2,102.5"/>
				</g>
				<g id="g1023" transform="translate(206.2642,178.9941)">
					<path id="path1025" class="st5" d="M-23.4,78.4c6.1,0,11,4.9,11,11V114c0,6.1-4.9,11-11,11s-11-4.9-11-11V89.4
						C-34.3,83.4-29.4,78.4-23.4,78.4"/>
				</g>
				<g id="g1027" transform="translate(206.2642,230.4741)">
					<path id="path1029" class="st5" d="M-23.4,102.3c6.1,0,11,4.9,11,11v24.6c0,6.1-4.9,11-11,11s-11-4.9-11-11v-24.6
						C-34.3,107.3-29.4,102.3-23.4,102.3"/>
				</g>
				<g id="g1031" transform="translate(241.2637,282.0127)">
					<path id="path1033" class="st5" d="M-7.1,126.3c6.1,0,11,4.9,11,11v24.6c0,6.1-4.9,11-11,11s-11-4.9-11-11v-24.6
						C-18.1,131.2-13.2,126.3-7.1,126.3"/>
				</g>
				<g id="g1035" transform="translate(275.7275,282.0127)">
					<path id="path1037" class="st5" d="M8.9,126.3c6.1,0,11,4.9,11,11v24.6c0,6.1-4.9,11-11,11s-11-4.9-11-11v-24.6
						C-2.1,131.2,2.8,126.3,8.9,126.3"/>
				</g>
				<g id="g1039" transform="translate(310.7363,282.0127)">
					<path id="path1041" class="st5" d="M25.2,126.3c6.1,0,11,4.9,11,11v24.6c0,6.1-4.9,11-11,11s-11-4.9-11-11v-24.6
						C14.2,131.2,19.1,126.3,25.2,126.3"/>
				</g>
				<g id="g1043" transform="translate(206.2642,281.6538)">
					<path id="path1045" class="st5" d="M-23.4,126.1c6.1,0,11,4.9,11,11v24.6c0,6.1-4.9,11-11,11s-11-4.9-11-11v-24.6
						C-34.3,131-29.4,126.1-23.4,126.1"/>
				</g>
				<g id="g1047" transform="translate(372.4131,107.9946)">
					<path id="path1049" class="st5" d="M53.8,45.5c-6.1,0-11-4.9-11-11V9.9c0-6.1,4.9-11,11-11s11,4.9,11,11v24.6
						C64.8,40.5,59.9,45.5,53.8,45.5"/>
				</g>
				<g id="g1051" transform="translate(372.4131,159.4746)">
					<path id="path1053" class="st5" d="M53.8,69.4c-6.1,0-11-4.9-11-11V33.8c0-6.1,4.9-11,11-11s11,4.9,11,11v24.6
						C64.8,64.4,59.9,69.4,53.8,69.4"/>
				</g>
				<g id="g1055" transform="translate(149.9502,48.73)">
					<path id="path1057" class="st6" d="M-49.5,17.9v-60.4h-22v60.4c0,6.1,4.9,11,11,11S-49.5,24-49.5,17.9"/>
				</g>
				<g id="g1059" transform="translate(379.6396,48.73)">
					<path id="path1061" class="st7" d="M57.2,17.9v-60.4H35.4c0-0.7-0.1-1.4-0.2-2v62.4c0,0.7,0.1,1.4,0.2,2.1
						c0.9,4.4,4.4,7.9,8.9,8.7c0.6,0.1,1.3,0.2,1.9,0.2C52.3,28.9,57.2,24,57.2,17.9"/>
				</g>
				<g id="g1063" transform="translate(283.2305,48.4502)">
					<path id="path1065" class="st6" d="M12.4,17.8v-60h-22v60c0,6.1,4.9,11,11,11C7.5,28.8,12.4,23.9,12.4,17.8"/>
				</g>
				<g id="g1067" transform="translate(248.77,48.4502)">
					<path id="path1069" class="st6" d="M-3.6,17.8v-60h-22v60c0,6.1,4.9,11,11,11S-3.6,23.9-3.6,17.8"/>
				</g>
				<g id="g1079" transform="translate(149.7212,333.2114)">
					<path id="path1081" class="st5" d="M-49.6,150.1H269c6.1,0,11,4.9,11,11c0,6.1-4.9,11-11,11H-49.6c-6.1,0-11-4.9-11-11
						C-60.6,155-55.7,150.1-49.6,150.1"/>
				</g>
				<g id="g1087" transform="translate(171.9438,194.3037)">
					<path id="path1089" class="st5" d="M-39.3,85.5h-100.2c-6.1,0-11-4.9-11-11s4.9-11,11-11h111.2v11
						C-28.3,80.6-33.2,85.5-39.3,85.5"/>
				</g>
				<g id="g1091" transform="translate(406,186.8003)">
					<path id="path1093" class="st3" d="M69.4,82.1v-262.6H-38.1V71.1l78.3,8L69.4,82.1z"/>
				</g>
				<g id="g1095" transform="translate(406,186.8003)">
					<path id="path1097" class="st8" d="M69.4,82.1v-262.6H40.1V79.1L69.4,82.1z"/>
				</g>
				<g id="g1099" transform="translate(369.7568,76.2144)">
					<path id="path1101" class="st4" d="M52.6,30.7c-6.1,0-11,4.9-11,11v24.6c0,6.1,4.9,11,11,11c6.1,0,11-4.9,11-11V41.7
						C63.6,35.6,58.7,30.7,52.6,30.7"/>
				</g>
				<g id="g1103" transform="translate(369.2783,159.4746)">
					<path id="path1105" class="st4" d="M52.4,69.4c6.1,0,11-4.9,11-11V33.8c0-6.1-4.9-11-11-11c-6.1,0-11,4.9-11,11v24.6
						C41.4,64.4,46.3,69.4,52.4,69.4"/>
				</g>
				<g id="g1107" transform="translate(370.8301,56.1099)">
					<path id="path1109" class="st6" d="M53.1,21.4c-0.6,0.1-1.2,0.2-1.9,0.2c-2.7,0-5.1-0.9-7-2.5c-2.4-2-4-5.1-4-8.5v-60.4h22
						v60.4C62.2,16,58.3,20.5,53.1,21.4"/>
				</g>
				<g id="g1111" transform="translate(340.0557,194.3037)">
					<path id="path1113" class="st5" d="M38.8,85.5H139c6.1,0,11-4.9,11-11s-4.9-11-11-11H27.8v11C27.8,80.6,32.7,85.5,38.8,85.5"/>
				</g>
			</g>
		</g>
	</g>
</g>
</svg>
