<?xml version="1.0" encoding="utf-8"?>
<!-- Generator: Adobe Illustrator 27.3.0, SVG Export Plug-In . SVG Version: 6.00 Build 0)  -->
<svg version="1.1" id="Layer_1" xmlns="http://www.w3.org/2000/svg" xmlns:xlink="http://www.w3.org/1999/xlink" x="0px" y="0px"
	 viewBox="0 0 512 512" style="enable-background:new 0 0 512 512;" xml:space="preserve">
<style type="text/css">
	.st0{fill:#435E7B;}
	.st1{fill:#E6EAED;}
	.st2{fill:#D9E1EB;}
	.st3{fill:#07B2BF;}
	.st4{fill:#4FC3CB;}
	.st5{fill:#FFD13C;}
	.st6{fill:#FAB04B;}
	.st7{fill:#B9BCCD;}
	.st8{fill:#9CA2B2;}
	.st9{fill:#17578E;}
	.st10{fill:#FFFFFF;}
</style>
<g>
	<g>
		<path class="st0" d="M65.5,476.9V272.1c0-9.1,7.4-16.6,16.6-16.6h53.6v-33.1H82.1c-27.4,0-49.7,22.3-49.7,49.7v204.8L65.5,476.9z"
			/>
	</g>
	<g>
		<path class="st1" d="M438.2,48H148.3V22.5c0-8.6,7-15.5,15.5-15.5h258.9c8.6,0,15.5,7,15.5,15.5L438.2,48L438.2,48z"/>
		<path class="st2" d="M422.2,7h-23c8.8,0,16,7.2,16,16v25h23V23C438.2,14.2,431.1,7,422.2,7z"/>
		<path class="st3" d="M363.7,416.5H123.5V61.4h339.6v355.1h-49.7H363.7z"/>
		<path class="st4" d="M440.1,61.4h23v355.1h-23V61.4z"/>
		<path class="st5" d="M463.1,404.6c9.1,0,16.6,7.4,16.6,16.6v55.7H106.9v-55.7c0-9.1,7.4-16.6,16.6-16.6H463.1z"/>
		<path class="st5" d="M471.9,73.3H114.7c-4.3,0-7.8-3.5-7.8-7.8V47.9c0-4.3,3.5-7.8,7.8-7.8h357.2c4.3,0,7.8,3.5,7.8,7.8v17.6
			C479.6,69.8,476.2,73.3,471.9,73.3z"/>
		<g>
			<path class="st6" d="M463.1,404.6h-23c9.1,0,16.6,7.4,16.6,16.6v55.7h23v-55.7C479.6,412,472.2,404.6,463.1,404.6z"/>
			<path class="st6" d="M471.7,40.1h-23c4.4,0,8,3.6,8,8v17.1c0,4.4-3.6,8-8,8h23c4.4,0,8-3.6,8-8V48.1
				C479.6,43.7,476.1,40.1,471.7,40.1z"/>
		</g>
	</g>
	<path class="st7" d="M496.7,504H15.3c-4.3,0-7.8-3.5-7.8-7.8v-17.6c0-4.3,3.5-7.8,7.8-7.8h481.5c4.3,0,7.8,3.5,7.8,7.8v17.6
		C504.5,500.5,501,504,496.7,504z"/>
	<path class="st8" d="M496.5,470.9h-23c4.4,0,8,3.6,8,8V496c0,4.4-3.6,8-8,8h23c4.4,0,8-3.6,8-8v-17.1
		C504.5,474.4,500.9,470.9,496.5,470.9z"/>
	<g>
		<ellipse class="st1" cx="239.3" cy="242.5" rx="98.7" ry="98.7"/>
		<path class="st2" d="M239.5,143.7c-6.7,0-13.3,0.7-19.6,2c45.2,9.1,79.2,49,79.2,96.8s-34,87.7-79.2,96.8c6.3,1.3,12.9,2,19.6,2
			c54.5,0,98.7-44.2,98.7-98.7S294,143.7,239.5,143.7L239.5,143.7z"/>
		<path class="st9" d="M284.8,235.2l-31.8-55.1c-4.7-8.2-16.5-8.2-21.2,0l-31.8,55.1c-4.2,7.2-6.6,15.6-6.6,24.5c0,27,21.9,49,49,49
			s49-21.9,49-49C291.4,250.8,289,242.4,284.8,235.2L284.8,235.2z"/>
	</g>
	<g>
		<g>
			<g>
				<path class="st10" d="M413.4,124.9h-49.7c-4.1,0-7.5-3.4-7.5-7.5c0-4.1,3.4-7.5,7.5-7.5h49.7c4.1,0,7.5,3.4,7.5,7.5
					C420.9,121.6,417.5,124.9,413.4,124.9z"/>
			</g>
		</g>
		<g>
			<g>
				<path class="st10" d="M413.4,169.1h-49.7c-4.1,0-7.5-3.4-7.5-7.5c0-4.1,3.4-7.5,7.5-7.5h49.7c4.1,0,7.5,3.4,7.5,7.5
					C420.9,165.8,417.5,169.1,413.4,169.1z"/>
			</g>
		</g>
		<g>
			<g>
				<g>
					<path class="st10" d="M413.4,213.3h-49.7c-4.1,0-7.5-3.4-7.5-7.5c0-4.1,3.4-7.5,7.5-7.5h49.7c4.1,0,7.5,3.4,7.5,7.5
						C420.9,209.9,417.5,213.3,413.4,213.3z"/>
				</g>
			</g>
		</g>
		<g>
			<g>
				<g>
					<path class="st10" d="M413.4,257.5h-49.7c-4.1,0-7.5-3.4-7.5-7.5c0-4.1,3.4-7.5,7.5-7.5h49.7c4.1,0,7.5,3.4,7.5,7.5
						C420.9,254.1,417.5,257.5,413.4,257.5z"/>
				</g>
			</g>
		</g>
		<g>
			<g>
				<path class="st10" d="M413.4,301.7h-49.7c-4.1,0-7.5-3.4-7.5-7.5c0-4.1,3.4-7.5,7.5-7.5h49.7c4.1,0,7.5,3.4,7.5,7.5
					C420.9,298.3,417.5,301.7,413.4,301.7z"/>
			</g>
		</g>
		<g>
			<g>
				<path class="st10" d="M413.4,345.8h-49.7c-4.1,0-7.5-3.4-7.5-7.5c0-4.1,3.4-7.5,7.5-7.5h49.7c4.1,0,7.5,3.4,7.5,7.5
					C420.9,342.5,417.5,345.8,413.4,345.8z"/>
			</g>
		</g>
		<g>
			<g>
				<path class="st10" d="M413.4,390h-49.7c-4.1,0-7.5-3.4-7.5-7.5c0-4.1,3.4-7.5,7.5-7.5h49.7c4.1,0,7.5,3.4,7.5,7.5
					C420.9,386.7,417.5,390,413.4,390z"/>
			</g>
		</g>
	</g>
</g>
</svg>
