<?xml version="1.0" encoding="utf-8"?>
<!-- Generator: Adobe Illustrator 27.3.0, SVG Export Plug-In . SVG Version: 6.00 Build 0)  -->
<svg version="1.1" id="Flat" xmlns="http://www.w3.org/2000/svg" xmlns:xlink="http://www.w3.org/1999/xlink" x="0px" y="0px"
	 viewBox="0 0 512 512" style="enable-background:new 0 0 512 512;" xml:space="preserve">
<style type="text/css">
	.st0{fill:#4998D2;}
	.st1{fill:#102A4C;}
	.st2{fill:#EFEEEE;}
	.st3{fill:#C9D0E0;}
	.st4{fill:#FDBA1E;}
	.st5{fill:#646A74;}
	.st6{fill:#888888;}
	.st7{fill:#A1A1A1;}
</style>
<path class="st0" d="M63.6,464.4V363.5c0-3.4,1.2-6.7,3.5-9.3l41.8-47.8c2.7-3.1,6.6-4.8,10.7-4.8h99.8c23.5,0,42.5,19,42.5,42.5
	s-19,42.5-42.5,42.5h-21.2v77.9H63.6z"/>
<path class="st1" d="M113.2,365.3H184c7.8,0,14.2,6.3,14.2,14.2v85l0,0H99l0,0v-85C99,371.6,105.3,365.3,113.2,365.3z"/>
<circle class="st2" cx="174.3" cy="292.8" r="44.2"/>
<path class="st3" d="M42.8,464.4h204.1c4.2,0,7.6,7.4,7.6,16.5v8.2c0,9.1-3.4,16.5-7.6,16.5H42.8c-4.2,0-7.6-7.4-7.6-16.5v-8.2
	C35.3,471.8,38.7,464.4,42.8,464.4z"/>
<path class="st3" d="M242.8,449.4h65.5h140.3h28.1V507H242.8v-32.9V449.4z"/>
<g>
	<polygon class="st4" points="325,248.6 325,153.3 325,116.3 387.7,186 	"/>
	<polygon class="st4" points="325,404.9 325,309.6 325,272.6 387.7,342.3 	"/>
	<path class="st4" d="M326.6,95.9H399V174l-67.9-75.6C329.9,97.1,328.3,96.2,326.6,95.9z"/>
	<path class="st4" d="M399,354.1v37.7v32.9h-74v0c2.2,0,4.3-0.9,5.8-2.4L399,354.1z"/>
	<polygon class="st4" points="399,197.9 399,235.7 399,330.3 336.3,260.5 	"/>
</g>
<path class="st5" d="M423.7,424.8v24.7H300.4v-24.7H325h74H423.7z"/>
<path class="st6" d="M166.7,31.7h17.9v224.3h-17.9V31.7z"/>
<g>
	<path class="st7" d="M462.8,164.7L167.1,39.5c-9.1-3.9-13.4-14.4-9.5-23.5c3.9-9.1,14.4-13.4,23.5-9.5l281.7,119.3L462.8,164.7z"/>
</g>
<circle class="st2" cx="360.7" cy="108" r="48"/>
</svg>
