<svg id="Flat" height="512" viewBox="0 0 64 64" width="512" xmlns="http://www.w3.org/2000/svg"><path d="m22 6h2v25h-2z" fill="#898989"/><g fill="#a3a3a3"><path d="m40 52h-2l.011-8.146 4-27 1.978.292-3.989 26.927z"/><path d="m50 52h-2v-7.927l-3.989-26.927 1.978-.292 4.011 27.146z"/><path d="m55.00162 20.83167-32.96032-13.96017a2 2 0 0 1 -1.06162-2.62163 2 2 0 0 1 2.62163-1.06161l31.40419 13.30107z"/></g><path d="m7 56v-14.24853a2 2 0 0 1 .49485-1.317l5.90753-6.75147a2 2 0 0 1 1.50516-.683h14.09246a6 6 0 0 1 6 6 6 6 0 0 1 -6 6h-3v11z" fill="#ccb164"/><path d="m14 42h10a2 2 0 0 1 2 2v12a0 0 0 0 1 0 0h-14a0 0 0 0 1 0 0v-12a2 2 0 0 1 2-2z" fill="#ffde7e"/><circle cx="23" cy="34" fill="#efefef" r="4"/><circle cx="44" cy="14" fill="#efefef" r="4"/><rect fill="#b39b57" height="5" rx="2" width="58" x="3" y="56"/><path d="m55 30v-14a2 2 0 0 1 2-2h2a2 2 0 0 1 2 2v10.61484a2 2 0 0 1 -.14305.74278l-1.35406 3.38516a2 2 0 0 1 -1.85696 1.25722h-.64593a2 2 0 0 1 -2-2z" fill="#69aee6"/><path d="m38 52h12a2 2 0 0 1 2 2v2a0 0 0 0 1 0 0h-16a0 0 0 0 1 0 0v-2a2 2 0 0 1 2-2z" fill="#ffde7e"/><path d="m39 27h10v2h-10z" fill="#d6d6d6"/><path d="m36 45h16v2h-16z" fill="#d6d6d6"/></svg>