<?xml version="1.0" encoding="utf-8"?>
<!-- Generator: Adobe Illustrator 27.3.0, SVG Export Plug-In . SVG Version: 6.00 Build 0)  -->
<svg version="1.1" id="Layer_1" xmlns="http://www.w3.org/2000/svg" xmlns:xlink="http://www.w3.org/1999/xlink" x="0px" y="0px"
	 viewBox="0 0 512 512" style="enable-background:new 0 0 512 512;" xml:space="preserve">
<style type="text/css">
	.st0{fill:#FDBA1E;}
	.st1{fill:#FFCF45;}
	.st2{fill:#ED6524;}
	.st3{fill:#F89F1E;}
	.st4{fill:#D6E5EE;}
	.st5{fill:#FFFFFF;}
	.st6{fill:#17578E;}
</style>
<g>
	<g>
		<g>
			<path class="st0" d="M77.1,8h357.7v498H77.1V8z"/>
		</g>
	</g>
	<g>
		<g>
			<path class="st1" d="M77.1,8H256v498H77.1V8z"/>
		</g>
	</g>
	<g>
		<g>
			<path class="st2" d="M434.9,43.8H77.1c-9.9,0-17.9-8-17.9-17.9S67.3,8,77.1,8h357.7c9.9,0,17.9,8,17.9,17.9
				S444.7,43.8,434.9,43.8z"/>
		</g>
	</g>
	<g>
		<g>
			<path class="st2" d="M434.9,506H77.1c-9.9,0-17.9-8-17.9-17.9s8-17.9,17.9-17.9h357.7c9.9,0,17.9,8,17.9,17.9
				S444.7,506,434.9,506z"/>
		</g>
	</g>
	<g>
		<g>
			<path class="st3" d="M452.8,25.9H59.2C59.2,16,67.3,8,77.1,8h357.7C444.7,8,452.8,16,452.8,25.9z"/>
		</g>
	</g>
	<g>
		<g>
			<path class="st3" d="M452.8,488.1H59.2c0-9.9,8-17.9,17.9-17.9h357.7C444.7,470.2,452.8,478.2,452.8,488.1z"/>
		</g>
	</g>
	<g>
		<g>
			<g>
				<circle class="st4" cx="256" cy="255.2" r="155.5"/>
			</g>
		</g>
		<g>
			<g>
				<path class="st5" d="M111.6,266.4c-6.1,0-11.1-5-11.1-11.1c0-85.7,69.7-155.5,155.5-155.5c6.1,0,11.1,5,11.1,11.1
					s-5,11.1-11.1,11.1c-73.5,0-133.3,59.8-133.3,133.3C122.7,261.4,117.8,266.4,111.6,266.4z"/>
			</g>
		</g>
		<g>
			<g>
				<g>
					<path class="st6" d="M256,133.1c-7.1,0-13.9,3.2-18.4,8.8c-19.3,23.9-70.5,91.5-70.5,135.6c0,49.1,39.8,88.8,88.8,88.8
						s88.8-39.8,88.8-88.8c0-44-51.2-111.7-70.5-135.6C269.9,136.3,263.1,133.1,256,133.1L256,133.1z"/>
				</g>
			</g>
			<g>
				<g>
					<path class="st6" d="M256,133.1c-7.1,0-13.9,3.2-18.4,8.8c-19.3,23.9-70.5,91.5-70.5,135.6h44.4c24.5,0,44.4-19.9,44.4-44.4
						V133.1z"/>
				</g>
			</g>
		</g>
	</g>
</g>
</svg>
