<?xml version="1.0" encoding="utf-8"?>
<!-- Generator: Adobe Illustrator 27.3.0, SVG Export Plug-In . SVG Version: 6.00 Build 0)  -->
<svg version="1.1" id="Layer_1" xmlns="http://www.w3.org/2000/svg" xmlns:xlink="http://www.w3.org/1999/xlink" x="0px" y="0px"
	 viewBox="0 0 512 512" style="enable-background:new 0 0 512 512;" xml:space="preserve">
<style type="text/css">
	.st0{fill:#FFCF45;}
	.st1{fill:#4EC3CC;}
	.st2{fill:#07B4C0;}
</style>
<g id="_x33_7_Order_now">
	<g>
		<g>
			<path class="st0" d="M125,78.8c-11.9-12-31.3-12-43.3,0c-12,11.9-12,31.3,0,43.3l34.3,34.3c11.9,12,31.3,12,43.3,0
				c12-11.9,12-31.3,0-43.3L125,78.8z"/>
			<path class="st0" d="M290.4,84.1V35.6c0-16.9-13.7-30.6-30.6-30.6c-16.9,0-30.6,13.7-30.6,30.6v48.5c0,16.9,13.7,30.6,30.6,30.6
				C276.7,114.7,290.4,101,290.4,84.1z"/>
			<path class="st0" d="M87.1,226.2H38.6C21.7,226.2,8,239.9,8,256.8c0,16.9,13.7,30.6,30.6,30.6h48.5c16.9,0,30.6-13.7,30.6-30.6
				C117.7,239.9,104,226.2,87.1,226.2z"/>
		</g>
	</g>
</g>
<polygon class="st1" points="183.3,186 183.3,399.5 256.1,326.7 440.2,508 504,444.2 320,262.8 396.8,186 "/>
<polygon class="st2" points="186.7,189.5 310.2,317.8 469.1,474.9 499.7,444.4 315.6,262.9 388.8,189.4 "/>
</svg>
