<?xml version="1.0" encoding="utf-8"?>
<!-- Generator: Adobe Illustrator 27.3.0, SVG Export Plug-In . SVG Version: 6.00 Build 0)  -->
<svg version="1.1" id="Capa_1" xmlns="http://www.w3.org/2000/svg" xmlns:xlink="http://www.w3.org/1999/xlink" x="0px" y="0px"
	 viewBox="0 0 512 512" style="enable-background:new 0 0 512 512;" xml:space="preserve">
<style type="text/css">
	.st0{fill:#CDCDCD;}
	.st1{fill:#BE202E;}
	.st2{opacity:0.4;fill:url(#SVGID_1_);}
	.st3{fill:#ACACAC;}
	.st4{fill:#12284B;}
</style>
<path class="st0" d="M499.4,338H14.5c-4.4,0-8-3.6-8-8v-17.4c0-4.4,3.6-8,8-8h484.9c4.4,0,8,3.6,8,8V330
	C507.3,334.5,503.8,338,499.4,338z"/>
<g>
	<path class="st1" d="M316.3,55c-20.7,47.6-68.4,110.4-178.4,155.3c16.3,52.7,65.4,91,123.5,91c71.4,0,129.3-57.9,129.3-129.3
		C390.7,120.3,360.2,75.6,316.3,55z"/>
	<path class="st1" d="M316.3,55c-16.7-7.8-35.3-12.2-54.9-12.2c-71.4,0-129.3,57.9-129.3,129.3c0,13.3,2,26.2,5.8,38.3
		C247.9,165.4,295.6,102.6,316.3,55z"/>
	<linearGradient id="SVGID_1_" gradientUnits="userSpaceOnUse" x1="54.2461" y1="126.538" x2="326.0539" y2="126.538">
		<stop  offset="0" style="stop-color:#352713"/>
		<stop  offset="0.1392" style="stop-color:#392B16"/>
		<stop  offset="0.2788" style="stop-color:#45371F"/>
		<stop  offset="0.4187" style="stop-color:#584B2E"/>
		<stop  offset="0.5588" style="stop-color:#736743"/>
		<stop  offset="0.6992" style="stop-color:#968C5F"/>
		<stop  offset="0.8398" style="stop-color:#C1B880"/>
		<stop  offset="0.9782" style="stop-color:#F3ECA7"/>
		<stop  offset="1" style="stop-color:#FCF5AE"/>
	</linearGradient>
	<path class="st2" d="M316.3,55c-16.7-7.8-35.3-12.2-54.9-12.2c-71.4,0-129.3,57.9-129.3,129.3c0,13.3,2,26.2,5.8,38.3
		C247.9,165.4,295.6,102.6,316.3,55z"/>
</g>
<path class="st0" d="M499.4,505H14.5c-4.4,0-8-3.6-8-8v-17.4c0-4.4,3.6-8,8-8h484.9c4.4,0,8,3.6,8,8V497
	C507.3,501.4,503.8,505,499.4,505z"/>
<path class="st3" d="M499.3,304.6h-23.2c4.5,0,8.1,3.6,8.1,8.1V330c0,4.5-3.6,8.1-8.1,8.1h23.2c4.5,0,8.1-3.6,8.1-8.1v-17.3
	C507.3,308.3,503.7,304.6,499.3,304.6z"/>
<path class="st3" d="M499.3,471.6h-23.2c4.5,0,8.1,3.6,8.1,8.1v17.3c0,4.5-3.6,8.1-8.1,8.1h23.2c4.5,0,8.1-3.6,8.1-8.1v-17.3
	C507.3,475.2,503.7,471.6,499.3,471.6z"/>
<g>
	<path class="st1" d="M45.1,445.1c-22.3,0-40.5-16.7-40.5-40.4c0-23.7,18.2-40.3,40.5-40.3c22.4,0,40.3,16.6,40.3,40.3
		C85.4,428.4,67.5,445.1,45.1,445.1z M45.1,427.6c12.6,0,20.7-9.1,20.7-22.9c0-14-8.2-22.9-20.7-22.9c-12.8,0-20.9,8.9-20.9,22.9
		C24.3,418.6,32.4,427.6,45.1,427.6z"/>
	<path class="st1" d="M146.4,365.6h20.3l-27.9,78.7h-24l-27.9-78.7h20.4l19.5,59.4L146.4,365.6z"/>
	<path class="st1" d="M219.6,381h-29.1v15.9h25.7v14.8h-25.7V429h29.1v15.4h-48.2v-78.7h48.2V381z"/>
	<path class="st1" d="M261,365.6c19.3,0,28.9,11.1,28.9,24.8c0,9.9-5.4,19.2-17.5,22.8l18.2,31.2H269l-16.4-29.7H248v29.7h-19.2
		v-78.7H261z M259.9,381.5H248v19.5h11.9c7.2,0,10.5-3.7,10.5-9.9C270.4,385.4,267.1,381.5,259.9,381.5z"/>
	<path class="st1" d="M369.5,405c0,23.3-16.2,39.4-41.3,39.4h-29.5v-78.7h29.5C353.3,365.6,369.5,381.5,369.5,405z M327,427.8
		c14.5,0,23-8.3,23-22.8c0-14.5-8.5-23-23-23h-9.1v45.8H327z"/>
	<path class="st1" d="M376.6,365.6h19.2v47.1c0,9.3,4.6,14.7,13.7,14.7c9.1,0,13.9-5.4,13.9-14.7v-47.1h19.2v47
		c0,21.8-15.3,32.5-33.4,32.5c-18.3,0-32.5-10.8-32.5-32.5V365.6z"/>
	<path class="st1" d="M501,381H472v15.9h25.7v14.8H472V429H501v15.4h-48.2v-78.7H501V381z"/>
</g>
<g>
	<path class="st4" d="M413.1,172.1c0-0.1,0-0.2,0-0.2c0-1.4,0-2.8-0.1-4.2c0-0.5,0-1.1-0.1-1.5c0-1.1-0.1-2.1-0.1-3.2
		c0-0.5-0.1-1.1-0.1-1.5c-0.1-1.4-0.2-2.8-0.4-4.2c0-0.1,0-0.2,0-0.2c-0.1-1.6-0.4-3.2-0.6-4.8c0-0.1,0-0.4-0.1-0.5
		c-0.2-1.5-0.5-2.9-0.7-4.3c0-0.1,0-0.2-0.1-0.4c-3-17.9-9.3-35.2-18.3-50.6l-0.1-0.1c-0.7-1.2-1.4-2.3-2.1-3.5
		c-0.2-0.4-0.5-0.7-0.7-1.1c-0.6-0.9-1.2-1.8-1.8-2.7c-0.2-0.4-0.5-0.8-0.8-1.2c-0.7-1.1-1.4-2.1-2.2-3.2c-0.5-0.7-1.1-1.4-1.5-2.1
		c-0.2-0.4-0.6-0.7-0.8-1.1c-0.6-0.8-1.3-1.6-1.9-2.5c-0.1-0.1-0.1-0.1-0.2-0.2c-19.7-25-47-43.6-78.5-52.3l0,0
		c-1.3-0.4-2.7-0.7-4-1.1c-0.7-0.2-1.5-0.4-2.2-0.6c-0.1,0-0.1,0-0.2,0c-10.9-2.5-22.4-3.9-34.1-3.9c-83.7,0-151.4,67.9-151.4,151.4
		c0,13,1.6,25.6,4.7,37.6c0.2,0.8,0.5,1.8,0.7,2.6c0.2,0.7,0.4,1.3,0.6,2c0.5,1.8,1.1,3.5,1.6,5.3l0,0c4.1,12.4,9.7,24,16.6,34.8
		h0.1c9.7,14.9,21.6,27.8,35.2,38.2l0.1,0.1c1.1,0.8,2.1,1.5,3.2,2.3c0.2,0.2,0.5,0.4,0.8,0.6c0.8,0.6,1.6,1.2,2.5,1.8
		c1.2,0.8,2.3,1.6,3.6,2.3c0.1,0,0.1,0.1,0.2,0.1c15.4,9.8,32.6,17,51,20.7c0,0,0,0,0.1,0c1.2,0.2,2.3,0.5,3.5,0.7
		c0.1,0,0.2,0,0.4,0.1c3.3,0.6,6.7,1.1,10.1,1.4c0.5,0,0.8,0.1,1.3,0.1c0.8,0.1,1.6,0.1,2.5,0.2c0.7,0,1.3,0.1,2,0.1
		c0.7,0,1.4,0.1,2.2,0.1s1.6,0.1,2.5,0.1c0.6,0,1.3,0,1.9,0.1c1.3,0,2.6,0.1,4,0.1c0.1,0,0.2,0,0.4,0
		C345.1,323.5,413,255.7,413.1,172.1z M278.9,287.4v-4.6c0-9.6-7.9-17.3-17.3-17.3c-9.6,0-17.3,7.9-17.3,17.3v4.6
		c-50.6-7.6-90.5-47.5-98-98h4.6c9.6,0,17.3-7.9,17.3-17.3c0-9.6-7.9-17.3-17.3-17.3h-4.6c7.6-50.6,47.5-90.5,98-98v4.6
		c0,9.6,7.9,17.3,17.3,17.3c9.6,0,17.3-7.9,17.3-17.3v-4.6c50.6,7.6,90.5,47.5,98,98h-4.6c-9.6,0-17.3,7.9-17.3,17.3
		c0,9.6,7.9,17.3,17.3,17.3h4.6C369.4,240.1,329.5,279.9,278.9,287.4z"/>
</g>
<path class="st4" d="M243.7,169.5v64.1c0,9.6,7.9,17.3,17.3,17.3c9.6,0,17.3-7.9,17.3-17.3v-57l53.1-53.9c3.3-3.3,5-7.7,5-12.3
	c0-4.7-1.9-9-5.2-12.3c-3.3-3.3-7.6-5-12.2-5c-0.1,0-0.1,0-0.2,0c-4.7,0-9,1.9-12.2,5.2l-58,59C245.5,160.6,243.7,164.8,243.7,169.5
	z"/>
</svg>
