<?xml version="1.0" encoding="UTF-8"?>
<svg id="Capa_1" data-name="Capa 1" xmlns="http://www.w3.org/2000/svg" viewBox="0 0 512 512">
  <defs>
    <style>
      .cls-1 {
        fill: #00adee;
      }

      .cls-2 {
        fill: #f6921e;
      }

      .cls-3 {
        fill: #ffcf45;
      }

      .cls-4 {
        fill: #12284c;
      }
    </style>
  </defs>
  <path class="cls-1" d="m261.72,62.52l43.09,19.3V20h-106.41v61.82l43.06-19.29c6.48-2.87,13.83-2.86,20.26-.01Z"/>
  <path class="cls-2" d="m444.49,20h-90.01v100.14c0,8.47-4.24,16.26-11.34,20.84-6.97,4.5-16.05,5.2-23.61,1.84l-67.92-30.41-67.9,30.4c-7.78,3.44-16.61,2.74-23.67-1.85-7.07-4.57-11.31-12.36-11.31-20.83V20H58.71v349.71h385.78V20Zm-254.93,310.16h-50.62v-49.67h50.62v49.67Zm87.35,0h-50.62v-49.67h50.62v49.67Zm87.35,0h-50.63v-49.67h50.63v49.67Z"/>
  <path class="cls-3" d="m492.17,418.42c7.78,0,14.11-8.2,14.11-18.28s-6.33-18.28-14.11-18.28H19.83c-7.78,0-14.11,8.2-14.11,18.28s6.33,18.28,14.11,18.28h85.55v51.01H19.83c-7.78,0-14.11,8.2-14.11,18.28s6.33,18.28,14.11,18.28h472.35c7.78,0,14.11-8.2,14.11-18.28s-6.33-18.28-14.11-18.28h-85.55v-51.01h85.55Zm-252.92,51.01h-105.65v-51.01h105.65v51.01Zm139.15,0h-110.92v-51.01h110.92v51.01Z"/>
  <rect class="cls-4" x="138.94" y="280.49" width="50.62" height="49.67"/>
  <rect class="cls-4" x="226.3" y="280.49" width="50.62" height="49.67"/>
  <rect class="cls-4" x="313.63" y="280.49" width="50.63" height="49.67"/>
</svg>