<?xml version="1.0" encoding="utf-8"?>
<!-- Generator: Adobe Illustrator 27.3.0, SVG Export Plug-In . SVG Version: 6.00 Build 0)  -->
<svg version="1.1" id="Capa_1" xmlns="http://www.w3.org/2000/svg" xmlns:xlink="http://www.w3.org/1999/xlink" x="0px" y="0px"
	 viewBox="0 0 512 512" style="enable-background:new 0 0 512 512;" xml:space="preserve">
<style type="text/css">
	.st0{fill-rule:evenodd;clip-rule:evenodd;fill:#BE202E;}
	.st1{fill-rule:evenodd;clip-rule:evenodd;fill:#A31D29;}
	.st2{fill-rule:evenodd;clip-rule:evenodd;fill:#FFFFFF;}
	.st3{fill-rule:evenodd;clip-rule:evenodd;fill:#4FC3CB;}
	.st4{fill-rule:evenodd;clip-rule:evenodd;fill:#CAE0E5;}
	.st5{fill:#112A4C;}
</style>
<path class="st0" d="M134.5,65.9L29,72.5c-3.2,0.2-5.6,3-5.4,6.2l2.3,36.5l11.5,183.2L49.9,498c0.2,3.2,3,5.6,6.2,5.4l92.7-5.9
	l169.4-10.6l39.8-2.5l-20.5-2.2L134.5,65.9z"/>
<path class="st1" d="M136.1,69.1l-24.3,1.5L69.2,466.4c-0.3,3.3,2,6.3,5.3,6.6l94.8,10.2l56.4,6.1l91.1-5.8l39.2-2.4l-20.1-2.2
	l-24.8-2.7l-115.4-12.4l-94.8-10.2c-3.3-0.3-5.6-3.3-5.3-6.6C109,321.1,122.6,195,136.1,69.1"/>
<path class="st2" d="M115.5,242.5L93.2,449.9c-0.3,3.3,2.1,6.3,5.4,6.7l96.3,10.4l142.5,15.4l20.5,2.2l83.9,9.1
	c3.3,0.3,6.3-2.1,6.6-5.4l10.5-97.4l29-269.3l0.3-2.8l-61.3-6.6c-5.9-0.7-18.2-1.1-16.8-14.5l6.3-59.8L146.8,8.7
	c-3.3-0.3-6.3,2.1-6.6,5.4l-5.5,51.7l-2.4,21.9L115.5,242.5z"/>
<path class="st3" d="M459.1,390.7l28.9-269.2l0.3-2.8l0.1-0.9c0.2-1.8-0.6-2.1-2.9-5l-59.4-70.2c-2.8-3.3-3.2-4.1-5.1-4.3l-4.5-0.4
	L146.8,8.7c-3.3-0.3-6.3,2.1-6.6,5.4l-47,435.7c-0.3,3.3,2.1,6.3,5.4,6.7l343.2,36.9c3.3,0.3,6.3-2.1,6.6-5.4L459.1,390.7z"/>
<path class="st4" d="M459.1,390.7l28.9-269.2l0.3-2.8c0.3-3.2-0.7-3.4-2.8-6l-59.4-70.2c-2.8-3.3-3.2-4.1-5.1-4.3l-4.5-0.4
	l-67.1-7.2c70.2,118.6,53.6,317.1-20.6,434.1c-3.4,5.4-7,10.6-10.6,15.7l19.2,2.1l20.5,2.2l83.9,9.1c3.3,0.3,6.3-2.1,6.6-5.4
	L459.1,390.7z"/>
<path class="st2" d="M410.2,97.6c-1.4,13.4,10.9,13.8,16.8,14.5l61.3,6.6l0.1-0.9c0.2-1.8-0.6-2.1-2.9-5l-59.4-70.2
	c-2.8-3.3-3.2-4.1-5.1-4.3l-4.5-0.4L410.2,97.6z"/>
<path class="st0" d="M485.5,112.8l-59.4-70.2c-2.8-3.3-3.2-4.1-5.1-4.3l-4.5-0.4l-6.3,59.8c-1.4,13.4,0.2-2-1.3,12.5l79.5,8.5
	l0.1-0.9C488.6,116,487.8,115.6,485.5,112.8"/>
<path class="st5" d="M435.8,173.2l-259.8-28c0.9-8.5,0.4-3.8,0.9-8.5c0.6-4.6,0.9-8.5,0.9-8.5l259.8,28c-0.9,8.5-0.4,3.8-0.9,8.5
	C436.3,169.5,436.7,164.7,435.8,173.2"/>
<path class="st5" d="M408.3,429.6l-259.8-28c0.9-8.5,0.4-3.8,0.9-8.5c0.6-4.6,0.9-8.5,0.9-8.5l259.8,28c-0.9,8.5-0.4,3.8-0.9,8.5
	C408.6,425.8,409.2,421.1,408.3,429.6"/>
<path class="st5" d="M415.2,365.5l-259.8-28c0.9-8.5,0.4-3.8,0.9-8.5c0.6-4.6,0.9-8.5,0.9-8.5l259.8,28c-0.9,8.5-0.4,3.8-0.9,8.5
	C415.6,361.8,416,357,415.2,365.5"/>
<path class="st5" d="M422,301.4l-259.8-28c0.9-8.5,0.4-3.8,0.9-8.5c0.6-4.6,0.9-8.5,0.9-8.5l259.8,28c-0.9,8.5-0.4,3.8-0.9,8.5
	C422.5,297.6,423,293,422,301.4"/>
<path class="st5" d="M429,237.4l-259.8-28c0.9-8.5,0.4-3.8,0.9-8.5c0.6-4.6,0.9-8.5,0.9-8.5l259.8,28c-0.9,8.5-0.4,3.8-0.9,8.5
	C429.3,233.5,429.9,228.9,429,237.4"/>
</svg>
