<?xml version="1.0" encoding="utf-8"?>
<!-- Generator: Adobe Illustrator 27.3.0, SVG Export Plug-In . SVG Version: 6.00 Build 0)  -->
<svg version="1.1" id="Capa_1" xmlns="http://www.w3.org/2000/svg" xmlns:xlink="http://www.w3.org/1999/xlink" x="0px" y="0px"
	 viewBox="0 0 512 512" style="enable-background:new 0 0 512 512;" xml:space="preserve">
<style type="text/css">
	.st0{fill-rule:evenodd;clip-rule:evenodd;fill:#BE1522;stroke:#FFFFFF;stroke-width:5;stroke-miterlimit:10;}
	.st1{fill-rule:evenodd;clip-rule:evenodd;fill:#A50C1E;}
	.st2{fill-rule:evenodd;clip-rule:evenodd;fill:#FFFFFF;}
	.st3{fill-rule:evenodd;clip-rule:evenodd;fill:#EDF3F4;stroke:#FFFFFF;stroke-width:5;stroke-miterlimit:10;}
	.st4{fill-rule:evenodd;clip-rule:evenodd;fill:#D7E7EC;}
	.st5{fill-rule:evenodd;clip-rule:evenodd;fill:#BE1522;}
	.st6{fill:#12284C;stroke:#FFFFFF;stroke-width:5;stroke-miterlimit:10;}
</style>
<g>
	<g>
		<path class="st0" d="M151.1,70.7l-95.5,6c-2.9,0.2-5.1,2.7-4.9,5.6l2.1,33L63.2,281l11.3,180.5c0.2,2.9,2.7,5.1,5.6,4.9l83.8-5.3
			l153.2-9.6l36-2.3l-18.5-2L151.1,70.7z"/>
	</g>
	<g>
		<path class="st1" d="M152.5,73.6l-22,1.4L92,432.9c-0.3,3,1.8,5.7,4.8,6l85.7,9.2l51,5.5l82.4-5.2l35.5-2.2l-18.2-2l-22.4-2.4
			l-104.4-11.2l-85.7-9.2c-3-0.3-5.1-3-4.8-6C128,301.5,140.3,187.5,152.5,73.6L152.5,73.6z"/>
	</g>
	<g>
		<path class="st2" d="M133.9,230.4L113.7,418c-0.3,3,1.9,5.7,4.9,6.1l87.1,9.4l128.9,13.9l18.5,2l75.9,8.2c3,0.3,5.7-1.9,6-4.9
			l9.5-88.1L470.7,121l0.3-2.5l-55.4-6c-5.3-0.6-16.5-1-15.2-13.1l5.7-54.1L162.2,19c-3-0.3-5.7,1.9-6,4.9l-5,46.8L149,90.5
			L133.9,230.4L133.9,230.4z"/>
	</g>
	<g>
		<path class="st3" d="M444.6,364.5L470.7,121l0.3-2.5l0.1-0.8c0.2-1.6-0.5-1.9-2.6-4.5l-53.7-63.5c-2.5-3-2.9-3.7-4.6-3.9l-4.1-0.4
			L162.2,19c-3-0.3-5.7,1.9-6,4.9L113.7,418c-0.3,3,1.9,5.7,4.9,6.1L429,457.5c3,0.3,5.7-1.9,6-4.9L444.6,364.5z"/>
	</g>
	<g>
		<path class="st4" d="M444.6,364.5L470.7,121l0.3-2.5c0.3-2.9-0.6-3.1-2.5-5.4l-53.7-63.5c-2.5-3-2.9-3.7-4.6-3.9l-4.1-0.4
			l-60.7-6.5c63.5,107.3,48.5,286.8-18.6,392.6c-3.1,4.9-6.3,9.6-9.6,14.2l17.4,1.9l18.5,2l75.9,8.2c3,0.3,5.7-1.9,6-4.9
			L444.6,364.5z"/>
	</g>
	<g>
		<path class="st2" d="M400.4,99.4c-1.3,12.1,9.9,12.5,15.2,13.1l55.4,6l0.1-0.8c0.2-1.6-0.5-1.9-2.6-4.5l-53.7-63.5
			c-2.5-3-2.9-3.7-4.6-3.9l-4.1-0.4L400.4,99.4z"/>
	</g>
	<g>
		<path class="st5" d="M468.5,113.1l-53.7-63.5c-2.5-3-2.9-3.7-4.6-3.9l-4.1-0.4l-5.7,54.1c-1.3,12.1,0.2-1.8-1.2,11.3l71.9,7.7
			l0.1-0.8C471.3,116,470.6,115.7,468.5,113.1z"/>
	</g>
	<g>
		<path class="st6" d="M423.6,167.8l-235-25.3c0.8-7.7,0.4-3.4,0.8-7.7c0.5-4.2,0.8-7.7,0.8-7.7l235,25.3c-0.8,7.7-0.4,3.4-0.8,7.7
			C424,164.4,424.4,160.1,423.6,167.8z"/>
	</g>
	<g>
		<path class="st6" d="M398.7,399.7l-235-25.3c0.8-7.7,0.4-3.4,0.8-7.7c0.5-4.2,0.8-7.7,0.8-7.7l235,25.3c-0.8,7.7-0.4,3.4-0.8,7.7
			C399,396.2,399.5,392,398.7,399.7z"/>
	</g>
	<g>
		<path class="st6" d="M404.9,341.7l-235-25.3c0.8-7.7,0.4-3.4,0.8-7.7c0.5-4.2,0.8-7.7,0.8-7.7l235,25.3c-0.8,7.7-0.4,3.4-0.8,7.7
			S405.7,334,404.9,341.7z"/>
	</g>
	<g>
		<path class="st6" d="M411.1,283.7l-235-25.3c0.8-7.7,0.4-3.4,0.8-7.7c0.5-4.2,0.8-7.7,0.8-7.7l235,25.3c-0.8,7.7-0.4,3.4-0.8,7.7
			C411.5,280.3,412,276.1,411.1,283.7z"/>
	</g>
	<g>
		<path class="st6" d="M417.4,225.8l-235-25.3c0.8-7.7,0.4-3.4,0.8-7.7c0.5-4.2,0.8-7.7,0.8-7.7l235,25.3c-0.8,7.7-0.4,3.4-0.8,7.7
			C417.7,222.3,418.2,218.1,417.4,225.8z"/>
	</g>
</g>
</svg>
