<?xml version="1.0" encoding="utf-8"?>
<!-- Generator: Adobe Illustrator 27.3.0, SVG Export Plug-In . SVG Version: 6.00 Build 0)  -->
<svg version="1.1" id="Capa_1" xmlns="http://www.w3.org/2000/svg" xmlns:xlink="http://www.w3.org/1999/xlink" x="0px" y="0px"
	 viewBox="0 0 512 512" style="enable-background:new 0 0 512 512;" xml:space="preserve">
<style type="text/css">
	.st0{fill-rule:evenodd;clip-rule:evenodd;fill:#BE202E;}
	.st1{opacity:0.302;fill-rule:evenodd;clip-rule:evenodd;fill:#FFFFFF;enable-background:new    ;}
	.st2{fill:#FFFFFF;}
</style>
<g>
	<g id="Vrstva_x0020_1_15_">
		<path class="st0" d="M107.2,7h221.1l141.4,147.4V441c0,35.9-29.1,65-64.8,65H107.2c-35.9,0-28.7,0-65,0V7C107.2,7,71.3,7,107.2,7
			L107.2,7z"/>
		<g>
			<path class="st1" d="M328.2,7v146.3h141.5L328.2,7z"/>
		</g>
	</g>
</g>
<g>
	<path class="st2" d="M136.3,333.4h-21.2v50.5H80.8V243.3h55.5c34.4,0,51.7,19.4,51.7,45.3C187.9,311.8,172.1,333.4,136.3,333.4z
		 M133.7,306.2c13.6,0,19.4-6.8,19.4-17.6c0-10.8-5.8-17.6-19.4-17.6h-18.6v35.2H133.7z"/>
	<path class="st2" d="M326.3,313.6c0,41.6-28.8,70.3-73.7,70.3h-52.7V243.3h52.7C297.4,243.3,326.3,271.7,326.3,313.6z M250.4,354.2
		c25.8,0,41-14.8,41-40.6c0-25.8-15.2-41-41-41h-16.2v81.7H250.4z"/>
	<path class="st2" d="M339.7,243.3h91.5v27.4h-57.3v29.6h42.8V327h-42.8v56.9h-34.2V243.3z"/>
</g>
</svg>
