<?xml version="1.0" encoding="utf-8"?>
<!-- Generator: Adobe Illustrator 27.3.0, SVG Export Plug-In . SVG Version: 6.00 Build 0)  -->
<svg version="1.1" id="Capa_1" xmlns="http://www.w3.org/2000/svg" xmlns:xlink="http://www.w3.org/1999/xlink" x="0px" y="0px"
	 viewBox="0 0 512 512" style="enable-background:new 0 0 512 512;" xml:space="preserve">
<style type="text/css">
	.st0{fill:#F1CC31;}
	.st1{fill:#25B04B;}
	.st2{fill:#BE202E;}
	.st3{fill:#FFFFFF;}
</style>
<g>
	<path class="st0" d="M270,256.8l10.2,10.2l82.9,82.9h0l46.2,46.2c35.6-35.6,57.7-84.9,57.7-139.2H344.4H270z"/>
	<path class="st1" d="M493,245.8c-0.1-2.6-0.3-5.3-0.5-7.9c0-0.6-0.1-1.2-0.2-1.8c-0.1-0.8-0.2-1.6-0.2-2.5
		c-0.1-1.2-0.2-2.4-0.4-3.6c-0.1-1.1-0.3-2.1-0.4-3.2c0-0.3-0.1-0.6-0.1-0.9c-0.1-0.6-0.2-1.3-0.3-1.9c-0.1-0.6-0.2-1.1-0.3-1.7
		c-0.2-1.1-0.4-2.2-0.6-3.4c-0.2-1.3-0.5-2.7-0.7-4c-0.1-0.4-0.1-0.8-0.2-1.2c-0.2-0.9-0.4-1.8-0.6-2.6c-0.3-1.4-0.6-2.7-0.9-4
		c-0.2-0.8-0.4-1.7-0.6-2.5c-0.1-0.6-0.3-1.1-0.4-1.7c-0.3-1.1-0.6-2.2-0.8-3.2c-0.3-1.2-0.6-2.4-1-3.6c-0.2-0.6-0.3-1.2-0.5-1.7
		c-0.2-0.6-0.4-1.3-0.6-1.9c0,0,0,0,0,0c-0.4-1.2-0.7-2.5-1.1-3.7c-0.3-1-0.7-2.1-1-3.1c-0.2-0.7-0.5-1.5-0.7-2.2
		c-0.2-0.6-0.5-1.3-0.7-1.9c-0.4-1.1-0.8-2.2-1.2-3.3c-0.4-1.1-0.8-2.3-1.3-3.4c-0.1-0.3-0.2-0.5-0.3-0.8c-0.3-0.9-0.7-1.7-1.1-2.6
		c-0.6-1.4-1.1-2.7-1.7-4.1c-0.2-0.4-0.3-0.7-0.5-1.1c-0.4-1-0.9-1.9-1.3-2.9c-0.9-1.9-1.8-3.8-2.7-5.7c-0.5-0.9-0.9-1.9-1.4-2.8
		c-0.1-0.2-0.2-0.4-0.3-0.6c-0.7-1.4-1.5-2.8-2.3-4.3c-0.4-0.8-0.8-1.5-1.2-2.3c-0.2-0.4-0.5-0.9-0.7-1.3c-0.5-0.9-1-1.8-1.6-2.7
		c-0.5-0.8-1-1.7-1.5-2.5c-0.4-0.7-0.9-1.4-1.3-2.1c-0.5-0.8-1-1.5-1.4-2.3c-0.2-0.4-0.4-0.7-0.7-1.1h0c-1-1.5-1.9-2.9-2.9-4.4
		c-0.6-1-1.3-1.9-2-2.8c-1.2-1.8-2.5-3.5-3.8-5.2c-0.5-0.7-1.1-1.5-1.6-2.2c-1.8-2.3-3.6-4.6-5.4-6.8c-0.7-0.8-1.4-1.6-2.1-2.4
		c-1.3-1.5-2.6-3-3.9-4.5c-0.8-0.9-1.6-1.8-2.5-2.7c-1.3-1.4-2.6-2.8-4-4.1c-0.8-0.8-1.6-1.6-2.4-2.4c-2-2-4.1-4-6.2-5.9
		c-0.7-0.7-1.5-1.3-2.2-1.9c-1.5-1.4-3-2.7-4.6-4c-1-0.8-2-1.6-2.9-2.4c-1.4-1.1-2.8-2.3-4.2-3.4c-1-0.8-2-1.6-3-2.3
		c-1.7-1.3-3.5-2.5-5.2-3.8c-1.1-0.8-2.2-1.5-3.3-2.3c-1.9-1.3-3.9-2.6-5.9-3.9c-1.1-0.7-2.2-1.4-3.3-2c-1.5-0.9-3-1.8-4.5-2.7
		c-1.2-0.7-2.3-1.3-3.5-2c-1.6-0.9-3.3-1.8-4.9-2.7c-1-0.5-2.1-1.1-3.1-1.6c-2.5-1.3-5.1-2.5-7.7-3.7c-1.1-0.5-2.3-1-3.4-1.5
		c-1.1-0.5-2.3-1-3.4-1.5l0,0l0,0c-3.7-1.5-7.5-3-11.3-4.4v0c-0.2-0.1-0.4-0.1-0.6-0.2c-1.3-0.4-2.5-0.9-3.8-1.3
		c-1.7-0.6-3.4-1.1-5.1-1.6c-1.3-0.4-2.6-0.8-3.9-1.2c-1.8-0.5-3.7-1-5.6-1.5c-1.1-0.3-2.3-0.6-3.4-0.9c-2.9-0.7-5.8-1.3-8.8-1.9
		c-0.9-0.2-1.8-0.3-2.7-0.5c-2.3-0.4-4.5-0.8-6.8-1.1c-1.1-0.2-2.2-0.3-3.3-0.5c-2.2-0.3-4.4-0.6-6.7-0.8c-1-0.1-2-0.2-3-0.3
		c-3.2-0.3-6.4-0.5-9.6-0.7c-6-0.3-0.8,0-11.1,0v10.6v91.5v74.2v46.7l0,0h74.4h122.5h1.1h14.3H493C493,245.8,493.3,251.8,493,245.8z
		"/>
	<path class="st2" d="M363.1,349.9L280.2,267L270,256.8l0,0v-46.7v-74.2V44.4V33.8V6.1c-15.5,0-7.5-0.2-15.5,0
		C181,10.6,116.1,46.7,73,100.9h0c-2.2,2.7-4.2,5.5-6.3,8.3c-0.7,1-1.5,2.1-2.2,3.1c-1.4,1.9-2.7,3.8-4,5.8
		c-0.8,1.3-1.6,2.5-2.4,3.8c-1.1,1.8-2.3,3.6-3.4,5.4c-0.8,1.3-1.6,2.7-2.4,4.1c-1,1.8-2.1,3.6-3.1,5.4c-0.8,1.4-1.5,2.8-2.2,4.2
		c-1,1.9-1.9,3.8-2.9,5.7c-0.7,1.4-1.3,2.7-2,4.1c-1,2.1-1.9,4.2-2.8,6.3c-0.5,1.3-1.1,2.5-1.6,3.8c-1.1,2.7-2.2,5.5-3.2,8.3
		c-0.2,0.7-0.5,1.3-0.8,1.9c-1.2,3.4-2.4,6.9-3.5,10.4c-0.4,1.1-0.7,2.3-1,3.4c-0.7,2.4-1.4,4.9-2.1,7.3c-0.4,1.4-0.7,2.8-1,4.2
		c-0.6,2.2-1.1,4.5-1.6,6.8c-0.3,1.5-0.6,3-0.9,4.4c-0.4,2.2-0.9,4.5-1.2,6.7c-0.3,1.5-0.5,3-0.7,4.5c-0.4,2.3-0.7,4.6-0.9,7
		c-0.2,1.5-0.4,2.9-0.5,4.4c-0.3,2.6-0.5,5.1-0.7,7.7c-0.1,1.2-0.2,2.5-0.3,3.7c-0.2,3.8-0.4,7.7-0.4,11.6c0,1.2,0,2.5,0,3.7h0
		c0,1.1,0.1,2.1,0.1,3.2c0,2,0,4,0.1,5.9c0,0.8,0.1,1.6,0.1,2.4c0.1,1.5,0.2,2.9,0.3,4.4c0.1,2,0.2,3.9,0.4,5.9
		c0.1,0.8,0.2,1.6,0.3,2.4c0.1,1.5,0.3,2.9,0.5,4.3c0.2,1.9,0.4,3.8,0.6,5.7c0.1,0.8,0.3,1.6,0.4,2.4c0.2,1.4,0.5,2.8,0.7,4.2
		c0.1,0.3,0.1,0.6,0.2,0.9c0.3,1.6,0.5,3.1,0.8,4.7c0.2,0.8,0.3,1.6,0.5,2.4c0.3,1.4,0.6,2.8,0.9,4.1c0.1,0.5,0.2,1,0.3,1.5
		c0.3,1.3,0.5,2.7,0.9,4c0.2,0.8,0.4,1.6,0.6,2.4c0.3,1.4,0.7,2.7,1.1,4c0.2,0.6,0.3,1.2,0.5,1.9c0.3,1.2,0.6,2.4,1,3.5
		c0.2,0.8,0.5,1.6,0.7,2.4c0.4,1.3,0.8,2.6,1.3,3.9c0.2,0.7,0.4,1.3,0.6,2c0.4,1.1,0.7,2.2,1.1,3.3c0.3,0.8,0.6,1.6,0.9,2.4
		c0.5,1.3,1,2.6,1.5,3.8c0.2,0.6,0.5,1.3,0.7,1.9c0.4,1,0.7,2,1.1,3h0c0.3,0.9,0.7,1.7,1.1,2.6c0.5,1.3,1.1,2.5,1.6,3.8
		c1.1,2.5,2.1,4.9,3.3,7.3c0.6,1.2,1.2,2.5,1.8,3.7c1.2,2.4,2.3,4.8,3.6,7.1c0.7,1.2,1.4,2.4,2,3.6c1.3,2.3,2.5,4.6,3.9,6.8
		c0.7,1.2,1.5,2.4,2.2,3.6c1.4,2.2,2.7,4.4,4.2,6.6c0.8,1.2,1.6,2.3,2.4,3.5c1.5,2.1,2.9,4.2,4.4,6.3c0.9,1.2,1.8,2.3,2.6,3.5
		c1.5,2,3.1,4.1,4.7,6c0.9,1.2,1.9,2.3,2.8,3.4c1.6,1.9,3.2,3.9,4.9,5.7c1,1.1,2.1,2.2,3.1,3.3c1.7,1.8,3.3,3.6,5.1,5.4
		c1.1,1.1,2.2,2.2,3.3,3.3c1.7,1.7,3.4,3.4,5.2,5.1c1.2,1.1,2.4,2.1,3.6,3.2c1.8,1.6,3.5,3.2,5.4,4.7c1.3,1.1,2.6,2.1,3.8,3.1
		c1.8,1.5,3.6,3,5.5,4.4c1.3,1,2.7,2,4.1,3c1.9,1.4,3.7,2.8,5.6,4.1c1.4,1,2.9,1.9,4.4,2.9c1.9,1.3,3.7,2.5,5.7,3.7
		c1.5,1,3.1,1.8,4.6,2.8c1.9,1.1,3.8,2.3,5.7,3.4c1.6,0.9,3.3,1.7,4.9,2.6c1.9,1,3.8,2.1,5.8,3c1.7,0.9,3.5,1.6,5.2,2.5
		c1.9,0.9,3.8,1.8,5.8,2.7c1.8,0.8,3.7,1.5,5.5,2.3c1.9,0.8,3.8,1.6,5.7,2.4c1.9,0.7,3.9,1.4,5.8,2.1c1.9,0.7,3.8,1.4,5.7,2
		c2,0.7,4.1,1.2,6.2,1.9c1.9,0.6,3.7,1.2,5.6,1.7c2.2,0.6,4.4,1.1,6.6,1.6c1.8,0.4,3.6,0.9,5.4,1.3c2.3,0.5,4.7,0.9,7.1,1.4
		c1.7,0.3,3.4,0.7,5.2,1c2.6,0.4,5.3,0.8,7.9,1.1c1.5,0.2,3,0.5,4.5,0.7c3.1,0.4,6.3,0.6,9.5,0.9c1.1,0.1,2.1,0.2,3.2,0.3
		c4.2,0.3,8.5,0.5,12.8,0.5c58.2,1,112-17.9,155.1-50.3c15.1-11.4,13-9.8,26.6-23.4L424,410.8c0,0,0,0,0,0l-14.7-14.7L363.1,349.9
		L363.1,349.9z"/>
</g>
<path class="st3" d="M86.3,343.9h136.4c7.4,0,13.4-6,13.4-13.4s-6-13.4-13.4-13.4H86.3c-7.4,0-13.4,6-13.4,13.4
	S78.9,343.9,86.3,343.9L86.3,343.9z"/>
<path class="st3" d="M86.3,294.3h112.5c7.4,0,13.4-6,13.4-13.4c0-7.4-6-13.4-13.4-13.4H86.3c-7.4,0-13.4,6-13.4,13.4
	C72.9,288.3,78.9,294.3,86.3,294.3L86.3,294.3z"/>
<path class="st3" d="M86.3,244.6h112.5c7.4,0,13.4-6,13.4-13.4c0-7.4-6-13.4-13.4-13.4H86.3c-7.4,0-13.4,6-13.4,13.4
	C72.9,238.7,78.9,244.6,86.3,244.6L86.3,244.6z"/>
<path class="st3" d="M86.3,195h136.4c7.4,0,13.4-6,13.4-13.4c0-7.4-6-13.4-13.4-13.4H86.3c-7.4,0-13.4,6-13.4,13.4
	C72.9,189,78.9,195,86.3,195L86.3,195z"/>
<path class="st3" d="M303.5,231.3h87.7c4.8,0,8.6-3.9,8.6-8.6c0-4.8-3.9-8.6-8.6-8.6h-87.7c-4.8,0-8.6,3.9-8.6,8.6
	C294.9,227.4,298.8,231.3,303.5,231.3L303.5,231.3z"/>
<path class="st3" d="M303.5,199.4h72.4c4.8,0,8.6-3.9,8.6-8.6c0-4.8-3.9-8.6-8.6-8.6h-72.4c-4.8,0-8.6,3.9-8.6,8.6
	C294.9,195.5,298.8,199.4,303.5,199.4L303.5,199.4z"/>
<path class="st3" d="M303.5,167.5h72.4c4.8,0,8.6-3.9,8.6-8.6c0-4.8-3.9-8.6-8.6-8.6h-72.4c-4.8,0-8.6,3.9-8.6,8.6
	C294.9,163.6,298.8,167.5,303.5,167.5L303.5,167.5z"/>
<path class="st3" d="M303.5,135.6h87.7c4.8,0,8.6-3.9,8.6-8.6s-3.9-8.6-8.6-8.6h-87.7c-4.8,0-8.6,3.9-8.6,8.6
	S298.8,135.6,303.5,135.6L303.5,135.6z"/>
</svg>
