<?xml version="1.0" encoding="utf-8"?>
<!-- Generator: Adobe Illustrator 27.3.0, SVG Export Plug-In . SVG Version: 6.00 Build 0)  -->
<svg version="1.1" id="Capa_1" xmlns="http://www.w3.org/2000/svg" xmlns:xlink="http://www.w3.org/1999/xlink" x="0px" y="0px"
	 viewBox="0 0 512 512" style="enable-background:new 0 0 512 512;" xml:space="preserve">
<style type="text/css">
	.st0{fill:#112A4C;}
	.st1{fill:#17578F;}
	.st2{fill:#BE202E;}
	.st3{opacity:0.4;fill:url(#SVGID_1_);}
</style>
<path class="st0" d="M255.8,504.9l5.3-134.9c0-10.9,1.1-270.3-5-270.3h-33.5v19.8L255.8,505V504.9z"/>
<path class="st1" d="M256.1,504.9l33.5-385.5V99.5h-33.5c0,87.3-0.3,405.3-0.3,405.3H256.1z"/>
<g>
	<path class="st2" d="M305.4,16c-18.6,42.9-61.6,99.3-160.5,139.8c14.7,47.4,58.9,81.9,111.1,81.9c64.3,0,116.3-52.1,116.3-116.3
		C372.3,74.8,344.9,34.6,305.4,16z"/>
	<path class="st2" d="M305.4,16c-15-7-31.7-11-49.4-11c-64.3,0-116.3,52.1-116.3,116.3c0,12,1.8,23.6,5.2,34.5
		C243.8,115.3,286.8,58.9,305.4,16z"/>
	<linearGradient id="SVGID_1_" gradientUnits="userSpaceOnUse" x1="69.5627" y1="80.3974" x2="314.1772" y2="80.3974">
		<stop  offset="0" style="stop-color:#352713"/>
		<stop  offset="0.1392" style="stop-color:#392B16"/>
		<stop  offset="0.2788" style="stop-color:#45371F"/>
		<stop  offset="0.4187" style="stop-color:#584B2E"/>
		<stop  offset="0.5588" style="stop-color:#736743"/>
		<stop  offset="0.6992" style="stop-color:#968C5F"/>
		<stop  offset="0.8398" style="stop-color:#C1B880"/>
		<stop  offset="0.9782" style="stop-color:#F3ECA7"/>
		<stop  offset="1" style="stop-color:#FCF5AE"/>
	</linearGradient>
	<path class="st3" d="M305.4,16c-15-7-31.7-11-49.4-11c-64.3,0-116.3,52.1-116.3,116.3c0,12,1.8,23.6,5.2,34.5
		C243.8,115.3,286.8,58.9,305.4,16z"/>
</g>
</svg>
