<?xml version="1.0" encoding="utf-8"?>
<!-- Generator: Adobe Illustrator 27.3.0, SVG Export Plug-In . SVG Version: 6.00 Build 0)  -->
<svg version="1.1" id="color" xmlns="http://www.w3.org/2000/svg" xmlns:xlink="http://www.w3.org/1999/xlink" x="0px" y="0px"
	 viewBox="0 0 512 512" style="enable-background:new 0 0 512 512;" xml:space="preserve">
<style type="text/css">
	.st0{fill:#F1CC31;}
	.st1{fill:#12284B;}
</style>
<g>
	<polygon class="st0" points="507.7,255.4 449.2,318.2 459.7,403.4 375.3,419.7 333.7,494.9 255.9,458.5 178.1,494.9 136.7,419.7 
		52.3,403.4 62.8,318.2 4.3,255.4 62.8,192.6 52.3,107.4 136.7,91.1 178.1,15.9 255.9,52.3 333.7,15.9 375.3,91.1 459.7,107.4 
		449.2,192.6 	"/>
</g>
<g>
	<path class="st1" d="M89.6,266.5H80v22.8H64.6v-63.4h25c15.5,0,23.3,8.8,23.3,20.4C112.9,256.7,105.8,266.5,89.6,266.5z
		 M88.4,254.2c6.1,0,8.8-3.1,8.8-7.9s-2.6-7.9-8.8-7.9H80v15.9H88.4z"/>
	<path class="st1" d="M144.2,225.8c15.5,0,23.3,8.9,23.3,20c0,7.9-4.3,15.4-14.1,18.3l14.6,25.1h-17.4l-13.2-23.9h-3.7v23.9h-15.4
		v-63.4H144.2z M143.3,238.7h-9.6v15.7h9.6c5.8,0,8.5-3,8.5-7.9C151.8,241.7,149.1,238.7,143.3,238.7z"/>
	<path class="st1" d="M174.5,225.8H190v63.4h-15.4V225.8z"/>
	<path class="st1" d="M228.5,289.9c-18,0-32.6-13.5-32.6-32.5c0-19.1,14.6-32.4,32.6-32.4c18.1,0,32.4,13.4,32.4,32.4
		C261,276.4,246.5,289.9,228.5,289.9z M228.5,275.8c10.1,0,16.7-7.3,16.7-18.4c0-11.3-6.6-18.4-16.7-18.4
		c-10.3,0-16.8,7.1-16.8,18.4C211.7,268.5,218.2,275.8,228.5,275.8z"/>
	<path class="st1" d="M292.8,225.8c15.5,0,23.3,8.9,23.3,20c0,7.9-4.3,15.4-14.1,18.3l14.6,25.1h-17.4l-13.2-23.9h-3.7v23.9h-15.4
		v-63.4H292.8z M291.9,238.7h-9.6v15.7h9.6c5.8,0,8.5-3,8.5-7.9C300.4,241.7,297.7,238.7,291.9,238.7z"/>
	<path class="st1" d="M323.2,225.8h15.4v63.4h-15.4V225.8z"/>
	<path class="st1" d="M343.7,225.8h49v12.4H376v51h-15.4v-51h-16.8V225.8z"/>
	<path class="st1" d="M393,225.8h17.5l12.3,26.5l12.2-26.5h17.3l-21.9,42.4v20.9h-15.4v-20.9L393,225.8z"/>
</g>
</svg>
