<?xml version="1.0" encoding="utf-8"?>
<!-- Generator: Adobe Illustrator 27.3.0, SVG Export Plug-In . SVG Version: 6.00 Build 0)  -->
<svg version="1.1" id="Layer_1" xmlns="http://www.w3.org/2000/svg" xmlns:xlink="http://www.w3.org/1999/xlink" x="0px" y="0px"
	 viewBox="0 0 512 512" style="enable-background:new 0 0 512 512;" xml:space="preserve">
<style type="text/css">
	.st0{fill:#0D1D2A;}
	.st1{fill:#EE4537;}
	.st2{fill:#C72127;}
	.st3{fill:#38A3DC;}
	.st4{fill:#0578BB;}
	.st5{fill:none;}
	.st6{fill:#FFCF66;}
	.st7{fill:#12284C;}
	.st8{fill:#F1CC31;}
	.st9{fill:#FFFFFF;}
</style>
<path id="Shape_00000051371535564954921500000002916305423396733325_" class="st0" d="M352.8,371.1c-0.2,1.6-0.3,3.2-0.3,4.8
	c0,24,19.5,43.5,43.5,43.5s43.5-19.5,43.5-43.5c0-1.6-0.1-3.2-0.3-4.8H352.8z"/>
<path id="Shape_00000058563476994604691910000012232382495630147483_" class="st0" d="M242.6,371.1c-0.2,1.6-0.3,3.2-0.3,4.8
	c0,24,19.5,43.5,43.5,43.5c24,0,43.5-19.5,43.5-43.5c0-1.6-0.1-3.2-0.3-4.8H242.6z"/>
<path class="st0" d="M11.2,398.6h9.6v43.4H3.9v-5.2v-26.1v-12.2H11.2z"/>
<path class="st0" d="M34.4,398.6H44v43.4H27.1v-5.2v-26.1v-12.2H34.4z"/>
<path class="st0" d="M57.6,398.6h9.6v43.4H50.3v-5.2v-26.1v-12.2H57.6z"/>
<path class="st0" d="M80.8,398.6h9.6v43.4H73.5v-5.2v-26.1v-12.2H80.8z"/>
<path class="st0" d="M104,398.6h9.6v43.4H96.8v-5.2v-26.1v-12.2H104z"/>
<path class="st0" d="M127.2,398.6h9.6v43.4H120v-5.2v-26.1v-12.2H127.2z"/>
<path class="st0" d="M150.4,398.6h9.6v43.4h-16.8v-5.2v-26.1v-12.2H150.4z"/>
<path class="st0" d="M173.6,398.6h9.6v43.4h-16.8v-5.2v-26.1v-12.2H173.6z"/>
<path class="st0" d="M196.8,398.6h9.6v43.4h-16.8v-5.2v-26.1v-12.2H196.8z"/>
<path class="st0" d="M220,398.6h9.6v43.4h-16.8v-5.2v-26.1v-12.2H220z"/>
<path class="st0" d="M243.2,398.6h9.6v43.4H236v-5.2v-26.1v-12.2H243.2z"/>
<path class="st0" d="M266.4,398.6h9.6v43.4h-16.8v-5.2v-26.1v-12.2H266.4z"/>
<path class="st0" d="M289.6,398.6h9.6v43.4h-16.8v-5.2v-26.1v-12.2H289.6z"/>
<path class="st0" d="M312.8,398.6h9.6v43.4h-16.8v-5.2v-26.1v-12.2H312.8z"/>
<path class="st0" d="M336,398.6h9.6v43.4h-16.8v-5.2v-26.1v-12.2H336z"/>
<path class="st0" d="M359.2,398.6h9.6v43.4H352v-5.2v-26.1v-12.2H359.2z"/>
<path class="st0" d="M382.4,398.6h9.6v43.4h-16.8v-5.2v-26.1v-12.2H382.4z"/>
<path class="st0" d="M405.6,398.6h9.6v43.4h-16.8v-5.2v-26.1v-12.2H405.6z"/>
<path class="st0" d="M428.8,398.6h9.6v43.4h-16.8v-5.2v-26.1v-12.2H428.8z"/>
<path class="st0" d="M452,398.6h9.6v43.4h-16.8v-5.2v-26.1v-12.2H452z"/>
<path class="st0" d="M475.2,398.6h9.6v43.4H468v-5.2v-26.1v-12.2H475.2z"/>
<path class="st0" d="M498.4,398.6h9.6v43.4h-16.8v-5.2v-26.1v-12.2H498.4z"/>
<rect x="12.4" y="408.8" class="st0" width="488" height="7.7"/>
<g>
	<path class="st1" d="M443.6,362.3C443.6,362.3,443.6,362.3,443.6,362.3c0.9-0.5,1.8-1.1,2.6-1.7
		C445.3,361.2,444.4,361.7,443.6,362.3z"/>
	<path class="st1" d="M457.7,350.3c-0.4,0.5-0.8,1-1.3,1.4C456.8,351.3,457.2,350.8,457.7,350.3z"/>
	<path class="st1" d="M460.7,346.7c0.1-0.2,0.2-0.3,0.3-0.5c-0.4,0.6-0.9,1.1-1.3,1.7C460,347.4,460.4,347.1,460.7,346.7z"/>
	<path class="st1" d="M467.7,334.4c-0.7,1.5-1.4,3-2.2,4.5C466.4,337.4,467.1,335.9,467.7,334.4z"/>
	<path class="st1" d="M469.5,329.8c-0.5,1.3-1,2.6-1.5,3.9C468.5,332.5,469.1,331.2,469.5,329.8z"/>
	<path class="st2" d="M465.6,338.9C465.6,338.9,465.6,338.9,465.6,338.9C465.6,338.9,465.6,338.9,465.6,338.9
		C465.6,339,465.6,338.9,465.6,338.9z"/>
	<path class="st2" d="M459.7,347.8c-0.7,0.9-1.4,1.7-2.1,2.5C458.4,349.5,459.1,348.7,459.7,347.8z"/>
	<path class="st2" d="M456.4,351.7c-1.1,1.2-2.3,2.4-3.5,3.5C454.1,354.2,455.3,353,456.4,351.7z"/>
	<path class="st2" d="M463.4,342.6c-0.8,1.2-1.6,2.4-2.4,3.5C461.9,345,462.7,343.8,463.4,342.6z"/>
	<path class="st2" d="M469.6,329.7C469.5,329.8,469.5,329.8,469.6,329.7C469.5,329.8,469.5,329.8,469.6,329.7z"/>
	<path class="st2" d="M468,333.8c-0.1,0.2-0.2,0.4-0.3,0.7C467.8,334.2,467.9,334,468,333.8z"/>
	<path class="st3" d="M244.8,169.5c0-3.2-0.9-6.2-2.4-8.8h-50.2c-4.8,0-8.8,3.9-8.8,8.8V231c0,4.8,3.9,8.8,8.8,8.8h50.2
		c1.5-2.6,2.4-5.6,2.4-8.8V169.5z"/>
	<path class="st4" d="M262.3,231v-61.4c0-4.8-3.9-8.8-8.8-8.8h-11.2c1.5,2.6,2.4,5.6,2.4,8.8V231c0,3.2-0.9,6.2-2.4,8.8h11.2
		C258.4,239.7,262.3,235.8,262.3,231z"/>
	<path class="st3" d="M42.9,169.5v122.9h61.4v-70.2c0,4.8-3.9,8.8-8.8,8.8H69.2c-4.8,0-8.8-3.9-8.8-8.8c0-4.8,3.9-8.8,8.8-8.8h26.3
		c4.8,0,8.8,3.9,8.8,8.8v-35.1c0,4.8-3.9,8.8-8.8,8.8H69.2c-4.8,0-8.8-3.9-8.8-8.8c0-4.8,3.9-8.8,8.8-8.8h26.3
		c4.8,0,8.8,3.9,8.8,8.8v-17.6c0-3.2-0.9-6.2-2.4-8.8H51.7C46.8,160.7,42.9,164.7,42.9,169.5z"/>
	<path class="st3" d="M104.3,292.4H42.9v17.6c0,4.8,3.9,8.8,8.8,8.8h50.2c1.5-2.6,2.4-5.6,2.4-8.8V292.4z"/>
	<path class="st4" d="M104.3,187.1v35.1v70.2h17.6V169.5c0-4.8-3.9-8.8-8.8-8.8h-11.2c1.5,2.6,2.4,5.6,2.4,8.8V187.1z"/>
	<path class="st4" d="M104.3,309.9c0,3.2-0.9,6.2-2.4,8.8h11.2c4.8,0,8.8-3.9,8.8-8.8v-17.6h-17.6V309.9z"/>
	<path d="M491.9,338.9C491.9,338.9,491.9,338.9,491.9,338.9C491.9,338.9,491.9,338.9,491.9,338.9C491.9,339,491.9,338.9,491.9,338.9
		z"/>
	<path class="st2" d="M416.5,371.1c1-0.1,1.9-0.2,2.8-0.3c0.4-0.1,0.8-0.1,1.3-0.2c0.9-0.1,1.8-0.3,2.7-0.5c0.4-0.1,0.8-0.2,1.2-0.3
		c0.9-0.2,1.8-0.4,2.7-0.7c0.4-0.1,0.7-0.2,1.1-0.3c1-0.3,2.1-0.6,3.1-1c0.2-0.1,0.4-0.1,0.6-0.2c1.9-0.7,3.7-1.4,5.6-2.3
		c1.8-0.9,3.6-1.8,5.3-2.8c0.1-0.1,0.3-0.2,0.4-0.2c0.1-0.1,0.2-0.1,0.3-0.2c-1.9,0.2-3.9,0.3-5.8,0.3H5v8.8h222.4h78.5h35.6h69.8
		c1.3,0,2.7-0.1,4-0.1C415.8,371.2,416.1,371.2,416.5,371.1z"/>
	<path d="M437.5,365.5c-1.8,0.9-3.7,1.6-5.6,2.3C433.9,367.2,435.7,366.4,437.5,365.5z"/>
	<path d="M443.2,362.5c0.1-0.1,0.2-0.1,0.3-0.2c0,0,0,0,0,0C443.5,362.3,443.4,362.4,443.2,362.5z"/>
	<path d="M411.4,371.4L411.4,371.4c1.3,0,2.7-0.1,4-0.1C414.1,371.3,412.7,371.4,411.4,371.4z"/>
	<path d="M437.7,371.4c1.3,0,2.7-0.1,4-0.1C440.4,371.3,439.1,371.4,437.7,371.4L437.7,371.4z"/>
	<path d="M469.2,362.7c-3.4,2-7.1,3.8-10.8,5.1C462.1,366.5,465.7,364.8,469.2,362.7z"/>
	<path d="M494.4,333.7c-0.7,1.8-1.6,3.5-2.5,5.2C492.8,337.2,493.6,335.4,494.4,333.7z"/>
	<path d="M495.5,330.9c0.3-0.9,0.6-1.8,0.9-2.8c-0.5,1.6-1.1,3.2-1.7,4.8C494.9,332.3,495.2,331.6,495.5,330.9z"/>
	<path d="M487,346.7c0.1-0.2,0.2-0.3,0.3-0.5c-0.4,0.6-0.9,1.1-1.3,1.7C486.4,347.4,486.7,347.1,487,346.7z"/>
	<path d="M484,350.3c-0.4,0.5-0.8,1-1.3,1.4C483.2,351.3,483.6,350.8,484,350.3z"/>
	<path d="M442.8,362.7c-1.7,1-3.5,2-5.3,2.8C439.4,364.7,441.1,363.7,442.8,362.7z"/>
	<path d="M496.6,327.4c-0.1,0.3-0.2,0.5-0.3,0.8C496.5,327.9,496.5,327.6,496.6,327.4z"/>
	<path d="M494.7,333c-0.1,0.2-0.2,0.4-0.3,0.7C494.5,333.4,494.6,333.2,494.7,333z"/>
	<path d="M486,347.8c-0.7,0.9-1.4,1.7-2.1,2.5C484.7,349.5,485.4,348.7,486,347.8z"/>
	<path d="M489.8,342.6c-0.8,1.2-1.6,2.4-2.4,3.5C488.2,345,489,343.8,489.8,342.6z"/>
	<path d="M482.7,351.7c-1.1,1.2-2.3,2.4-3.5,3.5C480.4,354.2,481.6,353,482.7,351.7z"/>
	<g>
		<path class="st5" d="M465.6,338.9C465.6,338.9,465.6,338.9,465.6,338.9C465.6,338.9,465.6,338.9,465.6,338.9
			C465.6,339,465.6,338.9,465.6,338.9z"/>
		<path class="st5" d="M192.1,257.3h61.4c14.5,0,26.3-11.8,26.3-26.3v-61.4c0-14.5-11.8-26.3-26.3-26.3h-61.4
			c-14.5,0-26.3,11.8-26.3,26.3V231C165.8,245.5,177.6,257.3,192.1,257.3z"/>
		<path class="st5" d="M460.7,346.7c0.1-0.2,0.2-0.3,0.3-0.5c-0.4,0.6-0.9,1.1-1.3,1.7C460,347.4,460.4,347.1,460.7,346.7z"/>
		<path class="st5" d="M113.1,152H86.8H51.7c-9.7,0-17.6,7.9-17.6,17.6v122.9v17.6c0,9.7,7.9,17.6,17.6,17.6h35.1h26.3
			c9.7,0,17.6-7.9,17.6-17.6v-17.6V169.5C130.7,159.8,122.8,152,113.1,152z"/>
		<path class="st6" d="M25.4,169.5c0-14.5,11.8-26.3,26.3-26.3h61.4c14.5,0,26.3,11.8,26.3,26.3v114.1h201.9c4.8,0,8.8,3.9,8.8,8.8
			h26.3c0-4.8,3.9-8.8,8.8-8.8h81.7c-1.3-2.7-2.7-5.3-4.4-7.7l-12.4-18.6H332.5c-14.5,0-26.3-11.8-26.3-26.3v-61.4
			c0-14.5,11.8-26.3,26.3-26.3h41.6l-5.2-7.7c-5-7.5-11.5-13.7-18.9-18.2c-1.9-0.2-3.9-0.3-5.9-0.3H7.8c-1,0-1.9,0.2-2.8,0.5v166.3
			h20.3V169.5z M165.8,169.5c0-14.5,11.8-26.3,26.3-26.3h61.4c14.5,0,26.3,11.8,26.3,26.3V231c0,14.5-11.8,26.3-26.3,26.3h-61.4
			c-14.5,0-26.3-11.8-26.3-26.3V169.5z"/>
		<path class="st6" d="M387.9,140.3c-8.7-13-22.6-21.4-37.9-23.1c7.4,4.6,13.9,10.8,18.9,18.2l5.2,7.7h15.8L387.9,140.3z"/>
		<path class="st6" d="M481.5,280.7l-15.6-23.5h-15.8l12.4,18.6c1.7,2.5,3.1,5.1,4.4,7.7h16.3C482.6,282.7,482.2,281.7,481.5,280.7z
			"/>
		<path class="st1" d="M449.5,358.2c0.1-0.1,0.3-0.2,0.4-0.3c1-0.8,2-1.6,2.9-2.5c0,0,0.1-0.1,0.1-0.1c1.2-1.1,2.4-2.3,3.5-3.5
			c0.4-0.5,0.9-0.9,1.3-1.4c0.7-0.8,1.4-1.6,2.1-2.5c0.4-0.6,0.9-1.1,1.3-1.7c0.8-1.2,1.6-2.3,2.4-3.5c0,0,0-0.1,0.1-0.1
			c0.7-1.2,1.4-2.3,2.1-3.6c0,0,0-0.1,0-0.1c0.8-1.5,1.5-3,2.2-4.5c0.1-0.2,0.2-0.4,0.3-0.7c0.5-1.3,1.1-2.6,1.5-3.9
			c0,0,0-0.1,0-0.1c3.1-9.3,4-19.1,2.6-28.6h-87c-4.8,0-8.8-3.9-8.8-8.8h-26.3c0,4.8-3.9,8.8-8.8,8.8H139.4v8.8
			c0,14.5-11.8,26.3-26.3,26.3H51.7c-14.5,0-26.3-11.8-26.3-26.3v-8.8H5v61.4h432.7c2,0,3.9-0.1,5.8-0.3c0.9-0.5,1.8-1.1,2.6-1.7
			c0.2-0.1,0.3-0.2,0.5-0.3C447.6,359.6,448.6,358.9,449.5,358.2z"/>
		<path class="st1" d="M469.6,329.7c3.1-9.1,4.1-18.9,2.7-28.6h0C473.5,310.7,472.7,320.5,469.6,329.7z"/>
		<path class="st2" d="M477.9,343.9c10-11.8,14.3-27.5,11.8-42.7h-17.5c1.4,9.6,0.5,19.4-2.7,28.6c0,0,0,0.1,0,0.1
			c-0.5,1.3-1,2.6-1.5,3.9c-0.1,0.2-0.2,0.4-0.3,0.7c-0.7,1.5-1.4,3-2.2,4.5c0,0,0,0,0,0c0,0,0,0,0,0c-0.7,1.2-1.3,2.4-2.1,3.6
			c0,0,0,0.1-0.1,0.1c-0.8,1.2-1.6,2.4-2.4,3.5c-0.1,0.2-0.2,0.3-0.3,0.5c-0.3,0.4-0.7,0.8-1,1.2c-0.7,0.9-1.4,1.7-2.1,2.5
			c-0.4,0.5-0.8,1-1.3,1.4c-1.1,1.2-2.3,2.4-3.5,3.5c0,0-0.1,0.1-0.1,0.1c-0.9,0.9-1.9,1.7-2.9,2.5c-0.1,0.1-0.3,0.2-0.4,0.3
			c-0.9,0.7-1.8,1.4-2.8,2.1c-0.2,0.1-0.3,0.2-0.5,0.3c-0.9,0.6-1.7,1.1-2.6,1.7C456.9,360.8,469.2,354.2,477.9,343.9z"/>
		<path class="st3" d="M323.7,169.5V231c0,4.8,3.9,8.8,8.8,8.8h105.9l-52.6-79h-53.2C327.7,160.7,323.7,164.7,323.7,169.5z"/>
		<polygon class="st4" points="438.4,239.7 385.8,160.7 385.8,160.7 438.4,239.7 		"/>
		<polygon class="st4" points="454.2,239.7 401.6,160.7 385.8,160.7 438.4,239.7 		"/>
		<path class="st7" d="M466.9,283.6h-81.7c-4.8,0-8.8,3.9-8.8,8.8h93.8C469.4,289.4,468.2,286.5,466.9,283.6z"/>
		<path class="st8" d="M344.1,116.9c2,0,3.9,0.1,5.9,0.3c-9.5-5.9-20.7-9.1-32.2-9.1H7.8c-0.9,0-1.9,0.1-2.8,0.3v9
			c0.9-0.3,1.8-0.5,2.8-0.5H344.1z"/>
		<path class="st7" d="M34.1,169.5c0-9.7,7.9-17.6,17.6-17.6h35.1h26.3c9.7,0,17.6,7.9,17.6,17.6v122.9h219.4c0-4.8-3.9-8.8-8.8-8.8
			H139.4V169.5c0-14.5-11.8-26.3-26.3-26.3H51.7c-14.5,0-26.3,11.8-26.3,26.3v114.1H5v8.8h29.1V169.5z"/>
		<path class="st7" d="M444.2,248.5H332.5c-9.7,0-17.5-7.9-17.6-17.6v-61.4c0-9.7,7.9-17.5,17.6-17.6h47.4h0l-5.9-8.8h-41.6
			c-14.5,0-26.3,11.8-26.3,26.3V231c0,14.5,11.8,26.3,26.3,26.3h117.6L444.2,248.5L444.2,248.5z"/>
		<path class="st8" d="M387.9,140.3l1.9,2.9h10.6l-5.2-7.7c-11.4-17.1-30.6-27.4-51.1-27.4h-26.3c11.5,0,22.7,3.2,32.2,9.1
			C365.3,118.9,379.3,127.3,387.9,140.3z"/>
		<polygon points="464.7,239.7 464.8,239.7 412.1,160.7 412.1,160.7 		"/>
		<path class="st8" d="M481.5,280.7c0.6,0.9,1.1,1.9,1.7,2.9h10c-1.3-2.7-2.7-5.3-4.4-7.7l-12.4-18.6h-10.5L481.5,280.7z"/>
		<path class="st7" d="M466.9,283.6c1.4,2.9,2.5,5.8,3.3,8.8h0.1h26.3c-0.9-3-2-5.9-3.4-8.8h-10H466.9z"/>
		<polygon class="st7" points="374.1,143.2 379.9,152 406.2,152 406.3,152 400.4,143.2 389.8,143.2 		"/>
		<polygon class="st7" points="470.6,248.5 444.3,248.5 450.1,257.3 465.9,257.3 476.5,257.3 470.6,248.5 		"/>
		<path class="st7" d="M25.4,309.9c0,14.5,11.8,26.3,26.3,26.3h61.4c14.5,0,26.3-11.8,26.3-26.3v-8.8h201.9c4.8,0,8.8-3.9,8.8-8.8
			H130.7v17.6c0,9.7-7.9,17.6-17.6,17.6H86.8H51.7c-9.7,0-17.6-7.9-17.6-17.6v-17.6H5v8.8h20.3V309.9z"/>
		<path class="st7" d="M376.4,292.4c0,4.8,3.9,8.8,8.8,8.8h87c-0.4-3-1.1-5.9-1.9-8.8H376.4z"/>
		<path d="M470.2,292.4c0.9,2.9,1.5,5.8,1.9,8.8h0C471.8,298.2,471.2,295.3,470.2,292.4L470.2,292.4z"/>
		<path d="M496.6,327.4c0.6-2,1.1-4,1.5-6.1c0.3-1.4,0.5-2.7,0.6-4.1c0.3-2.3,0.4-4.7,0.4-7.1c0-2.4-0.1-4.7-0.4-7.1
			c-0.1-0.6-0.2-1.2-0.3-1.8h0C499.8,309.9,499.1,318.8,496.6,327.4z"/>
		<path d="M496.6,292.4c0.9,2.9,1.5,5.8,1.9,8.8h0C498.1,298.2,497.5,295.3,496.6,292.4L496.6,292.4z"/>
		<path class="st2" d="M498.5,301.2h-8.8c2.5,15.3-1.8,30.9-11.8,42.7c-8.7,10.3-21.1,16.8-34.4,18.3c-0.1,0.1-0.2,0.1-0.3,0.2
			c-0.1,0.1-0.3,0.2-0.4,0.2c-1.7,1-3.5,2-5.3,2.8c-1.8,0.9-3.7,1.6-5.6,2.3c-0.2,0.1-0.4,0.1-0.6,0.2c-1,0.3-2,0.7-3.1,1
			c-0.4,0.1-0.7,0.2-1.1,0.3c-0.9,0.2-1.8,0.5-2.7,0.7c-0.4,0.1-0.8,0.2-1.2,0.3c-0.9,0.2-1.8,0.3-2.7,0.5c-0.4,0.1-0.8,0.1-1.3,0.2
			c-0.9,0.1-1.9,0.2-2.8,0.3c-0.4,0-0.7,0.1-1.1,0.1c-1.3,0.1-2.6,0.1-4,0.1h8.6h17.7c1.3,0,2.7-0.1,4-0.1c0.4,0,0.7-0.1,1.1-0.1
			c1-0.1,1.9-0.2,2.8-0.3c0.4-0.1,0.8-0.1,1.3-0.2c0.9-0.1,1.8-0.3,2.7-0.5c0.4-0.1,0.8-0.2,1.2-0.3c0.9-0.2,1.8-0.4,2.7-0.7
			c0.4-0.1,0.7-0.2,1.1-0.3c1-0.3,2.1-0.6,3.1-1c0.2-0.1,0.4-0.1,0.6-0.2c3.8-1.3,7.4-3.1,10.8-5.1c0.1-0.1,0.3-0.2,0.4-0.2
			c1-0.6,2-1.2,2.9-1.9c0.2-0.1,0.3-0.2,0.5-0.3c1-0.7,1.9-1.4,2.8-2.1c0.1-0.1,0.3-0.2,0.4-0.3c1-0.8,2-1.6,2.9-2.5
			c0,0,0.1-0.1,0.1-0.1c1.2-1.1,2.4-2.3,3.5-3.5c0.4-0.5,0.9-0.9,1.3-1.4c0.7-0.8,1.4-1.6,2.1-2.5c0.4-0.6,0.9-1.1,1.3-1.7
			c0.8-1.2,1.6-2.3,2.4-3.5c0,0,0-0.1,0.1-0.1c0.7-1.2,1.4-2.4,2.1-3.6c0,0,0-0.1,0-0.1c0.9-1.7,1.7-3.5,2.5-5.2
			c0.1-0.2,0.2-0.4,0.3-0.7c0.6-1.6,1.2-3.2,1.7-4.8c0.1-0.3,0.2-0.5,0.3-0.8C499.1,318.8,499.8,309.9,498.5,301.2z"/>
		<path class="st7" d="M472.2,301.2h17.5h8.8c-0.4-3-1.1-5.9-1.9-8.8h-26.3C471.2,295.3,471.8,298.2,472.2,301.2z"/>
		<path class="st7" d="M332.5,239.7c-4.8,0-8.8-3.9-8.8-8.8v-61.4c0-4.8,3.9-8.8,8.8-8.8h53.2l-5.8-8.8h-47.4
			c-9.7,0-17.5,7.9-17.6,17.6V231c0,9.7,7.9,17.5,17.6,17.6h111.7l-5.8-8.8H332.5z"/>
		<polygon points="470.6,248.5 470.6,248.5 464.8,239.7 464.7,239.7 		"/>
		<polygon points="406.2,152 412.1,160.7 412.1,160.7 406.3,152 		"/>
		<polygon points="438.4,239.7 444.2,248.5 444.3,248.5 438.4,239.7 		"/>
		<polygon points="385.8,160.7 385.8,160.7 379.9,152 379.9,152 		"/>
		<polygon class="st8" points="454.2,239.7 464.7,239.7 412.1,160.7 401.6,160.7 		"/>
		<polygon class="st0" points="401.6,160.7 412.1,160.7 406.2,152 379.9,152 385.8,160.7 		"/>
		<polygon class="st0" points="438.4,239.7 444.3,248.5 470.6,248.5 464.7,239.7 454.2,239.7 		"/>
	</g>
	<path class="st7" d="M42.9,169.5c0-4.8,3.9-8.8,8.8-8.8h50.2c-3-5.2-8.6-8.8-15.1-8.8H51.7c-9.7,0-17.6,7.9-17.6,17.6v122.9h8.8
		V169.5z"/>
	<path class="st7" d="M101.9,318.7H51.7c-4.8,0-8.8-3.9-8.8-8.8v-17.6h-8.8v17.6c0,9.7,7.9,17.6,17.6,17.6h35.1
		C93.3,327.5,98.9,323.9,101.9,318.7z"/>
	<path class="st0" d="M113.1,152H86.8c6.5,0,12.1,3.6,15.1,8.8h11.2c4.8,0,8.8,3.9,8.8,8.8v122.9h8.8V169.5
		C130.7,159.8,122.8,152,113.1,152z"/>
	<path class="st0" d="M121.9,309.9c0,4.8-3.9,8.8-8.8,8.8h-11.2c-3,5.2-8.6,8.8-15.1,8.8h26.3c9.7,0,17.6-7.9,17.6-17.6v-17.6h-8.8
		V309.9z"/>
	<path class="st7" d="M192.1,257.3h61.4c14.5,0,26.3-11.8,26.3-26.3v-61.4c0-14.5-11.8-26.3-26.3-26.3h-61.4
		c-14.5,0-26.3,11.8-26.3,26.3V231C165.8,245.5,177.6,257.3,192.1,257.3z M174.5,169.5c0-9.7,7.9-17.6,17.6-17.6h35.1h26.3
		c9.7,0,17.6,7.9,17.6,17.6V231c0,9.7-7.9,17.6-17.6,17.6h-26.3h-35.1c-9.7,0-17.6-7.9-17.6-17.6V169.5z"/>
	<path class="st7" d="M192.1,248.5h35.1c6.5,0,12.1-3.6,15.1-8.8h-50.2c-4.8,0-8.8-3.9-8.8-8.8v-61.4c0-4.8,3.9-8.8,8.8-8.8h50.2
		c-3-5.2-8.6-8.8-15.1-8.8h-35.1c-9.7,0-17.6,7.9-17.6,17.6V231C174.5,240.7,182.4,248.5,192.1,248.5z"/>
	<path class="st0" d="M242.3,160.7h11.2c4.8,0,8.8,3.9,8.8,8.8V231c0,4.8-3.9,8.8-8.8,8.8h-11.2c-3,5.2-8.6,8.8-15.1,8.8h26.3
		c9.7,0,17.6-7.9,17.6-17.6v-61.4c0-9.7-7.9-17.6-17.6-17.6h-26.3C233.7,152,239.3,155.5,242.3,160.7z"/>
	<path d="M95.6,178.3H69.2c-4.8,0-8.8,3.9-8.8,8.8c0,4.8,3.9,8.8,8.8,8.8h26.3c4.8,0,8.8-3.9,8.8-8.8
		C104.3,182.2,100.4,178.3,95.6,178.3z"/>
	<path d="M95.6,213.4H69.2c-4.8,0-8.8,3.9-8.8,8.8c0,4.8,3.9,8.8,8.8,8.8h26.3c4.8,0,8.8-3.9,8.8-8.8
		C104.3,217.3,100.4,213.4,95.6,213.4z"/>
	<path class="st9" d="M266.7,406.5c0.3,0,0.6,0,0.9,0h-1.8C266.1,406.5,266.4,406.5,266.7,406.5z"/>
</g>
</svg>
