<?xml version="1.0" encoding="utf-8"?>
<!-- Generator: Adobe Illustrator 27.3.0, SVG Export Plug-In . SVG Version: 6.00 Build 0)  -->
<svg version="1.1" id="Layer_1" xmlns="http://www.w3.org/2000/svg" xmlns:xlink="http://www.w3.org/1999/xlink" x="0px" y="0px"
	 viewBox="0 0 512 512" style="enable-background:new 0 0 512 512;" xml:space="preserve">
<style type="text/css">
	.st0{fill:#FFFFFF;}
	.st1{fill:#12284C;}
	.st2{fill:#00ADEE;}
	.st3{fill:#F1CC31;}
</style>
<path class="st0" d="M349.8,48.7c-12.6,0-24.3,4.9-33.2,13.7c-8.9,8.9-13.8,20.7-13.8,33.2s4.9,24.3,13.8,33.2
	c9.2,9.2,21.2,13.7,33.2,13.7c12,0,24-4.6,33.2-13.7c18.3-18.3,18.3-48.1,0-66.4C374.1,53.5,362.3,48.7,349.8,48.7z"/>
<path class="st1" d="M414.1,147.9c-2.6-2.6-3-6.6-0.9-9.6c20.4-30.2,16.4-70.9-9.4-96.7c-29.8-29.8-78.3-29.8-108.1,0
	c-0.1,0.1-0.2,0.2-0.2,0.3c-29.1,29.3-29.5,76.6-1.3,106.4c0,0,0.1,0.1,0.1,0.1c0.4,0.5,0.9,0.9,1.4,1.4c0.8,0.8,1.6,1.5,2.3,2.2
	c0.2,0.2,0.4,0.3,0.5,0.5c0.6,0.6,1.3,1.2,2,1.7c0.1,0.1,0.3,0.2,0.4,0.3c18.9,15.7,43.9,21,67,15.4c0.1,0,0.3-0.1,0.4-0.1
	c0.7-0.2,1.4-0.4,2.1-0.6c0.5-0.1,1-0.3,1.4-0.4c0.3-0.1,0.5-0.2,0.8-0.3c2.6-0.8,5.2-1.8,7.7-2.9c0.1,0,0.2-0.1,0.3-0.1
	c4-1.8,7.9-3.9,11.7-6.5c1.3-0.8,2.7-1.3,4.2-1.3c2,0,3.9,0.8,5.4,2.2l77.1,77.1c3.2,3.2,8.9,3.2,12.1,0c1.6-1.6,2.5-3.8,2.5-6
	c0-2.3-0.9-4.4-2.5-6L414.1,147.9z M393.7,139.5c-11.7,11.7-27.3,18.2-43.9,18.2c-16.6,0-32.2-6.5-43.9-18.2
	c-11.7-11.7-18.2-27.3-18.2-43.9s6.5-32.2,18.2-43.9c11.7-11.7,27.3-18.2,43.9-18.2c16.6,0,32.2,6.5,43.9,18.2
	c11.7,11.7,18.2,27.3,18.2,43.9S405.4,127.8,393.7,139.5z"/>
<path class="st2" d="M288,163.3c-0.1-0.1-0.3-0.2-0.4-0.3c-0.9-0.8-1.8-1.7-2.6-2.5c-0.5-0.5-1-1-1.5-1.6c-0.2-0.2-0.5-0.5-0.7-0.8
	c-0.2-0.3-0.5-0.5-0.7-0.8c-0.3-0.4-0.6-0.7-0.9-1.1c-0.1-0.2-0.3-0.3-0.4-0.5c-0.4-0.4-0.8-0.9-1.2-1.4c0,0,0-0.1-0.1-0.1
	C253,122.7,251.2,77.4,274.1,44H20.3v445.8h355.7V183.4C345,192.7,311.9,185.1,288,163.3z M215.5,69.8h16.1c4.2,0,7.6,3.4,7.6,7.6
	s-3.4,7.6-7.6,7.6h-16.1c-4.2,0-7.6-3.4-7.6-7.6S211.4,69.8,215.5,69.8z M181.2,69.8h17.2c4.2,0,7.6,3.4,7.6,7.6s-3.4,7.6-7.6,7.6
	h-17.2c-4.2,0-7.6-3.4-7.6-7.6S177,69.8,181.2,69.8z M147.9,69.8H164c4.2,0,7.6,3.4,7.6,7.6S168.2,85,164,85h-16.1
	c-4.2,0-7.6-3.4-7.6-7.6S143.7,69.8,147.9,69.8z"/>
<path class="st3" d="M247.4,425.9H64.6c-8.2,0-14.8,6.6-14.8,14.8s6.6,14.8,14.8,14.8h182.8c8.2,0,14.8-6.6,14.8-14.8
	S255.5,425.9,247.4,425.9z"/>
<path class="st3" d="M109.9,250.5c-0.2-0.1-0.3-0.1-0.5-0.2c-0.3-0.1-0.6-0.2-0.9-0.3c-0.1,0-0.2,0-0.3-0.1c-1.3-0.4-2.6-0.6-4-0.6
	c-1.4,0-2.7,0.2-4,0.6c-0.1,0-0.2,0-0.3,0.1c-0.3,0.1-0.6,0.2-0.9,0.3c-0.2,0.1-0.3,0.1-0.5,0.2c-0.2,0.1-0.4,0.2-0.6,0.3
	c-0.2,0.1-0.5,0.2-0.7,0.3c-0.1,0.1-0.3,0.2-0.4,0.2c-0.3,0.2-0.6,0.3-0.9,0.5c-0.1,0-0.1,0.1-0.2,0.1c-0.7,0.5-1.4,1.1-2,1.7
	L61.6,286c-2.8,2.8-4.3,6.5-4.3,10.5c0,4,1.5,7.7,4.3,10.5c5.8,5.8,15.2,5.8,20.9,0l7-7v93.3c0,8.2,6.6,14.8,14.8,14.8
	s14.8-6.6,14.8-14.8v-93.3l7.6,7.6c2.8,2.8,6.5,4.3,10.5,4.3s7.7-1.5,10.5-4.3c5.8-5.8,5.8-15.2,0-20.9l-32.9-32.9
	c-0.7-0.7-1.4-1.2-2.1-1.7c0,0-0.1-0.1-0.1-0.1c-0.3-0.2-0.6-0.4-0.9-0.5c-0.1-0.1-0.2-0.2-0.4-0.2c-0.2-0.1-0.5-0.2-0.7-0.3
	C110.4,250.7,110.2,250.6,109.9,250.5z"/>
<path class="st3" d="M215.5,252.1c-0.1-0.1-0.1-0.1-0.2-0.2c-0.3-0.2-0.5-0.3-0.8-0.5c-0.1-0.1-0.3-0.2-0.4-0.3
	c-0.2-0.1-0.5-0.2-0.7-0.3c-0.2-0.1-0.4-0.2-0.7-0.3c-0.2-0.1-0.3-0.1-0.5-0.2c-0.3-0.1-0.6-0.2-0.9-0.3c-0.1,0-0.2,0-0.3-0.1
	c-1.3-0.4-2.6-0.6-4-0.6c-1,0-1.9,0.1-2.8,0.3c0,0,0,0,0,0c-0.4,0.1-0.7,0.2-1.1,0.3c-0.1,0-0.2,0.1-0.3,0.1
	c-0.3,0.1-0.6,0.2-0.9,0.3c-0.2,0.1-0.4,0.1-0.5,0.2c-0.2,0.1-0.4,0.2-0.6,0.3c-0.2,0.1-0.5,0.2-0.7,0.4c-0.1,0.1-0.2,0.1-0.4,0.2
	c-0.3,0.2-0.6,0.3-0.9,0.5c0,0-0.1,0.1-0.1,0.1c-0.7,0.5-1.4,1.1-2.1,1.7L164.3,286c-2.8,2.8-4.3,6.5-4.3,10.5c0,4,1.5,7.7,4.3,10.5
	c5.8,5.8,15.2,5.8,20.9,0l7-7v93.3c0,8.2,6.6,14.8,14.8,14.8c8.2,0,14.8-6.6,14.8-14.8v-93.3l7.6,7.6c2.8,2.8,6.5,4.3,10.5,4.3
	c4,0,7.7-1.5,10.5-4.3c2.8-2.8,4.3-6.5,4.3-10.5s-1.5-7.7-4.3-10.5l-32.9-32.9C216.9,253.1,216.2,252.6,215.5,252.1z"/>
<path class="st1" d="M349.8,33.5c-16.6,0-32.2,6.5-43.9,18.2c-11.7,11.7-18.2,27.3-18.2,43.9s6.5,32.2,18.2,43.9
	c11.7,11.7,27.3,18.2,43.9,18.2c16.6,0,32.2-6.5,43.9-18.2c11.7-11.7,18.2-27.3,18.2-43.9s-6.5-32.2-18.2-43.9
	C382,39.9,366.4,33.5,349.8,33.5z M383,128.8c-9.2,9.2-21.2,13.7-33.2,13.7c-12,0-24.1-4.6-33.2-13.7c-8.9-8.9-13.8-20.7-13.8-33.2
	s4.9-24.3,13.8-33.2c8.9-8.9,20.6-13.7,33.2-13.7c12.6,0,24.4,4.9,33.2,13.7C401.3,80.7,401.3,110.5,383,128.8z"/>
<path class="st1" d="M391.1,177.3c1.5-0.8,3-1.5,4.5-2.4l72.8,72.8c4.5,4.5,10.4,6.9,16.8,6.9c6.3,0,12.3-2.5,16.8-6.9
	c4.5-4.5,7-10.4,7-16.8c0-6.3-2.5-12.3-7-16.8l-72.8-72.8c9.8-17,14-37.1,11.6-56.8c-2.4-20.3-11.7-39.4-26.1-53.8
	c-35.1-35.1-91.7-35.7-127.5-2H12.7c-4.2,0-7.6,3.4-7.6,7.6v461c0,4.2,3.4,7.6,7.6,7.6h370.9c4.2,0,7.6-3.4,7.6-7.6 M375.9,489.8
	H20.3V44h253.8c-22.8,33.4-21,78.8,5.4,110.3c0,0,0,0.1,0.1,0.1c0.4,0.5,0.8,0.9,1.2,1.4c0.1,0.2,0.3,0.3,0.4,0.5
	c0.3,0.4,0.6,0.7,0.9,1.1c0.2,0.3,0.5,0.5,0.7,0.8c0.2,0.3,0.5,0.5,0.7,0.8c0.5,0.5,1,1.1,1.5,1.6c0.9,0.9,1.8,1.7,2.6,2.5
	c0.1,0.1,0.2,0.2,0.4,0.3c23.9,21.9,57,29.5,87.9,20.1V489.8z M491.2,237c-3.2,3.2-8.9,3.2-12.1,0L402.1,160
	c-1.4-1.4-3.3-2.2-5.4-2.2c-1.5,0-3,0.4-4.2,1.3c-3.8,2.5-7.7,4.7-11.7,6.5c-0.1,0-0.2,0.1-0.3,0.1c-2.5,1.1-5.1,2.1-7.7,2.9
	c-0.3,0.1-0.5,0.2-0.8,0.3c-0.5,0.1-1,0.3-1.4,0.4c-0.7,0.2-1.4,0.4-2.1,0.6c-0.1,0-0.3,0.1-0.4,0.1c-23.1,5.7-48.1,0.3-67-15.4
	c-0.1-0.1-0.3-0.2-0.4-0.3c-0.7-0.6-1.3-1.1-2-1.7c-0.2-0.2-0.4-0.3-0.5-0.5c-0.8-0.7-1.6-1.5-2.3-2.2c-0.5-0.5-0.9-0.9-1.4-1.4
	c0,0-0.1-0.1-0.1-0.1C266,118.3,266.4,71,295.5,41.7c0.1-0.1,0.2-0.2,0.2-0.3c29.8-29.8,78.3-29.7,108.1,0
	c25.8,25.8,29.7,66.5,9.4,96.7c-2,3-1.6,7,0.9,9.6l77.1,77.1c1.6,1.6,2.5,3.8,2.5,6C493.7,233.3,492.8,235.4,491.2,237z"/>
<path class="st1" d="M147.9,85H164c4.2,0,7.6-3.4,7.6-7.6s-3.4-7.6-7.6-7.6h-16.1c-4.2,0-7.6,3.4-7.6,7.6S143.7,85,147.9,85z"/>
<path class="st1" d="M181.2,85h17.2c4.2,0,7.6-3.4,7.6-7.6s-3.4-7.6-7.6-7.6h-17.2c-4.2,0-7.6,3.4-7.6,7.6S177,85,181.2,85z"/>
<path class="st1" d="M215.5,85h16.1c4.2,0,7.6-3.4,7.6-7.6s-3.4-7.6-7.6-7.6h-16.1c-4.2,0-7.6,3.4-7.6,7.6S211.4,85,215.5,85z"/>
<path class="st0" d="M46.1,110.8V192c0,4.4,3.6,8,8,8s8-3.6,8-8v-81.2c0-4.4-3.6-8-8-8S46.1,106.4,46.1,110.8L46.1,110.8z"/>
<path class="st0" d="M75.6,110.8v67c0,4.4,3.6,8,8,8s8-3.6,8-8v-67c0-4.4-3.6-8-8-8S75.6,106.4,75.6,110.8L75.6,110.8z"/>
<path class="st0" d="M105.2,110.8v67c0,4.4,3.6,8,8,8c4.4,0,8-3.6,8-8v-67c0-4.4-3.6-8-8-8C108.7,102.8,105.2,106.4,105.2,110.8
	L105.2,110.8z"/>
<path class="st0" d="M134.7,110.8V192c0,4.4,3.6,8,8,8c4.4,0,8-3.6,8-8v-81.2c0-4.4-3.6-8-8-8C138.3,102.8,134.7,106.4,134.7,110.8
	L134.7,110.8z"/>
<path class="st0" d="M164.2,110.8v67c0,4.4,3.6,8,8,8c4.4,0,8-3.6,8-8v-67c0-4.4-3.6-8-8-8C167.8,102.8,164.2,106.4,164.2,110.8
	L164.2,110.8z"/>
<path class="st0" d="M193.8,110.8v67c0,4.4,3.6,8,8,8c4.4,0,8-3.6,8-8v-67c0-4.4-3.6-8-8-8C197.3,102.8,193.8,106.4,193.8,110.8
	L193.8,110.8z"/>
<path class="st0" d="M223.3,110.8V192c0,4.4,3.6,8,8,8c4.4,0,8-3.6,8-8v-81.2c0-4.4-3.6-8-8-8C226.9,102.8,223.3,106.4,223.3,110.8
	L223.3,110.8z"/>
</svg>
