<?xml version="1.0" encoding="utf-8"?>
<!-- Generator: Adobe Illustrator 27.3.0, SVG Export Plug-In . SVG Version: 6.00 Build 0)  -->
<svg version="1.1" id="a" xmlns="http://www.w3.org/2000/svg" xmlns:xlink="http://www.w3.org/1999/xlink" x="0px" y="0px"
	 viewBox="0 0 512 512" style="enable-background:new 0 0 512 512;" xml:space="preserve">
<style type="text/css">
	.st0{fill:#DBE5EA;}
	.st1{fill:#A31D29;}
	.st2{fill:#BE202E;}
	.st3{fill:none;}
	.st4{fill:#4FC3CB;}
	.st5{fill:#07B4C0;}
</style>
<rect x="15.2" y="107" class="st0" width="477.4" height="363.2"/>
<rect x="88.8" y="265.1" transform="matrix(0.7071 0.7071 -0.7071 0.7071 283.5635 -97.1302)" class="st1" width="340.4" height="57.3"/>
<rect x="88.8" y="265.1" transform="matrix(0.7071 -0.7071 0.7071 0.7071 -131.8283 269.1911)" class="st2" width="340.4" height="57.3"/>
<g>
	<path class="st3" d="M101.6,69.9c0.8,7.3,7.7,12.7,15.3,11.9h1.4h0.1c7.7-0.4,13.6-6.7,13.1-14.1c-0.4-7.4-7-13-14.7-12.6h-2.8
		c-0.1,0-0.1,0-0.1,0c-7.6,0.8-13.2,7.3-12.4,14.7C101.6,69.8,101.6,69.9,101.6,69.9z"/>
	<path class="st3" d="M157.2,69.9c0.8,7.3,7.7,12.7,15.3,11.9h1.4h0.1c7.7-0.4,13.6-6.7,13.1-14.1c-0.4-7.4-7-13-14.7-12.6h-2.8
		c-0.1,0-0.1,0-0.1,0c-7.6,0.8-13.2,7.3-12.4,14.7C157.2,69.8,157.2,69.9,157.2,69.9z"/>
	<path class="st3" d="M33.4,443.6c-0.1,13.8,10.8,25.3,25,26.7h200.3V121.9H33.4V443.6z"/>
	<path class="st3" d="M249.1,68.4c0,5.9,4.1,10.9,9.6,12.6V55.8C253.1,57.5,249.1,62.5,249.1,68.4z"/>
	<path class="st3" d="M61.2,81.8h1.4h0.1c7.7-0.4,13.6-6.7,13.1-14.1s-7-13-14.7-12.6h-2.6c-6.6,1.2-11.4,6.9-11.3,13.4
		C47.3,75.8,53.5,81.8,61.2,81.8z"/>
	<path class="st4" d="M58.4,470.3c-14.3-1.4-25.1-12.9-25-26.7V121.9h225.3V81.1c-5.6-1.7-9.6-6.7-9.6-12.6s4.1-10.9,9.6-12.6V15
		H47.3C24.2,15,5.5,32.9,5.5,55.1v388.5c-0.2,27.5,21.5,50.6,50,53.4h203.2v-26.7H58.4z M169.6,55.1c0,0,0.1,0,0.1,0h2.8
		c7.7-0.4,14.3,5.2,14.7,12.6c0.4,7.4-5.5,13.7-13.1,14.1h-0.1h-1.4c-7.6,0.8-14.5-4.5-15.3-11.9c0,0,0-0.1,0-0.1
		C156.4,62.4,161.9,55.9,169.6,55.1z M113.9,55.1c0,0,0.1,0,0.1,0h2.8c7.7-0.4,14.3,5.2,14.7,12.6c0.4,7.4-5.5,13.7-13.1,14.1h-0.1
		h-1.4c-7.6,0.8-14.5-4.5-15.3-11.9c0,0,0-0.1,0-0.1C100.8,62.4,106.3,55.9,113.9,55.1z M58.6,55.1h2.6c7.7-0.4,14.3,5.2,14.7,12.6
		s-5.5,13.7-13.1,14.1h-0.1h-1.4c-7.7,0-13.9-6-13.9-13.4C47.2,61.9,51.9,56.3,58.6,55.1z"/>
	<path class="st5" d="M506.5,443.6v-53.4c0-7.4-6.2-13.4-13.9-13.4s-13.9,6-13.9,13.4v53.4c0,14.3-11.6,26-26.4,26.7H258.7V497
		h196.5C484.2,494.8,506.6,471.5,506.5,443.6z"/>
	<path class="st5" d="M263,55.1h173.9c7.7,0,13.9,6,13.9,13.4s-6.2,13.4-13.9,13.4H263c-1.5,0-2.9-0.3-4.3-0.7v40.8h220V202
		c0,7.4,6.2,13.4,13.9,13.4c5.4,0,10.2-3,12.5-7.6c0.9-1.8,1.3-3.8,1.4-5.7V55.1c0-22.1-18.7-40.1-41.7-40.1h-206v40.8
		C260,55.4,261.5,55.1,263,55.1z"/>
	<path class="st4" d="M492.6,242.1c-7.7,0-13.9,6-13.9,13.4c0,7.4,6.2,13.4,13.9,13.4c7.7,0,13.9-6,13.9-13.4
		C506.5,248.1,500.2,242.1,492.6,242.1z"/>
</g>
</svg>
