<?xml version="1.0" encoding="utf-8"?>
<!-- Generator: Adobe Illustrator 27.3.0, SVG Export Plug-In . SVG Version: 6.00 Build 0)  -->
<svg version="1.1" id="Capa_1" xmlns="http://www.w3.org/2000/svg" xmlns:xlink="http://www.w3.org/1999/xlink" x="0px" y="0px"
	 viewBox="0 0 512 512" style="enable-background:new 0 0 512 512;" xml:space="preserve">
<style type="text/css">
	.st0{fill:#17578E;}
	.st1{fill:#102A4C;}
	.st2{fill:#CAE0E5;}
	.st3{fill:#07B2BF;}
	.st4{fill:#F7E2C9;}
	.st5{fill:#FFFFFF;}
</style>
<path class="st0" d="M507,256c0,73.5-31.6,139.5-81.9,185.5C380.5,482.2,321.2,507,256,507s-124.5-24.8-169.1-65.5
	C36.6,395.5,5,329.5,5,256C5,117.4,117.4,5,256,5S507,117.4,507,256z"/>
<path class="st1" d="M507,256c0,73.5-31.6,139.5-81.9,185.5C380.5,482.2,321.2,507,256,507V5C394.6,5,507,117.4,507,256z"/>
<path class="st2" d="M425.1,440.5v1C380.5,482.2,321.2,507,256,507s-124.5-24.8-169.1-65.5v-1c0-72.7,46.1-134.9,110.7-158.7
	c18.2-6.7,37.9-10.4,58.5-10.4s40.3,3.7,58.5,10.4C379,305.6,425.1,367.7,425.1,440.5z"/>
<path class="st3" d="M425.1,440.5v1C380.5,482.2,321.2,507,256,507V271.3c20.6,0,40.3,3.7,58.5,10.4
	C379,305.6,425.1,367.7,425.1,440.5z"/>
<path class="st4" d="M341.8,178.2c0,47.3-38.5,85.8-85.8,85.8c-47.3,0-85.8-38.5-85.8-85.8s38.5-85.8,85.8-85.8
	C303.3,92.4,341.8,130.9,341.8,178.2z"/>
<rect x="282.8" y="332.1" class="st5" width="66.8" height="40"/>
<circle class="st5" cx="256" cy="324.2" r="6.9"/>
<circle class="st5" cx="256" cy="372.1" r="6.9"/>
<circle class="st5" cx="256" cy="419.9" r="6.9"/>
<circle class="st5" cx="256" cy="467.8" r="6.9"/>
</svg>
