<?xml version="1.0" encoding="utf-8"?>
<!-- Generator: Adobe Illustrator 27.3.0, SVG Export Plug-In . SVG Version: 6.00 Build 0)  -->
<svg version="1.1" id="Layer_1" xmlns="http://www.w3.org/2000/svg" xmlns:xlink="http://www.w3.org/1999/xlink" x="0px" y="0px"
	 viewBox="0 0 512 512" style="enable-background:new 0 0 512 512;" xml:space="preserve">
<style type="text/css">
	.st0{fill:#25B04B;}
	.st1{fill:#102A4C;}
	.st2{fill:#838383;}
	.st3{fill:#AAAAAA;}
	.st4{fill:#C6C5C5;}
	.st5{fill:#D8E5EB;}
	.st6{fill:#FDD301;}
</style>
<polyline class="st0" points="446.7,93.4 446.7,93.3 446.7,7 411.9,7 411.9,506 446.7,506 446.7,135.8 "/>
<rect x="396.1" y="7" class="st1" width="15.9" height="499"/>
<g>
	<g>
		<path class="st2" d="M268.8,92.9c0,7.1-5.7,12.8-12.8,12.8c0,0,0,0,0,0v12.5c0,0,0,0,0,0c13.9,0,25.2-11.3,25.2-25.2V7h-12.4V92.9
			z"/>
		<path class="st2" d="M230.8,93c0,13.9,11.3,25.2,25.2,25.2l0,0v-12.5l0,0c-7.1,0-12.8-5.7-12.8-12.8c0,0,0,0,0,0V7h-12.4V93
			C230.8,92.9,230.8,92.9,230.8,93z"/>
		<path class="st1" d="M268.8,92.9V7H256v98.7c0,0,0,0,0,0C263.1,105.7,268.8,100,268.8,92.9z"/>
		<path class="st1" d="M243.2,7v85.9c0,0,0,0,0,0c0,7.1,5.8,12.8,12.8,12.8l0,0V7H243.2z"/>
	</g>
	<g>
		<path class="st3" d="M283.2,7h-1.9v85.9c0,13.9-11.3,25.2-25.2,25.2c0,0,0,0,0,0v284.5c13.9,0,25.2,11.3,25.2,25.2V506h1.9h112.9
			V7H283.2z"/>
		<path class="st4" d="M256,402.7V118.2c-13.9,0-25.2-11.3-25.2-25.2c0,0,0,0,0,0V7h-1.9H115.9v499h112.9h1.9v-78.1
			C230.8,414,242.1,402.7,256,402.7z"/>
		<path class="st2" d="M256,402.7v12.6c7.1,0,12.8,5.8,12.8,12.8V506h12.4v-78.1C281.2,414,269.9,402.7,256,402.7z"/>
		<path class="st2" d="M243.2,428.1c0-7.1,5.8-12.8,12.8-12.8v-12.6c-13.9,0-25.2,11.3-25.2,25.2V506h12.4V428.1z"/>
		<path class="st1" d="M268.8,506v-77.9c0-7.1-5.7-12.8-12.8-12.8V506H268.8z"/>
		<path class="st1" d="M243.2,428.1V506H256v-90.7C248.9,415.3,243.2,421,243.2,428.1z"/>
	</g>
</g>
<polyline class="st0" points="65.3,432 65.3,506 100.1,506 100.1,7 65.3,7 65.3,325.8 "/>
<rect x="100.1" y="7" class="st1" width="15.9" height="499"/>
<path class="st2" d="M256,361.4c-13.9,0-25.2-11.3-25.2-25.2c0,0,0,0,0,0V184.7c0-13.9,11.3-25.2,25.2-25.2
	c13.9,0,25.2,11.3,25.2,25.2v151.4C281.2,350.1,270,361.4,256,361.4C256,361.4,256,361.4,256,361.4z"/>
<path class="st1" d="M256,348.9c-7.1,0-12.8-5.7-12.8-12.8c0,0,0,0,0,0V184.9c0-7.1,5.8-12.8,12.8-12.8s12.8,5.8,12.8,12.8v151.2
	C268.8,343.2,263.1,348.9,256,348.9C256,348.9,256,348.9,256,348.9z"/>
</svg>
