<?xml version="1.0" encoding="utf-8"?>
<!-- Generator: Adobe Illustrator 27.3.0, SVG Export Plug-In . SVG Version: 6.00 Build 0)  -->
<svg version="1.1" id="Capa_1" xmlns="http://www.w3.org/2000/svg" xmlns:xlink="http://www.w3.org/1999/xlink" x="0px" y="0px"
	 viewBox="0 0 512 512" style="enable-background:new 0 0 512 512;" xml:space="preserve">
<style type="text/css">
	.st0{fill:#25B04B;}
	.st1{fill:#17562C;}
	.st2{fill:#DBE5EA;}
	.st3{fill:#EFEEEE;}
	.st4{fill:#102A4C;}
	.st5{fill:#17578E;}
	.st6{fill:#004A68;}
	.st7{fill:#12284B;}
</style>
<g id="g2013_00000121973996105292074890000008102288833958741643_" transform="matrix(1.3333333,0,0,-1.3333333,0,682.66667)">
	<g id="g2015_00000146457976118194933350000000066672056025096865_" transform="translate(0,470.1105)">
		<path id="path2017_00000164504428047072639970000004134472818860212374_" class="st0" d="M4.3,5.1v-76.3l155-7.5l7.5,29.9l-7.5,54
			H4.3z"/>
	</g>
	<g id="g2019_00000088115700928356937730000005823828092559600517_" transform="translate(205.5381,470.1108)">
		<path id="path2021_00000052073699027424352960000017057356752062101422_" class="st1" d="M-46.2,5.1v-83.8l155,7.5V5.1H-46.2z"/>
	</g>
	<g id="g2023_00000088109902086323311110000017553725478530636456_">
		<g>
			<g>
				<g id="g2025_00000056426092571204805980000008003765226344975522_">
					<g id="g2031_00000109736467898576781150000014599791136756217477_" transform="translate(0,368.9092)">
						<path id="path2033_00000110449094105451465940000004746355464421304734_" class="st2" d="M4.3,29.9v-192.5
							c0-10.6,8.7-19.3,19.3-19.3h135.7l15.1,119.4l-15.1,92.4H4.3z"/>
					</g>
					<g id="g2035_00000017484643079803976890000002105836391175727264_" transform="translate(205.5381,87.9688)">
						<path id="path2037_00000012453686630970124830000003244339923939581357_" class="st3" d="M-46.2,99H89.4
							c10.6,0,19.3,8.7,19.3,19.3v192.5h-155V99z"/>
					</g>
					<path id="path2039_00000097470683792936926220000001060671238712737703_" class="st4" d="M67.7,443.6H45.1v63.2h22.6V443.6z"/>
					<path id="path2041_00000008842183776508060400000003606793253744013704_" class="st4" d="M119.2,443.6H96.5v63.2h22.6V443.6z"
						/>
					<path id="path2043_00000126296480918519702150000014591907523852861115_" class="st5" d="M222,443.6h-22.6v63.2H222V443.6z"/>
					<path id="path2045_00000026141611084943603330000012492080088246053268_" class="st5" d="M273.4,443.6h-22.6v63.2h22.6V443.6z"
						/>
					<g id="g2051_00000068677769268144026660000017008861464947534219_" transform="translate(190.5381,512)">
						<path id="path2053_00000058570359349412146810000010011196543906006162_" class="st4" d="M-42.5-5.2v-63.2h11.3l7.5,31.6
							l-7.5,31.6H-42.5z"/>
					</g>
					<path id="path2055_00000167396656308156395600000002833980257399636372_" class="st5" d="M170.6,506.8h-11.3v-63.2h11.3V506.8z
						"/>
					<g id="g2065_00000106849088069468039150000010162541295577307295_" transform="translate(303.333,111.8335)">
						<path id="path2067_00000040551541344845910320000010976379678395103405_" class="st0" d="M-70.3,93.2c0-40.3,32.7-73,73-73
							l15.1,78.9l-15.1,67C-37.6,166.2-70.3,133.5-70.3,93.2"/>
					</g>
					<g id="g2069_00000135670372951181914610000017319095337826600605_" transform="translate(400.167,208.6665)">
						<path id="path2071_00000090266832427401170150000011556282137154650302_" class="st0" d="M-94.1,69.4L-94.1,69.4V-76.7l0,0
							c40.3,0,73,32.7,73,73C-21.1,36.6-53.8,69.4-94.1,69.4"/>
					</g>
				</g>
			</g>
		</g>
	</g>
</g>
<g>
	<path class="st7" d="M506.2,409.2c0-0.1,0-0.2,0-0.2c0-0.9,0-1.8-0.1-2.7c0-0.3,0-0.7-0.1-1c0-0.7-0.1-1.4-0.1-2
		c0-0.3-0.1-0.7-0.1-1c-0.1-0.9-0.2-1.8-0.2-2.7c0-0.1,0-0.2,0-0.2c-0.1-1.1-0.2-2-0.4-3.1c0-0.1,0-0.2-0.1-0.3
		c-0.2-1-0.3-1.9-0.5-2.8c0-0.1,0-0.2-0.1-0.2c-2-11.5-6-22.6-11.8-32.6l-0.1-0.1c-0.5-0.8-0.9-1.5-1.4-2.3
		c-0.2-0.2-0.3-0.5-0.5-0.7c-0.4-0.6-0.8-1.1-1.1-1.7c-0.2-0.2-0.3-0.5-0.5-0.8c-0.5-0.7-0.9-1.4-1.4-2c-0.3-0.5-0.7-0.9-1-1.4
		c-0.2-0.2-0.4-0.5-0.5-0.7c-0.4-0.5-0.8-1.1-1.2-1.6c-0.1-0.1-0.1-0.1-0.2-0.2c-12.7-16.1-30.2-28.1-50.5-33.6l0,0
		c-0.8-0.2-1.7-0.5-2.6-0.7c-0.5-0.2-1-0.2-1.4-0.4c-0.1,0-0.1,0-0.2,0c-7-1.6-14.4-2.5-21.9-2.5c-53.8,0-97.4,43.7-97.4,97.4
		c0,8.4,1.1,16.4,3,24.2c0.2,0.5,0.3,1.1,0.5,1.7c0.2,0.5,0.2,0.8,0.4,1.3c0.3,1.1,0.7,2.3,1.1,3.4l0,0c2.6,8,6.3,15.5,10.7,22.4
		h0.1c6.3,9.6,13.9,17.9,22.6,24.6l0.1,0.1c0.7,0.5,1.4,1,2,1.5c0.2,0.2,0.3,0.2,0.5,0.4c0.5,0.4,1.1,0.8,1.6,1.1
		c0.8,0.5,1.5,1.1,2.3,1.5c0.1,0,0.1,0.1,0.2,0.1c9.9,6.3,21,10.9,32.8,13.3c0,0,0,0,0.1,0c0.8,0.2,1.5,0.3,2.3,0.5
		c0.1,0,0.2,0,0.2,0.1c2.1,0.4,4.3,0.7,6.5,0.9c0.3,0,0.5,0.1,0.8,0.1c0.5,0.1,1.1,0.1,1.6,0.2c0.5,0,0.8,0.1,1.3,0.1
		c0.5,0,0.9,0.1,1.4,0.1s1.1,0.1,1.6,0.1c0.4,0,0.8,0,1.2,0.1c0.8,0,1.7,0.1,2.6,0.1c0.1,0,0.2,0,0.2,0
		C462.5,506.6,506.2,463,506.2,409.2z M419.9,483.4v-2.9c0-6.2-5.1-11.2-11.2-11.2c-6.2,0-11.2,5.1-11.2,11.2v2.9
		c-32.6-4.9-58.2-30.5-63-63h2.9c6.2,0,11.2-5.1,11.2-11.2c0-6.2-5.1-11.2-11.2-11.2h-2.9c4.9-32.6,30.5-58.2,63-63v2.9
		c0,6.2,5.1,11.2,11.2,11.2c6.2,0,11.2-5.1,11.2-11.2V335c32.6,4.9,58.2,30.5,63,63H480c-6.2,0-11.2,5.1-11.2,11.2
		c0,6.2,5.1,11.2,11.2,11.2h2.9C478.1,452.9,452.5,478.6,419.9,483.4z"/>
</g>
<path class="st7" d="M397.3,407.5v41.2c0,6.2,5.1,11.2,11.2,11.2c6.2,0,11.2-5.1,11.2-11.2v-36.6l34.2-34.7c2.1-2.1,3.2-5,3.2-7.9
	c0-3-1.2-5.8-3.3-7.9c-2.1-2.1-4.9-3.2-7.8-3.2c-0.1,0-0.1,0-0.2,0c-3,0-5.8,1.2-7.8,3.3l-37.3,37.9
	C398.4,401.8,397.3,404.5,397.3,407.5z"/>
<g>
	<g>
		<path class="st5" d="M68.3,228.5H48c-4.9,0-8.9-4-8.9-8.9v-20.3c0-4.9,4-8.9,8.9-8.9h20.3c4.9,0,8.9,4,8.9,8.9v20.3
			C77.2,224.5,73.2,228.5,68.3,228.5z"/>
		<path class="st5" d="M144.6,228.5h-20.3c-4.9,0-8.9-4-8.9-8.9v-20.3c0-4.9,4-8.9,8.9-8.9h20.3c4.9,0,8.9,4,8.9,8.9v20.3
			C153.6,224.5,149.6,228.5,144.6,228.5z"/>
		<path class="st5" d="M221,228.5h-20.3c-4.9,0-8.9-4-8.9-8.9v-20.3c0-4.9,4-8.9,8.9-8.9H221c4.9,0,8.9,4,8.9,8.9v20.3
			C229.9,224.5,225.9,228.5,221,228.5z"/>
		<path class="st5" d="M68.3,304.9H48c-4.9,0-8.9-4-8.9-8.9v-20.3c0-4.9,4-8.9,8.9-8.9h20.3c4.9,0,8.9,4,8.9,8.9v20.3
			C77.2,300.8,73.2,304.9,68.3,304.9z"/>
		<path class="st5" d="M144.6,304.9h-20.3c-4.9,0-8.9-4-8.9-8.9v-20.3c0-4.9,4-8.9,8.9-8.9h20.3c4.9,0,8.9,4,8.9,8.9v20.3
			C153.6,300.8,149.6,304.9,144.6,304.9z"/>
		<path class="st5" d="M221,304.9h-20.3c-4.9,0-8.9-4-8.9-8.9v-20.3c0-4.9,4-8.9,8.9-8.9H221c4.9,0,8.9,4,8.9,8.9v20.3
			C229.9,300.8,225.9,304.9,221,304.9z"/>
		<path class="st5" d="M68.3,381.2H48c-4.9,0-8.9-4-8.9-8.9V352c0-4.9,4-8.9,8.9-8.9h20.3c4.9,0,8.9,4,8.9,8.9v20.3
			C77.2,377.2,73.2,381.2,68.3,381.2z"/>
		<path class="st5" d="M144.6,381.2h-20.3c-4.9,0-8.9-4-8.9-8.9V352c0-4.9,4-8.9,8.9-8.9h20.3c4.9,0,8.9,4,8.9,8.9v20.3
			C153.6,377.2,149.6,381.2,144.6,381.2z"/>
		<path class="st5" d="M221,381.2h-20.3c-4.9,0-8.9-4-8.9-8.9V352c0-4.9,4-8.9,8.9-8.9H221c4.9,0,8.9,4,8.9,8.9v20.3
			C229.9,377.2,225.9,381.2,221,381.2z"/>
	</g>
	<path class="st4" d="M220.7,190.3H201c-1.2,0-2.3,0.2-3.4,0.6c3.4,1.3,5.8,4.7,5.8,8.6v19.7c0,3.9-2.4,7.2-5.8,8.6
		c1,0.4,2.2,0.6,3.4,0.6h19.7c5.1,0,9.2-4.1,9.2-9.2v-19.7C229.9,194.5,225.8,190.3,220.7,190.3z"/>
	<path class="st4" d="M144.4,190.3h-19.7c-1.2,0-2.3,0.2-3.4,0.6c3.4,1.3,5.8,4.7,5.8,8.6v19.7c0,3.9-2.4,7.2-5.8,8.6
		c1,0.4,2.2,0.6,3.4,0.6h19.7c5.1,0,9.2-4.1,9.2-9.2v-19.7C153.6,194.5,149.4,190.3,144.4,190.3z"/>
	<path class="st4" d="M68,190.3H48.3c-1.2,0-2.3,0.2-3.4,0.6c3.4,1.3,5.8,4.7,5.8,8.6v19.7c0,3.9-2.4,7.2-5.8,8.6
		c1,0.4,2.2,0.6,3.4,0.6H68c5.1,0,9.2-4.1,9.2-9.2v-19.7C77.2,194.5,73.1,190.3,68,190.3z"/>
	<path class="st4" d="M68,266.7H48.3c-1.2,0-2.3,0.2-3.4,0.6c3.4,1.3,5.8,4.7,5.8,8.6v19.7c0,3.9-2.4,7.2-5.8,8.6
		c1,0.4,2.2,0.6,3.4,0.6H68c5.1,0,9.2-4.1,9.2-9.2v-19.7C77.2,270.8,73.1,266.7,68,266.7L68,266.7z"/>
	<path class="st4" d="M68,343H48.3c-1.2,0-2.3,0.2-3.4,0.6c3.4,1.3,5.8,4.7,5.8,8.6V372c0,3.9-2.4,7.2-5.8,8.6
		c1,0.4,2.2,0.6,3.4,0.6H68c5.1,0,9.2-4.1,9.2-9.2v-19.7C77.2,347.2,73.1,343,68,343L68,343z"/>
	<path class="st4" d="M144.4,266.7h-19.7c-1.2,0-2.3,0.2-3.4,0.6c3.4,1.3,5.8,4.7,5.8,8.6v19.7c0,3.9-2.4,7.2-5.8,8.6
		c1,0.4,2.2,0.6,3.4,0.6h19.7c5.1,0,9.2-4.1,9.2-9.2v-19.7C153.6,270.8,149.4,266.7,144.4,266.7L144.4,266.7z"/>
	<path class="st4" d="M144.4,343h-19.7c-1.2,0-2.3,0.2-3.4,0.6c3.4,1.3,5.8,4.7,5.8,8.6V372c0,3.9-2.4,7.2-5.8,8.6
		c1,0.4,2.2,0.6,3.4,0.6h19.7c5.1,0,9.2-4.1,9.2-9.2v-19.7C153.6,347.2,149.4,343,144.4,343L144.4,343z"/>
	<path class="st4" d="M220.7,266.7H201c-1.2,0-2.3,0.2-3.4,0.6c3.4,1.3,5.8,4.7,5.8,8.6v19.7c0,3.9-2.4,7.2-5.8,8.6
		c1,0.4,2.2,0.6,3.4,0.6h19.7c5.1,0,9.2-4.1,9.2-9.2v-19.7C229.9,270.8,225.8,266.7,220.7,266.7L220.7,266.7z"/>
	<path class="st4" d="M220.7,343H201c-1.2,0-2.3,0.2-3.4,0.6c3.4,1.3,5.8,4.7,5.8,8.6V372c0,3.9-2.4,7.2-5.8,8.6
		c1,0.4,2.2,0.6,3.4,0.6h19.7c5.1,0,9.2-4.1,9.2-9.2v-19.7C229.9,347.2,225.8,343,220.7,343L220.7,343z"/>
</g>
<path class="st5" d="M300.5,228.5h-20.3c-4.9,0-8.9-4-8.9-8.9v-20.3c0-4.9,4-8.9,8.9-8.9h20.3c4.9,0,8.9,4,8.9,8.9v20.3
	C309.4,224.5,305.4,228.5,300.5,228.5z"/>
<path class="st5" d="M376.8,228.5h-20.3c-4.9,0-8.9-4-8.9-8.9v-20.3c0-4.9,4-8.9,8.9-8.9h20.3c4.9,0,8.9,4,8.9,8.9v20.3
	C385.8,224.5,381.8,228.5,376.8,228.5z"/>
<path class="st5" d="M300.5,304.9h-20.3c-4.9,0-8.9-4-8.9-8.9v-20.3c0-4.9,4-8.9,8.9-8.9h20.3c4.9,0,8.9,4,8.9,8.9v20.3
	C309.4,300.8,305.4,304.9,300.5,304.9z"/>
<path class="st5" d="M376.8,304.9h-20.3c-4.9,0-8.9-4-8.9-8.9v-20.3c0-4.9,4-8.9,8.9-8.9h20.3c4.9,0,8.9,4,8.9,8.9v20.3
	C385.8,300.8,381.8,304.9,376.8,304.9z"/>
<path class="st5" d="M300.5,381.2h-20.3c-4.9,0-8.9-4-8.9-8.9V352c0-4.9,4-8.9,8.9-8.9h20.3c4.9,0,8.9,4,8.9,8.9v20.3
	C309.4,377.2,305.4,381.2,300.5,381.2z"/>
<path class="st4" d="M376.6,190.3h-19.7c-1.2,0-2.3,0.2-3.4,0.6c3.4,1.3,5.8,4.7,5.8,8.6v19.7c0,3.9-2.4,7.2-5.8,8.6
	c1,0.4,2.2,0.6,3.4,0.6h19.7c5.1,0,9.2-4.1,9.2-9.2v-19.7C385.8,194.4,381.7,190.3,376.6,190.3z"/>
<path class="st4" d="M300.2,190.3h-19.7c-1.2,0-2.3,0.2-3.4,0.6c3.4,1.3,5.8,4.7,5.8,8.6v19.7c0,3.9-2.4,7.2-5.8,8.6
	c1,0.4,2.2,0.6,3.4,0.6h19.7c5.1,0,9.2-4.1,9.2-9.2v-19.7C309.4,194.4,305.3,190.3,300.2,190.3z"/>
<path class="st4" d="M300.2,266.7h-19.7c-1.2,0-2.3,0.2-3.4,0.6c3.4,1.3,5.8,4.7,5.8,8.6v19.7c0,3.9-2.4,7.2-5.8,8.6
	c1,0.4,2.2,0.6,3.4,0.6h19.7c5.1,0,9.2-4.1,9.2-9.2v-19.7C309.4,270.8,305.3,266.7,300.2,266.7L300.2,266.7z"/>
<path class="st4" d="M300.2,343h-19.7c-1.2,0-2.3,0.2-3.4,0.6c3.4,1.3,5.8,4.7,5.8,8.6V372c0,3.9-2.4,7.2-5.8,8.6
	c1,0.4,2.2,0.6,3.4,0.6h19.7c5.1,0,9.2-4.1,9.2-9.2v-19.7C309.4,347.2,305.3,343,300.2,343L300.2,343z"/>
<path class="st4" d="M376.6,266.7h-19.7c-1.2,0-2.3,0.2-3.4,0.6c3.4,1.3,5.8,4.7,5.8,8.6v19.7c0,3.9-2.4,7.2-5.8,8.6
	c1,0.4,2.2,0.6,3.4,0.6h19.7c5.1,0,9.2-4.1,9.2-9.2v-19.7C385.8,270.8,381.7,266.7,376.6,266.7L376.6,266.7z"/>
</svg>
