<?xml version="1.0" encoding="utf-8"?>
<!-- Generator: Adobe Illustrator 27.3.0, SVG Export Plug-In . SVG Version: 6.00 Build 0)  -->
<svg version="1.1" id="Layer_1" xmlns="http://www.w3.org/2000/svg" xmlns:xlink="http://www.w3.org/1999/xlink" x="0px" y="0px"
	 viewBox="0 0 512 512" style="enable-background:new 0 0 512 512;" xml:space="preserve">
<style type="text/css">
	.st0{fill:#4EC3CC;}
	.st1{fill:#07B4C0;}
	.st2{fill:#F05859;}
	.st3{fill:#102A4C;}
	.st4{fill:#17578E;}
	.st5{fill:#33C5F3;}
	.st6{fill:#4998D2;}
</style>
<path class="st0" d="M96.9,66.7h159.1v90.9c-53.1,18.9-106.1,37.8-159.1,56.7L96.9,66.7z"/>
<path class="st1" d="M255.9,66.7H415v146.9c-53.1-18.8-106.1-37.3-159.1-56V66.7z"/>
<path class="st2" d="M96.9,214.3c53.1-18.9,106.1-37.8,159.1-56.7c53,18.8,106,37.3,159.1,56c11.5,4,22.8,8.1,34.3,12l-70.9,159.2
	H124.6C103.9,332,83.3,279.2,62.6,226.4C74,222.3,85.5,218.4,96.9,214.3L96.9,214.3z"/>
<path class="st3" d="M142.5,183.1c-6.3,0-11.4-5.1-11.4-11.4c0,0,0,0,0,0v-68.2c0-6.3,5.1-11.4,11.4-11.4c6.3,0,11.4,5.1,11.4,11.4
	v68.2C153.9,178,148.8,183.1,142.5,183.1C142.5,183.1,142.5,183.1,142.5,183.1z"/>
<path class="st3" d="M199.3,160.4c-6.3,0-11.4-5.1-11.4-11.4c0,0,0,0,0,0v-45.5c0-6.3,5.1-11.4,11.4-11.4s11.4,5.1,11.4,11.4V149
	C210.7,155.3,205.6,160.4,199.3,160.4C199.3,160.4,199.3,160.4,199.3,160.4z"/>
<path class="st3" d="M369.8,183.1c-6.3,0-11.4-5.1-11.4-11.4c0,0,0,0,0,0v-68.2c0-6.3,5.1-11.4,11.4-11.4c6.3,0,11.4,5.1,11.4,11.4
	v68.2C381.1,178,376,183.1,369.8,183.1C369.8,183.1,369.8,183.1,369.8,183.1z"/>
<path class="st3" d="M312.9,160.4c-6.3,0-11.4-5.1-11.4-11.4c0,0,0,0,0,0v-45.5c0-6.3,5.1-11.4,11.4-11.4s11.4,5.1,11.4,11.4V149
	C324.3,155.3,319.2,160.4,312.9,160.4C313,160.4,312.9,160.4,312.9,160.4z"/>
<g>
	<path class="st4" d="M493.4,506.7H18.6c-6.8,0-12.3-5.5-12.3-12.3v-91.3h499.3v91.3C505.6,501.2,500.2,506.7,493.4,506.7
		L493.4,506.7z"/>
	<path class="st5" d="M505.6,341.9l0,93.3c-15.7-27.1-56.8-28.8-72.5-1.7l-0.4,0.8c-15.7,27-55,27.1-70.8,0l-0.3-0.6
		c-15.8-27.1-55.2-27-70.9,0.1c-15.7,27.2-55.1,27.2-70.9,0.1l-0.3-0.5c-15.7-27.1-55.1-27.1-70.8,0l-0.4,0.8
		c-15.7,27-55,27.1-70.8,0l-0.5-0.8c-15.7-27-55.1-27-70.8,0v-93.2c15.7-27,55-27.1,70.8,0l0.5,0.8c15.7,27,55,27,70.8,0l0.4-0.8
		c15.7-27.1,55.1-27.1,70.8,0l0.3,0.5c15.8,27.1,55.2,27,70.9-0.1c15.7-27.2,55.1-27.2,70.9-0.1l0.3,0.6c15.7,27,55,27,70.8,0
		l0.4-0.8C448.9,313.3,489.9,314.9,505.6,341.9"/>
	<path class="st3" d="M255.8,506.7h237.6c6.8,0,12.3-5.5,12.3-12.3v-91.3H255.8L255.8,506.7z"/>
	<path class="st6" d="M433.1,340.3l-0.4,0.8c-15.7,27-55,27.1-70.8,0l-0.3-0.6c-15.8-27.1-55.2-27-70.9,0.1
		c-7.7,13.4-21.3,20.2-35,20.4v93.2c13.6-0.2,27.2-7,35-20.4c15.7-27.2,55.1-27.2,70.9-0.1l0.3,0.6c15.7,27,55.1,27,70.8,0l0.4-0.8
		c15.7-27.1,56.8-25.3,72.5,1.7l0-93.3C489.9,314.9,448.9,313.3,433.1,340.3L433.1,340.3z"/>
</g>
</svg>
