<?xml version="1.0" encoding="utf-8"?>
<!-- Generator: Adobe Illustrator 27.3.0, SVG Export Plug-In . SVG Version: 6.00 Build 0)  -->
<svg version="1.1" id="Capa_1" xmlns="http://www.w3.org/2000/svg" xmlns:xlink="http://www.w3.org/1999/xlink" x="0px" y="0px"
	 viewBox="0 0 512 512" style="enable-background:new 0 0 512 512;" xml:space="preserve">
<style type="text/css">
	.st0{fill:#FFCF66;}
	.st1{fill:#F1CC31;}
	.st2{fill:#17578E;}
	.st3{fill:#4980AB;}
	.st4{fill:#102A4C;}
	.st5{fill:#FFFFFF;}
</style>
<g>
	<path class="st0" d="M51,72.8c-3.9,2-7.7,4-11.3,6c-2.2,1.2-3.3,3.9-3.3,6.7c0,34.8,15.7,237.9,60.7,315.1
		c26.8,45.9,115,94.8,157.4,107.3c1.1,0.3,2.2,0.3,3.2,0c5.7-1.7,12.3-4,19.4-6.9L51,72.8z"/>
	<path class="st1" d="M472.3,78.8C404.8,40.7,271.9,8.1,257.5,4.2c-1-0.3-2-0.3-3.1,0C240.9,7.9,121,37.3,51,72.8
		c3.9,90.9,21,254.4,58.7,319.2c24,41.2,100.9,86.7,167.3,108.9c27.9-11.4,64.4-31.4,94-54.3l99.9-291.3c3.3-33.2,4.7-59.2,4.7-69.7
		C475.6,82.7,474.5,80,472.3,78.8L472.3,78.8z"/>
	<path class="st0" d="M415,400.5c31.3-53.8,48.5-168.8,56-245.3c-1.4-0.4-3-0.7-4.5-0.7h-79.5c-8.7,0-15.9,7.2-15.9,15.9v276.1
		C389.9,431.8,405.9,416,415,400.5L415,400.5z"/>
	<path class="st2" d="M256,36.7L92.3,88.8c-9.2,3.9-17.1,7.4-23.7,10.7c0.4,9.1,1.2,20.6,2.3,33.8c0,0,7.2,71.2,13.9,111.3
		c0,0,32.9,99.4,50.3,129.3c19,32.6,120.9,101,120.9,101l0,0l0,0c41.9-14.8,112.5-57.7,131.5-90.4c17.4-29.9,30.5-84.7,39.7-139.9
		c6.7-40.1,13.9-111.3,13.9-111.3c1.1-13.2,1.9-24.7,2.3-33.8C412.9,84.5,357.1,63,256,36.7L256,36.7z"/>
	<path class="st3" d="M256,447.1c-41-19.3-92.4-53.5-108.2-80.7c-15.5-26.6-27.6-73.1-36.6-121.9H84.8c9.2,55.2,22.3,110,39.7,139.9
		c19,32.6,89.6,75.6,131.5,90.4L256,447.1z"/>
	<path class="st4" d="M256,244.6l0,202.5c0,0,0,0,0,0c28.2-12.1,83.4-39.4,115-63.8V244.6L256,244.6z"/>
	<path class="st4" d="M256,36.7C176.9,57.3,125.5,74.9,92.3,88.8c2.1,35.4,8.2,97.3,19,155.8H256L256,36.7z"/>
</g>
<path class="st5" d="M377.6,189.8l-114.3,115l-30.9,30.9l-83.4-84l43.2-43.2l40.2,39.5l30.9-30.9l71.1-70.5L377.6,189.8z"/>
</svg>
