<?xml version="1.0" encoding="utf-8"?>
<!-- Generator: Adobe Illustrator 27.3.0, SVG Export Plug-In . SVG Version: 6.00 Build 0)  -->
<svg version="1.1" id="Capa_1" xmlns="http://www.w3.org/2000/svg" xmlns:xlink="http://www.w3.org/1999/xlink" x="0px" y="0px"
	 viewBox="0 0 512 512" style="enable-background:new 0 0 512 512;" xml:space="preserve">
<style type="text/css">
	.st0{fill:url(#SVGID_1_);stroke:#FFFFFF;stroke-width:5;stroke-miterlimit:10;}
	.st1{fill:url(#SVGID_00000069394881937464579230000006597895419637865650_);}
	.st2{fill:url(#SVGID_00000005227537982521140070000004708049791572849297_);}
	.st3{fill:url(#SVGID_00000083787793621416583730000003022274021677377667_);}
	.st4{fill:url(#SVGID_00000062882327683733727830000008292790787255456955_);}
	.st5{fill:url(#SVGID_00000150071190745046729460000011218823325335432881_);}
	.st6{fill:url(#SVGID_00000178174150449696333730000015832420761966245005_);}
	.st7{fill:url(#SVGID_00000109727850242945089840000011255386819767361688_);}
	.st8{fill:url(#SVGID_00000140700238200495351580000005567176115595301763_);}
	.st9{fill:url(#SVGID_00000180347689620565217940000000006512781853964177_);}
	.st10{fill:#33D8DD;stroke:#FFFFFF;stroke-width:5;stroke-miterlimit:10;}
	.st11{fill:#0FB0C0;}
	.st12{fill:#00ADEE;}
	.st13{fill:#F6921E;}
	.st14{fill:#12284C;}
	.st15{fill:#E28734;}
	.st16{fill:#12284C;stroke:#FFFFFF;stroke-width:5;stroke-miterlimit:10;}
</style>
<g>
	
		<linearGradient id="SVGID_1_" gradientUnits="userSpaceOnUse" x1="85.1998" y1="414.2227" x2="549.524" y2="-50.1016" gradientTransform="matrix(1.0039 0 0 -1.0039 0.6431 515.4492)">
		<stop  offset="0" style="stop-color:#4180AE"/>
		<stop  offset="1" style="stop-color:#000000"/>
	</linearGradient>
	<path class="st0" d="M422.7,96.3c86.7,100.1,74.1,200,74.1,200c-13.6,95.6-82.2,173.6-172.7,200.8c0,0-46.3,8.4-70.9,8.4
		c-78.5,0-193.4-92-193.4-92C26.7,371.6,7,318.8,7,261.3C7,125.4,117.2,15.2,253.1,15.2C253.1,15.2,364.1,28.8,422.7,96.3
		L422.7,96.3z"/>
	
		<linearGradient id="SVGID_00000021114070277994408540000007459979728173683893_" gradientUnits="userSpaceOnUse" x1="353.7698" y1="149.9055" x2="274.5488" y2="229.1264" gradientTransform="matrix(1.0039 0 0 -1.0039 0.6431 515.4492)">
		<stop  offset="0" style="stop-color:#192A7D;stop-opacity:0"/>
		<stop  offset="1" style="stop-color:#192A7D"/>
	</linearGradient>
	<path style="fill:url(#SVGID_00000021114070277994408540000007459979728173683893_);" d="M100.4,442.8
		c40.6,26.9,103.7,62.7,152.7,62.7c24.7,0,70.9-8.4,70.9-8.4c90.5-27.2,159.1-105.1,172.7-200.8c0,0,11.5-91.2-63.2-186.7
		L100.4,442.8z"/>
	
		<linearGradient id="SVGID_00000087377726958560083080000016262528256231496118_" gradientUnits="userSpaceOnUse" x1="251.5085" y1="148.3346" x2="251.5085" y2="31.0536" gradientTransform="matrix(1.0039 0 0 -1.0039 0.6431 515.4492)">
		<stop  offset="0" style="stop-color:#192A7D;stop-opacity:0"/>
		<stop  offset="1" style="stop-color:#192A7D"/>
	</linearGradient>
	<path style="fill:url(#SVGID_00000087377726958560083080000016262528256231496118_);" d="M19.7,339.5c9.1,27.1,22.7,52.1,40,74
		c0,0,114.9,92,193.4,92c24.7,0,70.9-8.4,70.9-8.4c76.5-23,137.2-82.1,162.5-157.6L19.7,339.5L19.7,339.5z"/>
	
		<linearGradient id="SVGID_00000113339466750343968450000001692561766085035671_" gradientUnits="userSpaceOnUse" x1="242.8343" y1="503.2536" x2="618.5501" y2="127.5388" gradientTransform="matrix(1.0039 0 0 -1.0039 0.6431 515.4492)">
		<stop  offset="0" style="stop-color:#A2E62E"/>
		<stop  offset="1" style="stop-color:#02905D"/>
	</linearGradient>
	<path style="fill:url(#SVGID_00000113339466750343968450000001692561766085035671_);" d="M252.2,12.1L252.2,12.1
		c-13.4,1.5-54.8,19.7-54.8,34c0,19.8,24.7,56.3,44.5,56.3c20.8,0,58.5-8.5,58.5,12.3c0,21.7,8.6,42.5,23.9,57.8L384,232
		c6.1,6.1,16,6.1,22,0c9.8-9.8,26.6-2.9,26.6,11v48.9c0,17.8,14.4,32.2,32.2,32.2c16.1,0,29.6-11.9,31.9-27.8
		c1.6-11.4,2.5-23.1,2.5-34.9C499.2,125.4,388.2,12.1,252.2,12.1L252.2,12.1z"/>
	
		<linearGradient id="SVGID_00000028302622988424820000000000121407155225061808_" gradientUnits="userSpaceOnUse" x1="458.9281" y1="285.988" x2="397.2112" y2="347.7039" gradientTransform="matrix(1.0039 0 0 -1.0039 0.6431 515.4492)">
		<stop  offset="0" style="stop-color:#02905D;stop-opacity:0"/>
		<stop  offset="0.4554" style="stop-color:#028A58;stop-opacity:0.455"/>
		<stop  offset="1" style="stop-color:#017B4E"/>
	</linearGradient>
	<path style="fill:url(#SVGID_00000028302622988424820000000000121407155225061808_);" d="M347.6,195.6L384,232c6.1,6.1,16,6.1,22,0
		c9.8-9.8,26.6-2.9,26.6,11v48.9c0,17.8,14.4,32.2,32.2,32.2c16.1,0,29.6-11.9,31.9-27.8c1.6-11.4,2.5-23.1,2.5-34.9
		c0-60.6-21.9-116.1-58.3-159L347.6,195.6z"/>
	
		<linearGradient id="SVGID_00000179610498903375240120000001648537259907729573_" gradientUnits="userSpaceOnUse" x1="41.1626" y1="287.8435" x2="427.6697" y2="-98.6648" gradientTransform="matrix(1.0039 0 0 -1.0039 0.6431 515.4492)">
		<stop  offset="0" style="stop-color:#A2E62E"/>
		<stop  offset="1" style="stop-color:#02905D"/>
	</linearGradient>
	<path style="fill:url(#SVGID_00000179610498903375240120000001648537259907729573_);" d="M59.7,413.5
		c45.1,57.2,114.9,93.9,193.4,93.9c24.7,0,48.5-3.6,70.9-10.4c45-13.5,59.4-70,26.2-103.3c-11.6-11.6-27.4-18.2-43.8-18.2h-24.3
		c-18.5,0-36.2-7.3-49.3-20.4c-11.7-11.7-18.3-27.6-18.3-44.2c0-16.6-6.6-32.5-18.3-44.2l-19.5-19.5c-8-8-8-20.9,0-28.9
		c11.5-11.5,5.7-31.1-10.2-34.5l-25.2-5.4c-25.8-5.5-79.2,8.7-96.1,28.9c-38,45.4-9.6,117.2,5.2,132.1c11.1,11.1,69.8-3.1,69.8,12.6
		c0,15.8,5.3-4.3-5.9,6.9L59.7,413.5z"/>
	
		<linearGradient id="SVGID_00000101801985466748005640000012492063040702785922_" gradientUnits="userSpaceOnUse" x1="135.0633" y1="423.4364" x2="307.5801" y2="250.9196" gradientTransform="matrix(1.0039 0 0 -1.0039 0.6431 515.4492)">
		<stop  offset="0" style="stop-color:#A2E62E"/>
		<stop  offset="1" style="stop-color:#02905D"/>
	</linearGradient>
	<path style="fill:url(#SVGID_00000101801985466748005640000012492063040702785922_);" d="M148.5,80.9c20.1,0,47.6-2.9,47.6,17.2
		s20.1,80.9,0,80.9s-84-41.7-84-61.7S128.5,80.9,148.5,80.9z"/>
	
		<linearGradient id="SVGID_00000138539375414276288010000004262780618569132732_" gradientUnits="userSpaceOnUse" x1="212.6057" y1="132.9532" x2="212.6057" y2="4.1366" gradientTransform="matrix(1.0039 0 0 -1.0039 0.6431 515.4492)">
		<stop  offset="0" style="stop-color:#02905D;stop-opacity:0"/>
		<stop  offset="0.4554" style="stop-color:#028A58;stop-opacity:0.455"/>
		<stop  offset="1" style="stop-color:#017B4E"/>
	</linearGradient>
	<path style="fill:url(#SVGID_00000138539375414276288010000004262780618569132732_);" d="M114.2,359l-54.5,54.5
		c45.1,57.2,114.9,93.9,193.4,93.9c24.7,0,48.5-3.6,70.9-10.4c45-13.5,59.4-70,26.2-103.3c-11.6-11.6-27.4-18.2-43.8-18.2h-24.3
		c-18.5,0-36.2-7.3-49.3-20.4c-4.6-4.6-8.5-10-11.4-15.7h-94.2C124.2,346.7,119.9,353.4,114.2,359L114.2,359z"/>
</g>
<linearGradient id="SVGID_00000039125584685574415650000016361678909524989365_" gradientUnits="userSpaceOnUse" x1="262.058" y1="45.5776" x2="173.418" y2="134.2176" gradientTransform="matrix(1.0039 0 0 -1.0039 0.6431 515.4492)">
	<stop  offset="0" style="stop-color:#02905D;stop-opacity:0"/>
	<stop  offset="0.4554" style="stop-color:#028A58;stop-opacity:0.455"/>
	<stop  offset="1" style="stop-color:#017B4E"/>
</linearGradient>
<path style="fill:url(#SVGID_00000039125584685574415650000016361678909524989365_);" d="M320.4,500c45.2-13.6,59.7-70.3,26.3-103.7
	c-11.7-11.7-27.5-18.2-44-18.2h-24.4c-18.6,0-36.4-7.4-49.5-20.5c-8-8-13.6-17.9-16.4-28.6L89.5,451.8
	c43.1,36.5,98.8,58.5,159.7,58.5C273.9,510.4,297.8,506.7,320.4,500z"/>
<g>
	<g>
		
			<linearGradient id="SVGID_00000092446247844715328320000009077891476844992422_" gradientUnits="userSpaceOnUse" x1="348.8607" y1="566.2668" x2="391.6037" y2="523.5239" gradientTransform="matrix(0 1.0039 1.0039 0 -274.6127 -131.632)">
			<stop  offset="0" style="stop-color:#8795DE;stop-opacity:0"/>
			<stop  offset="0.4678" style="stop-color:#7D8DDC;stop-opacity:0.468"/>
			<stop  offset="1" style="stop-color:#6C7FD8"/>
		</linearGradient>
		<path style="fill:url(#SVGID_00000092446247844715328320000009077891476844992422_);" d="M296.5,275.3l128.5-128.5l-59.3-59.3
			L237.2,216c-7.6,7.6-7.6,19.9,0,27.5l31.8,31.8C276.6,282.9,288.9,282.9,296.5,275.3z"/>
	</g>
</g>
<polygon class="st10" points="507.4,5.7 330.2,5.7 390.6,66.1 32.3,424.5 85.3,477.5 443.7,119.2 507.4,182.9 "/>
<polygon class="st11" points="504.5,8.5 398,111 59.8,448.5 85.1,473.9 443.6,115.5 504.6,176.3 "/>
<path class="st12" d="M197.8,260l19.2,8.6V241h-47.5v27.6l19.2-8.6C191.7,258.7,194.9,258.7,197.8,260z"/>
<path class="st13" d="M279.4,241h-40.2v44.7c0,3.8-1.9,7.3-5.1,9.3c-3.1,2-7.2,2.3-10.5,0.8l-30.3-13.6L163,295.8
	c-3.5,1.5-7.4,1.2-10.6-0.8c-3.2-2-5-5.5-5-9.3V241h-40.2v156.1h172.2V241z M165.6,379.4H143v-22.2h22.6V379.4z M204.6,379.4H182
	v-22.2h22.6V379.4z M243.6,379.4H221v-22.2h22.6V379.4z"/>
<rect x="182" y="357.3" class="st14" width="22.6" height="22.2"/>
<rect x="221" y="357.3" class="st14" width="22.6" height="22.2"/>
<path class="st15" d="M279.4,241h-40.2v44.7c0,3.8-1.9,7.3-5.1,9.3c-3.1,2-7.2,2.3-10.5,0.8L107.2,397.1h172.2V241z M165.6,379.4
	H143v-22.2h22.6V379.4z M204.6,379.4H182v-22.2h22.6V379.4z M243.6,379.4H221v-22.2h22.6V379.4z"/>
<path class="st16" d="M85,229.9v178.3c0,6.1,5,11.1,11.1,11.1h194.4c6.1,0,11.1-5,11.1-11.1V229.9c0-6.1-5-11.1-11.1-11.1H96.1
	C90,218.8,85,223.8,85,229.9z M169.5,241H217v27.6l-19.2-8.6c-2.9-1.3-6.2-1.3-9,0l-19.2,8.6V241z M107.2,241h40.2v44.7
	c0,3.8,1.9,7.3,5,9.3c3.1,2,7.1,2.4,10.6,0.8l30.3-13.6l30.3,13.6c3.4,1.5,7.4,1.2,10.5-0.8c3.2-2,5.1-5.5,5.1-9.3V241h40.2v156.1
	H107.2V241z"/>
<rect x="143" y="357.3" class="st14" width="22.6" height="22.2"/>
</svg>
