<?xml version="1.0" encoding="utf-8"?>
<!-- Generator: Adobe Illustrator 27.3.0, SVG Export Plug-In . SVG Version: 6.00 Build 0)  -->
<svg version="1.1" id="icons" xmlns="http://www.w3.org/2000/svg" xmlns:xlink="http://www.w3.org/1999/xlink" x="0px" y="0px"
	 viewBox="0 0 512 512" style="enable-background:new 0 0 512 512;" xml:space="preserve">
<style type="text/css">
	.st0{fill:url(#SVGID_1_);}
	.st1{fill:#4EC3CC;}
	.st2{fill:#07B4C0;}
	.st3{fill:#F05859;}
	.st4{fill:#646A74;}
	.st5{fill:#C9D0E0;}
	.st6{fill:#FDBA1E;}
	.st7{fill:#CBCED3;}
	.st8{fill:#FFCF45;}
	.st9{fill:#102A4C;}
	.st10{fill:#607685;}
</style>
<linearGradient id="SVGID_1_" gradientUnits="userSpaceOnUse" x1="208.2301" y1="490.0952" x2="502.5795" y2="490.0952">
	<stop  offset="0" style="stop-color:#4180AA"/>
	<stop  offset="0.2172" style="stop-color:#35688A"/>
	<stop  offset="0.6912" style="stop-color:#162A38"/>
	<stop  offset="1" style="stop-color:#000000"/>
</linearGradient>
<path class="st0" d="M208.2,474.2h294.3V506H208.2V474.2z"/>
<path class="st1" d="M255.9,251.5h111.3v63.6c-37.1,13.2-74.2,26.4-111.3,39.7L255.9,251.5z"/>
<path class="st2" d="M367.3,251.5h111.3v102.8c-37.1-13.1-74.3-26.1-111.3-39.2V251.5z"/>
<path class="st3" d="M255.9,354.8c37.1-13.2,74.2-26.4,111.3-39.7c37.1,13.1,74.2,26.1,111.3,39.2c8,2.8,16,5.6,24,8.4L453,474.2
	H275.3c-14.5-37-28.9-73.9-43.3-110.9C239.9,360.5,248,357.7,255.9,354.8L255.9,354.8z"/>
<path class="st4" d="M152.5,426.5v23.9H33.3v-23.9h23.9h71.6H152.5z"/>
<path class="st5" d="M208.2,474.2V506H9.4v-55.7h23.9h119.3h55.7V474.2z"/>
<g>
	<polygon class="st6" points="128.7,256.1 128.7,163.9 128.7,128.1 68.1,195.6 	"/>
	<polygon class="st6" points="128.7,407.3 128.7,315.1 128.7,279.3 68.1,346.7 	"/>
	<path class="st6" d="M127.2,108.4h-70V184l65.7-73.1C124,109.5,125.5,108.7,127.2,108.4z"/>
	<path class="st6" d="M57.1,358.2v36.5v31.8h71.6v0c-2.1,0-4.1-0.8-5.6-2.3L57.1,358.2z"/>
	<polygon class="st6" points="57.1,207.1 57.1,243.6 57.1,335.1 117.7,267.6 	"/>
	<path d="M129.2,5c0.2,0,0.5,0,0.7,0.1C129.6,5.1,129.4,5,129.2,5z"/>
	<path d="M128.9,5c0.1,0,0.2,0,0.2,0C129.1,5,129,5,128.9,5z"/>
	<path class="st7" d="M416.3,52.8L130,5.1c0,0-0.1,0-0.1,0c3.8,0.6,6.8,3.9,6.8,7.9c0,0,0,0,0,0v9.4l230,38.3H415v7.9c0,0,0,0,0,0
		c3.9,0,7.2-2.8,7.8-6.6C423.6,57.6,420.6,53.5,416.3,52.8z"/>
	<path class="st8" d="M366.6,60.7h-230h-8h-7.9H96.5H85.7h-7.9H65.1h-8h-7.9H9.4v47.7h47.7h70c1-0.2,2.1-0.2,3.1,0h237H415V68.6
		v-7.9H366.6z"/>
	<path class="st6" d="M129.9,5.1c-0.2,0-0.5-0.1-0.7-0.1c-0.1,0-0.2,0-0.2,0c-0.1,0-0.1,0-0.2,0H57.1c0,0,0,0,0,0
		c-4.4,0-7.9,3.6-7.9,8v47.7h7.9h8h12.7c0-1.9,0.7-3.8,2-5.3l31-34.4h9.9v12.8l-24.3,27h24.3h7.9h8V22.3V13c0,0,0,0,0,0
		C136.7,9,133.7,5.7,129.9,5.1z"/>
</g>
<path class="st9" d="M287.9,333c-4.4,0-7.9-3.6-8-7.9c0,0,0,0,0,0v-47.7c0-4.4,3.6-8,8-8c4.4,0,8,3.6,8,8v47.7
	C295.8,329.5,292.3,333,287.9,333C287.9,333,287.9,333,287.9,333z"/>
<path class="st9" d="M327.6,317.1c-4.4,0-7.9-3.6-8-7.9c0,0,0,0,0,0v-31.8c0-4.4,3.6-8,8-8c4.4,0,8,3.6,8,8v31.8
	C335.6,313.6,332,317.1,327.6,317.1C327.6,317.1,327.6,317.1,327.6,317.1z"/>
<path class="st9" d="M446.9,333c-4.4,0-7.9-3.6-8-7.9c0,0,0,0,0,0v-47.7c0-4.4,3.6-8,8-8s8,3.6,8,8v47.7
	C454.9,329.5,451.3,333,446.9,333C446.9,333,446.9,333,446.9,333z"/>
<path class="st9" d="M407.1,317.1c-4.4,0-7.9-3.6-8-7.9c0,0,0,0,0,0v-31.8c0-4.4,3.6-8,8-8s8,3.6,8,8v31.8
	C415.1,313.6,411.5,317.1,407.1,317.1C407.1,317.1,407.1,317.1,407.1,317.1z"/>
<path class="st10" d="M372.4,193c-0.6-0.1-1.2-0.6-1.2-1.4v-16.9h-9.1v16.9c0,4.6,3.1,8.7,7.7,10.1c5.7,1.7,9,7.5,7.6,13.4
	c-0.9,4.1-4.4,7.5-8.6,8.3c-3.4,0.6-6.8-0.1-9.4-2.3c-2.6-2.1-4.1-5.3-4.1-8.6c0-2.5-2-4.5-4.5-4.5c-2.5,0-4.5,2-4.5,4.5
	c0,6.1,2.7,11.8,7.4,15.6c3.6,3,8.2,4.6,12.9,4.6c1.4,0,2.7-0.1,4-0.4c7.6-1.5,13.9-7.6,15.7-15.2C388.8,206.6,382.6,196,372.4,193"
	/>
<polygon class="st9" points="400.9,139.8 381.1,179.1 352.2,179.1 332.3,139.8 345.8,108.7 387.5,108.7 "/>
<path class="st10" d="M386.4,217L386.4,217c-1.8,7.6-8,13.7-15.7,15.2c-1.4,0.3-2.7,0.4-4,0.4h-1v-9.1c1,0.1,2.1,0,3.2-0.2
	c3.4-0.6,6.4-3.1,7.8-6.3H386.4z"/>
</svg>
