<?xml version="1.0" encoding="utf-8"?>
<!-- Generator: Adobe Illustrator 27.3.0, SVG Export Plug-In . SVG Version: 6.00 Build 0)  -->
<svg version="1.1" id="Layer_1" xmlns="http://www.w3.org/2000/svg" xmlns:xlink="http://www.w3.org/1999/xlink" x="0px" y="0px"
	 viewBox="0 0 512 512" style="enable-background:new 0 0 512 512;" xml:space="preserve">
<style type="text/css">
	.st0{fill:#BE202E;}
	.st1{fill:#FFFFFF;}
	.st2{opacity:0.4;fill:url(#SVGID_1_);}
	.st3{opacity:0.4;fill:url(#SVGID_00000161627175281418396610000004436425081871317155_);}
	.st4{opacity:0.4;fill:url(#SVGID_00000129171541568554056910000016907146107717860486_);}
	.st5{fill-rule:evenodd;clip-rule:evenodd;fill:#FFFFFF;}
</style>
<g>
	<path class="st0" d="M256,349.2c42,0,76.2-34.2,76.2-76.2c0-25.9-13-49.8-34.7-63.9c-5-3.2-7.4-8.9-7-14.4
		c-6.1,4.8-12.4,9.7-18.9,14.5v8c0,8.6-7,15.6-15.6,15.6c-4.3,0-8.3-1.8-11.1-4.7c-20.1,13.7-41.7,27.1-64.9,40.1
		c-0.1,1.5-0.1,3.1-0.1,4.7C179.8,315.1,214,349.2,256,349.2z"/>
	<path class="st0" d="M416.6,63.5c-27.2,38.4-62.6,78.2-108.8,117.1c2.3,0.3,4.6,1,6.7,2.4c30.7,19.8,48.9,53.5,48.9,90
		c0,59.3-48.2,107.4-107.4,107.4c-55.3,0-100.8-41.9-106.8-95.6c-38.4,19.8-80.9,38.6-128,56.1C56.3,436.6,148.3,505,256,505
		c137.9,0,250-112.1,250-250C506,178.2,471.2,109.4,416.6,63.5z"/>
	<path class="st1" d="M297.5,209.2c21.7,14.1,34.7,38,34.7,63.9c0,42-34.2,76.2-76.2,76.2s-76.2-34.2-76.2-76.2
		c0-1.6,0.1-3.1,0.1-4.7c-9.9,5.6-20.2,11.1-30.7,16.5c5.9,53.6,51.5,95.6,106.8,95.6c59.2,0,107.4-48.1,107.4-107.4
		c0-36.5-18.3-70.2-48.9-90c-2.1-1.4-4.4-2.1-6.7-2.4c-5.6,4.7-11.3,9.4-17.3,14.1C290.1,200.3,292.5,206,297.5,209.2z"/>
	<path class="st0" d="M148.6,273.1c0-36.5,18.3-70.2,48.9-90c7.2-4.7,16.9-2.6,21.6,4.6c4.7,7.2,2.6,16.9-4.6,21.6
		c-20.5,13.2-33.1,35.1-34.5,59.2c23.3-13.1,44.9-26.5,64.9-40.1c-2.8-2.8-4.5-6.7-4.5-11v-72.2c0-8.6,7-15.6,15.6-15.6
		c8.6,0,15.6,7,15.6,15.6v64.1c6.5-4.8,12.8-9.6,18.9-14.5c0.2-2.5,0.9-5,2.4-7.2c3.3-5.1,9.2-7.6,14.9-6.9
		c46.2-38.9,81.6-78.7,108.8-117.1C373.1,27,317.1,5,256,5C118.1,5,6,117.1,6,255c0,30.2,5.4,59.2,15.2,86
		c47.1-17.4,89.6-36.3,128-56.1C148.8,281,148.6,277.1,148.6,273.1z"/>
	<linearGradient id="SVGID_1_" gradientUnits="userSpaceOnUse" x1="-131.5226" y1="172.9929" x2="492.3578" y2="172.9929">
		<stop  offset="0" style="stop-color:#352713"/>
		<stop  offset="0.1392" style="stop-color:#392B16"/>
		<stop  offset="0.2788" style="stop-color:#45371F"/>
		<stop  offset="0.4187" style="stop-color:#584B2E"/>
		<stop  offset="0.5588" style="stop-color:#736743"/>
		<stop  offset="0.6992" style="stop-color:#968C5F"/>
		<stop  offset="0.8398" style="stop-color:#C1B880"/>
		<stop  offset="0.9782" style="stop-color:#F3ECA7"/>
		<stop  offset="1" style="stop-color:#FCF5AE"/>
	</linearGradient>
	<path class="st2" d="M148.6,273.1c0-36.5,18.3-70.2,48.9-90c7.2-4.7,16.9-2.6,21.6,4.6c4.7,7.2,2.6,16.9-4.6,21.6
		c-20.5,13.2-33.1,35.1-34.5,59.2c23.3-13.1,44.9-26.5,64.9-40.1c-2.8-2.8-4.5-6.7-4.5-11v-72.2c0-8.6,7-15.6,15.6-15.6
		c8.6,0,15.6,7,15.6,15.6v64.1c6.5-4.8,12.8-9.6,18.9-14.5c0.2-2.5,0.9-5,2.4-7.2c3.3-5.1,9.2-7.6,14.9-6.9
		c46.2-38.9,81.6-78.7,108.8-117.1C373.1,27,317.1,5,256,5C118.1,5,6,117.1,6,255c0,30.2,5.4,59.2,15.2,86
		c47.1-17.4,89.6-36.3,128-56.1C148.8,281,148.6,277.1,148.6,273.1z"/>
	<path class="st1" d="M214.5,209.2c7.2-4.7,9.3-14.4,4.6-21.6c-4.7-7.2-14.4-9.3-21.6-4.6c-30.7,19.8-48.9,53.5-48.9,90
		c0,4,0.2,8,0.7,11.9c10.5-5.4,20.8-10.9,30.7-16.5C181.4,244.3,194,222.4,214.5,209.2z"/>
	
		<linearGradient id="SVGID_00000067198785589971644810000017091821907188370837_" gradientUnits="userSpaceOnUse" x1="-131.5226" y1="232.7194" x2="492.3578" y2="232.7194">
		<stop  offset="0" style="stop-color:#352713"/>
		<stop  offset="0.1392" style="stop-color:#392B16"/>
		<stop  offset="0.2788" style="stop-color:#45371F"/>
		<stop  offset="0.4187" style="stop-color:#584B2E"/>
		<stop  offset="0.5588" style="stop-color:#736743"/>
		<stop  offset="0.6992" style="stop-color:#968C5F"/>
		<stop  offset="0.8398" style="stop-color:#C1B880"/>
		<stop  offset="0.9782" style="stop-color:#F3ECA7"/>
		<stop  offset="1" style="stop-color:#FCF5AE"/>
	</linearGradient>
	<path style="opacity:0.4;fill:url(#SVGID_00000067198785589971644810000017091821907188370837_);" d="M214.5,209.2
		c7.2-4.7,9.3-14.4,4.6-21.6c-4.7-7.2-14.4-9.3-21.6-4.6c-30.7,19.8-48.9,53.5-48.9,90c0,4,0.2,8,0.7,11.9
		c10.5-5.4,20.8-10.9,30.7-16.5C181.4,244.3,194,222.4,214.5,209.2z"/>
	<path class="st1" d="M292.9,187.6c-1.4,2.2-2.2,4.7-2.4,7.2c5.9-4.7,11.7-9.4,17.3-14.1C302.1,180,296.2,182.5,292.9,187.6z"/>
	
		<linearGradient id="SVGID_00000127743465508763049470000005830023849187893438_" gradientUnits="userSpaceOnUse" x1="-131.5226" y1="187.6885" x2="492.3578" y2="187.6885">
		<stop  offset="0" style="stop-color:#352713"/>
		<stop  offset="0.1392" style="stop-color:#392B16"/>
		<stop  offset="0.2788" style="stop-color:#45371F"/>
		<stop  offset="0.4187" style="stop-color:#584B2E"/>
		<stop  offset="0.5588" style="stop-color:#736743"/>
		<stop  offset="0.6992" style="stop-color:#968C5F"/>
		<stop  offset="0.8398" style="stop-color:#C1B880"/>
		<stop  offset="0.9782" style="stop-color:#F3ECA7"/>
		<stop  offset="1" style="stop-color:#FCF5AE"/>
	</linearGradient>
	<path style="opacity:0.4;fill:url(#SVGID_00000127743465508763049470000005830023849187893438_);" d="M292.9,187.6
		c-1.4,2.2-2.2,4.7-2.4,7.2c5.9-4.7,11.7-9.4,17.3-14.1C302.1,180,296.2,182.5,292.9,187.6z"/>
</g>
<path class="st5" d="M239.5,248.8v-108c0-8.7,7.1-15.8,15.8-15.8c8.7,0,15.8,7.1,15.8,15.8v108c0,8.7-7.1,15.8-15.8,15.8
	C246.6,264.6,239.5,257.5,239.5,248.8z"/>
</svg>
