<?xml version="1.0" encoding="UTF-8"?>
<svg id="Layer_1" data-name="Layer 1" xmlns="http://www.w3.org/2000/svg" viewBox="0 0 512 512">
  <defs>
    <style>
      .cls-1 {
        fill: #00adee;
      }

      .cls-2, .cls-3 {
        fill: #cae0e5;
      }

      .cls-4 {
        fill: #12284c;
      }

      .cls-5 {
        fill: #112a4c;
      }

      .cls-6 {
        fill: #4fc3cb;
      }

      .cls-6, .cls-3, .cls-7, .cls-8 {
        fill-rule: evenodd;
      }

      .cls-7 {
        fill: #be202e;
      }

      .cls-8 {
        fill: #fff;
      }
    </style>
  </defs>
  <path class="cls-8" d="m157.59,208.69l-32.57,181.03c-.5,2.89,1.45,5.67,4.34,6.27l84.05,15.14,124.39,22.4,17.85,3.22,73.24,13.21c2.9.5,5.68-1.46,6.17-4.35l15.31-85.02,42.26-235.07.47-2.41-53.46-9.65c-5.11-.95-15.98-2.11-13.88-13.79l9.27-52.21L199.68,5.08c-2.9-.5-5.68,1.45-6.17,4.35l-8.09,45.16-3.5,19.1-24.32,135Z"/>
  <path class="cls-6" d="m450.47,360.5l42.16-234.98.46-2.41.15-.77c.31-1.54-.35-1.88-2.22-4.55l-47.84-65.45c-2.22-3.09-2.56-3.8-4.21-4.11l-3.96-.67L199.68,5.08c-2.9-.5-5.67,1.46-6.17,4.35l-68.49,380.29c-.5,2.9,1.45,5.67,4.34,6.27l299.53,53.87c2.9.5,5.67-1.45,6.17-4.35l15.41-85.01Z"/>
  <path class="cls-3" d="m450.47,360.5l42.16-234.98.46-2.41c.49-2.8-.37-3.06-2.06-5.43l-47.84-65.45c-2.22-3.09-2.56-3.8-4.21-4.11l-3.96-.67-58.58-10.5c54.35,108.71,27.4,282.23-45.14,380.48-3.35,4.55-6.79,8.9-10.31,13.15l16.79,3.05,17.85,3.22,73.24,13.2c2.9.5,5.67-1.45,6.17-4.35l15.42-85.2Z"/>
  <path class="cls-8" d="m422.69,99.46c-2.1,11.68,8.77,12.84,13.88,13.79l53.46,9.65.15-.77c.3-1.54-.36-1.88-2.22-4.56l-47.84-65.45c-2.23-3.09-2.57-3.8-4.21-4.11l-3.96-.67-9.26,52.12Z"/>
  <path class="cls-7" d="m487.97,117.47l-47.84-65.45c-2.22-3.09-2.56-3.8-4.2-4.11l-3.96-.67-9.27,52.21c-2.1,11.68.32-1.74-1.95,10.91l69.39,12.44.15-.77c.21-1.55-.45-1.89-2.32-4.56"/>
  <path class="cls-5" d="m443.61,167.78l-226.77-40.8c1.31-7.43.62-3.28,1.31-7.43.78-4.05,1.31-7.43,1.31-7.43l226.77,40.8c-1.31,7.43-.62,3.28-1.31,7.43-.68,4.15,0,0-1.31,7.43"/>
  <path class="cls-5" d="m403.41,391.57l-226.77-40.8c1.31-7.43.62-3.28,1.31-7.43.78-4.05,1.31-7.43,1.31-7.43l226.77,40.8c-1.31,7.43-.62,3.28-1.31,7.43-.78,4.05,0,0-1.31,7.43"/>
  <path class="cls-5" d="m413.44,335.6l-226.77-40.8c1.31-7.43.62-3.28,1.31-7.43.78-4.05,1.31-7.43,1.31-7.43l226.77,40.8c-1.31,7.43-.62,3.28-1.31,7.43-.68,4.15,0,0-1.31,7.43"/>
  <path class="cls-5" d="m423.47,279.62l-226.77-40.8c1.31-7.43.62-3.28,1.31-7.43.78-4.05,1.31-7.43,1.31-7.43l226.77,40.8c-1.31,7.43-.62,3.28-1.31,7.43-.68,4.15.09.1-1.31,7.43"/>
  <path class="cls-5" d="m433.58,223.76l-226.77-40.8c1.31-7.43.62-3.28,1.31-7.43.78-4.05,1.31-7.43,1.31-7.43l226.77,40.8c-1.31,7.43-.62,3.28-1.31,7.43-.78,4.05,0,0-1.31,7.43"/>
  <path class="cls-2" d="m243,257.3c-11.64,0-22.57,4.52-30.78,12.73-8.22,8.22-12.75,19.16-12.75,30.78s4.53,22.56,12.75,30.78c8.49,8.48,19.63,12.72,30.78,12.73,11.15,0,22.29-4.24,30.78-12.73,16.97-16.97,16.97-44.59,0-61.56-8.21-8.21-19.14-12.73-30.78-12.73Z"/>
  <path class="cls-4" d="m302.67,349.26c-2.38-2.38-2.74-6.12-.86-8.91,18.89-28.03,15.24-65.73-8.68-89.66-27.62-27.61-72.55-27.63-100.19-.05-.07.08-.14.16-.22.24-26.97,27.16-27.35,70.99-1.21,98.63.04.04.08.08.12.13.41.44.84.87,1.26,1.3.71.71,1.44,1.4,2.17,2.08.17.15.34.3.51.45.6.54,1.21,1.08,1.83,1.6.12.1.25.2.37.31,17.49,14.51,40.69,19.51,62.13,14.27.13-.03.27-.07.4-.1.64-.16,1.28-.34,1.92-.52.45-.13.89-.25,1.34-.39.25-.07.49-.16.74-.24,2.41-.77,4.81-1.66,7.17-2.69.08-.04.17-.06.25-.09,3.73-1.65,7.36-3.65,10.83-5.99,1.17-.79,2.53-1.2,3.93-1.2,1.88,0,3.65.73,4.98,2.06l71.46,71.46c2.99,2.98,8.23,2.98,11.21,0,1.5-1.5,2.32-3.49,2.32-5.61s-.82-4.11-2.32-5.61l-71.46-71.46Zm-18.93-7.72c-10.86,10.86-25.33,16.85-40.73,16.85s-29.87-5.98-40.73-16.85c-10.88-10.88-16.87-25.34-16.87-40.73s5.99-29.85,16.87-40.73c10.86-10.86,25.33-16.85,40.73-16.85s29.87,5.98,40.73,16.85c10.86,10.86,16.85,25.33,16.85,40.73s-5.98,29.87-16.85,40.73Z"/>
  <path class="cls-1" d="m185.73,363.54c-.12-.1-.23-.21-.35-.31-.83-.77-1.65-1.55-2.45-2.35-.48-.48-.95-.96-1.42-1.45-.22-.23-.44-.47-.65-.7-.23-.25-.46-.49-.69-.74-.3-.32-.59-.65-.88-.98-.13-.14-.25-.28-.38-.43-.36-.42-.72-.83-1.07-1.25-.02-.03-.04-.05-.06-.08-24.48-29.28-26.14-71.28-4.98-102.29H32.67v238.97h234.58v-109.71c-28.7,8.64-59.37,1.59-81.52-18.68Zm-39.52,35.36c0,1.88-.73,3.65-2.06,4.98-1.33,1.33-3.1,2.06-4.97,2.06s-3.65-.73-4.97-2.06l-3.6-3.6v44.33c0,3.88-3.16,7.04-7.04,7.04s-7.04-3.16-7.04-7.04v-44.33l-3.32,3.32c-2.74,2.74-7.21,2.74-9.95,0-1.33-1.33-2.06-3.1-2.06-4.98s.73-3.65,2.06-4.97l15.33-15.33c.31-.31.64-.57.98-.81.02-.02.04-.03.07-.05.14-.09.28-.17.42-.26.06-.03.12-.07.18-.1.11-.06.23-.11.35-.17.1-.04.19-.09.29-.13.09-.04.17-.06.26-.1.13-.05.27-.1.4-.14.05-.02.1-.03.15-.04.17-.05.35-.09.53-.13,0,0,0,0,0,0,.43-.08.88-.13,1.34-.13.66,0,1.29.1,1.89.27.04.01.09.02.13.03.14.04.28.1.43.15.08.03.16.05.24.09.11.04.21.09.31.14.11.05.22.1.33.16.07.04.14.08.21.12.13.08.27.15.39.24.04.02.07.05.11.08.33.23.65.49.95.78l15.61,15.61c1.33,1.33,2.06,3.1,2.06,4.97Zm-27.66-121.98h14.93c3.88,0,7.04,3.16,7.04,7.04s-3.16,7.04-7.04,7.04h-14.93c-3.88,0-7.04-3.16-7.04-7.04s3.16-7.04,7.04-7.04Zm-31.84,0h15.92c3.88,0,7.04,3.16,7.04,7.04s-3.16,7.04-7.04,7.04h-15.92c-3.88,0-7.04-3.16-7.04-7.04s3.16-7.04,7.04-7.04Zm-8.47,100.28c.14.08.29.16.42.26.02.01.04.03.06.04.35.24.68.51.99.82l15.61,15.61c2.74,2.74,2.74,7.21,0,9.95-1.33,1.33-3.1,2.06-4.98,2.06s-3.64-.73-4.97-2.06l-3.6-3.6v44.33c0,3.88-3.16,7.04-7.04,7.04s-7.04-3.16-7.04-7.04v-44.33l-3.32,3.32c-2.74,2.74-7.21,2.74-9.95,0-1.33-1.33-2.06-3.1-2.06-4.98s.73-3.65,2.06-4.98l15.33-15.33c.3-.3.63-.57.97-.8.03-.02.05-.04.08-.06.13-.09.27-.17.41-.25.06-.04.13-.08.19-.11.11-.06.22-.11.34-.16.1-.05.2-.1.3-.14.08-.03.16-.06.24-.09.14-.05.28-.1.42-.15.04-.01.09-.02.13-.03.6-.17,1.23-.27,1.89-.27s1.29.1,1.89.26c.04.01.09.02.13.03.14.04.28.09.42.15.08.03.17.06.25.09.1.04.2.09.29.14.12.05.23.11.34.17.06.03.12.07.18.1Zm-22.38-100.28h14.92c3.88,0,7.04,3.16,7.04,7.04s-3.16,7.04-7.04,7.04h-14.92c-3.88,0-7.04-3.16-7.04-7.04s3.16-7.04,7.04-7.04Zm86.86,197.28H55.87c-3.88,0-7.04-3.16-7.04-7.04s3.16-7.04,7.04-7.04h86.86c3.88,0,7.04,3.16,7.04,7.04s-3.16,7.04-7.04,7.04Z"/>
  <path class="cls-4" d="m142.72,460.12H55.87c-3.88,0-7.04,3.16-7.04,7.04s3.16,7.04,7.04,7.04h86.86c3.88,0,7.04-3.16,7.04-7.04s-3.16-7.04-7.04-7.04Z"/>
  <path class="cls-4" d="m77.43,376.78c-.08-.03-.17-.06-.25-.09-.14-.05-.28-.1-.42-.15-.04-.01-.09-.02-.13-.03-.6-.17-1.23-.26-1.89-.26s-1.29.1-1.89.27c-.04.01-.09.02-.13.03-.14.04-.28.1-.42.15-.08.03-.16.06-.24.09-.1.04-.2.09-.3.14-.11.05-.23.1-.34.16-.07.03-.13.08-.19.11-.14.08-.28.16-.41.25-.03.02-.05.04-.08.06-.34.24-.67.5-.97.8l-15.33,15.33c-1.33,1.33-2.06,3.09-2.06,4.98s.73,3.65,2.06,4.98c2.74,2.74,7.21,2.74,9.95,0l3.32-3.32v44.33c0,3.88,3.16,7.04,7.04,7.04s7.04-3.16,7.04-7.04v-44.33l3.6,3.6c1.33,1.33,3.1,2.06,4.97,2.06s3.64-.73,4.98-2.06c2.74-2.74,2.74-7.21,0-9.95l-15.61-15.61c-.31-.31-.64-.58-.99-.82-.02-.01-.04-.03-.06-.04-.14-.09-.28-.18-.42-.26-.06-.03-.12-.07-.18-.1-.11-.06-.23-.11-.34-.17-.1-.05-.19-.09-.29-.14Z"/>
  <path class="cls-4" d="m127.59,377.52s-.07-.05-.11-.08c-.13-.09-.26-.16-.39-.24-.07-.04-.14-.08-.21-.12-.11-.06-.22-.11-.33-.16-.1-.05-.2-.1-.31-.14-.08-.03-.16-.06-.24-.09-.14-.05-.28-.1-.43-.15-.04-.01-.09-.02-.13-.03-.6-.17-1.23-.27-1.89-.27-.46,0-.91.05-1.34.13,0,0,0,0,0,0-.18.03-.35.08-.53.13-.05.01-.1.02-.15.04-.14.04-.27.09-.4.14-.09.03-.17.06-.26.1-.1.04-.19.09-.29.13-.12.05-.24.11-.35.17-.06.03-.12.07-.18.1-.14.08-.28.16-.42.26-.02.02-.05.03-.07.05-.34.24-.68.51-.98.81l-15.33,15.33c-1.33,1.33-2.06,3.09-2.06,4.97s.73,3.65,2.06,4.98c2.74,2.74,7.21,2.74,9.95,0l3.32-3.32v44.33c0,3.88,3.16,7.04,7.04,7.04s7.04-3.16,7.04-7.04v-44.33l3.6,3.6c1.33,1.33,3.1,2.06,4.97,2.06s3.64-.73,4.97-2.06c1.33-1.33,2.06-3.1,2.06-4.98s-.73-3.65-2.06-4.97l-15.61-15.61c-.3-.3-.61-.55-.95-.78Z"/>
  <path class="cls-4" d="m243,243.23c-15.4,0-29.87,5.98-40.73,16.85-10.88,10.88-16.87,25.34-16.87,40.73s5.99,29.85,16.87,40.73c10.86,10.86,25.33,16.85,40.73,16.85s29.87-5.98,40.73-16.85c10.86-10.86,16.85-25.33,16.85-40.73s-5.98-29.87-16.85-40.73c-10.86-10.87-25.33-16.85-40.73-16.85Zm30.78,88.36c-8.49,8.48-19.63,12.73-30.78,12.73-11.15,0-22.3-4.24-30.78-12.73-8.22-8.22-12.75-19.16-12.75-30.78s4.53-22.56,12.75-30.78c8.21-8.21,19.14-12.73,30.78-12.73s22.57,4.52,30.78,12.73c16.97,16.97,16.97,44.59,0,61.56Z"/>
  <path class="cls-4" d="m281.32,376.59c1.4-.7,2.78-1.43,4.14-2.22l67.5,67.5c4.15,4.15,9.67,6.43,15.56,6.43s11.4-2.29,15.55-6.43c4.15-4.15,6.44-9.68,6.44-15.56s-2.29-11.4-6.44-15.55l-67.5-67.5c9.12-15.79,12.93-34.41,10.74-52.63-2.27-18.82-10.87-36.54-24.23-49.89-32.49-32.49-84.97-33.11-118.22-1.85H25.64c-3.88,0-7.04,3.16-7.04,7.04v253.04c0,3.88,3.16,7.04,7.04,7.04h248.65c3.88,0,7.03-3.16,7.03-7.04m-14.07-7.04H32.67v-238.97h140.14c-21.15,31-19.49,73.01,4.98,102.29.02.03.04.05.06.08.35.42.71.84,1.07,1.25.12.14.25.28.38.43.29.33.58.66.88.98.23.25.46.49.69.74.22.23.43.47.65.7.47.49.94.97,1.42,1.45.8.8,1.62,1.58,2.45,2.35.11.11.23.21.35.31,22.15,20.27,52.82,27.32,81.52,18.68v109.71Zm106.87-60c-2.99,2.98-8.23,2.98-11.21,0l-71.46-71.46c-1.33-1.33-3.1-2.06-4.98-2.06-1.4,0-2.76.42-3.93,1.2-3.48,2.34-7.1,4.34-10.83,5.99-.08.03-.17.06-.25.09-2.36,1.04-4.76,1.93-7.17,2.69-.25.08-.49.16-.74.24-.44.14-.89.26-1.34.39-.64.18-1.28.36-1.92.52-.13.03-.27.07-.4.1-21.44,5.24-44.63.24-62.13-14.27-.12-.1-.25-.2-.37-.31-.62-.52-1.22-1.06-1.83-1.6-.17-.15-.34-.3-.51-.45-.74-.68-1.46-1.37-2.17-2.08-.43-.43-.85-.86-1.26-1.3-.04-.04-.08-.08-.12-.13-26.14-27.63-25.76-71.46,1.21-98.63.08-.08.15-.16.22-.24,27.64-27.58,72.57-27.57,100.19.05,23.92,23.93,27.57,61.64,8.68,89.66-1.88,2.79-1.52,6.53.86,8.91l71.46,71.46c1.5,1.5,2.32,3.49,2.32,5.61s-.82,4.11-2.32,5.61Z"/>
  <path class="cls-4" d="m55.87,290.98h14.92c3.88,0,7.04-3.16,7.04-7.04s-3.16-7.04-7.04-7.04h-14.92c-3.88,0-7.04,3.16-7.04,7.04s3.16,7.04,7.04,7.04Z"/>
  <path class="cls-4" d="m86.71,290.98h15.92c3.88,0,7.04-3.16,7.04-7.04s-3.16-7.04-7.04-7.04h-15.92c-3.88,0-7.04,3.16-7.04,7.04s3.16,7.04,7.04,7.04Z"/>
  <path class="cls-4" d="m118.55,290.98h14.93c3.88,0,7.04-3.16,7.04-7.04s-3.16-7.04-7.04-7.04h-14.93c-3.88,0-7.04,3.16-7.04,7.04s3.16,7.04,7.04,7.04Z"/>
</svg>