<?xml version="1.0" encoding="utf-8"?>
<!-- Generator: Adobe Illustrator 27.3.0, SVG Export Plug-In . SVG Version: 6.00 Build 0)  -->
<svg version="1.1" id="Capa_1" xmlns="http://www.w3.org/2000/svg" xmlns:xlink="http://www.w3.org/1999/xlink" x="0px" y="0px"
	 viewBox="0 0 512 512" style="enable-background:new 0 0 512 512;" xml:space="preserve">
<style type="text/css">
	.st0{fill:none;stroke:#FFFFFF;stroke-width:3;stroke-miterlimit:10;}
	.st1{fill:#F1CC31;}
	.st2{opacity:0.4;fill:url(#SVGID_1_);}
	.st3{fill:#102A4C;}
</style>
<path class="st0" d="M447.5,219.6c-1.3-4.1-128.3-25-128.3-25S260,80.3,255.7,80.3c-4.3,0-63.4,114.3-63.4,114.3s-127,20.9-128.3,25
	c-1.3,4.1,89.1,95.6,89.1,95.6S133.8,442.5,137.2,445c3.5,2.5,118.5-55.2,118.5-55.2s116.5,56.6,118.5,55.2
	c3.5-2.5-15.9-129.8-15.9-129.8S448.8,223.7,447.5,219.6z"/>
<g>
	<path class="st1" d="M4,199.4c-0.1,0.2,0.1,0.6,0.3,1.1l1.7-2.2C4.8,198.7,4.1,199.1,4,199.4z"/>
	<path class="st1" d="M507.5,199.4c-1.4-4.3-106.7-22.4-150.1-29.7c-40.7,59.4-113,127.7-241.1,186.8
		C109.2,405,96.9,493,100.1,495.4c4.6,3.3,155.6-72.5,155.6-72.5s153,74.4,155.6,72.5c4.6-3.3-20.9-170.4-20.9-170.4
		S509.3,204.8,507.5,199.4z"/>
	<path class="st1" d="M357.4,169.7c-11.3-1.9-18.4-3.1-18.4-3.1S261.4,16.5,255.7,16.5c-5.6,0-83.3,150.1-83.3,150.1
		S24.8,190.9,6,198.3l-1.7,2.2C10.7,213.3,121,325,121,325s-2,12.8-4.7,31.5C244.4,297.4,316.7,229.1,357.4,169.7z"/>
	<linearGradient id="SVGID_1_" gradientUnits="userSpaceOnUse" x1="-182.5724" y1="186.4826" x2="397.0078" y2="186.4826">
		<stop  offset="0" style="stop-color:#352713"/>
		<stop  offset="0.1392" style="stop-color:#392B16"/>
		<stop  offset="0.2788" style="stop-color:#45371F"/>
		<stop  offset="0.4187" style="stop-color:#584B2E"/>
		<stop  offset="0.5588" style="stop-color:#736743"/>
		<stop  offset="0.6992" style="stop-color:#968C5F"/>
		<stop  offset="0.8398" style="stop-color:#C1B880"/>
		<stop  offset="0.9782" style="stop-color:#F3ECA7"/>
		<stop  offset="1" style="stop-color:#FCF5AE"/>
	</linearGradient>
	<path class="st2" d="M357.4,169.7c-11.3-1.9-18.4-3.1-18.4-3.1S261.4,16.5,255.7,16.5c-5.6,0-83.3,150.1-83.3,150.1
		S24.8,190.9,6,198.3l-1.7,2.2C10.7,213.3,121,325,121,325s-2,12.8-4.7,31.5C244.4,297.4,316.7,229.1,357.4,169.7z"/>
</g>
<path class="st3" d="M335.5,251.7L248.8,339l-23.4,23.4L162,298.7l32.8-32.8l30.5,30l23.4-23.4l53.9-53.5L335.5,251.7z"/>
</svg>
