<?xml version="1.0" encoding="utf-8"?>
<!-- Generator: Adobe Illustrator 27.3.0, SVG Export Plug-In . SVG Version: 6.00 Build 0)  -->
<svg version="1.1" id="Layer_1" xmlns="http://www.w3.org/2000/svg" xmlns:xlink="http://www.w3.org/1999/xlink" x="0px" y="0px"
	 viewBox="0 0 507.2 507.2" style="enable-background:new 0 0 507.2 507.2;" xml:space="preserve">
<style type="text/css">
	.st0{fill:#25B04B;}
	.st1{fill:#17562C;}
	.st2{fill:#FDF3F4;}
</style>
<path class="st0" d="M501.1,253c0,136.6-110.4,247-247,247S6.9,389.8,6.9,253S117.3,6,253.9,6S501.1,116.4,501.1,253z"/>
<path class="st1" d="M501.1,253c0,136.6-110.4,247-247,247V6C390.7,6,501.1,116.4,501.1,253z"/>
<g>
	<polygon class="st2" points="468.3,253 418.5,306.5 427.4,379.1 355.6,393 320.2,456.9 253.9,426 187.7,456.9 152.4,393 
		80.6,379.1 89.5,306.5 39.7,253 89.5,199.6 80.6,127 152.4,113.1 187.7,49.1 253.9,80.1 320.2,49.1 355.6,113.1 427.4,127 
		418.5,199.6 	"/>
</g>
<path class="st0" d="M388.3,195.9L254.1,330.9l-36.3,36.3l-98-98.7l50.8-50.8l47.2,46.4l36.3-36.3l83.5-82.8L388.3,195.9z"/>
</svg>
