<?xml version="1.0" encoding="UTF-8"?>
<svg id="Capa_1" data-name="Capa 1" xmlns="http://www.w3.org/2000/svg" viewBox="0 0 512 512">
  <defs>
    <style>
      .cls-1 {
        fill: #d0d0d5;
      }

      .cls-2 {
        fill: #222c3a;
      }

      .cls-3 {
        fill: #0b182b;
      }

      .cls-4 {
        fill: #808081;
      }
    </style>
  </defs>
  <g>
    <path class="cls-4" d="m192.97,222.01l-62.49-62.49h0c-16.38,21.72-27.36,47.73-30.9,76.02h88.04c1.33-4.72,3.14-9.25,5.35-13.53Z"/>
    <path class="cls-4" d="m238.06,185.11v-88.04c-29.94,3.74-57.31,15.82-79.76,33.81l61.96,61.96c5.51-3.34,11.48-5.93,17.8-7.73Z"/>
    <path class="cls-4" d="m248.68,223.57c-13.82,4.04-23.93,16.82-23.93,31.93s9.9,27.62,23.49,31.8l-1-25.38,1.45-38.34Z"/>
    <path class="cls-4" d="m224.52,320.54l-62.49,62.49c21.72,16.38,47.73,27.36,76.02,30.9v-88.04c-4.72-1.33-9.25-3.14-13.53-5.35Z"/>
    <path class="cls-4" d="m187.62,275.46h-88.04c3.74,29.94,15.82,57.31,33.81,79.76l61.96-61.96c-3.34-5.51-5.93-11.48-7.73-17.8Z"/>
    <path class="cls-4" d="m251.84,222.82c-1.07.2-2.12.46-3.16.76l-1.45,38.34,1,25.38c1.17.36,2.38.65,3.6.88l-1.44-32.68,1.44-32.68Z"/>
    <path class="cls-4" d="m250.4,255.5l1.44,32.68c2,.38,4.06.58,6.17.58v-66.53c-2.11,0-4.17.21-6.17.58l-1.44,32.68Z"/>
    <path class="cls-1" d="m85.42,255.5c0-93.98,75.1-170.41,168.57-172.55l1.02-27.01c-108.67,1.62-196.59,90.51-196.59,199.56s87.84,197.87,196.45,199.56l-1.07-27.01c-93.38-2.24-168.38-78.63-168.38-172.55Z"/>
    <path class="cls-1" d="m258.01,82.9v-27c-1.01,0-2.01.02-3.01.04l-1.02,27.01c1.34-.03,2.68-.05,4.03-.05Z"/>
    <path class="cls-1" d="m253.8,428.05l1.07,27.01c1.05.02,2.1.04,3.15.04v-27c-1.41,0-2.82-.02-4.22-.05Z"/>
    <path class="cls-1" d="m224.75,255.5c0-15.11,10.12-27.88,23.93-31.93l5.3-140.62c-93.47,2.14-168.57,78.57-168.57,172.55s75,170.31,168.38,172.55l-5.56-140.75c-13.59-4.18-23.49-16.85-23.49-31.8Zm13.31-158.43v88.04c-6.32,1.8-12.3,4.39-17.8,7.73l-61.96-61.96c22.45-17.99,49.82-30.07,79.76-33.81Zm-107.57,62.45h0l62.49,62.49c-2.21,4.28-4.02,8.81-5.35,13.53h-88.04c3.54-28.29,14.52-54.3,30.9-76.02Zm2.91,195.7c-17.99-22.45-30.07-49.82-33.81-79.76h88.04c1.8,6.32,4.39,12.3,7.73,17.8l-61.96,61.96Zm28.64,27.81l62.49-62.49c4.28,2.21,8.81,4.02,13.53,5.35v88.04c-28.29-3.54-54.3-14.52-76.02-30.9Z"/>
    <path class="cls-1" d="m248.24,287.3l5.56,140.75c1.4.03,2.81.05,4.22.05l-6.17-139.92c-1.22-.23-2.43-.52-3.6-.88Z"/>
    <path class="cls-1" d="m251.84,222.82l6.17-139.92c-1.35,0-2.69.02-4.03.05l-5.3,140.62c1.03-.3,2.09-.56,3.16-.76Z"/>
    <path class="cls-1" d="m258.01,222.23V82.9l-6.17,139.92c2-.38,4.06-.58,6.17-.58Z"/>
    <path class="cls-1" d="m251.84,288.18l6.17,139.92v-139.33c-2.11,0-4.17-.21-6.17-.58Z"/>
  </g>
  <g>
    <path class="cls-4" d="m321.04,288.93l62.49,62.49h0c16.38-21.72,27.36-47.73,30.9-76.02h-88.04c-1.33,4.72-3.14,9.25-5.35,13.53Z"/>
    <path class="cls-4" d="m275.96,325.83v88.04c29.94-3.74,57.31-15.82,79.76-33.81l-61.96-61.96c-5.51,3.34-11.48,5.93-17.8,7.73Z"/>
    <path class="cls-4" d="m265.33,287.36c13.82-4.04,23.93-16.82,23.93-31.93s-9.9-27.62-23.49-31.8l1,25.38-1.45,38.34Z"/>
    <path class="cls-4" d="m289.49,190.39l62.49-62.49c-21.72-16.38-47.73-27.36-76.02-30.9v88.04c4.72,1.33,9.25,3.14,13.53,5.35Z"/>
    <path class="cls-4" d="m326.39,235.48h88.04c-3.74-29.94-15.82-57.31-33.81-79.76l-61.96,61.96c3.34,5.51,5.93,11.48,7.73,17.8Z"/>
    <path class="cls-4" d="m262.17,288.12c1.07-.2,2.12-.46,3.16-.76l1.45-38.34-1-25.38c-1.17-.36-2.38-.65-3.6-.88l1.44,32.68-1.44,32.68Z"/>
    <path class="cls-4" d="m263.62,255.44l-1.44-32.68c-2-.38-4.06-.58-6.17-.58v66.53c2.11,0,4.17-.21,6.17-.58l1.44-32.68Z"/>
    <path class="cls-1" d="m428.6,255.44c0,93.98-75.1,170.41-168.57,172.55l-1.02,27.01c108.67-1.62,196.59-90.51,196.59-199.56S367.76,57.57,259.15,55.88l1.07,27.01c93.38,2.24,168.38,78.63,168.38,172.55Z"/>
    <path class="cls-1" d="m256,428.04v27c1.01,0,2.01-.02,3.01-.04l1.02-27.01c-1.34.03-2.68.05-4.03.05Z"/>
    <path class="cls-1" d="m260.22,82.89l-1.07-27.01c-1.05-.02-2.1-.04-3.15-.04v27c1.41,0,2.82.02,4.22.05Z"/>
    <path class="cls-1" d="m289.27,255.44c0,15.11-10.12,27.88-23.93,31.93l-5.3,140.62c93.47-2.14,168.57-78.57,168.57-172.55s-75-170.31-168.38-172.55l5.56,140.75c13.59,4.18,23.49,16.85,23.49,31.8Zm-13.31,158.43v-88.04c6.32-1.8,12.3-4.39,17.8-7.73l61.96,61.96c-22.45,17.99-49.82,30.07-79.76,33.81Zm107.57-62.45h0l-62.49-62.49c2.21-4.28,4.02-8.81,5.35-13.53h88.04c-3.54,28.29-14.52,54.3-30.9,76.02Zm-2.91-195.7c17.99,22.45,30.07,49.82,33.81,79.76h-88.04c-1.8-6.32-4.39-12.3-7.73-17.8l61.96-61.96Zm-28.64-27.81l-62.49,62.49c-4.28-2.21-8.81-4.02-13.53-5.35v-88.04c28.29,3.54,54.3,14.52,76.02,30.9Z"/>
    <path class="cls-1" d="m265.78,223.64l-5.56-140.75c-1.4-.03-2.81-.05-4.22-.05l6.17,139.92c1.22.23,2.43.52,3.6.88Z"/>
    <path class="cls-1" d="m262.17,288.12l-6.17,139.92c1.35,0,2.69-.02,4.03-.05l5.3-140.62c-1.03.3-2.09.56-3.16.76Z"/>
    <path class="cls-1" d="m256,288.7v139.33l6.17-139.92c-2,.38-4.06.58-6.17.58Z"/>
    <path class="cls-1" d="m262.17,222.75l-6.17-139.92v139.33c2.11,0,4.17.21,6.17.58Z"/>
  </g>
  <path class="cls-2" d="m256,4C117.1,4,4.5,116.6,4.5,255.5s112.6,251.5,251.5,251.5,251.5-112.6,251.5-251.5S394.9,4,256,4Zm0,444.96c-106.85,0-193.46-86.62-193.46-193.46S149.15,62.04,256,62.04s193.46,86.62,193.46,193.46-86.61,193.46-193.46,193.46h0Z"/>
  <path class="cls-3" d="m342.74,19.36c69.17,44.81,114.94,122.68,114.94,211.23,0,138.9-112.6,251.5-251.5,251.5-30.48,0-59.7-5.42-86.74-15.36,39.33,25.48,86.22,40.27,136.56,40.27,138.9,0,251.5-112.6,251.5-251.5,0-108.42-68.6-200.81-164.76-236.14Z"/>
</svg>