<?xml version="1.0" encoding="utf-8"?>
<!-- Generator: Adobe Illustrator 27.3.0, SVG Export Plug-In . SVG Version: 6.00 Build 0)  -->
<svg version="1.1" id="Capa_1" xmlns="http://www.w3.org/2000/svg" xmlns:xlink="http://www.w3.org/1999/xlink" x="0px" y="0px"
	 viewBox="0 0 512 512" style="enable-background:new 0 0 512 512;" xml:space="preserve">
<style type="text/css">
	.st0{fill:#12284C;}
	.st1{fill:#FFFFFF;}
	.st2{fill:#BE202E;}
	.st3{fill:#25B04B;}
	.st4{fill:#A31D29;}
	.st5{fill:#17562C;}
</style>
<g>
	<path class="st0" d="M387.5,328.2c-1,0-2-0.2-3-0.6l-9.2-4c-3.8-1.7-5.6-6.1-3.9-9.9c1.7-3.8,6.1-5.6,9.9-3.9l9.2,4
		c3.8,1.7,5.6,6.1,3.9,9.9C393.2,326.5,390.4,328.2,387.5,328.2z M350.6,312.1c-1,0-2-0.2-3-0.6l-9.2-4c-3.8-1.7-5.6-6.1-3.9-9.9
		c1.7-3.8,6.1-5.6,9.9-3.9l9.2,4c3.8,1.7,5.6,6.1,3.9,9.9C356.3,310.4,353.5,312.1,350.6,312.1z M313.7,295.9c-1,0-2-0.2-3-0.6
		l-9.2-4c-3.8-1.7-5.6-6.1-3.9-9.9c1.7-3.8,6.1-5.6,9.9-3.9l9.2,4c3.8,1.7,5.6,6.1,3.9,9.9C319.4,294.2,316.6,295.9,313.7,295.9z
		 M276.8,279.8c-1,0-2-0.2-3-0.6l-9.2-4c-3.8-1.7-5.6-6.1-3.9-9.9c1.7-3.8,6.1-5.6,9.9-3.9l9.2,4c3.8,1.7,5.6,6.1,3.9,9.9
		C282.5,278.1,279.7,279.8,276.8,279.8z M239.9,263.7c-1,0-2-0.2-3-0.6l-9.2-4c-3.8-1.7-5.6-6.1-3.9-9.9c1.7-3.8,6.1-5.6,9.9-3.9
		l9.2,4c3.8,1.7,5.6,6.1,3.9,9.9C245.6,262,242.8,263.7,239.9,263.7z M203,247.5c-1,0-2-0.2-3-0.6l-9.2-4c-3.8-1.7-5.6-6.1-3.9-9.9
		c1.7-3.8,6.1-5.6,9.9-3.9l9.2,4c3.8,1.7,5.6,6.1,3.9,9.9C208.7,245.8,205.9,247.5,203,247.5z M166.1,231.4c-1,0-2-0.2-3-0.6l-9.2-4
		c-3.8-1.7-5.6-6.1-3.9-9.9c1.7-3.8,6.1-5.6,9.9-3.9l9.2,4c3.8,1.7,5.6,6.1,3.9,9.9C171.7,229.7,169,231.4,166.1,231.4z
		 M129.1,215.3c-1,0-2-0.2-3-0.6l-9.2-4c-3.8-1.7-5.6-6.1-3.9-9.9c1.7-3.8,6.1-5.6,9.9-3.9l9.2,4c3.8,1.7,5.6,6.1,3.9,9.9
		C134.8,213.6,132.1,215.3,129.1,215.3z"/>
	<path class="st0" d="M108.3,507c-2.7,0-5.3-1.5-6.7-4c-2-3.7-0.6-8.3,3.1-10.2l8.9-4.7c3.7-2,8.3-0.6,10.2,3.1
		c2,3.7,0.6,8.3-3.1,10.2l-8.9,4.7C110.7,506.7,109.5,507,108.3,507z M143.9,488.1c-2.7,0-5.3-1.5-6.7-4c-2-3.7-0.6-8.3,3.1-10.2
		l8.9-4.7c3.7-2,8.3-0.6,10.2,3.1c2,3.7,0.6,8.3-3.1,10.2l-8.9,4.7C146.3,487.8,145.1,488.1,143.9,488.1z M179.4,469.1
		c-2.7,0-5.3-1.5-6.7-4c-2-3.7-0.6-8.3,3.1-10.2l8.9-4.7c3.7-2,8.3-0.6,10.2,3.1c2,3.7,0.6,8.3-3.1,10.2l-8.9,4.7
		C181.8,468.8,180.6,469.1,179.4,469.1z M215,450.2c-2.7,0-5.3-1.5-6.7-4c-2-3.7-0.6-8.3,3.1-10.2l8.9-4.7c3.7-2,8.3-0.6,10.2,3.1
		c2,3.7,0.6,8.3-3.1,10.2l-8.9,4.7C217.4,449.9,216.2,450.2,215,450.2z M250.5,431.2c-2.7,0-5.3-1.5-6.7-4c-2-3.7-0.6-8.3,3.1-10.2
		l8.9-4.7c3.7-2,8.3-0.6,10.2,3.1c2,3.7,0.6,8.3-3.1,10.2l-8.9,4.7C252.9,430.9,251.7,431.2,250.5,431.2z M286.1,412.3
		c-2.7,0-5.3-1.5-6.7-4c-2-3.7-0.6-8.3,3.1-10.2l8.9-4.7c3.7-2,8.3-0.6,10.2,3.1c2,3.7,0.6,8.3-3.1,10.2l-8.9,4.7
		C288.5,412,287.3,412.3,286.1,412.3z M321.6,393.3c-2.7,0-5.3-1.5-6.7-4c-2-3.7-0.6-8.3,3.1-10.2l8.9-4.7c3.7-2,8.3-0.6,10.2,3.1
		c2,3.7,0.6,8.3-3.1,10.2l-8.9,4.7C324,393,322.8,393.3,321.6,393.3z M357.2,374.4c-2.7,0-5.3-1.5-6.7-4c-2-3.7-0.6-8.3,3.1-10.2
		l8.9-4.7c3.7-2,8.3-0.6,10.2,3.1c2,3.7,0.6,8.3-3.1,10.2l-8.9,4.7C359.6,374.1,358.4,374.4,357.2,374.4z M392.7,355.4
		c-2.7,0-5.3-1.5-6.7-4c-2-3.7-0.6-8.3,3.1-10.2l8.9-4.7c3.7-2,8.3-0.6,10.2,3.1c2,3.7,0.6,8.3-3.1,10.2l-8.9,4.7
		C395.1,355.1,393.9,355.4,392.7,355.4z"/>
</g>
<g>
	<path class="st1" d="M112.9,76.7c0-14.1-11.9-25.6-26.5-25.6v51.2C101.1,102.3,112.9,90.8,112.9,76.7z"/>
	<path class="st2" d="M130,76.7c0,23.2-19.5,42-43.5,42v65.8l47.7-79.2c10.2-16.9,10.7-37.5,1.3-55.1c-8.8-16.5-24.6-26.9-43.2-28.6
		c-1.9-0.2-3.8-0.3-5.7-0.3v13.3C110.4,34.7,130,53.5,130,76.7z"/>
	<path class="st3" d="M150.5,42.7C139,21.1,118.3,7.5,93.7,5.3C91.3,5.1,88.9,5,86.5,5v16.4c1.9,0,3.9,0.1,5.7,0.3
		c18.6,1.6,34.4,12,43.2,28.6c9.4,17.6,8.9,38.2-1.3,55.1l-47.7,79.2v24.6c3,0,5.8-1.6,7.4-4.1l55.1-91.4
		C162,91.8,162.6,65.3,150.5,42.7z"/>
	<path class="st2" d="M130,76.7c0-23.2-19.5-42-43.5-42v16.4c14.6,0,26.5,11.5,26.5,25.6c0,14.1-11.9,25.6-26.5,25.6v16.4
		C110.4,118.7,130,99.9,130,76.7z"/>
	<path class="st1" d="M60,76.7c0,14.1,11.9,25.6,26.5,25.6c0,0,0,0,0,0V51.1c0,0,0,0,0,0C71.8,51.1,60,62.6,60,76.7z"/>
	<path class="st4" d="M80.7,21.7c-18.6,1.6-34.4,12-43.2,28.6c-9.4,17.6-8.9,38.2,1.3,55.1l47.7,79.2l0,0v-65.8c0,0,0,0,0,0
		c-24,0-43.5-18.9-43.5-42c0-23.2,19.5-42,43.5-42c0,0,0,0,0,0V21.4c0,0,0,0,0,0C84.5,21.4,82.6,21.5,80.7,21.7z"/>
	<path class="st5" d="M86.5,184.5l-47.7-79.2c-10.2-16.9-10.7-37.5-1.3-55.1c8.8-16.5,24.6-26.9,43.2-28.6c1.9-0.2,3.8-0.3,5.7-0.3
		c0,0,0,0,0,0V5c-2.4,0-4.9,0.1-7.3,0.3C54.6,7.5,33.9,21.1,22.4,42.7C10.3,65.3,10.9,91.8,24,113.6L79.1,205
		c1.5,2.5,4.3,4.1,7.4,4.1c0,0,0,0,0,0L86.5,184.5L86.5,184.5z"/>
	<path class="st4" d="M86.5,102.3C71.8,102.3,60,90.8,60,76.7c0-14.1,11.9-25.6,26.5-25.6c0,0,0,0,0,0V34.7c0,0,0,0,0,0
		c-24,0-43.5,18.8-43.5,42c0,23.2,19.5,42,43.5,42c0,0,0,0,0,0L86.5,102.3C86.5,102.3,86.5,102.3,86.5,102.3z"/>
</g>
<g>
	<path class="st1" d="M453.1,199.1c0-14.1-11.9-25.6-26.5-25.6v51.2C441.2,224.7,453.1,213.2,453.1,199.1z"/>
	<path class="st2" d="M470.1,199.1c0,23.2-19.5,42-43.5,42v65.8l47.7-79.2c10.2-16.9,10.7-37.5,1.3-55.1
		c-8.8-16.5-24.6-26.9-43.2-28.6c-1.9-0.2-3.8-0.3-5.7-0.3v13.3C450.6,157.1,470.1,175.9,470.1,199.1z"/>
	<path class="st3" d="M490.7,165.1c-11.6-21.6-32.3-35.3-56.8-37.4c-2.4-0.2-4.8-0.3-7.3-0.3v16.4c1.9,0,3.9,0.1,5.7,0.3
		c18.6,1.6,34.4,12,43.2,28.6c9.4,17.6,8.9,38.2-1.3,55.1l-47.7,79.2v24.6c3,0,5.8-1.6,7.4-4.1L489,236
		C502.1,214.2,502.7,187.7,490.7,165.1z"/>
	<path class="st2" d="M470.1,199.1c0-23.2-19.5-42-43.5-42v16.4c14.6,0,26.5,11.5,26.5,25.6c0,14.1-11.9,25.6-26.5,25.6v16.4
		C450.6,241.1,470.1,222.3,470.1,199.1z"/>
	<path class="st1" d="M400.1,199.1c0,14.1,11.9,25.6,26.5,25.6c0,0,0,0,0,0v-51.2c0,0,0,0,0,0C412,173.5,400.1,185,400.1,199.1z"/>
	<path class="st4" d="M420.8,144.1c-18.6,1.6-34.4,12-43.2,28.6c-9.4,17.6-8.9,38.2,1.3,55.1l47.7,79.2l0,0v-65.8c0,0,0,0,0,0
		c-24,0-43.5-18.9-43.5-42c0-23.2,19.5-42,43.5-42c0,0,0,0,0,0v-13.3c0,0,0,0,0,0C424.6,143.8,422.7,143.9,420.8,144.1z"/>
	<path class="st5" d="M426.6,306.9l-47.7-79.2c-10.2-16.9-10.7-37.5-1.3-55.1c8.8-16.5,24.6-26.9,43.2-28.6c1.9-0.2,3.8-0.3,5.7-0.3
		c0,0,0,0,0,0v-16.4c-2.4,0-4.9,0.1-7.3,0.3c-24.5,2.1-45.3,15.8-56.8,37.4c-12.1,22.6-11.5,49.1,1.7,70.9l55.1,91.4
		c1.5,2.5,4.3,4.1,7.4,4.1c0,0,0,0,0,0L426.6,306.9L426.6,306.9z"/>
	<path class="st4" d="M426.6,224.7c-14.6,0-26.5-11.5-26.5-25.6c0-14.1,11.9-25.6,26.5-25.6c0,0,0,0,0,0v-16.4c0,0,0,0,0,0
		c-24,0-43.5,18.8-43.5,42c0,23.2,19.5,42,43.5,42c0,0,0,0,0,0L426.6,224.7C426.6,224.7,426.6,224.7,426.6,224.7z"/>
</g>
<g>
	<path class="st1" d="M112.9,353c0-14.1-11.9-25.6-26.5-25.6v51.2C101.1,378.6,112.9,367.2,112.9,353z"/>
	<path class="st2" d="M130,353c0,23.2-19.5,42-43.5,42v65.8l47.7-79.2c10.2-16.9,10.7-37.5,1.3-55.1c-8.8-16.5-24.6-26.9-43.2-28.6
		c-1.9-0.2-3.8-0.3-5.7-0.3V311C110.4,311,130,329.9,130,353z"/>
	<path class="st3" d="M150.5,319c-11.6-21.6-32.3-35.3-56.8-37.4c-2.4-0.2-4.8-0.3-7.3-0.3v16.4c1.9,0,3.9,0.1,5.7,0.3
		c18.6,1.6,34.4,12,43.2,28.6c9.4,17.6,8.9,38.2-1.3,55.1l-47.7,79.2v24.6c3,0,5.8-1.6,7.4-4.1l55.1-91.4
		C162,368.1,162.6,341.6,150.5,319z"/>
	<path class="st2" d="M130,353c0-23.2-19.5-42-43.5-42v16.4c14.6,0,26.5,11.5,26.5,25.6c0,14.1-11.9,25.6-26.5,25.6v16.4
		C110.4,395.1,130,376.2,130,353z"/>
	<path class="st1" d="M60,353c0,14.1,11.9,25.6,26.5,25.6c0,0,0,0,0,0v-51.2c0,0,0,0,0,0C71.8,327.5,60,338.9,60,353z"/>
	<path class="st4" d="M80.7,298c-18.6,1.6-34.4,12-43.2,28.6c-9.4,17.6-8.9,38.2,1.3,55.1l47.7,79.2l0,0v-65.8c0,0,0,0,0,0
		c-24,0-43.5-18.9-43.5-42c0-23.2,19.5-42,43.5-42c0,0,0,0,0,0v-13.3c0,0,0,0,0,0C84.5,297.8,82.6,297.9,80.7,298z"/>
	<path class="st5" d="M86.5,460.9l-47.7-79.2c-10.2-16.9-10.7-37.5-1.3-55.1c8.8-16.5,24.6-26.9,43.2-28.6c1.9-0.2,3.8-0.3,5.7-0.3
		c0,0,0,0,0,0v-16.4c-2.4,0-4.9,0.1-7.3,0.3c-24.5,2.1-45.3,15.8-56.8,37.4c-12.1,22.6-11.5,49.1,1.7,70.9l55.1,91.4
		c1.5,2.5,4.3,4.1,7.4,4.1c0,0,0,0,0,0L86.5,460.9L86.5,460.9z"/>
	<path class="st4" d="M86.5,378.6C71.8,378.6,60,367.2,60,353c0-14.1,11.9-25.6,26.5-25.6c0,0,0,0,0,0V311c0,0,0,0,0,0
		c-24,0-43.5,18.8-43.5,42c0,23.2,19.5,42,43.5,42c0,0,0,0,0,0L86.5,378.6C86.5,378.6,86.5,378.6,86.5,378.6z"/>
</g>
</svg>
