<?xml version="1.0" encoding="UTF-8"?>
<svg id="Capa_1" data-name="Capa 1" xmlns="http://www.w3.org/2000/svg" viewBox="0 0 480 480">
  <defs>
    <style>
      .cls-1 {
        fill: #00adee;
      }

      .cls-2 {
        fill: #029cc6;
      }

      .cls-3 {
        fill: #ee3c38;
      }

      .cls-4 {
        fill: #eaac6e;
      }

      .cls-5 {
        fill: #f05859;
      }

      .cls-6 {
        fill: #f69230;
      }

      .cls-7 {
        fill: #fbb970;
      }

      .cls-8 {
        fill: #999ea2;
      }

      .cls-9 {
        fill: #ce8449;
      }

      .cls-10 {
        fill: #b2d8f2;
      }

      .cls-11 {
        fill: #be1e2d;
      }

      .cls-12 {
        fill: #abcddd;
      }

      .cls-13 {
        fill: #d5e9f8;
      }

      .cls-14 {
        fill: #12284c;
      }

      .cls-15 {
        fill: #112a4c;
      }

      .cls-16 {
        fill: #07b4c0;
      }

      .cls-17 {
        fill: #07abe2;
      }

      .cls-18 {
        fill: #4ec3cc;
      }

      .cls-19 {
        stroke-width: 1.4px;
      }

      .cls-19, .cls-20 {
        fill: none;
        stroke: #fff;
        stroke-miterlimit: 10;
      }

      .cls-20 {
        stroke-width: 1.56px;
      }
    </style>
  </defs>
  <path class="cls-14" d="m80.12,158.36c-1.58-3.61.07-7.81,3.67-9.38l8.7-3.8c3.61-1.58,7.81.07,9.38,3.67,1.58,3.61-.07,7.81-3.67,9.38l-8.7,3.8c-.93.41-1.9.6-2.85.6-2.75,0-5.36-1.6-6.53-4.27Zm34.81-15.22c-1.58-3.61.07-7.81,3.67-9.38l8.7-3.8c3.61-1.58,7.81.07,9.38,3.67,1.58,3.61-.07,7.81-3.67,9.38l-8.7,3.8c-.93.41-1.9.6-2.85.6-2.75,0-5.36-1.6-6.53-4.27Zm34.81-15.22c-1.58-3.6.07-7.8,3.67-9.38l8.7-3.81c3.6-1.58,7.81.07,9.38,3.67,1.58,3.6-.07,7.81-3.67,9.38l-8.7,3.81c-.93.41-1.9.6-2.85.6-2.74,0-5.36-1.6-6.53-4.27Zm34.81-15.22c-1.58-3.61.07-7.81,3.67-9.38l8.7-3.81c3.61-1.58,7.81.07,9.38,3.67,1.58,3.61-.07,7.81-3.67,9.38l-8.7,3.81c-.93.41-1.9.6-2.85.6-2.75,0-5.36-1.6-6.53-4.27Zm34.81-15.22c-1.58-3.61.07-7.81,3.67-9.38l8.7-3.8c3.61-1.58,7.81.07,9.38,3.67,1.58,3.61-.07,7.81-3.67,9.38l-8.7,3.8c-.93.41-1.9.6-2.85.6-2.75,0-5.36-1.6-6.53-4.27Zm34.81-15.22c-1.58-3.61.07-7.81,3.67-9.38l8.7-3.8c3.61-1.58,7.81.07,9.38,3.67,1.58,3.61-.07,7.81-3.67,9.38l-8.7,3.8c-.93.41-1.9.6-2.85.6-2.74,0-5.36-1.6-6.53-4.27Z"/>
  <path class="cls-11" d="m270.98,135.74l34.36,22.07c1.81-2.99,4-6.28,6.52-9.79,1.47-2.05,3.08-4.23,4.82-6.53-9.06-1.47-25.29-3.92-44.65-6.75l-1.05,1.01Z"/>
  <path class="cls-1" d="m334.75,152.16l-6.8,6.8c10.55-7.69,24.23-18.88,40.68-33.29,30.4-26.62,60.72-55.91,63.71-58.9,2.9-2.91,7.42-9.85,10.44-17.5,3.26-8.28,2.88-12.85,1.83-13.91-.17-.17-.91-.74-3.11-.74-2.78,0-6.51.89-10.8,2.58-7.65,3.02-14.59,7.54-17.49,10.44-2.95,2.95-32.03,33.03-58.9,63.71-9.84,11.24-18.27,21.3-25.08,29.91l-.69.88c-2.86,3.63-5.38,6.95-7.52,9.89l6.8-6.8,6.92,6.92Z"/>
  <path class="cls-11" d="m344.89,207.8c-2.63-18.36-5.09-34.8-6.62-44.31-2.23,1.69-4.34,3.25-6.29,4.65h0c-3.55,2.54-6.87,4.75-9.87,6.57l21.85,34.03.93-.93Z"/>
  <path class="cls-11" d="m385.93,62.04l-99.61-22.41c-1.03-.23-1.73,0-1.86.1l-9.17,9.17c.19.21.51.49,1,.73l83.04,41.34c8.43-9.38,17.37-19.09,26.6-28.93Z"/>
  <path class="cls-11" d="m388.61,121.03l41.01,82.37c.24.48.52.81.73,1l9.18-9.18c.13-.16.3-.9.09-1.85l-22.22-98.78c-9.83,9.22-19.49,18.1-28.78,26.45Z"/>
  <path class="cls-14" d="m343.69,219.46c2.18,0,4.24-.85,5.78-2.4l2.98-2.97c1.82-1.82,2.69-4.43,2.32-6.98-.38-2.62-2.39-16.38-4.41-29.65-1.58-10.41-2.64-17.1-3.3-20.82,8.21-6.56,17.63-14.5,28.03-23.6,1.83-1.61,3.76-3.3,5.96-5.25l39.81,79.97c1.75,3.52,4.82,5.95,8.22,6.5.49.08,1,.12,1.51.12,2.38,0,4.54-.91,6.26-2.63l9.62-9.62c2.61-2.6,3.65-6.79,2.72-10.92l-23.5-104.44c7.56-7.17,12.47-11.96,13.58-13.07,4.29-4.28,9.48-12.85,12.63-20.83,3.11-7.87,5.57-18.5-.35-24.42-3.26-3.27-10.14-5.98-24.42-.35-7.97,3.14-16.54,8.33-20.83,12.62-1.06,1.06-5.65,5.77-12.55,13.04l-105.27-23.68c-4.14-.93-8.33.12-10.92,2.72l-9.61,9.61c-2.1,2.09-2.99,4.85-2.51,7.77.56,3.39,2.99,6.47,6.5,8.22l80.64,40.15c-2.1,2.37-3.91,4.42-5.61,6.36-9.01,10.29-16.89,19.64-23.42,27.8-3.62-.66-10.46-1.75-21.31-3.39-8.31-1.26-18.56-2.78-29.67-4.41-2.55-.35-5.15.52-6.96,2.32l-2.98,2.98c-1.76,1.77-2.62,4.2-2.35,6.66.26,2.47,1.62,4.67,3.72,6.02l36.82,23.64c-.81,2.05-1.54,4.59-1.31,7.05l-6.66,6.66,6.93,6.92,6.69-6.69c.27.05.57.08.91.08,2.14,0,4.29-.65,6.02-1.33l23.42,36.47c1.35,2.1,3.54,3.45,5.98,3.71.29.03.59.05.92.05Zm95.93-26.1c.21.95.04,1.69-.09,1.85l-9.18,9.18c-.21-.19-.49-.51-.73-1l-41.01-82.37c9.29-8.35,18.96-17.23,28.78-26.45l22.22,98.78ZM276.28,49.63c-.49-.24-.81-.52-1-.73l9.17-9.17c.13-.1.84-.33,1.86-.1l99.61,22.41c-9.24,9.84-18.17,19.56-26.6,28.93l-83.04-41.34Zm35.57,98.38c-2.52,3.52-4.71,6.8-6.52,9.79l-34.36-22.07,1.05-1.01c19.36,2.83,35.59,5.28,44.65,6.75-1.74,2.29-3.36,4.48-4.82,6.53Zm16.7-5.86l.69-.88c6.8-8.61,15.24-18.68,25.08-29.91,26.87-30.68,55.95-60.76,58.9-63.71,2.9-2.9,9.84-7.42,17.49-10.44,4.28-1.69,8.01-2.58,10.8-2.58,2.2,0,2.93.57,3.11.74,1.05,1.05,1.43,5.63-1.83,13.91-3.02,7.65-7.54,14.59-10.44,17.5-2.99,2.99-33.32,32.28-63.71,58.9-16.45,14.41-30.13,25.6-40.68,33.29l6.8-6.8-6.92-6.92-6.8,6.8c2.14-2.94,4.67-6.25,7.52-9.89Zm-6.45,32.55c3.01-1.82,6.32-4.02,9.87-6.57h0c1.95-1.4,4.06-2.96,6.29-4.65,1.53,9.51,3.99,25.95,6.62,44.31l-.93.93-21.85-34.03Z"/>
  <path class="cls-5" d="m194.33,437.94h18.09c.51-2.42,1.47-4.65,2.74-6.69h-20.82v6.69Z"/>
  <path class="cls-8" d="m236.87,431.07c-.13-.06-.32-.13-.45-.19-1.21-.38-2.48-.64-3.82-.64-6.62,0-11.97,5.35-11.97,11.97s5.41,11.97,11.97,11.97,11.97-5.35,11.97-11.97c0-5.03-3.18-9.42-7.71-11.14"/>
  <path class="cls-17" d="m422.88,392.22v-33.31h-11.91v78.97h2.42c1.97-9.3,10.32-16.3,20.19-16.3s18.21,7.01,20.19,16.3h13.12v-7.64h-.13c-7.2,0-12.99-5.86-12.99-13.06s5.86-12.99,12.99-12.99h.13v-7.64h-39.67c-2.42,0-4.33-1.91-4.33-4.33"/>
  <path class="cls-17" d="m422.88,392.22v-33.31h-11.91v78.97h2.42c1.97-9.3,10.32-16.3,20.19-16.3s18.21,7.01,20.19,16.3h13.12v-7.64h-.13c-7.2,0-12.99-5.86-12.99-13.06s5.86-12.99,12.99-12.99h.13v-7.64h-39.67c-2.42,0-4.33-1.91-4.33-4.33"/>
  <path class="cls-8" d="m433.58,430.24c-6.62,0-11.97,5.35-11.97,11.97s5.35,11.97,11.97,11.97,11.97-5.35,11.97-11.97-5.35-11.97-11.97-11.97"/>
  <path class="cls-6" d="m462.43,417.25c0,2.42,1.97,4.4,4.39,4.4h.13v-8.73h-.19c-2.42-.06-4.33,1.91-4.33,4.33"/>
  <path class="cls-5" d="m402.31,437.94v-6.69h-152.27c1.27,2.04,2.23,4.27,2.74,6.69h149.53Z"/>
  <polygon class="cls-8" points="455.36 358.91 431.54 358.91 431.54 387.89 465.17 387.89 455.36 358.91"/>
  <path class="cls-15" d="m466.89,404.19h-.13c-7.2,0-12.99,5.86-12.99,12.99s5.86,13.06,12.99,13.06h.13v7.64h-13.12c-1.97-9.3-10.32-16.3-20.19-16.3s-18.21,7-20.19,16.3h-2.42v-78.97h11.91v33.31c0,2.36,1.91,4.33,4.33,4.33h39.67v7.64Zm0,17.39h-.13c-2.42,0-4.4-1.97-4.4-4.4s1.97-4.39,4.4-4.39h.13v8.79Zm-33.3,32.67c-6.62,0-11.97-5.35-11.97-11.97s5.35-11.97,11.97-11.97,11.97,5.35,11.97,11.97-5.35,11.97-11.97,11.97m-184.24,0c1.59-2.23,2.8-4.84,3.38-7.64h160.61c.57,2.8,1.78,5.41,3.37,7.64h-167.36Zm-16.75,0c-6.62,0-11.97-5.35-11.97-11.97s5.41-11.97,11.97-11.97c1.34,0,2.61.19,3.82.64.13.06.32.13.45.19,4.52,1.72,7.7,6.11,7.7,11.21,0,6.56-5.35,11.91-11.97,11.91m159.78-22.99h9.94v6.69h-149.53c-.51-2.42-1.47-4.65-2.74-6.69h142.33Zm39.17-72.34h23.82l9.81,28.97h-33.62v-28.97Zm-219.14,79.03h-18.09v-6.69h20.82c-1.27,1.97-2.23,4.27-2.74,6.69m263.14-46.11v-.13c0-.07,0-.19-.06-.25,0-.07,0-.13-.07-.19,0-.07-.06-.13-.06-.19s0-.13-.06-.19v-.06l-12.8-37.64c-.57-1.78-2.23-2.93-4.08-2.93h-51.84c-2.36,0-4.33,1.91-4.33,4.33v67.95h-216.59v19.68c0,2.36,1.91,4.33,4.33,4.33h22.42c.57,2.8,1.78,5.41,3.38,7.64h-23.82c-2.36,0-4.33,1.91-4.33,4.33s1.91,4.33,4.33,4.33h279.25c2.36,0,4.33-1.91,4.33-4.33s-1.91-4.33-4.33-4.33h-20.82c1.59-2.23,2.8-4.84,3.37-7.64h17.45c2.36,0,4.33-1.91,4.33-4.33v-50.37Z"/>
  <rect class="cls-10" x="178.03" y="267.98" width="61.14" height="10.19"/>
  <rect class="cls-10" x="157.65" y="267.98" width="10.19" height="10.19"/>
  <polygon class="cls-7" points="361.37 331.46 223.36 331.46 205.47 331.46 198.27 331.46 198.27 407.31 386.52 407.31 386.52 331.46 379.26 331.46 361.37 331.46"/>
  <polygon class="cls-4" points="361.37 331.46 198.27 407.31 386.52 407.31 386.52 331.46 379.26 331.46 361.37 331.46"/>
  <rect class="cls-9" x="213.69" y="340.51" width="11.02" height="58.52"/>
  <rect class="cls-9" x="242.53" y="340.51" width="11.02" height="58.52"/>
  <rect class="cls-9" x="271.45" y="340.51" width="11.02" height="58.52"/>
  <rect class="cls-9" x="300.29" y="340.51" width="11.02" height="58.52"/>
  <rect class="cls-9" x="329.14" y="340.51" width="11.02" height="58.52"/>
  <rect class="cls-9" x="357.99" y="340.51" width="11.02" height="58.52"/>
  <path class="cls-9" d="m386.46,407.31h-188.18v-75.85h188.31v75.85h-.13Zm-13.63-86.86h-180.1c-3.06,0-5.54,2.48-5.54,5.54v86.86c0,3.06,2.48,5.54,5.54,5.54h199.26c3.06,0,5.54-2.48,5.54-5.54v-86.93c0-3.06-2.48-5.54-5.54-5.54h-19.17v.06Z"/>
  <path class="cls-20" d="m386.46,407.31h-188.18v-75.85h188.31v75.85h-.13Zm-13.63-86.86h-180.1c-3.06,0-5.54,2.48-5.54,5.54v86.86c0,3.06,2.48,5.54,5.54,5.54h199.26c3.06,0,5.54-2.48,5.54-5.54v-86.93c0-3.06-2.48-5.54-5.54-5.54h-19.17v.06Z"/>
  <path class="cls-2" d="m410.98,437.94h2.42c1.97-9.3,10.32-16.3,20.19-16.3s18.21,7.01,20.19,16.3h13.12v-7.64h-.13c-7.19,0-12.99-5.86-12.99-13.06s5.86-12.99,12.99-12.99h.13v-7.64l-55.91,22.16v19.17Z"/>
  <path class="cls-7" d="m254.45,200.43v-23l-50.96-5.78c0-.65-.54-1.19-1.19-1.19h-70.5c-.65,0-1.19.54-1.19,1.19v69.96h121.84l2-22.73c10.91,3.72,1.51-18.46,0-18.46"/>
  <rect class="cls-9" x="171.1" y="177.65" width="36.44" height="17.76"/>
  <rect class="cls-9" x="214.02" y="224.83" width="36.44" height="17.76"/>
  <rect class="cls-13" x="30.63" y="180.57" width="54.47" height="39.79"/>
  <rect class="cls-12" x="52.5" y="180.57" width="30.39" height="39.79"/>
  <path class="cls-5" d="m107.78,248.21l-10.8-14.47c0,3.89-6.91-6.05-10.8-6.05l-63.7,2.54c-1.89,0-3.29,1.73-2.92,3.56,2.16,10.2,7.4,23.75,19.71,37.46,2.32,2.59,2.81,6.32,1.35,9.45l-1.46,10.74c-1.13,2.32-.32,7.67,2.21,7.67l207.08.49c1.35,0,2.59-.76,3.13-2l14.9-48.26c-21,30.83-.7-2.16-3.24-2.16l-15.28.54c-3.89-.05-140.2-3.4-140.2.49"/>
  <path class="cls-3" d="m263.69,242.76h-27.59l-19.54,44.16h30.83c1.35,0,2.59-.76,3.13-2l16.3-37.2c1.13-2.27-.59-4.97-3.13-4.97"/>
  <rect class="cls-9" x="128.13" y="201.24" width="36.44" height="17.76"/>
  <path class="cls-18" d="m39.81,274.82c.32,1.78.11,3.67-.7,5.35l2.21,13.87c-1.14,2.32,8.91,3.83,0,5.02h205.63c1.35,0,2.59-.75,3.13-2l10.42-22.24H39.81Z"/>
  <path class="cls-16" d="m221.42,274.82l-11.39,24.24h30.83c.16,0,.33,0,.49-.05.32-.05.65-.16.92-.27.27-.11.59-.32.81-.54.38-.32.7-.7.92-1.19l10.42-22.24h-32.99v.05Z"/>
  <path class="cls-15" d="m87.91,231.91l13.17,19.38h159.15l-19.33,42.81H49.04l-27.04-62.19h65.92Zm160.06,7.83h-31.42v-12.09h31.42v12.09Zm0-23.54h-31.42v-12.09h31.42v12.09Zm0-23.59h-31.42v-12.09h31.42v12.09Zm-42.97,47.13h-31.42v-12.09h31.42v12.09Zm0-23.54h-31.42v-12.09h31.42v12.09Zm0-23.59h-31.42v-12.09h31.42v12.09Zm-42.92,47.13h-31.42v-12.09h31.42v12.09Zm0-23.54h-31.42v-12.09h31.42v12.09Zm0-23.59h-31.42v-12.09h31.42v12.09Zm-85.89,27.8h-39.84v-38.22c0-.92.75-1.67,1.67-1.67h38.17v39.9Zm-51.34,0H4.45l36.87,85.13h207.08l29.69-65.81h-18.62v-70.72H119.17v70.72h-11.98l-13.17-19.38h-6.26v-51.34h-24.46v-35.63h-11.5v35.63h-13.77c-7.29,0-13.17,5.94-13.17,13.17v38.22Z"/>
  <path class="cls-19" d="m247.98,239.73h-31.42v-12.09h31.42v12.09Zm0-23.54h-31.42v-12.09h31.42v12.09Zm0-23.59h-31.42v-12.09h31.42v12.09Zm-42.97,47.13h-31.42v-12.09h31.42v12.09Zm0-23.54h-31.42v-12.09h31.42v12.09Zm0-23.59h-31.42v-12.09h31.42v12.09Zm-42.92,47.13h-31.42v-12.09h31.42v12.09Zm0-23.54h-31.42v-12.09h31.42v12.09Zm0-23.59h-31.42v-12.09h31.42v12.09Zm-85.89,27.8h-39.84v-38.22c0-.92.75-1.67,1.67-1.67h38.17v39.9Z"/>
  <path class="cls-14" d="m47.92,316.61c2.62-2.93,7.13-3.18,10.06-.56l7.08,6.34c2.93,2.63,3.18,7.13.56,10.06-2.62,2.93-7.13,3.18-10.06.56l-7.08-6.34c-.76-.68-1.33-1.48-1.73-2.34-1.14-2.5-.77-5.54,1.17-7.72Zm28.31,25.34c2.62-2.93,7.13-3.18,10.06-.56l7.08,6.34c2.93,2.63,3.18,7.13.56,10.06-2.62,2.93-7.13,3.18-10.06.56l-7.08-6.34c-.76-.68-1.33-1.48-1.73-2.34-1.14-2.5-.78-5.54,1.17-7.72Zm28.31,25.34c2.62-2.93,7.13-3.18,10.06-.56l7.08,6.34c2.93,2.62,3.18,7.13.56,10.06-2.62,2.93-7.13,3.18-10.06.56l-7.08-6.34c-.76-.68-1.33-1.48-1.73-2.34-1.14-2.5-.78-5.54,1.17-7.72Zm28.31,25.34c2.62-2.93,7.13-3.18,10.06-.56l7.08,6.33c2.93,2.63,3.18,7.13.56,10.06-2.62,2.93-7.13,3.18-10.06.56l-7.08-6.33c-.76-.68-1.33-1.48-1.73-2.34-1.14-2.5-.78-5.54,1.17-7.71Zm28.31,25.34c2.62-2.93,7.13-3.18,10.06-.56l7.08,6.34c2.93,2.63,3.18,7.13.56,10.06-2.62,2.93-7.13,3.18-10.06.56l-7.08-6.34c-.76-.68-1.33-1.48-1.73-2.34-1.14-2.5-.78-5.54,1.17-7.72Z"/>
</svg>