<?xml version="1.0" encoding="utf-8"?>
<!-- Generator: Adobe Illustrator 27.3.0, SVG Export Plug-In . SVG Version: 6.00 Build 0)  -->
<svg version="1.1" id="Layer_1" xmlns="http://www.w3.org/2000/svg" xmlns:xlink="http://www.w3.org/1999/xlink" x="0px" y="0px"
	 viewBox="0 0 512 512" style="enable-background:new 0 0 512 512;" xml:space="preserve">
<style type="text/css">
	.st0{fill:#12284C;}
	.st1{fill:#BE1E2D;}
	.st2{fill:#00ADEE;}
	.st3{fill:#F05859;}
	.st4{fill:#999EA2;}
	.st5{fill:#07ABE2;}
	.st6{fill:#F69230;}
	.st7{fill:#112A4C;}
	.st8{fill:#B2D8F2;}
	.st9{fill:#FBB970;}
	.st10{fill:#EAAC6E;}
	.st11{fill:#CE8449;}
	.st12{fill:none;stroke:#FFFFFF;stroke-width:1.563;stroke-miterlimit:10;}
	.st13{fill:#029CC6;}
	.st14{fill:#D5E9F8;}
	.st15{fill:#ABCDDD;}
	.st16{fill:#EE3C38;}
	.st17{fill:#4EC3CC;}
	.st18{fill:#07B4C0;}
	.st19{fill:none;stroke:#FFFFFF;stroke-width:1.396;stroke-miterlimit:10;}
</style>
<g>
	<path class="st0" d="M86.6,172.7c-1.7-3.8,0.1-8.3,3.9-9.9l9.2-4c3.8-1.7,8.3,0.1,9.9,3.9c1.7,3.8-0.1,8.3-3.9,9.9l-9.2,4
		c-1,0.4-2,0.6-3,0.6C90.6,177.2,87.9,175.5,86.6,172.7z M123.5,156.6c-1.7-3.8,0.1-8.3,3.9-9.9l9.2-4c3.8-1.7,8.3,0.1,9.9,3.9
		c1.7,3.8-0.1,8.3-3.9,9.9l-9.2,4c-1,0.4-2,0.6-3,0.6C127.5,161.1,124.7,159.4,123.5,156.6z M160.4,140.4c-1.7-3.8,0.1-8.3,3.9-9.9
		l9.2-4c3.8-1.7,8.3,0.1,9.9,3.9c1.7,3.8-0.1,8.3-3.9,9.9l-9.2,4c-1,0.4-2,0.6-3,0.6C164.4,145,161.6,143.3,160.4,140.4z
		 M197.3,124.3c-1.7-3.8,0.1-8.3,3.9-9.9l9.2-4c3.8-1.7,8.3,0.1,9.9,3.9c1.7,3.8-0.1,8.3-3.9,9.9l-9.2,4c-1,0.4-2,0.6-3,0.6
		C201.3,128.8,198.5,127.1,197.3,124.3z M234.1,108.2c-1.7-3.8,0.1-8.3,3.9-9.9l9.2-4c3.8-1.7,8.3,0.1,9.9,3.9
		c1.7,3.8-0.1,8.3-3.9,9.9l-9.2,4c-1,0.4-2,0.6-3,0.6C238.2,112.7,235.4,111,234.1,108.2z M271,92.1c-1.7-3.8,0.1-8.3,3.9-9.9l9.2-4
		c3.8-1.7,8.3,0.1,9.9,3.9c1.7,3.8-0.1,8.3-3.9,9.9l-9.2,4c-1,0.4-2,0.6-3,0.6C275,96.6,272.3,94.9,271,92.1z"/>
</g>
<path class="st1" d="M288.8,148.7l36.4,23.4c1.9-3.2,4.2-6.6,6.9-10.4c1.6-2.2,3.3-4.5,5.1-6.9c-9.6-1.6-26.8-4.2-47.3-7.2
	L288.8,148.7z"/>
<path class="st2" d="M356.4,166.1l-7.2,7.2c11.2-8.1,25.7-20,43.1-35.3c32.2-28.2,64.3-59.2,67.5-62.4c3.1-3.1,7.9-10.4,11.1-18.5
	c3.5-8.8,3.1-13.6,1.9-14.7c-0.2-0.2-1-0.8-3.3-0.8c-2.9,0-6.9,0.9-11.4,2.7c-8.1,3.2-15.5,8-18.5,11.1c-3.1,3.1-33.9,35-62.4,67.5
	c-10.4,11.9-19.4,22.6-26.6,31.7l-0.7,0.9c-3,3.8-5.7,7.4-8,10.5l7.2-7.2L356.4,166.1z"/>
<path class="st1" d="M367.1,225.1c-2.8-19.5-5.4-36.9-7-46.9c-2.4,1.8-4.6,3.4-6.7,4.9h0c-3.8,2.7-7.3,5-10.5,7l23.2,36.1
	L367.1,225.1z"/>
<path class="st1" d="M410.6,70.6L305.1,46.9c-1.1-0.2-1.8,0-2,0.1l-9.7,9.7c0.2,0.2,0.5,0.5,1.1,0.8l88,43.8
	C391.3,91.4,400.8,81.1,410.6,70.6z"/>
<path class="st1" d="M413.4,133.1l43.4,87.3c0.3,0.5,0.6,0.9,0.8,1.1l9.7-9.7c0.1-0.2,0.3-1,0.1-2l-23.5-104.6
	C433.5,114.9,423.3,124.3,413.4,133.1z"/>
<path class="st0" d="M365.8,237.4c2.3,0,4.5-0.9,6.1-2.5l3.2-3.2c1.9-1.9,2.8-4.7,2.5-7.4c-0.4-2.8-2.5-17.4-4.7-31.4
	c-1.7-11-2.8-18.1-3.5-22.1c8.7-7,18.7-15.4,29.7-25c1.9-1.7,4-3.5,6.3-5.6l42.2,84.7c1.9,3.7,5.1,6.3,8.7,6.9
	c0.5,0.1,1.1,0.1,1.6,0.1c2.5,0,4.8-1,6.6-2.8l10.2-10.2c2.8-2.8,3.9-7.2,2.9-11.6L452.7,96.8c8-7.6,13.2-12.7,14.4-13.8
	c4.5-4.5,10-13.6,13.4-22.1c3.3-8.3,5.9-19.6-0.4-25.9c-3.5-3.5-10.7-6.3-25.9-0.4c-8.4,3.3-17.5,8.8-22.1,13.4
	c-1.1,1.1-6,6.1-13.3,13.8L307.3,36.8c-4.4-1-8.8,0.1-11.6,2.9l-10.2,10.2c-2.2,2.2-3.2,5.1-2.7,8.2c0.6,3.6,3.2,6.8,6.9,8.7
	l85.4,42.5c-2.2,2.5-4.1,4.7-5.9,6.7c-9.5,10.9-17.9,20.8-24.8,29.5c-3.8-0.7-11.1-1.9-22.6-3.6c-8.8-1.3-19.7-2.9-31.4-4.7
	c-2.7-0.4-5.5,0.5-7.4,2.5l-3.2,3.2c-1.9,1.9-2.8,4.4-2.5,7.1c0.3,2.6,1.7,4.9,3.9,6.4l39,25c-0.9,2.2-1.6,4.9-1.4,7.5l-7.1,7.1
	l7.3,7.3l7.1-7.1c0.3,0.1,0.6,0.1,1,0.1c2.3,0,4.5-0.7,6.4-1.4l24.8,38.6c1.4,2.2,3.7,3.7,6.3,3.9
	C365.2,237.4,365.5,237.4,365.8,237.4z M467.5,209.8c0.2,1,0,1.8-0.1,2l-9.7,9.7c-0.2-0.2-0.5-0.5-0.8-1.1l-43.4-87.3
	c9.8-8.8,20.1-18.3,30.5-28L467.5,209.8z M294.4,57.5c-0.5-0.3-0.9-0.6-1.1-0.8l9.7-9.7c0.1-0.1,0.9-0.4,2-0.1l105.5,23.7
	c-9.8,10.4-19.3,20.7-28.2,30.7L294.4,57.5z M332.1,161.7c-2.7,3.7-5,7.2-6.9,10.4l-36.4-23.4l1.1-1.1c20.5,3,37.7,5.6,47.3,7.2
	C335.4,157.2,333.7,159.6,332.1,161.7z M349.8,155.5l0.7-0.9c7.2-9.1,16.1-19.8,26.6-31.7c28.5-32.5,59.3-64.4,62.4-67.5
	c3.1-3.1,10.4-7.9,18.5-11.1c4.5-1.8,8.5-2.7,11.4-2.7c2.3,0,3.1,0.6,3.3,0.8c1.1,1.1,1.5,6-1.9,14.7c-3.2,8.1-8,15.5-11.1,18.5
	c-3.2,3.2-35.3,34.2-67.5,62.4c-17.4,15.3-31.9,27.1-43.1,35.3l7.2-7.2l-7.3-7.3l-7.2,7.2C344.1,162.9,346.8,159.4,349.8,155.5z
	 M343,190c3.2-1.9,6.7-4.3,10.5-7h0c2.1-1.5,4.3-3.1,6.7-4.9c1.6,10.1,4.2,27.5,7,46.9l-1,1L343,190z"/>
<path class="st3" d="M207.6,468.9h19.2c0.5-2.6,1.6-4.9,2.9-7.1h-22.1V468.9z"/>
<path class="st4" d="M252.7,461.6c-0.1-0.1-0.3-0.1-0.5-0.2c-1.3-0.4-2.6-0.7-4-0.7c-7,0-12.7,5.7-12.7,12.7c0,7,5.7,12.7,12.7,12.7
	c7,0,12.7-5.7,12.7-12.7C260.8,468.1,257.5,463.4,252.7,461.6"/>
<path class="st5" d="M449.7,420.4v-35.3h-12.6v83.7h2.6c2.1-9.8,10.9-17.3,21.4-17.3c10.5,0,19.3,7.4,21.4,17.3h13.9v-8.1h-0.1
	c-7.6,0-13.8-6.2-13.8-13.8c0-7.6,6.2-13.8,13.8-13.8h0.1V425h-42C451.8,425,449.7,423,449.7,420.4"/>
<path class="st5" d="M449.7,420.4v-35.3h-12.6v83.7h2.6c2.1-9.8,10.9-17.3,21.4-17.3c10.5,0,19.3,7.4,21.4,17.3h13.9v-8.1h-0.1
	c-7.6,0-13.8-6.2-13.8-13.8c0-7.6,6.2-13.8,13.8-13.8h0.1V425h-42C451.8,425,449.7,423,449.7,420.4"/>
<path class="st4" d="M461.1,460.7c-7,0-12.7,5.7-12.7,12.7c0,7,5.7,12.7,12.7,12.7c7,0,12.7-5.7,12.7-12.7
	C473.8,466.4,468.1,460.7,461.1,460.7"/>
<path class="st6" d="M491.6,446.9c0,2.6,2.1,4.7,4.7,4.7h0.1v-9.2h-0.2C493.7,442.3,491.6,444.4,491.6,446.9"/>
<path class="st3" d="M427.9,468.9v-7.1h-10.5H266.6c1.3,2.2,2.4,4.5,2.9,7.1H427.9z"/>
<polygon class="st4" points="484.1,385.1 458.9,385.1 458.9,415.8 494.5,415.8 "/>
<path class="st7" d="M496.4,433.1h-0.1c-7.6,0-13.8,6.2-13.8,13.8c0,7.6,6.2,13.8,13.8,13.8h0.1v8.1h-13.9
	c-2.1-9.9-10.9-17.3-21.4-17.3c-10.5,0-19.3,7.4-21.4,17.3h-2.6v-83.7h12.6v35.3c0,2.5,2,4.6,4.6,4.6h42V433.1z M496.4,451.5h-0.1
	c-2.6,0-4.7-2.1-4.7-4.7c0-2.6,2.1-4.7,4.7-4.7h0.1V451.5z M461.1,486.1c-7,0-12.7-5.7-12.7-12.7c0-7,5.7-12.7,12.7-12.7
	c7,0,12.7,5.7,12.7,12.7C473.8,480.5,468.1,486.1,461.1,486.1 M265.9,486.1c1.7-2.4,3-5.1,3.6-8.1h163h7.2c0.6,3,1.9,5.7,3.6,8.1
	H265.9z M248.2,486.1c-7,0-12.7-5.7-12.7-12.7c0-7,5.7-12.7,12.7-12.7c1.4,0,2.8,0.2,4,0.7c0.1,0.1,0.3,0.1,0.5,0.2
	c4.8,1.8,8.2,6.5,8.2,11.9C260.8,480.5,255.2,486.1,248.2,486.1 M417.4,461.8h10.5v7.1H269.5c-0.5-2.6-1.6-4.9-2.9-7.1H417.4z
	 M458.9,385.1h25.2l10.4,30.7h-35.6V385.1z M226.8,468.9h-19.2v-7.1h22.1C228.3,463.9,227.3,466.3,226.8,468.9 M505.5,420v-0.1
	c0-0.1,0-0.2-0.1-0.3c0-0.1,0-0.1-0.1-0.2c0-0.1-0.1-0.1-0.1-0.2s0-0.1-0.1-0.2v-0.1l-13.6-39.9c-0.6-1.9-2.4-3.1-4.3-3.1h-54.9
	c-2.5,0-4.6,2-4.6,4.6v72h-3.1H422h-9.2H254.8h-13.3h-33.9h-9.2v20.8c0,2.5,2,4.6,4.6,4.6h23.7c0.6,3,1.9,5.7,3.6,8.1h-15.7h-9.6
	c-2.5,0-4.6,2-4.6,4.6c0,2.5,2,4.6,4.6,4.6h9.6h286.2c2.5,0,4.6-2,4.6-4.6c0-2.5-2-4.6-4.6-4.6h-22.1c1.7-2.4,3-5.1,3.6-8.1h18.5
	c2.5,0,4.6-2,4.6-4.6v-17.3v-18.4v-17.3V420z"/>
<rect x="190.3" y="288.8" class="st8" width="64.8" height="10.8"/>
<rect x="168.8" y="288.8" class="st8" width="10.8" height="10.8"/>
<polygon class="st9" points="384.6,356.1 238.4,356.1 219.4,356.1 211.8,356.1 211.8,436.4 411.2,436.4 411.2,356.1 403.5,356.1 "/>
<polygon class="st10" points="384.6,356.1 211.8,436.4 411.2,436.4 411.2,356.1 403.5,356.1 "/>
<rect x="228.1" y="365.6" class="st11" width="11.7" height="62"/>
<rect x="258.7" y="365.6" class="st11" width="11.7" height="62"/>
<rect x="289.3" y="365.6" class="st11" width="11.7" height="62"/>
<rect x="319.9" y="365.6" class="st11" width="11.7" height="62"/>
<rect x="350.4" y="365.6" class="st11" width="11.7" height="62"/>
<rect x="381" y="365.6" class="st11" width="11.7" height="62"/>
<path class="st11" d="M411.2,436.4H211.8v-80.3h7.7h19h146.2h19h7.7v80.3H411.2z M396.7,344.4h-5.3H379H244h-12.5h-5.3h-12.5h-7.9
	c-3.2,0-5.9,2.6-5.9,5.9v92c0,3.2,2.6,5.9,5.9,5.9H417c3.2,0,5.9-2.6,5.9-5.9v-92.1c0-3.2-2.6-5.9-5.9-5.9h-7.9L396.7,344.4
	L396.7,344.4z"/>
<path class="st12" d="M411.2,436.4H211.8v-80.3h7.7h19h146.2h19h7.7v80.3H411.2z M396.7,344.4h-5.3H379H244h-12.5h-5.3h-12.5h-7.9
	c-3.2,0-5.9,2.6-5.9,5.9v92c0,3.2,2.6,5.9,5.9,5.9H417c3.2,0,5.9-2.6,5.9-5.9v-92.1c0-3.2-2.6-5.9-5.9-5.9h-7.9L396.7,344.4
	L396.7,344.4z"/>
<path class="st13" d="M437.1,468.9h2.6c2.1-9.8,10.9-17.3,21.4-17.3c10.5,0,19.3,7.4,21.4,17.3h13.9v-8.1h-0.1
	c-7.6,0-13.8-6.2-13.8-13.8c0-7.6,6.2-13.8,13.8-13.8h0.1v-8.1l-59.2,23.5V468.9z"/>
<path class="st9" d="M271.3,217.3v-24.4l-54-6.1c0-0.7-0.6-1.3-1.3-1.3h-37.3h-37.3c-0.7,0-1.3,0.6-1.3,1.3v36.4v37.7h38.6h38.6
	h51.9l2.1-24.1C282.9,240.8,272.9,217.3,271.3,217.3"/>
<rect x="183" y="193.1" class="st11" width="38.6" height="18.8"/>
<rect x="228.5" y="243.1" class="st11" width="38.6" height="18.8"/>
<rect x="34.2" y="196.2" class="st14" width="57.7" height="42.1"/>
<rect x="57.4" y="196.2" class="st15" width="32.2" height="42.1"/>
<path class="st3" d="M115.9,267.9l-11.4-15.3c0,4.1-7.3-6.4-11.4-6.4l-67.5,2.7c-2,0-3.5,1.8-3.1,3.8c2.3,10.8,7.8,25.2,20.9,39.7
	c2.5,2.7,3,6.7,1.4,10l-1.5,11.4c-1.2,2.5-0.3,8.1,2.3,8.1l219.4,0.5c1.4,0,2.7-0.8,3.3-2.1l15.8-51.1c-22.2,32.7-0.7-2.3-3.4-2.3
	l-16.2,0.6C260.3,267.3,115.9,263.7,115.9,267.9"/>
<path class="st16" d="M281.1,262.1h-29.2l-20.7,46.8h32.7c1.4,0,2.7-0.8,3.3-2.1l17.3-39.4C285.6,264.9,283.8,262.1,281.1,262.1"/>
<rect x="137.5" y="218.1" class="st11" width="38.6" height="18.8"/>
<path class="st17" d="M43.9,296.1c0.3,1.9,0.1,3.9-0.7,5.7l2.3,14.7c-1.2,2.5,9.4,4.1,0,5.3h217.8c1.4,0,2.7-0.8,3.3-2.1l11-23.6
	H43.9z"/>
<path class="st18" d="M236.3,296.1l-12.1,25.7h32.7c0.2,0,0.3,0,0.5-0.1c0.3-0.1,0.7-0.2,1-0.3c0.3-0.1,0.6-0.3,0.9-0.6
	c0.4-0.3,0.7-0.7,1-1.3l11-23.6L236.3,296.1L236.3,296.1z"/>
<path class="st7" d="M94.9,250.6l14,20.5h168.6L257,316.5H53.7l-28.6-65.9H94.9z M264.4,258.9h-33.3v-12.8h33.3V258.9z M264.4,234
	h-33.3v-12.8h33.3V234z M264.4,209h-33.3v-12.8h33.3V209z M218.9,258.9h-33.3v-12.8h33.3V258.9z M218.9,234h-33.3v-12.8h33.3V234z
	 M218.9,209h-33.3v-12.8h33.3V209z M173.5,258.9h-33.3v-12.8h33.3V258.9z M173.5,234h-33.3v-12.8h33.3V234z M173.5,209h-33.3v-12.8
	h33.3V209z M82.5,238.4H40.3v-40.5c0-1,0.8-1.8,1.8-1.8h40.4V238.4z M28.1,238.4H6.5l39.1,90.2h219.4l31.5-69.7h-19.7V184H128v74.9
	h-12.7l-14-20.5h-6.6V184H68.8v-37.7H56.6V184H42c-7.7,0-14,6.3-14,14V238.4z"/>
<path class="st19" d="M264.4,258.9h-33.3v-12.8h33.3V258.9z M264.4,234h-33.3v-12.8h33.3V234z M264.4,209h-33.3v-12.8h33.3V209z
	 M218.9,258.9h-33.3v-12.8h33.3V258.9z M218.9,234h-33.3v-12.8h33.3V234z M218.9,209h-33.3v-12.8h33.3V209z M173.5,258.9h-33.3
	v-12.8h33.3V258.9z M173.5,234h-33.3v-12.8h33.3V234z M173.5,209h-33.3v-12.8h33.3V209z M82.5,238.4H40.3v-40.5c0-1,0.8-1.8,1.8-1.8
	h40.4V238.4z"/>
<g>
	<path class="st0" d="M52.5,340.3c2.8-3.1,7.6-3.4,10.7-0.6l7.5,6.7c3.1,2.8,3.4,7.6,0.6,10.7c-2.8,3.1-7.6,3.4-10.7,0.6l-7.5-6.7
		c-0.8-0.7-1.4-1.6-1.8-2.5C50.1,345.9,50.5,342.6,52.5,340.3z M82.5,367.2c2.8-3.1,7.6-3.4,10.7-0.6l7.5,6.7
		c3.1,2.8,3.4,7.6,0.6,10.7c-2.8,3.1-7.6,3.4-10.7,0.6l-7.5-6.7c-0.8-0.7-1.4-1.6-1.8-2.5C80.1,372.7,80.4,369.5,82.5,367.2z
		 M112.5,394c2.8-3.1,7.6-3.4,10.7-0.6l7.5,6.7c3.1,2.8,3.4,7.6,0.6,10.7s-7.6,3.4-10.7,0.6l-7.5-6.7c-0.8-0.7-1.4-1.6-1.8-2.5
		C110,399.6,110.4,396.3,112.5,394z M142.5,420.9c2.8-3.1,7.6-3.4,10.7-0.6l7.5,6.7c3.1,2.8,3.4,7.6,0.6,10.7
		c-2.8,3.1-7.6,3.4-10.7,0.6l-7.5-6.7c-0.8-0.7-1.4-1.6-1.8-2.5C140,426.4,140.4,423.2,142.5,420.9z M172.5,447.7
		c2.8-3.1,7.6-3.4,10.7-0.6l7.5,6.7c3.1,2.8,3.4,7.6,0.6,10.7c-2.8,3.1-7.6,3.4-10.7,0.6l-7.5-6.7c-0.8-0.7-1.4-1.6-1.8-2.5
		C170,453.2,170.4,450,172.5,447.7z"/>
</g>
</svg>
