<?xml version="1.0" encoding="utf-8"?>
<!-- Generator: Adobe Illustrator 27.3.0, SVG Export Plug-In . SVG Version: 6.00 Build 0)  -->
<svg version="1.1" id="Layer_1" xmlns="http://www.w3.org/2000/svg" xmlns:xlink="http://www.w3.org/1999/xlink" x="0px" y="0px"
	 viewBox="0 0 512 512" style="enable-background:new 0 0 512 512;" xml:space="preserve">
<style type="text/css">
	.st0{fill:none;}
	.st1{fill:#FF4C4C;}
	.st2{fill:#A6A8AB;}
	.st3{fill:#00ADEE;}
	.st4{fill:#F6921E;}
	.st5{fill:#12284C;}
	.st6{fill:#C2DFF6;}
	.st7{fill:#FFC06C;}
	.st8{fill:#EDB26B;}
	.st9{fill:#D38742;}
	.st10{fill:#D38742;stroke:#FFFFFF;stroke-width:5;stroke-miterlimit:10;}
	.st11{fill:#069BC9;}
</style>
<g>
	<path class="st0" d="M371.6,334.4H130c-0.9,4.4-2.8,8.5-5.3,12h262.9c-2.5-3.5-4.4-7.6-5.3-12H371.6z"/>
	<path class="st1" d="M38.2,320.8h28.4c0.8-3.8,2.3-7.3,4.3-10.5H38.2V320.8z"/>
	<path class="st2" d="M105,310c-0.2-0.1-0.5-0.2-0.7-0.3c-1.9-0.6-3.9-1-6-1c-10.4,0-18.8,8.4-18.8,18.8c0,10.4,8.5,18.8,18.8,18.8
		c10.4,0,18.8-8.4,18.8-18.8C117.1,319.6,112.1,312.7,105,310z"/>
	<path class="st3" d="M397.1,249v-52.3h-18.7v124h3.8c3.1-14.6,16.2-25.6,31.7-25.6c15.6,0,28.6,11,31.7,25.6h20.6v-12H466
		c-11.3,0-20.4-9.2-20.4-20.5c0-11.3,9.2-20.4,20.4-20.4h0.2v-12h-62.3C400.1,255.8,397.1,252.8,397.1,249z"/>
	<path class="st3" d="M397.1,249v-52.3h-18.7v124h3.8c3.1-14.6,16.2-25.6,31.7-25.6c15.6,0,28.6,11,31.7,25.6h20.6v-12H466
		c-11.3,0-20.4-9.2-20.4-20.5c0-11.3,9.2-20.4,20.4-20.4h0.2v-12h-62.3C400.1,255.8,397.1,252.8,397.1,249z"/>
	<path class="st2" d="M413.9,308.7c-10.4,0-18.8,8.4-18.8,18.8c0,10.4,8.4,18.8,18.8,18.8c10.4,0,18.8-8.4,18.8-18.8
		C432.7,317.2,424.3,308.7,413.9,308.7z"/>
	<path class="st4" d="M459.2,288.3c0,3.8,3.1,6.9,6.9,6.9h0.2v-13.7H466C462.2,281.4,459.2,284.5,459.2,288.3z"/>
	<path class="st1" d="M364.8,320.8v-10.5h-15.6H125.7c2,3.2,3.5,6.7,4.3,10.5H364.8z"/>
	<polygon class="st2" points="448.1,196.7 410.7,196.7 410.7,242.2 463.5,242.2 	"/>
	<path class="st5" d="M479.8,248.4c0-0.1,0-0.1,0-0.2c0-0.1,0-0.3-0.1-0.4c0-0.1,0-0.2-0.1-0.3c0-0.1-0.1-0.2-0.1-0.3
		c0-0.1,0-0.2-0.1-0.3c0,0,0-0.1,0-0.1l-20.1-59.1c-0.9-2.8-3.5-4.6-6.4-4.6h-81.4c-3.7,0-6.8,3-6.8,6.8v106.7h-4.6H356h-13.6H108.1
		H88.4H38.2H24.6v30.9c0,3.7,3,6.8,6.8,6.8h35.2c0.9,4.4,2.8,8.5,5.3,12H48.7H34.5c-3.7,0-6.8,3-6.8,6.8c0,3.7,3,6.8,6.8,6.8h14.2
		H473c3.7,0,6.8-3,6.8-6.8c0-3.7-3-6.8-6.8-6.8h-32.7c2.5-3.5,4.4-7.6,5.3-12H473c3.7,0,6.8-3,6.8-6.8v-25.6v-27.3V249
		C479.8,248.8,479.8,248.6,479.8,248.4z M66.6,320.8H38.2v-10.5h32.7C68.9,313.4,67.4,317,66.6,320.8z M410.7,196.7h37.4l15.4,45.5
		h-52.8V196.7z M349.2,310.3h15.6v10.5H130c-0.8-3.8-2.3-7.3-4.3-10.5H349.2z M98.3,346.4c-10.4,0-18.8-8.4-18.8-18.8
		c0-10.4,8.5-18.8,18.8-18.8c2.1,0,4.1,0.3,6,1c0.2,0.1,0.5,0.2,0.7,0.3c7.1,2.7,12.1,9.6,12.1,17.6
		C117.1,338,108.7,346.4,98.3,346.4z M124.6,346.4c2.5-3.5,4.4-7.6,5.3-12h241.6h10.6c0.9,4.4,2.8,8.5,5.3,12H124.6z M413.9,346.4
		c-10.4,0-18.8-8.4-18.8-18.8c0-10.4,8.4-18.8,18.8-18.8c10.4,0,18.8,8.4,18.8,18.8C432.7,338,424.3,346.4,413.9,346.4z
		 M466.2,295.1H466c-3.8,0-6.9-3.1-6.9-6.9c0-3.8,3.1-6.9,6.9-6.9h0.2V295.1z M466.2,267.8H466c-11.3,0-20.4,9.2-20.4,20.4
		c0,11.3,9.2,20.5,20.4,20.5h0.2v12h-20.6c-3.1-14.6-16.2-25.6-31.7-25.6c-15.5,0-28.6,11-31.7,25.6h-3.8v-124h18.7V249
		c0,3.7,3,6.8,6.8,6.8h62.3V267.8z"/>
</g>
<g id="Container-Delivery-Logistics-Truck-Transport_00000029750279751630345030000013097573502084453281_">
	<path class="st6" d="M97.9,103.7h96v16h-96V103.7z"/>
	<path class="st6" d="M65.9,71.7h96v16h-96V71.7z"/>
	<path class="st6" d="M33.9,71.7h16v16h-16V71.7z"/>
</g>
<path class="st7" d="M300.5,153.6H83.8H55.7H44.4v119.1h295.6V153.6h-11.4H300.5z"/>
<path class="st8" d="M300.5,153.6L44.4,272.7h295.6V153.6h-11.4H300.5z"/>
<rect x="68.6" y="167.8" class="st9" width="17.3" height="91.9"/>
<rect x="113.9" y="167.8" class="st9" width="17.3" height="91.9"/>
<rect x="159.3" y="167.8" class="st9" width="17.3" height="91.9"/>
<rect x="204.6" y="167.8" class="st9" width="17.3" height="91.9"/>
<rect x="249.9" y="167.8" class="st9" width="17.3" height="91.9"/>
<rect x="295.2" y="167.8" class="st9" width="17.3" height="91.9"/>
<g>
	<polygon class="st0" points="300.5,153.6 83.8,153.6 55.7,153.6 44.4,153.6 44.4,272.7 339.9,272.7 339.9,153.6 328.6,153.6 	"/>
	<path class="st10" d="M318.5,136.3h-7.8h-18.5h-200H73.7h-7.8H47.4H35.7c-4.8,0-8.7,3.9-8.7,8.7v136.4c0,4.8,3.9,8.7,8.7,8.7h312.9
		c4.8,0,8.7-3.9,8.7-8.7V144.9c0-4.8-3.9-8.7-8.7-8.7h-11.7H318.5z M339.9,272.7H44.4V153.6h11.4h28.1h216.7h28.1h11.4V272.7z"/>
</g>
<path class="st11" d="M378.4,320.8h3.8c3.1-14.6,16.2-25.6,31.7-25.6c15.6,0,28.6,11,31.7,25.6h20.6v-12H466
	c-11.3,0-20.4-9.2-20.4-20.5c0-11.3,9.2-20.4,20.4-20.4h0.2v-12l-87.8,34.8V320.8z"/>
</svg>
