<?xml version="1.0" encoding="utf-8"?>
<!-- Generator: Adobe Illustrator 27.3.0, SVG Export Plug-In . SVG Version: 6.00 Build 0)  -->
<svg version="1.1" id="Layer_1" xmlns="http://www.w3.org/2000/svg" xmlns:xlink="http://www.w3.org/1999/xlink" x="0px" y="0px"
	 viewBox="0 0 512 512" style="enable-background:new 0 0 512 512;" xml:space="preserve">
<style type="text/css">
	.st0{fill:#4FC3CB;}
	.st1{fill:#07B4C0;}
	.st2{fill:#F7E2C9;}
	.st3{fill:#FFFFFF;}
	.st4{fill:#17562C;}
	.st5{fill:#25B04B;}
	.st6{fill:#102A4C;}
	.st7{fill:#17578E;}
</style>
<path class="st0" d="M507.5,270.4v0.7c-30.2,27.6-70.4,44.4-114.5,44.4s-84.3-16.8-114.5-44.4v-0.7c0-49.2,31.2-91.3,74.9-107.4
	c12.3-4.6,25.7-7.1,39.6-7.1s27.2,2.5,39.6,7.1C476.3,179.1,507.5,221.2,507.5,270.4z"/>
<path class="st1" d="M507.5,270.4v0.7c-30.2,27.6-70.4,44.4-114.5,44.4V155.9c13.9,0,27.2,2.5,39.6,7.1
	C476.3,179.1,507.5,221.2,507.5,270.4z"/>
<path class="st2" d="M451.1,92.9c0,32-26,58.1-58.1,58.1c-32,0-58.1-26.1-58.1-58.1S361,34.8,393,34.8
	C425.1,34.8,451.1,60.8,451.1,92.9z"/>
<rect x="411.2" y="197" class="st3" width="45.2" height="27.1"/>
<circle class="st3" cx="393" cy="191.7" r="4.6"/>
<circle class="st3" cx="393" cy="224.1" r="4.6"/>
<circle class="st3" cx="393" cy="256.5" r="4.6"/>
<circle class="st3" cx="393" cy="288.9" r="4.6"/>
<path class="st4" d="M233.4,269.9v0.7c-30.2,27.6-70.4,44.4-114.5,44.4S34.7,298.1,4.5,270.6v-0.7c0-49.2,31.2-91.3,74.9-107.4
	c12.3-4.6,25.7-7.1,39.6-7.1s27.2,2.5,39.6,7.1C202.2,178.6,233.4,220.7,233.4,269.9z"/>
<path class="st5" d="M233.4,269.9v0.7c-30.2,27.6-70.4,44.4-114.5,44.4V155.4c13.9,0,27.2,2.5,39.6,7.1
	C202.2,178.6,233.4,220.7,233.4,269.9z"/>
<path class="st2" d="M177,92.4c0,32-26,58.1-58.1,58.1c-32,0-58.1-26.1-58.1-58.1S86.9,34.3,119,34.3C151,34.3,177,60.4,177,92.4z"
	/>
<rect x="137.1" y="196.6" class="st3" width="45.2" height="27.1"/>
<circle class="st3" cx="119" cy="191.2" r="4.6"/>
<circle class="st3" cx="119" cy="223.6" r="4.6"/>
<circle class="st3" cx="119" cy="256" r="4.6"/>
<circle class="st3" cx="119" cy="288.4" r="4.6"/>
<path class="st6" d="M419.2,420.7v1c-42.6,38.9-99.4,62.6-161.6,62.6s-119-23.7-161.6-62.6v-1c0-69.5,44.1-128.9,105.7-151.6
	c17.4-6.4,36.2-10,55.9-10s38.5,3.5,55.9,10C375.1,291.9,419.2,351.3,419.2,420.7z"/>
<path class="st7" d="M419.2,420.7v1c-42.6,38.9-99.4,62.6-161.6,62.6V259.1c19.6,0,38.5,3.5,55.9,10
	C375.1,291.9,419.2,351.3,419.2,420.7z"/>
<path class="st2" d="M339.6,170.1c0,45.2-36.8,82-82,82c-45.2,0-82-36.8-82-82s36.8-82,82-82C302.8,88.1,339.6,124.9,339.6,170.1z"
	/>
<rect x="283.2" y="317.2" class="st3" width="63.8" height="38.2"/>
<circle class="st3" cx="257.6" cy="309.7" r="6.6"/>
<circle class="st3" cx="257.6" cy="355.4" r="6.6"/>
<circle class="st3" cx="257.6" cy="401.1" r="6.6"/>
</svg>
