<?xml version="1.0" encoding="utf-8"?>
<!-- Generator: Adobe Illustrator 27.3.0, SVG Export Plug-In . SVG Version: 6.00 Build 0)  -->
<svg version="1.1" id="Layer_1" xmlns="http://www.w3.org/2000/svg" xmlns:xlink="http://www.w3.org/1999/xlink" x="0px" y="0px"
	 viewBox="0 0 512 512" style="enable-background:new 0 0 512 512;" xml:space="preserve">
<style type="text/css">
	.st0{fill:#4FC3CB;}
	.st1{fill:#07B2BF;}
	.st2{fill:#102A4C;}
	.st3{fill:#17578E;}
	.st4{fill:#F7E2C9;}
	.st5{fill:#FFFFFF;}
</style>
<path class="st0" d="M506,256c0,73.2-31.4,139-81.5,184.7C380,481.3,320.9,506,256,506s-124-24.7-168.5-65.3C37.4,395,6,329.2,6,256
	C6,117.9,117.9,6,256,6S506,117.9,506,256z"/>
<path class="st1" d="M506,256c0,73.2-31.4,139-81.5,184.7C380,481.3,320.9,506,256,506V6C394.1,6,506,117.9,506,256z"/>
<path class="st2" d="M424.5,439.7v1C380,481.3,320.9,506,256,506s-124-24.7-168.5-65.3v-1c0-72.4,45.9-134.3,110.2-158.1
	c18.2-6.7,37.8-10.4,58.3-10.4s40.1,3.7,58.3,10.4C378.5,305.4,424.5,367.3,424.5,439.7z"/>
<path class="st3" d="M424.5,439.7v1C380,481.3,320.9,506,256,506V271.3c20.5,0,40.1,3.7,58.3,10.4
	C378.5,305.4,424.5,367.3,424.5,439.7z"/>
<path class="st4" d="M341.5,178.5c0,47.1-38.3,85.5-85.5,85.5c-47.1,0-85.5-38.3-85.5-85.5S208.9,93,256,93
	C303.1,93,341.5,131.4,341.5,178.5z"/>
<rect x="282.7" y="331.8" class="st5" width="66.5" height="39.8"/>
<circle class="st5" cx="256" cy="324" r="6.8"/>
<circle class="st5" cx="256" cy="371.6" r="6.8"/>
<circle class="st5" cx="256" cy="419.3" r="6.8"/>
<circle class="st5" cx="256" cy="467" r="6.8"/>
</svg>
